<svg width="128" height="128" viewBox="0 0 128 128" fill="none" xmlns="http://www.w3.org/2000/svg">
<path d="M128 64C128 99.3462 99.3462 128 64 128C28.6538 128 0 99.3462 0 64C0 28.6538 28.6538 0 64 0C99.3462 0 128 28.6538 128 64ZM11.6242 64C11.6242 92.9263 35.0737 116.376 64 116.376C92.9263 116.376 116.376 92.9263 116.376 64C116.376 35.0737 92.9263 11.6242 64 11.6242C35.0737 11.6242 11.6242 35.0737 11.6242 64Z" fill="#E5E7EB"/>
<path d="M78.7838 120.278C79.5994 123.383 82.7894 125.264 85.8073 124.17C91.8631 121.975 97.5637 118.875 102.711 114.965C109.404 109.882 115.03 103.53 119.268 96.2718C123.506 89.014 126.273 80.9924 127.411 72.6652C128.286 66.2612 128.184 59.7729 127.119 53.4202C126.589 50.2544 123.383 48.4006 120.278 49.2161C117.174 50.0317 115.352 53.2087 115.819 56.3846C116.534 61.2494 116.562 66.2004 115.893 71.0914C114.962 77.9061 112.698 84.4707 109.23 90.4103C105.761 96.35 101.157 101.548 95.6798 105.709C91.7488 108.694 87.4233 111.104 82.8352 112.872C79.84 114.026 77.9683 117.174 78.7838 120.278Z" fill="black"/>
</svg>
