<svg width="128" height="128" viewBox="0 0 128 128" fill="none" xmlns="http://www.w3.org/2000/svg">
<path d="M128 64C128 99.3462 99.3462 128 64 128C28.6538 128 0 99.3462 0 64C0 28.6538 28.6538 0 64 0C99.3462 0 128 28.6538 128 64ZM11.6242 64C11.6242 92.9263 35.0737 116.376 64 116.376C92.9263 116.376 116.376 92.9263 116.376 64C116.376 35.0737 92.9263 11.6242 64 11.6242C35.0737 11.6242 11.6242 35.0737 11.6242 64Z" fill="#E5E7EB"/>
<path d="M49.2158 7.72152C48.4002 4.61691 45.2102 2.73612 42.1924 3.82987C36.1365 6.02469 30.4359 9.12509 25.2888 13.0346C18.5959 18.1182 12.9699 24.4702 8.73188 31.7281C4.49387 38.986 1.72691 47.0075 0.588965 55.3347C-0.286164 61.7387 -0.184657 68.2271 0.880156 74.5798C1.41079 77.7456 4.61654 79.5994 7.72115 78.7838C10.8258 77.9683 12.6472 74.7912 12.1805 71.6154C11.4655 66.7506 11.4378 61.7995 12.1062 56.9086C13.0374 50.0938 15.3018 43.5292 18.7701 37.5896C22.2384 31.65 26.8426 26.4516 32.3198 22.2914C36.2508 19.3056 40.5763 16.8964 45.1644 15.1282C48.1596 13.9738 50.0313 10.8261 49.2158 7.72152Z" fill="black"/>
</svg>
