<svg width="128" height="128" viewBox="0 0 128 128" fill="none" xmlns="http://www.w3.org/2000/svg">
<path d="M128 64C128 99.3462 99.3462 128 64 128C28.6538 128 0 99.3462 0 64C0 28.6538 28.6538 0 64 0C99.3462 0 128 28.6538 128 64ZM11.6242 64C11.6242 92.9263 35.0737 116.376 64 116.376C92.9263 116.376 116.376 92.9263 116.376 64C116.376 35.0737 92.9263 11.6242 64 11.6242C35.0737 11.6242 11.6242 35.0737 11.6242 64Z" fill="#E5E7EB"/>
<path d="M7.72115 78.784C4.61654 79.5995 2.73576 82.7895 3.82951 85.8074C6.02432 91.8633 9.12473 97.5638 13.0342 102.711C18.1178 109.404 24.4699 115.03 31.7277 119.268C38.9856 123.506 47.0071 126.273 55.3344 127.411C61.7384 128.286 68.2267 128.184 74.5794 127.12C77.7452 126.589 79.599 123.383 78.7835 120.279C77.9679 117.174 74.7909 115.353 71.615 115.819C66.7502 116.534 61.7991 116.562 56.9082 115.894C50.0935 114.962 43.5289 112.698 37.5892 109.23C31.6496 105.761 26.4513 101.157 22.291 95.68C19.3052 91.7489 16.8961 87.4235 15.1278 82.8353C13.9735 79.8401 10.8258 77.9684 7.72115 78.784Z" fill="black"/>
</svg>
