<svg width="128" height="128" viewBox="0 0 128 128" fill="none" xmlns="http://www.w3.org/2000/svg">
<path d="M128 64C128 99.3462 99.3462 128 64 128C28.6538 128 0 99.3462 0 64C0 28.6538 28.6538 0 64 0C99.3462 0 128 28.6538 128 64ZM11.6242 64C11.6242 92.9263 35.0737 116.376 64 116.376C92.9263 116.376 116.376 92.9263 116.376 64C116.376 35.0737 92.9263 11.6242 64 11.6242C35.0737 11.6242 11.6242 35.0737 11.6242 64Z" fill="#E5E7EB"/>
<path d="M120.278 49.2162C123.383 48.4006 125.264 45.2106 124.17 42.1927C121.975 36.1369 118.875 30.4363 114.965 25.2892C109.882 18.5963 103.53 12.9702 96.2719 8.73224C89.014 4.49424 80.9925 1.72727 72.6653 0.589332C66.2613 -0.285798 59.7729 -0.184291 53.4202 0.880522C50.2544 1.41115 48.4006 4.61691 49.2162 7.72152C50.0317 10.8261 53.2088 12.6476 56.3846 12.1808C61.2494 11.4659 66.2005 11.4382 71.0914 12.1065C77.9062 13.0378 84.4708 15.3022 90.4104 18.7705C96.35 22.2387 101.548 26.8429 105.709 32.3202C108.694 36.2512 111.104 40.5767 112.872 45.1648C114.026 48.16 117.174 50.0317 120.278 49.2162Z" fill="black"/>
</svg>
