<svg xmlns="http://www.w3.org/2000/svg" width="18" height="18" viewBox="0 0 18 18" fill="none"><g clip-path="url(#clip0_300_5691)"><path fill-rule="evenodd" clip-rule="evenodd" d="M17.6639 17.9095L8.83203 9.02313L17.6639 0.136719V17.9095Z" fill="#FF4E7A"></path><path fill-rule="evenodd" clip-rule="evenodd" d="M17.6639 17.9098L8.83203 9.02344H17.6639V17.9098Z" fill="#FF3366"></path><mask id="mask0_300_5691" style="mask-type:alpha" maskUnits="userSpaceOnUse" x="0" y="0" width="18" height="10"><path d="M0 0.136719H17.6636V9.02313H0V0.136719Z" fill="#FF4E7A"></path></mask><g mask="url(#mask0_300_5691)"><path fill-rule="evenodd" clip-rule="evenodd" d="M-0.00012207 0.136719L8.83172 9.02313L17.6636 0.136719H-0.00012207Z" fill="#FF4E7A"></path></g><mask id="mask1_300_5691" style="mask-type:alpha" maskUnits="userSpaceOnUse" x="0" y="0" width="9" height="10"><path d="M0 0.136719H8.83178V9.02313H0V0.136719Z" fill="#FF3366"></path></mask><g mask="url(#mask1_300_5691)"><path fill-rule="evenodd" clip-rule="evenodd" d="M-0.00012207 0.136719L8.83172 9.02313V0.136719H-0.00012207Z" fill="#FF3366"></path></g><path fill-rule="evenodd" clip-rule="evenodd" d="M5.75586 12.1186H11.9082L8.8319 9.02344L5.75586 12.1186Z" fill="#E72364"></path><path fill-rule="evenodd" clip-rule="evenodd" d="M5.75586 12.1186H10.2175L8.8319 9.02344L5.75586 12.1186Z" fill="#E72364"></path><path fill-rule="evenodd" clip-rule="evenodd" d="M5.75574 12.1181L8.83178 9.02292L5.75574 5.92773V12.1181Z" fill="#E72364"></path><path fill-rule="evenodd" clip-rule="evenodd" d="M5.75586 12.118L8.8319 9.02278L5.75586 7.92969V12.118Z" fill="#E72364"></path></g><defs><clipPath id="clip0_300_5691"><rect width="18" height="18" fill="white"></rect></clipPath></defs></svg>