<svg width="334" height="240" viewBox="0 0 334 240" fill="none" xmlns="http://www.w3.org/2000/svg">
<path opacity="0.06" d="M-295.427 281.004L-296.56 263.526C-304.767 136.985 -174.229 48.0224 -59.4542 101.938L-42.9597 109.686C64.921 160.363 187.467 76.188 178.881 -42.6928L175.878 -84.2674C169.666 -170.282 249.74 -236.987 333.217 -215.339M-302.042 271.431L-303.175 253.953C-311.383 127.412 -180.844 38.4489 -66.0695 92.3641L-49.575 100.112C58.3057 150.789 180.851 66.6146 172.266 -52.2663L169.263 -93.8409C163.051 -179.856 243.124 -246.561 326.602 -224.912M-308.627 261.851L-309.761 244.373C-317.968 117.832 -187.43 28.8688 -72.6551 82.7841L-56.1606 90.5323C51.7201 141.209 174.266 57.0345 165.68 -61.8463L162.678 -103.421C156.466 -189.436 236.539 -256.141 320.016 -234.492M-315.184 252.262L-316.318 234.784C-324.525 108.243 -193.986 19.28 -79.2115 73.1952L-62.717 80.9435C45.1636 131.62 167.709 47.4456 159.124 -71.4352L156.121 -113.01C149.909 -199.025 229.982 -265.73 313.46 -244.081M-321.802 242.688L-322.936 225.211C-331.143 98.6692 -200.604 9.70655 -85.8297 63.6218L-69.3352 71.37C38.5455 122.047 161.091 37.8722 152.505 -81.0087L149.503 -122.583C143.291 -208.598 223.364 -275.303 306.842 -253.655M-328.391 233.112L-329.524 215.634C-337.732 89.0925 -207.193 0.129772 -92.4185 54.045L-75.924 61.7933C31.9567 112.47 154.502 28.2954 145.917 -90.5854L142.914 -132.16C136.702 -218.175 216.775 -284.88 300.253 -263.231M-334.948 223.532L-336.081 206.055C-344.288 79.5131 -213.75 -9.44951 -98.9753 44.4657L-82.4807 52.2139C25.3999 102.891 147.946 18.7161 139.36 -100.165L136.357 -141.739C130.145 -227.754 210.219 -294.459 293.696 -272.811M-341.559 213.952L-342.693 196.474C-350.9 69.933 -220.362 -19.0296 -105.587 34.8856L-89.0925 42.6339C18.7881 93.3107 141.334 9.13607 132.748 -109.745L129.746 -151.319C123.534 -237.334 203.607 -304.039 287.084 -282.391M-348.151 204.381L-349.285 186.903C-357.492 60.3618 -226.954 -28.6009 -112.179 25.3143L-95.6843 33.0626C12.1963 83.7393 134.742 -0.435249 126.156 -119.316L123.154 -160.891C116.942 -246.906 197.015 -313.611 280.492 -291.962M-354.74 194.802L-355.874 177.324C-364.081 50.7825 -233.542 -38.1802 -118.768 15.735L-102.273 23.4833C5.60743 74.16 128.153 -10.0145 119.567 -128.895L116.565 -170.47C110.353 -256.485 190.426 -323.19 273.904 -301.541M-361.32 185.222L-362.454 167.744C-370.661 41.2028 -240.123 -47.7599 -125.348 6.1553L-108.853 13.9036C-0.97261 64.5803 121.573 -19.5943 112.987 -138.475L109.985 -180.05C103.773 -266.065 183.846 -332.77 267.324 -311.121M-367.909 175.637L-369.043 158.159C-377.25 31.6176 -246.711 -57.345 -131.937 -3.42981L-115.442 4.31845C-7.56151 54.9952 114.984 -29.1794 106.398 -148.06L103.396 -189.635C97.184 -275.65 177.257 -342.355 260.735 -320.706M-374.498 166.06L-375.632 148.582C-383.839 22.0405 -253.3 -66.9222 -138.526 -13.007L-122.031 -5.2587C-14.1504 45.4181 108.395 -38.7565 99.8096 -157.637L96.8071 -199.212C90.5951 -285.227 170.668 -351.932 254.146 -330.283M-381.083 156.491L-382.217 139.013C-390.424 12.4721 -259.886 -76.4906 -145.111 -22.5753L-128.616 -14.8271C-20.7358 35.8497 101.81 -48.3249 93.2242 -167.206L90.2217 -208.78C84.0097 -294.795 164.083 -361.5 247.56 -339.852M-387.64 146.906L-388.774 129.429C-396.981 2.88714 -266.442 -86.0754 -151.668 -32.1602L-135.173 -24.412C-27.2925 26.2648 95.2531 -57.9097 86.6675 -176.791L83.665 -218.365C77.453 -304.38 157.526 -371.085 241.004 -349.436M-394.106 137.554L-395.24 120.076C-403.447 -6.46515 -272.909 -95.4278 -158.134 -41.5126L-141.64 -33.7643C-33.7589 16.9124 88.7868 -67.2622 80.2012 -186.143L77.1987 -227.718C70.9867 -313.732 151.06 -380.438 234.537 -358.789M-400.535 128.196L-401.668 110.719C-409.875 -15.8228 -279.337 -104.785 -164.562 -50.8702L-148.068 -43.122C-40.187 7.55478 82.3586 -76.6198 73.773 -195.501L70.7706 -237.075C64.5586 -323.09 144.632 -389.795 228.109 -368.147M-406.963 118.841L-408.096 101.363C-416.304 -25.1783 -285.765 -114.141 -170.99 -60.2257L-154.496 -52.4774C-46.6152 -1.80069 75.9304 -85.9753 67.3448 -204.856L64.3423 -246.431C58.1303 -332.446 138.203 -399.151 221.681 -377.502M-413.397 109.495L-414.531 92.0175C-422.738 -34.524 -292.2 -123.487 -177.425 -69.5714L-160.93 -61.8231C-53.0497 -11.1464 69.4959 -95.3209 60.9103 -214.202L57.9078 -255.776C51.6958 -341.791 131.769 -408.496 215.246 -386.848M-419.799 100.14L-420.933 82.662C-429.14 -43.8794 -298.602 -132.842 -183.827 -78.9268L-167.332 -71.1786C-59.4516 -20.5018 63.0941 -104.676 54.5084 -223.557L51.5059 -265.132C45.2939 -351.147 125.367 -417.852 208.845 -396.203M-426.257 90.8047L-427.39 73.327C-435.598 -53.2144 -305.059 -142.177 -190.284 -88.2619L-173.79 -80.5136C-65.9092 -29.8369 56.6365 -114.011 48.0508 -232.892L45.0483 -274.467C38.8363 -360.482 118.909 -427.187 202.387 -405.538M-432.691 81.4473L-433.824 63.9695C-442.032 -62.5718 -311.493 -151.535 -196.718 -97.6193L-180.224 -89.8711C-72.3432 -39.1943 50.2025 -123.369 41.6168 -242.25L38.6143 -283.824C32.4023 -369.839 112.475 -436.544 195.953 -414.896M-439.122 72.0919L-440.256 54.6141C-448.463 -71.9273 -317.924 -160.89 -203.15 -106.975L-186.655 -99.2265C-78.7744 -48.5497 43.7712 -132.724 35.1856 -251.605L32.1831 -293.18C25.9711 -379.195 106.044 -445.9 189.522 -424.251M-445.553 62.7344L-446.687 45.2567C-454.894 -81.2848 -324.355 -170.247 -209.581 -116.332L-193.086 -108.584C-85.2056 -57.9072 37.3401 -142.082 28.7544 -260.963L25.752 -302.537C19.5399 -388.552 99.6131 -455.257 183.091 -433.609M-451.984 53.3907L-453.118 35.9129C-461.325 -90.6285 -330.787 -179.591 -216.012 -125.676L-199.517 -117.928C-91.6367 -67.2509 30.909 -151.425 22.3233 -270.306L19.3208 -311.881C13.1088 -397.896 93.182 -464.601 176.659 -442.952M-458.416 44.0273L-459.549 26.5495C-467.756 -99.9919 -337.218 -188.955 -222.443 -135.039L-205.949 -127.291C-98.068 -76.6143 24.4777 -160.789 15.892 -279.67L12.8895 -321.244C6.67752 -407.259 86.7507 -473.964 170.228 -452.316M-464.844 34.6749L-465.977 17.1971C-474.184 -109.344 -343.646 -198.307 -228.871 -144.392L-212.377 -136.643C-104.496 -85.9667 18.0496 -170.141 9.46396 -289.022L6.46146 -330.597C0.249459 -416.612 80.3226 -483.317 163.8 -461.668M-471.275 25.3173L-472.409 7.83951C-480.616 -118.702 -350.077 -207.665 -235.303 -153.749L-218.808 -146.001C-110.927 -95.3243 11.6182 -179.499 3.03253 -298.38L0.0300598 -339.954C-6.18196 -425.969 73.8912 -492.674 157.369 -471.026M-477.709 15.9739L-478.843 -1.50385C-487.05 -128.045 -356.511 -217.008 -241.737 -163.093L-225.242 -155.344C-117.362 -104.668 5.18405 -188.842 -3.40158 -307.723L-6.40408 -349.298C-12.6161 -435.313 67.457 -502.018 150.935 -480.369" stroke="#3F83F8" stroke-width="2.29121"/>
</svg>
