<svg width="149" height="150" viewBox="0 0 149 150" fill="none" xmlns="http://www.w3.org/2000/svg">
<g opacity="0.8" clip-path="url(#clip0_5499_28974)">
<path d="M51.4173 18.9418C51.258 18.9418 51.1252 18.8149 51.1222 18.6526C51.0514 15.2152 50.5646 13.4183 47.7497 11.1994C47.6228 11.0991 47.5992 10.9132 47.6996 10.7863C47.7999 10.6595 47.9858 10.6359 48.1126 10.7362C51.0986 13.0908 51.6356 15.0765 51.7094 18.6408C51.7124 18.8031 51.5825 18.9388 51.4202 18.9418H51.4143H51.4173Z" fill="#D4D4D4"/>
<path d="M56.1676 21.0048C56.2974 19.5443 55.4978 17.9362 54.0963 17.5025C53.1551 17.2104 52.0692 17.529 51.4024 18.2431L51.4083 18.2372C50.3756 17.9864 49.2691 18.5234 48.6289 19.2256C47.9886 19.9278 47.7112 20.9458 47.906 21.8752C48.0446 22.5303 48.4017 23.1292 48.8708 23.6102C50.0038 24.7668 51.8303 25.1858 53.3557 24.6429C54.8812 24.097 56.026 22.6188 56.1706 21.0048H56.1676Z" fill="#F5F5F5"/>
<g opacity="0.4">
<path d="M50.8419 18.8672C50.06 18.9114 49.3165 19.4012 48.9624 20.1005C48.6113 20.8028 48.6614 21.6879 49.0952 22.343C49.3607 22.7472 50.2695 23.4524 50.2695 23.4524C50.2695 23.4524 51.3317 22.3902 51.3435 22.34C50.7062 22.101 50.2134 21.5109 50.0954 20.8382C49.9774 20.1684 50.24 19.4426 50.7593 19.0029" fill="white"/>
</g>
<path d="M100.769 35.6298C100.621 35.6298 100.494 35.5206 100.477 35.3701C100.067 31.912 101.005 30.2774 103.265 27.9228C103.377 27.8048 103.563 27.8018 103.681 27.914C103.799 28.0261 103.802 28.2149 103.69 28.33C101.521 30.5901 100.677 32.0595 101.061 35.2993C101.079 35.4616 100.964 35.6091 100.801 35.6268C100.789 35.6268 100.778 35.6268 100.766 35.6268L100.769 35.6298Z" fill="#D4D4D4"/>
<path d="M101.932 23.5352C100.905 24.3939 100.382 25.9488 101.008 27.135C101.427 27.9287 102.336 28.4273 103.227 28.3978H103.221C103.726 29.2269 104.788 29.5958 105.655 29.5544C106.523 29.5131 107.358 29.0381 107.833 28.3093C108.166 27.7959 108.323 27.1792 108.331 26.5685C108.346 25.0902 107.44 23.6385 106.104 23.0071C104.767 22.3727 103.07 22.5911 101.934 23.5382L101.932 23.5352Z" fill="#F5F5F5"/>
<g opacity="0.4">
<path d="M103.994 28.3533C104.528 28.8313 105.325 28.9936 106.003 28.7694C106.685 28.5451 107.222 27.9373 107.366 27.2351C107.455 26.8043 107.322 25.7598 107.322 25.7598C107.322 25.7598 105.95 25.7598 105.909 25.7863C106.166 26.3528 106.101 27.0521 105.744 27.5596C105.387 28.0671 104.749 28.3681 104.13 28.3179" fill="white"/>
</g>
<path d="M81.6843 7.4905C81.6047 7.4905 81.525 7.45805 81.466 7.39313C81.3568 7.27216 81.3657 7.08627 81.4866 6.9771C83.8058 4.87333 84.7529 3.46885 84.5966 0.208452C84.5877 0.0461701 84.7146 -0.0925085 84.8769 -0.10136C85.0362 -0.107261 85.1778 0.0166635 85.1867 0.178946C85.3549 3.65769 84.3015 5.2215 81.885 7.41379C81.8289 7.46395 81.7581 7.4905 81.6873 7.4905H81.6843Z" fill="#D4D4D4"/>
<path d="M82.9084 11.881C83.9943 11.0962 84.6227 9.58251 84.0798 8.35507C83.7169 7.53185 82.8465 6.97419 81.9554 6.94173H81.9613C81.5158 6.08016 80.4831 5.64052 79.6156 5.61987C78.7481 5.59922 77.8806 6.0182 77.3554 6.70864C76.9866 7.19548 76.786 7.80035 76.7388 8.41113C76.6207 9.88642 77.4233 11.3942 78.7127 12.12C80.0021 12.8459 81.7105 12.7485 82.9084 11.881Z" fill="#F5F5F5"/>
<g opacity="0.4">
<path d="M81.1853 6.92979C80.6837 6.41639 79.9018 6.19805 79.2084 6.37508C78.515 6.55212 77.9338 7.11863 77.742 7.80907C77.624 8.23395 77.683 9.28436 77.683 9.28436C77.683 9.28436 79.052 9.37878 79.0933 9.35813C78.875 8.77686 78.9901 8.08052 79.3796 7.59958C79.769 7.11863 80.427 6.86193 81.0407 6.95635" fill="white"/>
</g>
<path d="M24.7468 68.388C24.6495 68.388 24.5521 68.3378 24.496 68.2493C22.8378 65.5938 21.6192 64.4135 18.3824 63.9916C18.2201 63.9709 18.108 63.8234 18.1287 63.6611C18.1493 63.4988 18.2969 63.3838 18.4591 63.4074C21.9113 63.8588 23.2656 65.1689 24.9947 67.9365C25.0803 68.0752 25.039 68.2581 24.9003 68.3437C24.8531 68.3732 24.797 68.388 24.7439 68.388H24.7468Z" fill="#D4D4D4"/>
<path d="M29.5769 67.7204C28.9957 66.5136 27.6177 65.6255 26.3136 65.9412C25.4402 66.1536 24.735 66.909 24.5462 67.7824V67.7765C23.6197 68.0627 23.003 69.001 22.8289 69.8537C22.6548 70.7035 22.9145 71.6329 23.5017 72.2702C23.9147 72.7217 24.4754 73.0226 25.0684 73.179C26.4995 73.5567 28.1252 73.0315 29.0694 71.8925C30.0107 70.7507 30.2172 69.0541 29.5769 67.7204Z" fill="#F5F5F5"/>
<g opacity="0.4">
<path d="M24.3985 68.5391C23.8054 68.9403 23.4514 69.6721 23.5015 70.3861C23.5546 71.1002 24.009 71.7729 24.6552 72.0857C25.0506 72.2775 26.0951 72.4043 26.0951 72.4043C26.0951 72.4043 26.4315 71.0736 26.4167 71.0294C25.8059 71.1415 25.1421 70.9054 24.7378 70.4363C24.3336 69.9672 24.1979 69.2738 24.3985 68.6866" fill="white"/>
</g>
<path d="M130.275 87.9054C130.243 87.9054 130.213 87.8995 130.181 87.8907C126.882 86.7724 125.811 85.2233 124.654 82.1724C124.595 82.019 124.672 81.8508 124.825 81.7918C124.979 81.7357 125.147 81.8124 125.206 81.9629C126.315 84.8929 127.277 86.2855 130.369 87.333C130.523 87.3861 130.606 87.5543 130.555 87.7077C130.514 87.8316 130.399 87.9084 130.275 87.9084V87.9054Z" fill="#D4D4D4"/>
<path d="M120.122 81.4924C120.455 82.7906 121.636 83.9295 122.975 83.8735C123.872 83.8351 124.713 83.2302 125.067 82.4129V82.4188C126.029 82.3185 126.817 81.5189 127.153 80.7193C127.49 79.9197 127.419 78.9578 126.967 78.2172C126.649 77.6949 126.159 77.2878 125.607 77.0193C124.279 76.3701 122.58 76.5649 121.432 77.5002C120.284 78.4355 119.75 80.0584 120.119 81.4924H120.122Z" fill="#F5F5F5"/>
<g opacity="0.4">
<path d="M125.359 81.7011C126.02 81.4237 126.51 80.7746 126.598 80.0635C126.687 79.3524 126.371 78.6059 125.799 78.1722C125.448 77.9066 124.447 77.5762 124.447 77.5762C124.447 77.5762 123.857 78.8154 123.863 78.8626C124.486 78.8744 125.088 79.2315 125.394 79.7744C125.701 80.3143 125.695 81.0195 125.386 81.5565" fill="white"/>
</g>
<path d="M39.2134 29.7186C39.3668 29.6684 31.0845 47.3248 27.0658 55.8697C26.6025 56.8581 24.9443 56.4775 24.9473 55.3858C24.9738 45.8937 25.0564 26.2222 25.2895 26.1484C25.5934 26.051 39.2104 29.7186 39.2104 29.7186H39.2134Z" fill="#FAFAFA"/>
<path d="M25.3982 26.0444L25.1829 26.2461L35.6441 37.4174L35.8594 37.2157L25.3982 26.0444Z" fill="#D4D4D4"/>
<path d="M37.7292 32.9736C37.6908 32.9736 37.6495 32.9588 37.623 32.9264L33.2561 28.2615C33.2 28.2025 33.203 28.108 33.262 28.052C33.321 27.9959 33.4154 27.9989 33.4715 28.0579L37.8383 32.7228C37.8944 32.7818 37.8915 32.8762 37.8324 32.9323C37.8029 32.9588 37.7675 32.9706 37.7321 32.9706L37.7292 32.9736Z" fill="#D4D4D4"/>
<path d="M25.2838 32.4512L25.0662 32.6504L33.5372 41.9046L33.7548 41.7054L25.2838 32.4512Z" fill="#D4D4D4"/>
<path d="M25.2201 39.0176L25.0024 39.2168L31.5111 46.3272L31.7288 46.128L25.2201 39.0176Z" fill="#D4D4D4"/>
<path d="M25.1019 44.668L24.8843 44.8672L29.7015 50.1298L29.9192 49.9306L25.1019 44.668Z" fill="#D4D4D4"/>
<path d="M25.0819 49.2852L24.8643 49.4844L28.2371 53.1691L28.4548 52.9699L25.0819 49.2852Z" fill="#D4D4D4"/>
<path d="M25.0694 52.9151L24.8457 53.1074L27.0098 55.6244L27.2336 55.432L25.0694 52.9151Z" fill="#D4D4D4"/>
<path d="M37.6936 29.1493L25.0132 34.4043L25.1261 34.6769L37.8065 29.4219L37.6936 29.1493Z" fill="#D4D4D4"/>
<path d="M30.776 27.3071L25.0791 29.668L25.1921 29.9405L30.889 27.5796L30.776 27.3071Z" fill="#D4D4D4"/>
<path d="M37.0498 34.2614L24.9661 39.4355L25.0822 39.7068L37.1659 34.5327L37.0498 34.2614Z" fill="#D4D4D4"/>
<path d="M34.2681 40.3529L25.0161 44.3145L25.1323 44.5857L34.3842 40.6241L34.2681 40.3529Z" fill="#D4D4D4"/>
<path d="M31.5494 45.9483L25.0205 48.5742L25.1306 48.848L31.6595 46.2221L31.5494 45.9483Z" fill="#D4D4D4"/>
<path d="M29.6949 50.0111L24.8994 52.0645L25.0156 52.3357L29.8111 50.2823L29.6949 50.0111Z" fill="#D4D4D4"/>
<path d="M28.005 53.4933L24.8831 54.8301L24.9992 55.1013L28.1212 53.7645L28.005 53.4933Z" fill="#D4D4D4"/>
<path d="M25.1952 26.3425C25.3929 25.4426 28.6297 25.7465 32.5097 26.5962C36.3898 27.4431 39.3787 28.8593 39.181 29.7593C38.9833 30.6592 35.6787 30.7005 31.7987 29.8537C27.9186 29.0069 25.0005 27.2424 25.1952 26.3425Z" fill="#D4D4D4"/>
<path d="M112.881 65.3009C112.751 65.4101 113.804 44.8268 114.321 34.8597C114.38 33.709 116.153 33.4169 116.587 34.4879C120.352 43.7852 128.127 63.0673 127.929 63.2326C127.669 63.448 112.881 65.3009 112.881 65.3009Z" fill="#FAFAFA"/>
<path d="M113.294 56.3432L113.171 56.6113L127.868 63.3652L127.991 63.0971L113.294 56.3432Z" fill="#D4D4D4"/>
<path d="M119.228 64.6361C119.207 64.6361 119.186 64.6332 119.166 64.6214L113.028 61.8006C112.955 61.7652 112.922 61.6796 112.955 61.6059C112.99 61.5321 113.076 61.4996 113.149 61.5321L119.287 64.3529C119.36 64.3883 119.393 64.4738 119.36 64.5476C119.337 64.6007 119.284 64.6332 119.228 64.6332V64.6361Z" fill="#D4D4D4"/>
<path d="M113.562 51.1122L113.436 51.3789L125.421 57.0519L125.547 56.7852L113.562 51.1122Z" fill="#D4D4D4"/>
<path d="M113.784 45.9774L113.657 46.2441L122.866 50.603L122.993 50.3364L113.784 45.9774Z" fill="#D4D4D4"/>
<path d="M114.034 41.536L113.908 41.8027L120.722 45.028L120.848 44.7614L114.034 41.536Z" fill="#D4D4D4"/>
<path d="M114.255 37.9735L114.128 38.2402L118.902 40.4998L119.028 40.2332L114.255 37.9735Z" fill="#D4D4D4"/>
<path d="M114.472 35.087L114.337 35.3496L117.46 36.9483L117.594 36.6857L114.472 35.087Z" fill="#D4D4D4"/>
<path d="M124.698 54.8399L114.384 65.0391L114.592 65.2489L124.905 55.0497L124.698 54.8399Z" fill="#D4D4D4"/>
<path d="M126.522 59.4951L121.888 64.0781L122.095 64.2879L126.73 59.7049L126.522 59.4951Z" fill="#D4D4D4"/>
<path d="M122.721 49.8853L112.961 59.7695L113.171 59.9769L122.931 50.0926L122.721 49.8853Z" fill="#D4D4D4"/>
<path d="M120.727 45.1327L113.253 52.7012L113.463 52.9085L120.937 45.34L120.727 45.1327Z" fill="#D4D4D4"/>
<path d="M119.028 40.9557L113.694 46.1367L113.9 46.3484L119.233 41.1674L119.028 40.9557Z" fill="#D4D4D4"/>
<path d="M117.744 37.5019L113.87 41.4258L114.08 41.6331L117.954 37.7092L117.744 37.5019Z" fill="#D4D4D4"/>
<path d="M116.654 34.7887L114.131 37.3438L114.341 37.5511L116.864 34.996L116.654 34.7887Z" fill="#D4D4D4"/>
<path d="M127.946 63.0059C128.115 63.9649 124.825 64.9592 120.688 65.6792C116.551 66.3991 113.064 66.2073 112.895 65.2484C112.727 64.2895 115.946 62.9263 120.083 62.2063C124.22 61.4864 127.778 62.0441 127.946 63.003V63.0059Z" fill="#D4D4D4"/>
<path d="M102.306 105.07C102.152 104.996 121.257 97.2626 130.508 93.5242C131.576 93.0934 132.588 94.5746 131.8 95.4214C124.96 102.76 110.765 117.946 110.532 117.84C110.225 117.695 102.306 105.073 102.306 105.073V105.07Z" fill="#FAFAFA"/>
<path d="M110.592 101.666L110.297 101.668L110.379 117.843L110.674 117.841L110.592 101.666Z" fill="#D4D4D4"/>
<path d="M105.72 110.629C105.637 110.629 105.572 110.564 105.572 110.482L105.537 103.728C105.537 103.645 105.602 103.58 105.684 103.58C105.767 103.58 105.832 103.645 105.832 103.728L105.867 110.482C105.867 110.564 105.802 110.629 105.72 110.629Z" fill="#D4D4D4"/>
<path d="M115.166 99.7032L115.087 112.963L115.382 112.965L115.461 99.7049L115.166 99.7032Z" fill="#D4D4D4"/>
<path d="M119.915 97.7337L119.854 107.922L120.15 107.924L120.21 97.7354L119.915 97.7337Z" fill="#D4D4D4"/>
<path d="M124.048 96.0903L124.003 103.629L124.298 103.631L124.343 96.092L124.048 96.0903Z" fill="#D4D4D4"/>
<path d="M127.372 94.7771L127.34 100.059L127.635 100.06L127.667 94.7789L127.372 94.7771Z" fill="#D4D4D4"/>
<path d="M130.084 93.75L129.954 97.2559L130.249 97.2668L130.379 93.761L130.084 93.75Z" fill="#D4D4D4"/>
<path d="M103.177 106.311L103.075 106.588L116.678 111.623L116.78 111.346L103.177 106.311Z" fill="#D4D4D4"/>
<path d="M107.218 112.708L107.116 112.984L113.228 115.247L113.331 114.97L107.218 112.708Z" fill="#D4D4D4"/>
<path d="M107.338 102.804L107.239 103.082L120.321 107.753L120.421 107.475L107.338 102.804Z" fill="#D4D4D4"/>
<path d="M113.882 100.103L113.782 100.381L123.799 103.96L123.899 103.682L113.882 100.103Z" fill="#D4D4D4"/>
<path d="M120.012 97.7009L119.907 97.9766L126.853 100.628L126.959 100.352L120.012 97.7009Z" fill="#D4D4D4"/>
<path d="M124.364 95.9018L124.264 96.1797L129.458 98.035L129.557 97.7572L124.364 95.9018Z" fill="#D4D4D4"/>
<path d="M128.163 94.3999L128.063 94.6777L131.445 95.8852L131.544 95.6074L128.163 94.3999Z" fill="#D4D4D4"/>
<path d="M110.745 117.757C109.945 118.315 107.655 115.751 105.257 112.307C102.858 108.861 101.559 105.618 102.359 105.061C103.159 104.503 105.749 106.846 108.151 110.292C110.55 113.738 111.547 117.199 110.748 117.757H110.745Z" fill="#D4D4D4"/>
<path d="M130.935 87.8345H77.6031C76.65 87.8345 75.874 87.0585 75.874 86.1055V8.4224C75.874 7.46936 76.65 6.69336 77.6031 6.69336H130.935C131.888 6.69336 132.664 7.46936 132.664 8.4224V86.1055C132.664 87.0585 131.888 87.8345 130.935 87.8345ZM77.6031 6.76712C76.6913 6.76712 75.9478 7.51067 75.9478 8.4224V86.1055C75.9478 87.0172 76.6913 87.7608 77.6031 87.7608H130.935C131.847 87.7608 132.59 87.0172 132.59 86.1055V8.4224C132.59 7.51067 131.847 6.76712 130.935 6.76712H77.6031Z" fill="#D4D4D4"/>
<path d="M69.4361 87.8345H16.1072C15.1542 87.8345 14.3782 87.0585 14.3782 86.1055V8.4224C14.3782 7.46936 15.1542 6.69336 16.1072 6.69336H69.4361C70.3892 6.69336 71.1652 7.46936 71.1652 8.4224V86.1055C71.1652 87.0585 70.3892 87.8345 69.4361 87.8345ZM16.1072 6.76712C15.1955 6.76712 14.4519 7.51067 14.4519 8.4224V86.1055C14.4519 87.0172 15.1955 87.7608 16.1072 87.7608H69.4361C70.3479 87.7608 71.0914 87.0172 71.0914 86.1055V8.4224C71.0914 7.51067 70.3479 6.76712 69.4361 6.76712H16.1072Z" fill="#D4D4D4"/>
<path d="M147.483 105.854H-0.046875V105.927H147.483V105.854Z" fill="#D4D4D4"/>
<path d="M19.9376 110.061H15.199V110.134H19.9376V110.061Z" fill="#D4D4D4"/>
<path d="M66.0111 109.262H50.2166V109.335H66.0111V109.262Z" fill="#D4D4D4"/>
<path d="M30.9283 112.803H20.2324V112.876H30.9283V112.803Z" fill="#D4D4D4"/>
<path d="M124.332 109.223H111.589V109.296H124.332V109.223Z" fill="#D4D4D4"/>
<path d="M128.829 109.223H126.961V109.296H128.829V109.223Z" fill="#D4D4D4"/>
<path d="M109.154 111.062H93.2534V111.136H109.154V111.062Z" fill="#D4D4D4"/>
<path d="M148.458 147.47C148.458 148.667 115.451 149.634 74.7355 149.634C34.0202 149.634 1.01318 148.663 1.01318 147.47C1.01318 146.277 34.0202 145.307 74.7355 145.307C115.451 145.307 148.458 146.277 148.458 147.47Z" fill="#FAFAFA"/>
<path d="M18.2366 125.577C18.1413 125.757 10.193 102.417 6.35303 91.1156C5.90832 89.8097 7.75067 88.7014 8.70362 89.7003C17.0048 98.365 34.186 116.344 34.0377 116.616C33.8471 116.972 18.233 125.58 18.233 125.58L18.2366 125.577Z" fill="#9A3412"/>
<path d="M14.7222 115.433L14.7041 115.785L34.0269 116.778L34.045 116.425L14.7222 115.433Z" fill="#C2410C"/>
<path d="M16.8689 121.263L16.8508 121.615L24.919 122.03L24.9371 121.677L16.8689 121.263Z" fill="#C2410C"/>
<path d="M12.704 109.497L12.6819 109.85L28.5119 110.843L28.534 110.491L12.704 109.497Z" fill="#C2410C"/>
<path d="M10.6737 103.7L10.6516 104.053L22.8148 104.816L22.8369 104.464L10.6737 103.7Z" fill="#C2410C"/>
<path d="M8.98993 98.6692L8.96777 99.0215L17.9676 99.5877L17.9898 99.2355L8.98993 98.6692Z" fill="#C2410C"/>
<path d="M7.64856 94.595L7.62646 94.9473L13.9317 95.3429L13.9538 94.9906L7.64856 94.595Z" fill="#C2410C"/>
<path d="M6.61506 91.2951L6.58203 91.6465L10.7601 92.0392L10.7931 91.6878L6.61506 91.2951Z" fill="#C2410C"/>
<path d="M26.7218 108.718L19.7783 124.619L20.1018 124.76L27.0453 108.86L26.7218 108.718Z" fill="#C2410C"/>
<path d="M30.8127 113.084L27.6926 120.229L28.0161 120.37L31.1361 113.225L30.8127 113.084Z" fill="#C2410C"/>
<path d="M22.348 104.091L15.8875 119.4L16.2126 119.538L22.6731 104.229L22.348 104.091Z" fill="#C2410C"/>
<path d="M18.0185 99.6955L13.0715 111.418L13.3967 111.555L18.3436 99.8327L18.0185 99.6955Z" fill="#C2410C"/>
<path d="M14.2792 95.8109L10.7268 104.383L11.0529 104.518L14.6052 95.946L14.2792 95.8109Z" fill="#C2410C"/>
<path d="M11.3321 92.5378L8.76733 98.6152L9.09251 98.7525L11.6572 92.675L11.3321 92.5378Z" fill="#C2410C"/>
<path d="M8.92197 90.0055L7.25195 93.9629L7.57713 94.1001L9.24715 90.1428L8.92197 90.0055Z" fill="#C2410C"/>
<path d="M10.3799 99.1738C12.974 105.481 15.3599 111.915 17.5058 118.391C14.9116 112.081 12.5258 105.647 10.3799 99.1738Z" fill="white"/>
<path d="M121.539 94.5918H25.4011V141.533H121.539V94.5918Z" fill="#3F83F8"/>
<path opacity="0.2" d="M121.539 125.064H25.4011V133.74H121.539V125.064Z" fill="black"/>
<g opacity="0.2">
<path d="M25.4011 118.715C26.9752 118.856 28.5599 117.543 29.6223 116.223C30.8647 114.677 32.2376 112.828 34.2211 112.782C36.547 112.726 38.2411 115.235 40.5529 115.478C43.6058 115.803 45.4658 112.323 47.9294 110.495C50.4352 108.635 53.7741 108.476 56.8905 108.391C60.3211 108.296 64.5176 108.638 66.007 111.73C66.6811 113.131 66.5858 114.762 66.7482 116.308C66.9105 117.854 67.5035 119.558 68.9294 120.187C70.807 121.013 72.9458 119.438 73.8494 117.596C74.7529 115.754 74.9364 113.622 75.8752 111.797C76.8141 109.973 79.0411 108.476 80.8658 109.411C82.5776 110.287 82.8564 112.673 84.2823 113.957C86.1811 115.666 89.2517 114.776 91.3164 113.28C93.3847 111.783 95.1811 109.726 97.6517 109.083C100.793 108.271 103.962 109.983 106.892 111.384C109.821 112.786 113.481 113.869 116.146 112.013C117.183 111.289 117.942 110.184 119.079 109.627C119.848 109.249 120.907 109.33 121.542 109.807V94.5879H25.4011V118.708V118.715Z" fill="black"/>
</g>
<path d="M124.158 93.9644C124.179 98.4714 124.14 105.301 123.773 108.195C123.678 108.954 123.025 109.31 122.368 108.918C121.761 108.555 122.118 107.786 122.079 107.157C121.998 105.897 120.215 105.46 119.082 106.017C117.949 106.575 117.187 107.68 116.149 108.403C113.485 110.26 109.825 109.176 106.895 107.775C103.966 106.374 100.8 104.662 97.6552 105.474C95.1846 106.113 93.3881 108.17 91.3199 109.67C89.2517 111.167 86.1811 112.056 84.2858 110.348C82.8564 109.063 82.5775 106.677 80.8693 105.802C79.0446 104.867 76.8175 106.367 75.8787 108.188C74.9399 110.013 74.7564 112.144 73.8528 113.987C72.9493 115.829 70.8105 117.403 68.9328 116.577C67.5105 115.949 66.9175 114.248 66.7517 112.698C66.5893 111.153 66.6846 109.522 66.0105 108.121C64.5211 105.029 60.3281 104.687 56.894 104.782C53.774 104.867 50.4352 105.026 47.9328 106.886C45.4693 108.714 43.6058 112.19 40.5564 111.869C38.2446 111.626 36.5505 109.116 34.2246 109.173C32.2411 109.218 30.8681 111.068 29.6258 112.614C28.3834 114.16 26.4211 115.695 24.6069 114.901C22.8069 114.114 22.5881 111.689 22.6446 109.727C22.7752 105.075 22.9093 100.42 23.0399 95.7679C23.0505 95.3444 23.0646 94.7055 23.0752 94.0067C23.114 91.875 24.8469 90.1632 26.9787 90.1526L119.852 89.6973C122.22 89.6867 124.147 91.5961 124.158 93.9644Z" fill="#3F83F8"/>
<g opacity="0.8">
<path d="M124.158 93.9644C124.179 98.4714 124.14 105.301 123.773 108.195C123.678 108.954 123.025 109.31 122.368 108.918C121.761 108.555 122.118 107.786 122.079 107.157C121.998 105.897 120.215 105.46 119.082 106.017C117.949 106.575 117.187 107.68 116.149 108.403C113.485 110.26 109.825 109.176 106.895 107.775C103.966 106.374 100.8 104.662 97.6552 105.474C95.1846 106.113 93.3881 108.17 91.3199 109.67C89.2517 111.167 86.1811 112.056 84.2858 110.348C82.8564 109.063 82.5775 106.677 80.8693 105.802C79.0446 104.867 76.8175 106.367 75.8787 108.188C74.9399 110.013 74.7564 112.144 73.8528 113.987C72.9493 115.829 70.8105 117.403 68.9328 116.577C67.5105 115.949 66.9175 114.248 66.7517 112.698C66.5893 111.153 66.6846 109.522 66.0105 108.121C64.5211 105.029 60.3281 104.687 56.894 104.782C53.774 104.867 50.4352 105.026 47.9328 106.886C45.4693 108.714 43.6058 112.19 40.5564 111.869C38.2446 111.626 36.5505 109.116 34.2246 109.173C32.2411 109.218 30.8681 111.068 29.6258 112.614C28.3834 114.16 26.4211 115.695 24.6069 114.901C22.8069 114.114 22.5881 111.689 22.6446 109.727C22.7752 105.075 22.9093 100.42 23.0399 95.7679C23.0505 95.3444 23.0646 94.7055 23.0752 94.0067C23.114 91.875 24.8469 90.1632 26.9787 90.1526L119.852 89.6973C122.22 89.6867 124.147 91.5961 124.158 93.9644Z" fill="white"/>
</g>
<g opacity="0.2">
<path d="M37.6938 96.2156C38.0433 96.2862 38.3962 96.3568 38.7527 96.3427C39.1091 96.3286 39.4727 96.2192 39.7303 95.9721C40.0903 95.6262 40.175 95.0898 40.2315 94.5956C40.3868 93.2509 40.4786 91.8956 40.5738 90.5474C40.8456 91.1721 41.2127 91.7545 41.6644 92.2662C41.8091 92.4286 41.9927 92.598 42.208 92.5768C42.4233 92.5556 42.5715 92.3509 42.6738 92.1603C43.0091 91.5251 43.1786 90.2262 43.1538 89.5098H39.5115L37.6974 91.1121V96.2192L37.6938 96.2156Z" fill="black"/>
</g>
<path d="M28.4187 92.0289C52.2987 91.7994 79.0869 91.7959 102.963 92.0289C79.0834 92.2618 52.2952 92.2583 28.4187 92.0289Z" fill="white"/>
<path opacity="0.2" d="M94.7152 119.7C94.7152 120.604 93.9811 121.338 93.0776 121.338C92.1741 121.338 91.4399 120.604 91.4399 119.7C91.4399 118.797 92.1741 118.062 93.0776 118.062C93.9811 118.062 94.7152 118.797 94.7152 119.7Z" fill="black"/>
<path opacity="0.2" d="M50.7106 120.741C50.7106 121.645 49.9765 122.379 49.0729 122.379C48.1694 122.379 47.4353 121.645 47.4353 120.741C47.4353 119.838 48.1694 119.104 49.0729 119.104C49.9765 119.104 50.7106 119.838 50.7106 120.741Z" fill="black"/>
<path opacity="0.2" d="M80.7951 137.51C80.7951 137.962 80.4281 138.329 79.9763 138.329C79.5245 138.329 79.1575 137.962 79.1575 137.51C79.1575 137.058 79.5245 136.691 79.9763 136.691C80.4281 136.691 80.7951 137.058 80.7951 137.51Z" fill="black"/>
<path opacity="0.2" d="M115.952 120.932C115.952 121.384 115.585 121.751 115.133 121.751C114.681 121.751 114.314 121.384 114.314 120.932C114.314 120.48 114.681 120.113 115.133 120.113C115.585 120.113 115.952 120.48 115.952 120.932Z" fill="black"/>
<path opacity="0.2" d="M44.0188 122.791C44.0188 123.243 43.6517 123.61 43.1999 123.61C42.7482 123.61 42.3811 123.243 42.3811 122.791C42.3811 122.34 42.7482 121.973 43.1999 121.973C43.6517 121.973 44.0188 122.34 44.0188 122.791Z" fill="black"/>
<path d="M26.9857 119.453C27.2222 126.064 27.2222 132.72 26.9857 139.331C26.7492 132.72 26.7492 126.064 26.9857 119.453Z" fill="white"/>
<path d="M35.9579 89.9453L110.721 89.9453V53.4406L35.9579 53.4406V89.9453Z" fill="#3F83F8"/>
<g opacity="0.2">
<path d="M110.722 56.2884C110.114 55.9461 109.416 55.7449 108.671 55.7379L40.4262 54.9473C38.9086 54.9473 37.2251 54.9367 35.958 56.2779V74.0908C36.3145 74.059 36.7204 73.992 37.1792 73.9214C40.6451 73.4061 42.6215 68.1367 46.0239 68.9767C47.8168 69.4214 48.9604 71.532 50.8062 71.6202C52.1051 71.6837 53.2204 70.6814 53.9439 69.6014C54.6709 68.5214 55.1898 67.279 56.1392 66.3861C58.1474 64.4908 61.4404 64.7837 63.8933 66.0473C66.3462 67.3108 68.3086 69.3508 70.6239 70.8543C72.9392 72.3579 75.9639 73.3002 78.4415 72.0861C81.6004 70.5367 83.1498 65.8955 86.6686 65.9202C89.2274 65.9379 91.4898 68.6449 93.9321 67.872C94.9627 67.5473 95.718 66.6543 96.7098 66.2273C98.7321 65.3626 101.051 66.6755 102.523 68.3131C103.991 69.9508 105.082 71.9837 106.899 73.2226C107.983 73.9602 109.483 74.2461 110.718 73.9355V56.2849L110.722 56.2884Z" fill="black"/>
</g>
<path opacity="0.2" d="M35.9579 83.8809L110.721 83.8809V77.1362L35.9579 77.1362V83.8809Z" fill="black"/>
<path d="M108.671 52.1585C111 52.1868 112.881 54.0715 112.903 56.4009C112.931 59.7679 112.963 63.135 112.991 66.5021C112.998 67.3068 112.998 68.1432 112.652 68.8703C111.71 70.8574 108.72 70.8891 106.899 69.6503C105.081 68.4115 103.994 66.3785 102.523 64.7409C101.054 63.1032 98.732 61.7903 96.7097 62.655C95.7179 63.0785 94.9626 63.9715 93.932 64.2997C91.4897 65.0691 89.2308 62.3656 86.6685 62.3479C83.1496 62.3268 81.6002 66.9644 78.4414 68.5138C75.9638 69.7279 72.9391 68.7856 70.6238 67.2821C68.3085 65.7785 66.3461 63.7385 63.8932 62.475C61.4402 61.2115 58.1473 60.9185 56.1391 62.8138C55.1932 63.7068 54.6708 64.9491 53.9438 66.0291C53.2167 67.1091 52.1049 68.1115 50.8061 68.0479C48.9602 67.9597 47.8167 65.8491 46.0238 65.4044C42.6214 64.5609 40.6449 69.8303 37.1791 70.3491C35.3579 70.6209 34.3732 70.8679 34.0873 69.0538C33.8226 67.3703 34.0167 63.915 33.9779 61.8009C33.7732 51.3291 37.4261 51.375 40.4296 51.375L108.674 52.1656L108.671 52.1585Z" fill="#3F83F8"/>
<g opacity="0.8">
<path d="M108.671 52.1585C111 52.1868 112.881 54.0715 112.903 56.4009C112.931 59.7679 112.963 63.135 112.991 66.5021C112.998 67.3068 112.998 68.1432 112.652 68.8703C111.71 70.8574 108.72 70.8891 106.899 69.6503C105.081 68.4115 103.994 66.3785 102.523 64.7409C101.054 63.1032 98.732 61.7903 96.7097 62.655C95.7179 63.0785 94.9626 63.9715 93.932 64.2997C91.4897 65.0691 89.2308 62.3656 86.6685 62.3479C83.1496 62.3268 81.6002 66.9644 78.4414 68.5138C75.9638 69.7279 72.9391 68.7856 70.6238 67.2821C68.3085 65.7785 66.3461 63.7385 63.8932 62.475C61.4402 61.2115 58.1473 60.9185 56.1391 62.8138C55.1932 63.7068 54.6708 64.9491 53.9438 66.0291C53.2167 67.1091 52.1049 68.1115 50.8061 68.0479C48.9602 67.9597 47.8167 65.8491 46.0238 65.4044C42.6214 64.5609 40.6449 69.8303 37.1791 70.3491C35.3579 70.6209 34.3732 70.8679 34.0873 69.0538C33.8226 67.3703 34.0167 63.915 33.9779 61.8009C33.7732 51.3291 37.4261 51.375 40.4296 51.375L108.674 52.1656L108.671 52.1585Z" fill="white"/>
</g>
<path d="M40.2288 53.1683C44.8946 52.9283 49.5993 52.9283 54.2652 53.1683C49.5993 53.4083 44.8946 53.4083 40.2288 53.1683Z" fill="white"/>
<path d="M67.645 53.0862C71.4038 52.8462 75.198 52.8462 78.9568 53.0862C75.198 53.3262 71.4038 53.3262 67.645 53.0862Z" fill="white"/>
<path d="M91.345 53.2523C95.6826 53.0123 100.056 53.0123 104.393 53.2523C100.056 53.4923 95.6826 53.4923 91.345 53.2523Z" fill="white"/>
<path opacity="0.1" d="M88.4614 72.7836C88.4614 73.3871 87.9708 73.8777 87.3673 73.8777C86.7638 73.8777 86.2732 73.3871 86.2732 72.7836C86.2732 72.18 86.7638 71.6895 87.3673 71.6895C87.9708 71.6895 88.4614 72.18 88.4614 72.7836Z" fill="black"/>
<path opacity="0.1" d="M85.9767 74.7189C85.9767 75.0189 85.7332 75.266 85.4296 75.266C85.1261 75.266 84.8826 75.0225 84.8826 74.7189C84.8826 74.4154 85.1261 74.1719 85.4296 74.1719C85.7332 74.1719 85.9767 74.4154 85.9767 74.7189Z" fill="black"/>
<path opacity="0.1" d="M65.0014 75.5863C65.3035 75.5863 65.5485 75.3414 65.5485 75.0392C65.5485 74.7371 65.3035 74.4922 65.0014 74.4922C64.6993 74.4922 64.4543 74.7371 64.4543 75.0392C64.4543 75.3414 64.6993 75.5863 65.0014 75.5863Z" fill="black"/>
<path opacity="0.1" d="M104.407 87.1C104.71 87.1 104.954 86.8551 104.954 86.5529C104.954 86.2508 104.71 86.0059 104.407 86.0059C104.105 86.0059 103.86 86.2508 103.86 86.5529C103.86 86.8551 104.105 87.1 104.407 87.1Z" fill="black"/>
<path opacity="0.2" d="M84.0709 86.5537C84.0709 87.4572 83.3368 88.1913 82.4333 88.1913C81.5298 88.1913 80.7957 87.4572 80.7957 86.5537C80.7957 85.6501 81.5298 84.916 82.4333 84.916C83.3368 84.916 84.0709 85.6501 84.0709 86.5537Z" fill="black"/>
<path opacity="0.2" d="M62.0648 71.2666C62.0648 72.1701 61.3307 72.9042 60.4272 72.9042C59.5237 72.9042 58.7896 72.1701 58.7896 71.2666C58.7896 70.363 59.5237 69.6289 60.4272 69.6289C61.3307 69.6289 62.0648 70.363 62.0648 71.2666Z" fill="black"/>
<path opacity="0.1" d="M57.1767 73.7769C57.572 74.1722 57.572 74.8146 57.1767 75.2099C56.7814 75.6052 56.139 75.6052 55.7437 75.2099C55.3484 74.8146 55.3484 74.1722 55.7437 73.7769C56.139 73.3816 56.7814 73.3816 57.1767 73.7769Z" fill="black"/>
<path d="M36.1591 73.9102C33.9285 75.8337 32.5662 78.6643 32.4426 81.6007C32.4426 81.7984 32.4391 81.996 32.4321 82.1937C32.3685 81.8584 32.3297 81.3502 32.3156 81.0043C32.2979 78.2019 33.7591 75.389 36.1626 73.9102H36.1591Z" fill="white"/>
<path d="M69.1447 28.4897C69.067 24.8685 68.5447 23.1885 65.7529 20.9897L66.1906 20.4355C69.2294 22.832 69.7765 24.8508 69.8506 28.4755L69.1447 28.4897Z" fill="#404040"/>
<path d="M74.3046 30.8643C74.4387 29.3855 73.627 27.7584 72.2081 27.3208C71.2552 27.0278 70.1576 27.349 69.4799 28.0725V28.0655C68.4387 27.8113 67.3199 28.3549 66.6705 29.0678C66.0211 29.7772 65.7423 30.8078 65.9399 31.7502C66.0776 32.4137 66.4411 33.0208 66.914 33.5043C68.0611 34.6761 69.907 35.0996 71.4529 34.549C72.9987 33.9984 74.1564 32.4984 74.3011 30.8678L74.3046 30.8643Z" fill="#404040"/>
<g opacity="0.4">
<path d="M74.3046 30.8643C74.4387 29.3855 73.627 27.7584 72.2081 27.3208C71.2552 27.0278 70.1576 27.349 69.4799 28.0725V28.0655C68.4387 27.8113 67.3199 28.3549 66.6705 29.0678C66.0211 29.7772 65.7423 30.8078 65.9399 31.7502C66.0776 32.4137 66.4411 33.0208 66.914 33.5043C68.0611 34.6761 69.907 35.0996 71.4529 34.549C72.9987 33.9984 74.1564 32.4984 74.3011 30.8678L74.3046 30.8643Z" fill="white"/>
</g>
<g opacity="0.4">
<path d="M68.9153 28.7051C68.1212 28.751 67.3694 29.2451 67.0129 29.9545C66.6565 30.6639 66.7094 31.5639 67.1471 32.2239C67.4153 32.6333 68.3365 33.3463 68.3365 33.3463C68.3365 33.3463 69.4129 32.2698 69.4235 32.2204C68.7776 31.9804 68.28 31.3804 68.16 30.7027C68.04 30.0251 68.3047 29.291 68.8306 28.8463" fill="white"/>
</g>
<path d="M98.8236 46.476L98.1177 46.4619C98.1953 42.8372 98.7389 40.8148 101.778 38.4219L102.215 38.976C99.4236 41.1783 98.8977 42.8548 98.8236 46.4795V46.476Z" fill="#404040"/>
<path d="M93.6636 48.8545C93.5294 47.3757 94.3412 45.7486 95.76 45.311C96.713 45.0181 97.8106 45.3392 98.4883 46.0628V46.0557C99.5294 45.8016 100.648 46.3451 101.298 47.0581C101.947 47.7675 102.226 48.7981 102.028 49.7404C101.891 50.4039 101.527 51.011 101.054 51.4945C99.9071 52.6663 98.0612 53.0898 96.5153 52.5392C94.973 51.9886 93.8118 50.4886 93.6671 48.8581L93.6636 48.8545Z" fill="#404040"/>
<g opacity="0.4">
<path d="M93.6636 48.8545C93.5294 47.3757 94.3412 45.7486 95.76 45.311C96.713 45.0181 97.8106 45.3392 98.4883 46.0628V46.0557C99.5294 45.8016 100.648 46.3451 101.298 47.0581C101.947 47.7675 102.226 48.7981 102.028 49.7404C101.891 50.4039 101.527 51.011 101.054 51.4945C99.9071 52.6663 98.0612 53.0898 96.5153 52.5392C94.973 51.9886 93.8118 50.4886 93.6671 48.8581L93.6636 48.8545Z" fill="white"/>
</g>
<g opacity="0.4">
<path d="M99.0529 46.6953C99.847 46.7412 100.599 47.2353 100.955 47.9447C101.312 48.6541 101.259 49.5541 100.821 50.2141C100.553 50.6235 99.6317 51.3365 99.6317 51.3365C99.6317 51.3365 98.5553 50.26 98.5447 50.2106C99.1906 49.9706 99.6882 49.3706 99.8082 48.693C99.9282 48.0153 99.6635 47.2812 99.1376 46.8365" fill="white"/>
</g>
<path d="M14.559 139.413C12.7625 137.278 11.679 134.521 11.679 131.511C11.679 124.723 17.1814 119.225 23.9649 119.225C30.7484 119.225 36.2508 124.727 36.2508 131.511C36.2508 135.576 34.2743 139.18 31.2319 141.418L9.01782 141.361C10.1014 139.755 12.9672 139.67 14.559 139.413Z" fill="#3F83F8"/>
<path opacity="0.3" d="M16.6978 137.955C13.839 136.112 12.4837 132.35 13.419 129.092C13.5531 128.633 13.7155 128.182 13.9343 127.762C13.7896 128.213 13.6661 128.669 13.5884 129.131C12.9496 132.371 14.2025 135.805 16.6978 137.955Z" fill="white"/>
<g opacity="0.3">
<path d="M19.6129 122.165C20.6258 121.473 22.6835 120.873 25.027 121.162C28.087 121.293 30.4658 122.617 32.107 124.554C33.7517 126.492 34.5388 129.128 34.2282 131.652C34.1188 132.541 33.8364 133.48 33.1199 134.017C32.2341 134.68 30.9352 134.504 30.007 133.9C29.0788 133.297 28.4399 132.351 27.8258 131.433C27.2082 130.515 26.5623 129.573 25.627 128.984C24.3846 128.2 22.8352 128.154 21.4023 127.84C19.9658 127.529 18.4199 126.725 18.1129 125.288C17.8552 124.088 18.5999 122.857 19.6129 122.165Z" fill="white"/>
</g>
<g opacity="0.5">
<path d="M14.559 139.413C12.7625 137.278 11.679 134.521 11.679 131.511C11.679 124.723 17.1814 119.225 23.9649 119.225C30.7484 119.225 36.2508 124.727 36.2508 131.511C36.2508 135.576 34.2743 139.18 31.2319 141.418L9.01782 141.361C10.1014 139.755 12.9672 139.67 14.559 139.413Z" fill="white"/>
</g>
<path d="M73.4717 33.2692C73.2706 33.3045 86.5341 12.5198 92.9612 2.46451C93.7023 1.30333 95.7176 2.04804 95.5376 3.41745C93.9565 15.3116 90.6459 39.9575 90.3459 40.0139C89.947 40.088 73.4753 33.2692 73.4753 33.2692H73.4717Z" fill="#9A3412"/>
<path d="M79.1906 24.1963L78.9041 24.4023L90.1973 40.1128L90.4839 39.9067L79.1906 24.1963Z" fill="#C2410C"/>
<path d="M75.977 29.5108L75.6904 29.7168L80.4059 36.2767L80.6925 36.0707L75.977 29.5108Z" fill="#C2410C"/>
<path d="M82.5621 18.9164L82.2732 19.1191L91.3844 32.1023L91.6733 31.8996L82.5621 18.9164Z" fill="#C2410C"/>
<path d="M85.8272 13.7055L85.5383 13.9082L92.539 23.8839L92.8279 23.6812L85.8272 13.7055Z" fill="#C2410C"/>
<path d="M88.713 9.23671L88.4241 9.43945L93.6041 16.8209L93.893 16.6181L88.713 9.23671Z" fill="#C2410C"/>
<path d="M91.0465 5.66054L90.7576 5.86328L94.3866 11.0346L94.6755 10.8319L91.0465 5.66054Z" fill="#C2410C"/>
<path d="M92.9826 2.78289L92.6875 2.97656L94.9902 6.48481L95.2853 6.29114L92.9826 2.78289Z" fill="#C2410C"/>
<path d="M91.942 29.3736L75.1865 33.8789L75.2782 34.2197L92.0336 29.7145L91.942 29.3736Z" fill="#C2410C"/>
<path d="M91.0852 35.2939L83.5562 37.3184L83.6478 37.6592L91.1768 35.6347L91.0852 35.2939Z" fill="#C2410C"/>
<path d="M92.8122 23.0756L76.8196 27.5859L76.9154 27.9256L92.908 23.4152L92.8122 23.0756Z" fill="#C2410C"/>
<path d="M93.5432 16.933L81.2974 20.3867L81.3932 20.7264L93.639 17.2727L93.5432 16.933Z" fill="#C2410C"/>
<path d="M94.2491 11.5909L85.3342 14.1641L85.4321 14.5032L94.347 11.93L94.2491 11.5909Z" fill="#C2410C"/>
<path d="M94.9565 7.23484L88.6077 9.02539L88.7035 9.36508L95.0523 7.57453L94.9565 7.23484Z" fill="#C2410C"/>
<path d="M95.427 3.79112L91.293 4.95703L91.3888 5.29672L95.5228 4.13081L95.427 3.79112Z" fill="#C2410C"/>
<path d="M92.2625 52.0249C92.5131 50.4755 90.8613 49.9143 90.2931 49.8049C89.7248 49.699 89.1107 49.7131 88.6131 49.4202L88.6025 49.4131C88.0589 49.0884 87.8789 48.3861 88.1401 47.8072C88.8354 46.272 89.206 44.5567 89.1601 42.7496C89.0048 36.6967 84.0919 31.7343 78.0425 31.5155C71.4707 31.279 66.0707 36.5378 66.0707 43.0531C66.0707 45.1496 66.6319 47.112 67.606 48.8061C67.6484 49.1555 67.5954 49.4872 67.3519 49.7378C66.8436 50.2602 65.9507 49.9602 65.2625 50.2002C64.7154 50.3908 64.0836 51.1178 64.1154 51.6967L70.7648 51.7743C70.7648 53.5531 71.2378 55.3355 72.1448 56.8672C72.3636 57.2414 72.6213 57.612 72.9884 57.8414C73.3554 58.0708 73.8601 58.1343 74.2166 57.8873C74.6436 57.5908 74.7142 57.0014 74.746 56.4825C74.8413 54.9296 74.9366 53.3767 75.0319 51.8237H75.4872C75.7448 52.3884 76.0589 52.9214 76.4189 53.419C76.5884 53.652 76.786 53.8884 77.0648 53.959C77.6542 54.1108 78.1342 53.4225 78.1942 52.8155C78.226 52.5014 78.1978 52.1767 78.2013 51.859L92.2625 52.0214V52.0249Z" fill="#3F83F8"/>
<g opacity="0.3">
<path d="M92.2625 52.0249C92.5131 50.4755 90.8613 49.9143 90.2931 49.8049C89.7248 49.699 89.1107 49.7131 88.6131 49.4202L88.6025 49.4131C88.0589 49.0884 87.8789 48.3861 88.1401 47.8072C88.8354 46.272 89.206 44.5567 89.1601 42.7496C89.0048 36.6967 84.0919 31.7343 78.0425 31.5155C71.4707 31.279 66.0707 36.5378 66.0707 43.0531C66.0707 45.1496 66.6319 47.112 67.606 48.8061C67.6484 49.1555 67.5954 49.4872 67.3519 49.7378C66.8436 50.2602 65.9507 49.9602 65.2625 50.2002C64.7154 50.3908 64.0836 51.1178 64.1154 51.6967L70.7648 51.7743C70.7648 53.5531 71.2378 55.3355 72.1448 56.8672C72.3636 57.2414 72.6213 57.612 72.9884 57.8414C73.3554 58.0708 73.8601 58.1343 74.2166 57.8873C74.6436 57.5908 74.7142 57.0014 74.746 56.4825C74.8413 54.9296 74.9366 53.3767 75.0319 51.8237H75.4872C75.7448 52.3884 76.0589 52.9214 76.4189 53.419C76.5884 53.652 76.786 53.8884 77.0648 53.959C77.6542 54.1108 78.1342 53.4225 78.1942 52.8155C78.226 52.5014 78.1978 52.1767 78.2013 51.859L92.2625 52.0214V52.0249Z" fill="black"/>
</g>
<g opacity="0.2">
<path d="M85.126 58.5262C85.4754 58.5968 85.8283 58.6674 86.1848 58.6533C86.5413 58.6391 86.9048 58.5297 87.1624 58.2827C87.5224 57.9368 87.6072 57.4003 87.6636 56.9062C87.8189 55.5615 87.9107 54.2062 88.006 52.858C88.2777 53.4827 88.6448 54.065 89.0966 54.5768C89.2413 54.7391 89.4248 54.9085 89.6401 54.8874C89.8554 54.8662 90.0036 54.6615 90.106 54.4709C90.4413 53.8356 90.6107 52.5368 90.586 51.8203H86.9436L85.1295 53.4227V58.5297L85.126 58.5262Z" fill="black"/>
</g>
<path d="M89.8626 51.2129L83.2273 51.6223C83.3826 53.4152 83.5379 55.2082 83.6932 57.0011C83.7391 57.5305 83.792 58.0811 84.0532 58.5435C84.3179 59.0058 84.8544 59.3588 85.3732 59.2317C85.7614 59.1364 86.0508 58.7976 86.192 58.4235C86.3332 58.0494 86.3508 57.6435 86.3649 57.2447L86.492 53.9941C86.5061 53.6588 86.5767 53.2388 86.9014 53.147C87.2049 53.0588 87.4908 53.3411 87.6285 53.627C87.7661 53.9129 87.8438 54.2447 88.0944 54.4388C88.4861 54.7423 89.1002 54.5129 89.3685 54.0964C89.6367 53.6799 89.6544 53.1576 89.6473 52.6635C89.6402 52.1694 89.6332 51.6505 89.8626 51.2129Z" fill="#3F83F8"/>
<path d="M92.9806 49.5294C96.991 45.9551 97.3445 39.8064 93.7701 35.796C90.1957 31.7856 84.047 31.4321 80.0366 35.0065C76.0262 38.5809 75.6728 44.7296 79.2471 48.74C82.8215 52.7504 88.9702 53.1038 92.9806 49.5294Z" fill="#3F83F8"/>
<path d="M99.5049 50.9481C99.0707 50.2952 98.3437 49.8999 97.6237 49.5893C95.6543 48.7387 93.5084 48.3046 91.3625 48.3187L80.686 49.9281C80.8872 50.3728 80.866 50.9093 80.6331 51.3363C80.4002 51.7634 79.9555 51.7493 79.4719 51.8163C85.9696 51.8269 92.4637 52.1552 98.9613 52.1657C99.1378 52.1657 99.3213 52.1657 99.4731 52.0705C99.8296 51.8481 99.7378 51.294 99.5049 50.9446V50.9481Z" fill="#3F83F8"/>
<g opacity="0.6">
<path d="M99.5048 50.9485C99.0707 50.2955 98.3437 49.9002 97.6236 49.5896C96.4519 49.0814 95.2131 48.7285 93.9531 48.5238C95.3754 46.8332 96.2366 44.6485 96.2366 42.2661C96.2366 36.8944 91.8813 32.5391 86.5095 32.5391C81.1378 32.5391 76.7825 36.8944 76.7825 42.2661C76.7825 45.4849 78.346 48.3402 80.7566 50.1085C80.8801 50.5144 80.8378 50.9661 80.6366 51.3402C80.4036 51.7673 79.9589 51.7532 79.4754 51.8202C80.7354 51.8202 81.9919 51.8379 83.2519 51.8591C83.4001 53.5708 83.5484 55.2861 83.7001 56.9979C83.746 57.5273 83.7989 58.0779 84.0601 58.5402C84.3248 59.0026 84.8613 59.3555 85.3801 59.2285C85.7684 59.1332 86.0578 58.7944 86.1989 58.4202C86.3401 58.0461 86.3578 57.6402 86.3719 57.2414L86.4989 53.9908C86.5131 53.6555 86.5836 53.2355 86.9083 53.1438C87.2119 53.0555 87.4978 53.3379 87.6354 53.6238C87.7731 53.9097 87.8507 54.2414 88.1013 54.4355C88.4931 54.7391 89.1072 54.5097 89.3754 54.0932C89.6437 53.6767 89.6613 53.1544 89.6542 52.6602C89.6542 52.4414 89.6507 52.2226 89.6684 52.0038C92.7672 52.0849 95.8695 52.1626 98.9684 52.1661C99.1448 52.1661 99.3284 52.1661 99.4801 52.0708C99.8366 51.8485 99.7448 51.2944 99.5119 50.9449L99.5048 50.9485Z" fill="white"/>
</g>
<g opacity="0.3">
<path d="M89.7318 34.5543C88.9307 34.0072 87.3001 33.5308 85.4436 33.7602C83.0224 33.8661 81.1377 34.9108 79.8354 36.4461C78.533 37.9778 77.9083 40.0672 78.1554 42.0649C78.2436 42.7672 78.466 43.5119 79.0342 43.9355C79.7365 44.4613 80.7636 44.3237 81.4977 43.8437C82.2318 43.3672 82.7365 42.6155 83.2271 41.8919C83.7142 41.1649 84.226 40.4202 84.9671 39.9508C85.9518 39.3296 87.1765 39.2943 88.313 39.0472C89.4495 38.8002 90.6742 38.1649 90.9177 37.0284C91.1224 36.079 90.533 35.1013 89.7283 34.5543H89.7318Z" fill="white"/>
</g>
<path opacity="0.3" d="M92.2625 47.4897C94.2001 45.7568 95.1813 43.0709 94.7083 40.5086C94.6554 40.1415 94.5566 39.7815 94.4507 39.418C94.6307 39.7497 94.7613 40.1062 94.8742 40.4697C95.6472 43.0462 94.5601 46.0709 92.2625 47.4897Z" fill="white"/>
<g opacity="0.2">
<path d="M60.427 57.1024C60.7764 57.173 61.1294 57.2435 61.4858 57.2294C61.8423 57.2153 62.2058 57.1059 62.4635 56.8588C62.8235 56.513 62.9082 55.9765 62.9646 55.4824C63.1199 54.1377 63.2117 52.7824 63.307 51.4341C63.5788 52.0588 63.9458 52.6412 64.3976 53.153C64.5423 53.3153 64.7258 53.4847 64.9411 53.4635C65.1564 53.4424 65.3046 53.2377 65.407 53.0471C65.7423 52.4118 65.9082 51.6918 65.8835 50.9718L62.2446 50.3965L60.4305 51.9988V57.1059L60.427 57.1024Z" fill="black"/>
</g>
<path d="M77.813 51.8023C78.0425 50.3905 76.5354 49.8787 76.0201 49.7799C75.5013 49.6811 74.9436 49.6952 74.4919 49.427L74.4813 49.4199C73.9872 49.1234 73.8248 48.4846 74.0613 47.9587C74.6966 46.5576 75.0319 44.9976 74.9895 43.3493C74.8483 37.8364 70.3695 33.3081 64.8566 33.1105C58.8672 32.8952 53.9472 37.6846 53.9472 43.6246C53.9472 45.534 54.4589 47.3234 55.3483 48.8658C55.3872 49.1834 55.3378 49.487 55.1154 49.7129C54.653 50.1893 53.8378 49.9176 53.213 50.1364C52.7154 50.3093 52.1366 50.9729 52.1648 51.4987L58.2248 51.5693C58.2248 53.1929 58.6554 54.8164 59.4813 56.2105C59.6825 56.5493 59.9154 56.8881 60.2507 57.0999C60.586 57.3117 61.0448 57.3646 61.3695 57.1423C61.7578 56.874 61.8248 56.334 61.853 55.8611C61.9378 54.4458 62.026 53.0305 62.1107 51.6152H62.5272C62.7636 52.127 63.046 52.614 63.3778 53.0693C63.533 53.2811 63.713 53.4964 63.9672 53.5634C64.5036 53.7011 64.9413 53.0764 64.9942 52.5223C65.0225 52.2364 64.9978 51.9399 65.0013 51.6505L77.813 51.7987V51.8023Z" fill="#3F83F8"/>
<g opacity="0.3">
<path d="M68.0754 35.2281C67.2742 34.6811 65.6436 34.2046 63.7871 34.434C61.3659 34.5399 59.4812 35.5846 58.1789 37.1199C56.8765 38.6516 56.2518 40.7411 56.4989 42.7387C56.5871 43.4411 56.8095 44.1858 57.3777 44.6093C58.0801 45.1352 59.1071 44.9975 59.8412 44.5175C60.5754 44.0411 61.0801 43.2893 61.5706 42.5658C62.0577 41.8387 62.5695 41.094 63.3106 40.6246C64.2954 40.0034 65.5201 39.9681 66.6565 39.7211C67.793 39.474 69.0177 38.8387 69.2612 37.7022C69.4659 36.7528 68.8765 35.7752 68.0718 35.2281H68.0754Z" fill="white"/>
</g>
<path opacity="0.3" d="M71.3118 48.9116C73.2494 47.1787 74.2306 44.4928 73.7576 41.9304C73.7047 41.5634 73.6059 41.2034 73.5 40.8398C73.68 41.1716 73.8106 41.5281 73.9235 41.8916C74.6965 44.4681 73.6094 47.4928 71.3118 48.9116Z" fill="white"/>
<path d="M54.6847 90.4111C54.9212 88.964 53.3788 88.4417 52.8459 88.3393C52.3129 88.237 51.7447 88.2546 51.2788 87.9793L51.2682 87.9723C50.76 87.6687 50.5941 87.0123 50.8376 86.4758C51.487 85.0429 51.8329 83.444 51.787 81.757C51.6423 76.1099 47.0576 71.4758 41.4106 71.2746C35.28 71.0558 30.24 75.9617 30.24 82.0429C30.24 83.9982 30.7623 85.8299 31.6729 87.4111C31.7118 87.7358 31.6623 88.0464 31.4365 88.2793C30.9635 88.7664 30.1306 88.4876 29.4882 88.7134C28.9765 88.8934 28.387 89.5676 28.4153 90.1076L34.62 90.1782C34.62 91.8405 35.0612 93.5029 35.9082 94.9323C36.1129 95.2817 36.3529 95.624 36.6953 95.8429C37.0376 96.0581 37.507 96.1146 37.8423 95.8852C38.2412 95.6099 38.3082 95.0558 38.3365 94.5723C38.4247 93.1217 38.5129 91.6746 38.6012 90.224H39.0282C39.2682 90.7499 39.5612 91.2476 39.9 91.7099C40.0588 91.9252 40.2423 92.1476 40.5035 92.2146C41.0541 92.3558 41.5023 91.7134 41.5553 91.1487C41.5835 90.8558 41.5588 90.5523 41.5623 90.2558L54.6812 90.4076L54.6847 90.4111Z" fill="#3F83F8"/>
<g opacity="0.3">
<path d="M44.7105 73.4374C43.8882 72.8762 42.2188 72.3891 40.32 72.6256C37.8388 72.7315 35.9117 73.8044 34.5776 75.375C33.2435 76.9456 32.6047 79.0844 32.8588 81.128C32.947 81.848 33.1764 82.6103 33.7588 83.0444C34.4752 83.5809 35.5305 83.4397 36.2823 82.9527C37.0341 82.4621 37.5529 81.6962 38.0505 80.9515C38.5517 80.2068 39.0741 79.4444 39.8329 78.9644C40.8388 78.3291 42.0953 78.2903 43.26 78.0397C44.4247 77.7856 45.6776 77.1362 45.9282 75.9715C46.1364 75.0009 45.5329 73.9986 44.7105 73.4374Z" fill="white"/>
</g>
<path opacity="0.3" d="M48.0283 87.4534C50.0154 85.6816 51.0248 82.9287 50.5342 80.3028C50.4777 79.9251 50.3789 79.5581 50.2695 79.1875C50.453 79.5263 50.5871 79.8934 50.7036 80.264C51.4907 82.904 50.3789 85.9957 48.0283 87.4534Z" fill="white"/>
<g opacity="0.5">
<path d="M54.6847 90.4111C54.9212 88.964 53.3788 88.4417 52.8459 88.3393C52.3129 88.237 51.7447 88.2546 51.2788 87.9793L51.2682 87.9723C50.76 87.6687 50.5941 87.0123 50.8376 86.4758C51.487 85.0429 51.8329 83.444 51.787 81.757C51.6423 76.1099 47.0576 71.4758 41.4106 71.2746C35.28 71.0558 30.24 75.9617 30.24 82.0429C30.24 83.9982 30.7623 85.8299 31.6729 87.4111C31.7118 87.7358 31.6623 88.0464 31.4365 88.2793C30.9635 88.7664 30.1306 88.4876 29.4882 88.7134C28.9765 88.8934 28.387 89.5676 28.4153 90.1076L34.62 90.1782C34.62 91.8405 35.0612 93.5029 35.9082 94.9323C36.1129 95.2817 36.3529 95.624 36.6953 95.8429C37.0376 96.0581 37.507 96.1146 37.8423 95.8852C38.2412 95.6099 38.3082 95.0558 38.3365 94.5723C38.4247 93.1217 38.5129 91.6746 38.6012 90.224H39.0282C39.2682 90.7499 39.5612 91.2476 39.9 91.7099C40.0588 91.9252 40.2423 92.1476 40.5035 92.2146C41.0541 92.3558 41.5023 91.7134 41.5553 91.1487C41.5835 90.8558 41.5588 90.5523 41.5623 90.2558L54.6812 90.4076L54.6847 90.4111Z" fill="white"/>
</g>
<path d="M59.7602 35.8809C57.5296 37.8044 56.1673 40.635 56.0437 43.5714C56.0437 43.7691 56.0402 43.9667 56.0331 44.1644C55.9696 43.8291 55.9308 43.3209 55.9167 42.975C55.899 40.1726 57.3602 37.3597 59.7637 35.8809H59.7602Z" fill="white"/>
<path d="M81.9919 34.6465C79.7613 36.57 78.3989 39.4006 78.2754 42.3371C78.2754 42.5347 78.2719 42.7324 78.2648 42.93C78.2013 42.5947 78.1625 42.0865 78.1484 41.7406C78.1307 38.9383 79.5919 36.1253 81.9954 34.6465H81.9919Z" fill="white"/>
<path d="M103.85 140.937C104.923 139.662 105.568 138.018 105.568 136.221C105.568 132.173 102.286 128.891 98.2378 128.891C94.1896 128.891 90.9072 132.173 90.9072 136.221C90.9072 138.646 92.086 140.795 93.9037 142.129L107.157 142.098C106.511 141.138 104.799 141.088 103.85 140.933V140.937Z" fill="#3F83F8"/>
<path opacity="0.3" d="M102.575 140.068C104.234 138.493 104.855 136.185 104.224 133.986C105.392 135.998 104.598 138.92 102.575 140.068Z" fill="white"/>
<g opacity="0.3">
<path d="M100.832 130.649C100.229 130.236 99.0003 129.88 97.6026 130.053C95.7779 130.13 94.3591 130.921 93.3779 132.075C92.3967 133.229 91.9273 134.803 92.1109 136.307C92.1779 136.836 92.3438 137.397 92.7744 137.718C93.3038 138.114 94.0767 138.011 94.6309 137.651C95.185 137.291 95.5662 136.727 95.9332 136.18C96.3003 135.633 96.6885 135.071 97.2462 134.718C97.9873 134.249 98.912 134.224 99.7662 134.037C100.624 133.85 101.545 133.374 101.729 132.516C101.884 131.8 101.439 131.065 100.832 130.653V130.649Z" fill="white"/>
</g>
<g opacity="0.5">
<path d="M103.85 140.937C104.923 139.662 105.568 138.018 105.568 136.221C105.568 132.173 102.286 128.891 98.2378 128.891C94.1896 128.891 90.9072 132.173 90.9072 136.221C90.9072 138.646 92.086 140.795 93.9037 142.129L107.157 142.098C106.511 141.138 104.799 141.088 103.85 140.933V140.937Z" fill="white"/>
</g>
<path d="M94.3483 131.277C92.6789 133.226 92.0754 135.851 92.7177 138.333C91.5495 136.021 92.2871 132.841 94.3483 131.277Z" fill="white"/>
<path d="M133.857 140.401C133.313 139.582 132.403 139.091 131.503 138.703C130.038 138.071 128.492 137.623 126.914 137.366C128.693 135.251 129.766 132.523 129.766 129.541C129.766 122.821 124.32 117.375 117.6 117.375C110.88 117.375 105.434 122.821 105.434 129.541C105.434 133.568 107.393 137.136 110.404 139.349C110.559 139.854 110.506 140.422 110.252 140.888C109.959 141.421 109.405 141.403 108.801 141.488C111.163 141.491 113.524 141.53 115.881 141.583L133.659 141.809C134.107 141.534 134.143 140.839 133.853 140.401H133.857Z" fill="#3F83F8"/>
<g opacity="0.5">
<path d="M133.857 140.401C133.313 139.582 132.403 139.091 131.503 138.703C130.038 138.071 128.492 137.623 126.914 137.366C128.693 135.251 129.766 132.523 129.766 129.541C129.766 122.821 124.32 117.375 117.6 117.375C110.88 117.375 105.434 122.821 105.434 129.541C105.434 133.568 107.393 137.136 110.404 139.349C110.559 139.854 110.506 140.422 110.252 140.888C109.959 141.421 109.405 141.403 108.801 141.488C111.163 141.491 113.524 141.53 115.881 141.583L133.659 141.809C134.107 141.534 134.143 140.839 133.853 140.401H133.857Z" fill="white"/>
</g>
<path opacity="0.3" d="M124.8 135.926C127.267 133.798 128.51 130.399 127.878 127.191C127.804 126.732 127.677 126.28 127.536 125.832C127.751 126.249 127.913 126.697 128.047 127.152C128.976 130.374 127.631 134.105 124.8 135.926Z" fill="white"/>
<g opacity="0.3">
<path d="M121.91 120.291C120.907 119.607 118.867 119.01 116.548 119.299C113.52 119.43 111.166 120.739 109.536 122.656C107.908 124.572 107.125 127.184 107.436 129.683C107.545 130.562 107.824 131.494 108.533 132.023C109.408 132.679 110.697 132.507 111.614 131.91C112.532 131.314 113.164 130.375 113.774 129.468C114.385 128.557 115.024 127.625 115.952 127.043C117.18 126.267 118.716 126.221 120.134 125.914C121.557 125.603 123.085 124.809 123.392 123.39C123.646 122.204 122.908 120.979 121.906 120.298L121.91 120.291Z" fill="white"/>
</g>
<path d="M109.564 122.881C107.894 124.829 107.291 127.455 107.933 129.936C106.765 127.624 107.503 124.444 109.564 122.881Z" fill="white"/>
<path d="M51.1415 45.6338C51.0674 42.0126 50.5415 40.3326 47.7498 38.1303L48.1874 37.5762C51.2262 39.9726 51.7733 41.9915 51.8474 45.6162L51.1415 45.6303V45.6338Z" fill="#404040"/>
<path d="M56.3014 48.0127C56.4356 46.5339 55.6238 44.9068 54.205 44.4692C53.252 44.1763 52.1544 44.4974 51.4767 45.221V45.2139C50.4356 44.9598 49.3167 45.5033 48.6673 46.2163C48.0179 46.9257 47.7391 47.9563 47.9367 48.8986C48.0744 49.5621 48.4379 50.1692 48.9109 50.6527C50.0579 51.8245 51.9038 52.248 53.4497 51.6974C54.992 51.1468 56.1532 49.6468 56.2979 48.0163L56.3014 48.0127Z" fill="#404040"/>
<g opacity="0.3">
<path d="M56.3014 48.0127C56.4356 46.5339 55.6238 44.9068 54.205 44.4692C53.252 44.1763 52.1544 44.4974 51.4767 45.221V45.2139C50.4356 44.9598 49.3167 45.5033 48.6673 46.2163C48.0179 46.9257 47.7391 47.9563 47.9367 48.8986C48.0744 49.5621 48.4379 50.1692 48.9109 50.6527C50.0579 51.8245 51.9038 52.248 53.4497 51.6974C54.992 51.1468 56.1532 49.6468 56.2979 48.0163L56.3014 48.0127Z" fill="white"/>
</g>
<g opacity="0.4">
<path d="M50.9087 45.8535C50.1146 45.8994 49.3628 46.3935 49.0063 47.1029C48.6499 47.8123 48.7028 48.7123 49.1405 49.3723C49.4087 49.7818 50.3299 50.4947 50.3299 50.4947C50.3299 50.4947 51.4063 49.4182 51.4169 49.3688C50.771 49.1288 50.2734 48.5288 50.1534 47.8512C50.0334 47.1735 50.2981 46.4394 50.824 45.9947" fill="white"/>
</g>
<path d="M6.28589 141.418C6.28589 143.977 8.36118 146.056 10.9235 146.056H14.3753L16.0518 147.404H133.504L135.18 146.056H138.551C141.109 146.056 143.188 143.98 143.188 141.418H6.28589Z" fill="#404040"/>
</g>
<defs>
<clipPath id="clip0_5499_28974">
<rect width="147.059" height="150" fill="white" transform="translate(0.970703)"/>
</clipPath>
</defs>
</svg>
