<svg width="151" height="180" viewBox="0 0 151 180" fill="none" xmlns="http://www.w3.org/2000/svg">
<g opacity="0.8" clip-path="url(#clip0_3543_126325)">
<path d="M51.7151 30.321C51.5526 30.321 51.4171 30.1916 51.4141 30.0261C51.3419 26.5199 50.8453 24.687 47.9741 22.4238C47.8447 22.3215 47.8206 22.1319 47.923 22.0025C48.0253 21.873 48.2149 21.849 48.3443 21.9513C51.39 24.353 51.9378 26.3784 52.013 30.014C52.016 30.1795 51.8836 30.318 51.7181 30.321H51.7121H51.7151Z" fill="#D4D4D4"/>
<path d="M56.5606 32.4247C56.6931 30.9349 55.8775 29.2947 54.4479 28.8523C53.4878 28.5543 52.3803 28.8794 51.7001 29.6077L51.7061 29.6017C50.6528 29.3458 49.5242 29.8936 48.8711 30.6099C48.218 31.3262 47.9351 32.3645 48.1338 33.3125C48.2752 33.9806 48.6394 34.5916 49.1179 35.0821C50.2736 36.2619 52.1365 36.6893 53.6925 36.1355C55.2485 35.5787 56.4162 34.0709 56.5636 32.4247H56.5606Z" fill="#F5F5F5"/>
<g opacity="0.4">
<path d="M51.1283 30.2451C50.3307 30.2903 49.5723 30.7899 49.2112 31.5031C48.853 32.2194 48.9042 33.1223 49.3466 33.7904C49.6175 34.2027 50.5444 34.922 50.5444 34.922C50.5444 34.922 51.6279 33.8386 51.6399 33.7874C50.9898 33.5436 50.4872 32.9417 50.3669 32.2555C50.2465 31.5724 50.5143 30.832 51.044 30.3836" fill="white"/>
</g>
<path d="M102.054 47.3433C101.903 47.3433 101.774 47.232 101.756 47.0785C101.337 43.5512 102.294 41.8839 104.6 39.4823C104.714 39.3619 104.904 39.3589 105.024 39.4732C105.144 39.5876 105.147 39.7802 105.033 39.8976C102.821 42.2029 101.96 43.7017 102.352 47.0062C102.37 47.1718 102.252 47.3223 102.087 47.3403C102.075 47.3403 102.063 47.3403 102.051 47.3403L102.054 47.3433Z" fill="#D4D4D4"/>
<path d="M103.24 35.0071C102.193 35.8829 101.66 37.469 102.298 38.6788C102.725 39.4884 103.652 39.997 104.561 39.9669H104.555C105.07 40.8126 106.153 41.1888 107.038 41.1467C107.923 41.1046 108.775 40.62 109.259 39.8767C109.599 39.353 109.759 38.724 109.768 38.101C109.783 36.5932 108.859 35.1125 107.495 34.4684C106.132 33.8213 104.402 34.0441 103.243 35.0101L103.24 35.0071Z" fill="#F5F5F5"/>
<g opacity="0.4">
<path d="M105.343 39.9218C105.888 40.4094 106.701 40.5749 107.393 40.3462C108.088 40.1174 108.636 39.4975 108.783 38.7812C108.874 38.3418 108.738 37.2764 108.738 37.2764C108.738 37.2764 107.339 37.2764 107.296 37.3035C107.558 37.8813 107.492 38.5946 107.128 39.1122C106.764 39.6299 106.114 39.9369 105.482 39.8857" fill="white"/>
</g>
<path d="M82.5872 18.6404C82.5059 18.6404 82.4247 18.6073 82.3645 18.5411C82.2531 18.4177 82.2621 18.2281 82.3855 18.1167C84.7511 15.9709 85.7172 14.5383 85.5577 11.2127C85.5486 11.0472 85.6781 10.9057 85.8436 10.8967C86.0061 10.8907 86.1506 11.0171 86.1596 11.1826C86.3311 14.7309 85.2567 16.326 82.7918 18.5621C82.7347 18.6133 82.6624 18.6404 82.5902 18.6404H82.5872Z" fill="#D4D4D4"/>
<path d="M83.836 23.1186C84.9436 22.318 85.5846 20.7741 85.0308 19.5221C84.6607 18.6824 83.7728 18.1136 82.8639 18.0805H82.8699C82.4155 17.2017 81.3621 16.7533 80.4773 16.7322C79.5925 16.7111 78.7077 17.1385 78.1719 17.8427C77.7957 18.3393 77.5911 18.9563 77.5429 19.5793C77.4226 21.0841 78.2412 22.622 79.5564 23.3623C80.8716 24.1027 82.6141 24.0034 83.836 23.1186Z" fill="#F5F5F5"/>
<g opacity="0.4">
<path d="M82.0787 18.0691C81.567 17.5454 80.7695 17.3227 80.0622 17.5032C79.355 17.6838 78.7621 18.2617 78.5665 18.9659C78.4461 19.3993 78.5063 20.4707 78.5063 20.4707C78.5063 20.4707 79.9027 20.567 79.9448 20.546C79.7221 19.9531 79.8395 19.2428 80.2368 18.7522C80.634 18.2617 81.3052 17.9998 81.9312 18.0961" fill="white"/>
</g>
<path d="M24.5118 80.7552C24.4125 80.7552 24.3132 80.7041 24.256 80.6138C22.5646 77.9051 21.3216 76.7013 18.0201 76.2709C17.8546 76.2498 17.7402 76.0994 17.7613 75.9338C17.7824 75.7683 17.9328 75.6509 18.0984 75.675C21.6196 76.1355 23.001 77.4717 24.7646 80.2947C24.8519 80.4362 24.8098 80.6228 24.6683 80.7101C24.6202 80.7402 24.563 80.7552 24.5088 80.7552H24.5118Z" fill="#D4D4D4"/>
<path d="M29.4383 80.0747C28.8454 78.8437 27.4399 77.9378 26.1097 78.2599C25.2188 78.4766 24.4995 79.247 24.3069 80.1379V80.1318C23.3619 80.4238 22.7329 81.3808 22.5553 82.2506C22.3778 83.1174 22.6426 84.0654 23.2415 84.7155C23.6629 85.1759 24.2347 85.4829 24.8396 85.6424C26.2993 86.0277 27.9576 85.4919 28.9206 84.3302C29.8807 83.1655 30.0914 81.435 29.4383 80.0747Z" fill="#F5F5F5"/>
<g opacity="0.4">
<path d="M24.156 80.9092C23.5511 81.3185 23.19 82.0649 23.2411 82.7932C23.2953 83.5215 23.7588 84.2077 24.4179 84.5267C24.8212 84.7223 25.8866 84.8518 25.8866 84.8518C25.8866 84.8518 26.2297 83.4944 26.2146 83.4493C25.5916 83.5636 24.9145 83.3229 24.5022 82.8444C24.0898 82.3658 23.9514 81.6586 24.156 81.0597" fill="white"/>
</g>
<path d="M132.15 100.664C132.116 100.664 132.086 100.658 132.053 100.649C128.689 99.5081 127.596 97.9281 126.416 94.8161C126.356 94.6596 126.434 94.4881 126.591 94.4279C126.747 94.3707 126.919 94.449 126.979 94.6025C128.111 97.591 129.092 99.0115 132.246 100.08C132.402 100.134 132.487 100.306 132.435 100.462C132.393 100.589 132.276 100.667 132.15 100.667V100.664Z" fill="#D4D4D4"/>
<path d="M121.794 94.1217C122.134 95.4459 123.338 96.6076 124.704 96.5504C125.619 96.5113 126.477 95.8943 126.838 95.0606V95.0667C127.819 94.9643 128.623 94.1487 128.966 93.3331C129.309 92.5175 129.237 91.5364 128.776 90.781C128.451 90.2483 127.951 89.833 127.389 89.5591C126.034 88.897 124.301 89.0956 123.13 90.0497C121.959 91.0037 121.415 92.659 121.791 94.1217H121.794Z" fill="#F5F5F5"/>
<g opacity="0.4">
<path d="M127.135 94.3354C127.809 94.0525 128.309 93.3903 128.399 92.665C128.49 91.9397 128.168 91.1783 127.584 90.7359C127.226 90.465 126.205 90.1279 126.205 90.1279C126.205 90.1279 125.603 91.392 125.609 91.4401C126.244 91.4522 126.858 91.8163 127.171 92.3701C127.484 92.9208 127.478 93.6401 127.162 94.1879" fill="white"/>
</g>
<path d="M39.2672 41.3106C39.4237 41.2594 30.9758 59.2688 26.8767 67.9846C26.4042 68.9929 24.7128 68.6046 24.7158 67.4911C24.7429 57.8092 24.8272 37.7442 25.0649 37.6689C25.3749 37.5696 39.2642 41.3106 39.2642 41.3106H39.2672Z" fill="#FAFAFA"/>
<path d="M25.1757 37.5648L24.9561 37.7705L35.6265 49.1652L35.8462 48.9595L25.1757 37.5648Z" fill="#D4D4D4"/>
<path d="M37.754 44.6314C37.7149 44.6314 37.6728 44.6164 37.6457 44.5832L33.1915 39.8251C33.1343 39.7649 33.1373 39.6686 33.1975 39.6114C33.2577 39.5542 33.354 39.5572 33.4112 39.6174L37.8654 44.3756C37.9226 44.4358 37.9195 44.5321 37.8594 44.5893C37.8293 44.6163 37.7931 44.6284 37.757 44.6284L37.754 44.6314Z" fill="#D4D4D4"/>
<path d="M25.0589 44.0985L24.8369 44.3018L33.4774 53.7411L33.6994 53.5379L25.0589 44.0985Z" fill="#D4D4D4"/>
<path d="M24.9945 50.7958L24.7725 50.999L31.4113 58.2517L31.6333 58.0485L24.9945 50.7958Z" fill="#D4D4D4"/>
<path d="M24.8734 56.5605L24.6514 56.7637L29.565 62.1316L29.787 61.9284L24.8734 56.5605Z" fill="#D4D4D4"/>
<path d="M24.8529 61.2694L24.6309 61.4727L28.0712 65.2311L28.2932 65.0279L24.8529 61.2694Z" fill="#D4D4D4"/>
<path d="M24.8405 64.9718L24.6123 65.168L26.8197 67.7352L27.0479 67.539L24.8405 64.9718Z" fill="#D4D4D4"/>
<path d="M37.7172 40.7298L24.7832 46.0898L24.8984 46.3679L37.8324 41.0078L37.7172 40.7298Z" fill="#D4D4D4"/>
<path d="M30.6614 38.8516L24.8506 41.2598L24.9658 41.5378L30.7766 39.1297L30.6614 38.8516Z" fill="#D4D4D4"/>
<path d="M37.0607 45.9461L24.7354 51.2236L24.8538 51.5003L37.1792 46.2227L37.0607 45.9461Z" fill="#D4D4D4"/>
<path d="M34.2232 52.1594L24.7861 56.2002L24.9046 56.4769L34.3416 52.436L34.2232 52.1594Z" fill="#D4D4D4"/>
<path d="M31.4495 57.8665L24.79 60.5449L24.9023 60.8241L31.5618 58.1457L31.4495 57.8665Z" fill="#D4D4D4"/>
<path d="M29.5584 62.01L24.667 64.1045L24.7855 64.3812L29.6769 62.2867L29.5584 62.01Z" fill="#D4D4D4"/>
<path d="M27.8348 65.5613L24.6504 66.9248L24.7689 67.2015L27.9533 65.8379L27.8348 65.5613Z" fill="#D4D4D4"/>
<path d="M24.9684 37.868C25.17 36.9501 28.4715 37.2601 32.4292 38.1269C36.3868 38.9906 39.4355 40.4352 39.2339 41.3532C39.0322 42.2711 35.6615 42.3132 31.7039 41.4495C27.7462 40.5857 24.7697 38.786 24.9684 37.868Z" fill="#D4D4D4"/>
<path d="M114.408 77.6073C114.276 77.7186 115.35 56.7237 115.877 46.5572C115.937 45.3835 117.746 45.0855 118.188 46.178C122.028 55.6613 129.959 75.329 129.757 75.4975C129.492 75.7172 114.408 77.6073 114.408 77.6073Z" fill="#FAFAFA"/>
<path d="M114.829 68.4716L114.704 68.7451L129.695 75.6341L129.821 75.3606L114.829 68.4716Z" fill="#D4D4D4"/>
<path d="M120.882 76.9299C120.861 76.9299 120.84 76.9269 120.819 76.9148L114.559 74.0377C114.484 74.0016 114.45 73.9143 114.484 73.839C114.52 73.7638 114.607 73.7307 114.682 73.7638L120.942 76.641C121.017 76.6771 121.05 76.7644 121.017 76.8396C120.993 76.8938 120.939 76.9269 120.882 76.9269V76.9299Z" fill="#D4D4D4"/>
<path d="M115.103 63.1342L114.974 63.4062L127.199 69.1927L127.328 68.9207L115.103 63.1342Z" fill="#D4D4D4"/>
<path d="M115.329 57.8979L115.2 58.1699L124.593 62.616L124.722 62.344L115.329 57.8979Z" fill="#D4D4D4"/>
<path d="M115.584 53.3676L115.456 53.6396L122.406 56.9295L122.535 56.6574L115.584 53.3676Z" fill="#D4D4D4"/>
<path d="M115.809 49.7338L115.681 50.0059L120.55 52.3107L120.679 52.0386L115.809 49.7338Z" fill="#D4D4D4"/>
<path d="M116.031 46.7887L115.894 47.0566L119.079 48.6873L119.216 48.4194L116.031 46.7887Z" fill="#D4D4D4"/>
<path d="M126.461 66.9367L115.941 77.3398L116.153 77.5538L126.673 67.1507L126.461 66.9367Z" fill="#D4D4D4"/>
<path d="M128.322 71.6857L123.595 76.3604L123.807 76.5743L128.534 71.8997L128.322 71.6857Z" fill="#D4D4D4"/>
<path d="M124.446 61.8839L114.49 71.9658L114.704 72.1773L124.66 62.0954L124.446 61.8839Z" fill="#D4D4D4"/>
<path d="M122.411 57.035L114.788 64.7549L115.002 64.9664L122.625 57.2465L122.411 57.035Z" fill="#D4D4D4"/>
<path d="M120.678 52.775L115.238 58.0596L115.447 58.2754L120.887 52.9909L120.678 52.775Z" fill="#D4D4D4"/>
<path d="M119.369 49.2516L115.417 53.2539L115.631 53.4654L119.583 49.463L119.369 49.2516Z" fill="#D4D4D4"/>
<path d="M118.257 46.4857L115.684 49.0918L115.898 49.3033L118.471 46.6971L118.257 46.4857Z" fill="#D4D4D4"/>
<path d="M129.775 75.2658C129.946 76.2439 126.591 77.2581 122.371 77.9925C118.152 78.7268 114.594 78.5312 114.423 77.5531C114.251 76.575 117.535 75.1845 121.754 74.4502C125.974 73.7158 129.603 74.2847 129.775 75.2628V75.2658Z" fill="#D4D4D4"/>
<path d="M103.622 118.17C103.465 118.095 122.952 110.207 132.387 106.394C133.477 105.954 134.509 107.465 133.706 108.329C126.729 115.814 112.25 131.304 112.012 131.196C111.699 131.049 103.622 118.173 103.622 118.173V118.17Z" fill="#FAFAFA"/>
<path d="M112.073 114.7L111.772 114.701L111.856 131.2L112.157 131.198L112.073 114.7Z" fill="#D4D4D4"/>
<path d="M107.104 123.84C107.019 123.84 106.953 123.774 106.953 123.69L106.917 116.801C106.917 116.717 106.983 116.65 107.067 116.65C107.152 116.65 107.218 116.717 107.218 116.801L107.254 123.69C107.254 123.774 107.188 123.84 107.104 123.84Z" fill="#D4D4D4"/>
<path d="M116.739 112.698L116.659 126.223L116.96 126.224L117.04 112.7L116.739 112.698Z" fill="#D4D4D4"/>
<path d="M121.583 110.687L121.521 121.079L121.822 121.081L121.884 110.689L121.583 110.687Z" fill="#D4D4D4"/>
<path d="M125.798 109.011L125.752 116.7L126.053 116.702L126.099 109.013L125.798 109.011Z" fill="#D4D4D4"/>
<path d="M129.189 107.672L129.157 113.06L129.458 113.061L129.49 107.674L129.189 107.672Z" fill="#D4D4D4"/>
<path d="M131.956 106.625L131.823 110.201L132.124 110.212L132.257 106.636L131.956 106.625Z" fill="#D4D4D4"/>
<path d="M104.51 119.437L104.406 119.72L118.281 124.855L118.386 124.573L104.51 119.437Z" fill="#D4D4D4"/>
<path d="M108.632 125.961L108.528 126.243L114.763 128.551L114.867 128.269L108.632 125.961Z" fill="#D4D4D4"/>
<path d="M108.755 115.859L108.653 116.143L121.997 120.907L122.099 120.624L108.755 115.859Z" fill="#D4D4D4"/>
<path d="M115.429 113.103L115.328 113.387L125.545 117.037L125.646 116.754L115.429 113.103Z" fill="#D4D4D4"/>
<path d="M121.682 110.654L121.574 110.936L128.66 113.64L128.767 113.359L121.682 110.654Z" fill="#D4D4D4"/>
<path d="M126.12 108.819L126.019 109.103L131.316 110.995L131.417 110.712L126.12 108.819Z" fill="#D4D4D4"/>
<path d="M129.996 107.287L129.895 107.57L133.344 108.802L133.445 108.519L129.996 107.287Z" fill="#D4D4D4"/>
<path d="M112.229 131.112C111.413 131.681 109.078 129.066 106.631 125.553C104.184 122.038 102.86 118.731 103.676 118.162C104.491 117.593 107.134 119.983 109.584 123.498C112.03 127.013 113.048 130.543 112.232 131.112H112.229Z" fill="#D4D4D4"/>
<path d="M132.823 100.591H78.4248C77.4527 100.591 76.6611 99.7996 76.6611 98.8275V19.5908C76.6611 18.6187 77.4527 17.8271 78.4248 17.8271H132.823C133.795 17.8271 134.587 18.6187 134.587 19.5908V98.8275C134.587 99.7996 133.795 100.591 132.823 100.591ZM78.4248 17.9024C77.4948 17.9024 76.7364 18.6608 76.7364 19.5908V98.8275C76.7364 99.7575 77.4948 100.516 78.4248 100.516H132.823C133.753 100.516 134.512 99.7575 134.512 98.8275V19.5908C134.512 18.6608 133.753 17.9024 132.823 17.9024H78.4248Z" fill="#D4D4D4"/>
<path d="M70.0947 100.591H15.6992C14.7271 100.591 13.9355 99.7996 13.9355 98.8275V19.5908C13.9355 18.6187 14.7271 17.8271 15.6992 17.8271H70.0947C71.0668 17.8271 71.8583 18.6187 71.8583 19.5908V98.8275C71.8583 99.7996 71.0668 100.591 70.0947 100.591ZM15.6992 17.9024C14.7692 17.9024 14.0108 18.6608 14.0108 19.5908V98.8275C14.0108 99.7575 14.7692 100.516 15.6992 100.516H70.0947C71.0247 100.516 71.7831 99.7575 71.7831 98.8275V19.5908C71.7831 18.6608 71.0247 17.9024 70.0947 17.9024H15.6992Z" fill="#D4D4D4"/>
<path d="M149.702 118.972H-0.77832V119.047H149.702V118.972Z" fill="#D4D4D4"/>
<path d="M19.6059 123.263H14.7725V123.338H19.6059V123.263Z" fill="#D4D4D4"/>
<path d="M66.6006 122.447H50.4902V122.523H66.6006V122.447Z" fill="#D4D4D4"/>
<path d="M30.8161 126.059H19.9062V126.134H30.8161V126.059Z" fill="#D4D4D4"/>
<path d="M126.088 122.408H113.09V122.483H126.088V122.408Z" fill="#D4D4D4"/>
<path d="M130.675 122.408H128.77V122.483H130.675V122.408Z" fill="#D4D4D4"/>
<path d="M110.607 124.283H94.3882V124.358H110.607V124.283Z" fill="#D4D4D4"/>
<path d="M150.696 161.421C150.696 162.641 117.029 163.627 75.4995 163.627C33.9699 163.627 0.302734 162.637 0.302734 161.421C0.302734 160.204 33.9699 159.214 75.4995 159.214C117.029 159.214 150.696 160.204 150.696 161.421Z" fill="#FAFAFA"/>
<path d="M17.8704 139.089C17.7732 139.273 9.66597 115.466 5.74916 103.939C5.29556 102.607 7.17476 101.476 8.14676 102.495C16.614 111.333 34.1388 129.671 33.9876 129.949C33.7932 130.312 17.8668 139.093 17.8668 139.093L17.8704 139.089Z" fill="#9A3412"/>
<path d="M14.286 128.742L14.2676 129.102L33.9768 130.114L33.9953 129.754L14.286 128.742Z" fill="#C2410C"/>
<path d="M16.4755 134.689L16.457 135.049L24.6866 135.471L24.7051 135.112L16.4755 134.689Z" fill="#C2410C"/>
<path d="M12.2276 122.69L12.2051 123.049L28.3517 124.062L28.3743 123.703L12.2276 122.69Z" fill="#C2410C"/>
<path d="M10.1563 116.776L10.1338 117.136L22.5402 117.914L22.5627 117.555L10.1563 116.776Z" fill="#C2410C"/>
<path d="M8.43862 111.644L8.41602 112.003L17.5959 112.58L17.6185 112.221L8.43862 111.644Z" fill="#C2410C"/>
<path d="M7.07039 107.487L7.04785 107.847L13.4792 108.25L13.5017 107.891L7.07039 107.487Z" fill="#C2410C"/>
<path d="M6.01611 104.122L5.98242 104.48L10.244 104.881L10.2777 104.523L6.01611 104.122Z" fill="#C2410C"/>
<path d="M26.5257 121.893L19.4434 138.111L19.7733 138.255L26.8557 122.037L26.5257 121.893Z" fill="#C2410C"/>
<path d="M30.6981 126.345L27.5156 133.633L27.8455 133.777L31.028 126.489L30.6981 126.345Z" fill="#C2410C"/>
<path d="M22.0643 117.175L15.4746 132.79L15.8063 132.93L22.396 117.315L22.0643 117.175Z" fill="#C2410C"/>
<path d="M17.6474 112.69L12.6016 124.646L12.9332 124.786L17.9791 112.83L17.6474 112.69Z" fill="#C2410C"/>
<path d="M13.8334 108.729L10.21 117.473L10.5425 117.61L14.1659 108.867L13.8334 108.729Z" fill="#C2410C"/>
<path d="M10.8279 105.389L8.21191 111.588L8.54359 111.728L11.1596 105.529L10.8279 105.389Z" fill="#C2410C"/>
<path d="M8.36944 102.807L6.66602 106.844L6.99769 106.984L8.70111 102.947L8.36944 102.807Z" fill="#C2410C"/>
<path d="M9.85645 112.157C12.5024 118.59 14.936 125.153 17.1248 131.759C14.4788 125.322 12.0452 118.76 9.85645 112.157Z" fill="white"/>
<path d="M123.238 107.485H25.1777V155.365H123.238V107.485Z" fill="#3F83F8"/>
<path opacity="0.2" d="M123.238 138.567H25.1777V147.416H123.238V138.567Z" fill="black"/>
<g opacity="0.2">
<path d="M25.1777 132.091C26.7833 132.235 28.3997 130.896 29.4833 129.549C30.7505 127.973 32.1509 126.086 34.1741 126.039C36.5465 125.982 38.2745 128.541 40.6325 128.79C43.7465 129.121 45.6437 125.571 48.1565 123.707C50.7125 121.809 54.1181 121.647 57.2969 121.561C60.7961 121.464 65.0765 121.813 66.5957 124.967C67.2833 126.396 67.1861 128.059 67.3517 129.636C67.5173 131.213 68.1221 132.951 69.5765 133.592C71.4917 134.435 73.6733 132.829 74.5949 130.95C75.5165 129.071 75.7037 126.896 76.6613 125.035C77.6189 123.174 79.8905 121.647 81.7517 122.601C83.4977 123.494 83.7821 125.928 85.2365 127.238C87.1733 128.981 90.3053 128.073 92.4113 126.547C94.5209 125.021 96.3533 122.922 98.8733 122.267C102.077 121.439 105.31 123.185 108.298 124.614C111.286 126.043 115.019 127.148 117.737 125.255C118.796 124.517 119.57 123.39 120.729 122.821C121.514 122.436 122.594 122.519 123.242 123.005V107.481H25.1777V132.084V132.091Z" fill="black"/>
</g>
<path d="M125.909 106.844C125.931 111.441 125.891 118.407 125.517 121.359C125.42 122.133 124.754 122.496 124.084 122.097C123.465 121.726 123.829 120.941 123.789 120.3C123.706 119.015 121.888 118.569 120.733 119.138C119.577 119.706 118.799 120.833 117.741 121.571C115.023 123.465 111.29 122.36 108.302 120.93C105.314 119.501 102.085 117.755 98.877 118.583C96.357 119.235 94.5246 121.334 92.415 122.864C90.3054 124.39 87.1734 125.297 85.2402 123.555C83.7822 122.244 83.4978 119.811 81.7554 118.918C79.8942 117.964 77.6226 119.494 76.665 121.352C75.7074 123.213 75.5202 125.387 74.5986 127.266C73.677 129.146 71.4954 130.751 69.5802 129.909C68.1294 129.268 67.5246 127.533 67.3554 125.952C67.1898 124.376 67.287 122.712 66.5994 121.283C65.0802 118.13 60.8034 117.78 57.3006 117.878C54.1182 117.964 50.7126 118.126 48.1602 120.023C45.6474 121.888 43.7466 125.434 40.6362 125.106C38.2782 124.858 36.5502 122.298 34.1778 122.356C32.1546 122.403 30.7542 124.289 29.487 125.866C28.2198 127.443 26.2182 129.009 24.3678 128.199C22.5318 127.396 22.3086 124.923 22.3662 122.921C22.4994 118.176 22.6362 113.428 22.7694 108.683C22.7802 108.251 22.7946 107.6 22.8054 106.887C22.845 104.712 24.6126 102.966 26.787 102.956L121.517 102.491C123.933 102.48 125.899 104.428 125.909 106.844Z" fill="#3F83F8"/>
<g opacity="0.8">
<path d="M125.909 106.844C125.931 111.441 125.891 118.407 125.517 121.359C125.42 122.133 124.754 122.496 124.084 122.097C123.465 121.726 123.829 120.941 123.789 120.3C123.706 119.015 121.888 118.569 120.733 119.138C119.577 119.706 118.799 120.833 117.741 121.571C115.023 123.465 111.29 122.36 108.302 120.93C105.314 119.501 102.085 117.755 98.877 118.583C96.357 119.235 94.5246 121.334 92.415 122.864C90.3054 124.39 87.1734 125.297 85.2402 123.555C83.7822 122.244 83.4978 119.811 81.7554 118.918C79.8942 117.964 77.6226 119.494 76.665 121.352C75.7074 123.213 75.5202 125.387 74.5986 127.266C73.677 129.146 71.4954 130.751 69.5802 129.909C68.1294 129.268 67.5246 127.533 67.3554 125.952C67.1898 124.376 67.287 122.712 66.5994 121.283C65.0802 118.13 60.8034 117.78 57.3006 117.878C54.1182 117.964 50.7126 118.126 48.1602 120.023C45.6474 121.888 43.7466 125.434 40.6362 125.106C38.2782 124.858 36.5502 122.298 34.1778 122.356C32.1546 122.403 30.7542 124.289 29.487 125.866C28.2198 127.443 26.2182 129.009 24.3678 128.199C22.5318 127.396 22.3086 124.923 22.3662 122.921C22.4994 118.176 22.6362 113.428 22.7694 108.683C22.7802 108.251 22.7946 107.6 22.8054 106.887C22.845 104.712 24.6126 102.966 26.787 102.956L121.517 102.491C123.933 102.48 125.899 104.428 125.909 106.844Z" fill="white"/>
</g>
<g opacity="0.2">
<path d="M37.7168 109.141C38.0732 109.213 38.4332 109.285 38.7968 109.27C39.1604 109.256 39.5312 109.144 39.794 108.892C40.1612 108.54 40.2476 107.992 40.3052 107.488C40.4636 106.117 40.5572 104.734 40.6544 103.359C40.9316 103.996 41.306 104.59 41.7668 105.112C41.9144 105.278 42.1016 105.451 42.3212 105.429C42.5408 105.408 42.692 105.199 42.7964 105.004C43.1384 104.356 43.3112 103.032 43.286 102.301H39.5708L37.7204 103.935V109.144L37.7168 109.141Z" fill="black"/>
</g>
<path d="M28.2559 104.871C52.6135 104.637 79.9375 104.634 104.291 104.871C79.9339 105.109 52.6099 105.105 28.2559 104.871Z" fill="white"/>
<path opacity="0.2" d="M95.8779 133.095C95.8779 134.017 95.1291 134.766 94.2075 134.766C93.2859 134.766 92.5371 134.017 92.5371 133.095C92.5371 132.174 93.2859 131.425 94.2075 131.425C95.1291 131.425 95.8779 132.174 95.8779 133.095Z" fill="black"/>
<path opacity="0.2" d="M50.9931 134.157C50.9931 135.078 50.2443 135.827 49.3227 135.827C48.4011 135.827 47.6523 135.078 47.6523 134.157C47.6523 133.235 48.4011 132.486 49.3227 132.486C50.2443 132.486 50.9931 133.235 50.9931 134.157Z" fill="black"/>
<path opacity="0.2" d="M81.6797 151.261C81.6797 151.722 81.3053 152.096 80.8445 152.096C80.3837 152.096 80.0093 151.722 80.0093 151.261C80.0093 150.8 80.3837 150.426 80.8445 150.426C81.3053 150.426 81.6797 150.8 81.6797 151.261Z" fill="black"/>
<path opacity="0.2" d="M117.54 134.352C117.54 134.813 117.165 135.187 116.704 135.187C116.244 135.187 115.869 134.813 115.869 134.352C115.869 133.891 116.244 133.517 116.704 133.517C117.165 133.517 117.54 133.891 117.54 134.352Z" fill="black"/>
<path opacity="0.2" d="M44.1675 136.249C44.1675 136.71 43.7931 137.084 43.3323 137.084C42.8715 137.084 42.4971 136.71 42.4971 136.249C42.4971 135.788 42.8715 135.414 43.3323 135.414C43.7931 135.414 44.1675 135.788 44.1675 136.249Z" fill="black"/>
<path d="M26.7942 132.843C27.0354 139.586 27.0354 146.375 26.7942 153.118C26.553 146.375 26.553 139.586 26.7942 132.843Z" fill="white"/>
<path d="M35.9458 102.744L112.205 102.744V65.5093H35.9458V102.744Z" fill="#3F83F8"/>
<g opacity="0.2">
<path d="M112.205 68.4149C111.586 68.0657 110.873 67.8605 110.113 67.8533L40.5039 67.0469C38.9559 67.0469 37.2387 67.0361 35.9463 68.4041V86.5733C36.3099 86.5409 36.7239 86.4725 37.1919 86.4005C40.7271 85.8749 42.7431 80.5001 46.2135 81.3569C48.0423 81.8105 49.2087 83.9633 51.0915 84.0533C52.4163 84.1181 53.5539 83.0957 54.2919 81.9941C55.0335 80.8925 55.5627 79.6253 56.5311 78.7145C58.5795 76.7813 61.9383 77.0801 64.4403 78.3689C66.9423 79.6577 68.9439 81.7385 71.3055 83.2721C73.6671 84.8057 76.7523 85.7669 79.2795 84.5285C82.5015 82.9481 84.0819 78.2141 87.6711 78.2393C90.2811 78.2573 92.5887 81.0185 95.0799 80.2301C96.1311 79.8989 96.9015 78.9881 97.9131 78.5525C99.9759 77.6705 102.341 79.0097 103.842 80.6801C105.34 82.3505 106.452 84.4241 108.306 85.6877C109.411 86.4401 110.941 86.7317 112.201 86.4149V68.4113L112.205 68.4149Z" fill="black"/>
</g>
<path opacity="0.2" d="M35.9458 96.5596L112.205 96.5596V89.68L35.9458 89.68V96.5596Z" fill="black"/>
<path d="M110.113 64.2025C112.489 64.2313 114.407 66.1537 114.429 68.5297C114.458 71.9641 114.49 75.3985 114.519 78.8329C114.526 79.6537 114.526 80.5069 114.173 81.2485C113.212 83.2753 110.163 83.3077 108.305 82.0441C106.451 80.7805 105.343 78.7069 103.841 77.0365C102.344 75.3661 99.975 74.0269 97.9122 74.9089C96.9006 75.3409 96.1302 76.2517 95.079 76.5865C92.5878 77.3713 90.2838 74.6137 87.6702 74.5957C84.081 74.5741 82.5006 79.3045 79.2786 80.8849C76.7514 82.1233 73.6662 81.1621 71.3046 79.6285C68.943 78.0949 66.9414 76.0141 64.4394 74.7253C61.9374 73.4365 58.5786 73.1377 56.5302 75.0709C55.5654 75.9817 55.0326 77.2489 54.291 78.3505C53.5494 79.4521 52.4154 80.4745 51.0906 80.4097C49.2078 80.3197 48.0414 78.1669 46.2126 77.7133C42.7422 76.8529 40.7262 82.2277 37.191 82.7569C35.3334 83.0341 34.329 83.2861 34.0374 81.4357C33.7674 79.7185 33.9654 76.1941 33.9258 74.0377C33.717 63.3565 37.443 63.4033 40.5066 63.4033L110.116 64.2097L110.113 64.2025Z" fill="#3F83F8"/>
<g opacity="0.8">
<path d="M110.113 64.2025C112.489 64.2313 114.407 66.1537 114.429 68.5297C114.458 71.9641 114.49 75.3985 114.519 78.8329C114.526 79.6537 114.526 80.5069 114.173 81.2485C113.212 83.2753 110.163 83.3077 108.305 82.0441C106.451 80.7805 105.343 78.7069 103.841 77.0365C102.344 75.3661 99.975 74.0269 97.9122 74.9089C96.9006 75.3409 96.1302 76.2517 95.079 76.5865C92.5878 77.3713 90.2838 74.6137 87.6702 74.5957C84.081 74.5741 82.5006 79.3045 79.2786 80.8849C76.7514 82.1233 73.6662 81.1621 71.3046 79.6285C68.943 78.0949 66.9414 76.0141 64.4394 74.7253C61.9374 73.4365 58.5786 73.1377 56.5302 75.0709C55.5654 75.9817 55.0326 77.2489 54.291 78.3505C53.5494 79.4521 52.4154 80.4745 51.0906 80.4097C49.2078 80.3197 48.0414 78.1669 46.2126 77.7133C42.7422 76.8529 40.7262 82.2277 37.191 82.7569C35.3334 83.0341 34.329 83.2861 34.0374 81.4357C33.7674 79.7185 33.9654 76.1941 33.9258 74.0377C33.717 63.3565 37.443 63.4033 40.5066 63.4033L110.116 64.2097L110.113 64.2025Z" fill="white"/>
</g>
<path d="M40.3018 65.2324C45.061 64.9876 49.8598 64.9876 54.619 65.2324C49.8598 65.4772 45.061 65.4772 40.3018 65.2324Z" fill="white"/>
<path d="M68.2666 65.1494C72.1006 64.9046 75.9706 64.9046 79.8046 65.1494C75.9706 65.3942 72.1006 65.3942 68.2666 65.1494Z" fill="white"/>
<path d="M92.4404 65.3184C96.8648 65.0736 101.325 65.0736 105.75 65.3184C101.325 65.5632 96.8648 65.5632 92.4404 65.3184Z" fill="white"/>
<path opacity="0.1" d="M89.4996 85.241C89.4996 85.8566 88.9992 86.357 88.3836 86.357C87.768 86.357 87.2676 85.8566 87.2676 85.241C87.2676 84.6254 87.768 84.125 88.3836 84.125C88.9992 84.125 89.4996 84.6254 89.4996 85.241Z" fill="black"/>
<path opacity="0.1" d="M86.9651 87.2133C86.9651 87.5193 86.7167 87.7713 86.4071 87.7713C86.0975 87.7713 85.8491 87.5229 85.8491 87.2133C85.8491 86.9037 86.0975 86.6553 86.4071 86.6553C86.7167 86.6553 86.9651 86.9037 86.9651 87.2133Z" fill="black"/>
<path opacity="0.1" d="M65.5707 88.0994C65.8789 88.0994 66.1287 87.8496 66.1287 87.5414C66.1287 87.2332 65.8789 86.9834 65.5707 86.9834C65.2625 86.9834 65.0127 87.2332 65.0127 87.5414C65.0127 87.8496 65.2625 88.0994 65.5707 88.0994Z" fill="black"/>
<path opacity="0.1" d="M105.764 99.8426C106.072 99.8426 106.322 99.5927 106.322 99.2846C106.322 98.9764 106.072 98.7266 105.764 98.7266C105.456 98.7266 105.206 98.9764 105.206 99.2846C105.206 99.5927 105.456 99.8426 105.764 99.8426Z" fill="black"/>
<path opacity="0.2" d="M85.021 99.2847C85.021 100.206 84.2722 100.955 83.3506 100.955C82.429 100.955 81.6802 100.206 81.6802 99.2847C81.6802 98.3631 82.429 97.6143 83.3506 97.6143C84.2722 97.6143 85.021 98.3631 85.021 99.2847Z" fill="black"/>
<path opacity="0.2" d="M62.5752 83.6929C62.5752 84.6145 61.8264 85.3633 60.9048 85.3633C59.9832 85.3633 59.2344 84.6145 59.2344 83.6929C59.2344 82.7713 59.9832 82.0225 60.9048 82.0225C61.8264 82.0225 62.5752 82.7713 62.5752 83.6929Z" fill="black"/>
<path opacity="0.1" d="M57.5892 86.2526C57.9924 86.6558 57.9924 87.311 57.5892 87.7142C57.186 88.1174 56.5308 88.1174 56.1276 87.7142C55.7244 87.311 55.7244 86.6558 56.1276 86.2526C56.5308 85.8494 57.186 85.8494 57.5892 86.2526Z" fill="black"/>
<path d="M36.151 86.3896C33.8758 88.3516 32.4862 91.2389 32.3602 94.2341C32.3602 94.4357 32.3566 94.6372 32.3494 94.8389C32.2846 94.4969 32.245 93.9785 32.2306 93.6257C32.2126 90.7673 33.703 87.898 36.1546 86.3896H36.151Z" fill="white"/>
<path d="M69.7965 40.0609C69.7173 36.3673 69.1845 34.6537 66.3369 32.4109L66.7833 31.8457C69.8829 34.2901 70.4409 36.3493 70.5165 40.0465L69.7965 40.0609Z" fill="#404040"/>
<path d="M75.0596 42.4832C75.1964 40.9748 74.3684 39.3152 72.9212 38.8688C71.9492 38.57 70.8296 38.8976 70.1384 39.6356V39.6284C69.0764 39.3692 67.9352 39.9236 67.2728 40.6508C66.6104 41.3744 66.326 42.4256 66.5276 43.3868C66.668 44.0636 67.0388 44.6828 67.5212 45.176C68.6912 46.3712 70.574 46.8032 72.1508 46.2416C73.7276 45.68 74.9084 44.15 75.056 42.4868L75.0596 42.4832Z" fill="#404040"/>
<g opacity="0.4">
<path d="M75.0596 42.4832C75.1964 40.9748 74.3684 39.3152 72.9212 38.8688C71.9492 38.57 70.8296 38.8976 70.1384 39.6356V39.6284C69.0764 39.3692 67.9352 39.9236 67.2728 40.6508C66.6104 41.3744 66.326 42.4256 66.5276 43.3868C66.668 44.0636 67.0388 44.6828 67.5212 45.176C68.6912 46.3712 70.574 46.8032 72.1508 46.2416C73.7276 45.68 74.9084 44.15 75.056 42.4868L75.0596 42.4832Z" fill="white"/>
</g>
<g opacity="0.4">
<path d="M69.5628 40.2803C68.7528 40.3271 67.986 40.8311 67.6224 41.5547C67.2588 42.2783 67.3128 43.1963 67.7592 43.8695C68.0328 44.2871 68.9724 45.0143 68.9724 45.0143C68.9724 45.0143 70.0704 43.9163 70.0812 43.8659C69.4224 43.6211 68.9148 43.0091 68.7924 42.3179C68.67 41.6267 68.94 40.8779 69.4764 40.4243" fill="white"/>
</g>
<path d="M100.07 58.4056L99.3496 58.3912C99.4288 54.694 99.9832 52.6312 103.083 50.1904L103.529 50.7556C100.682 53.002 100.145 54.712 100.07 58.4092V58.4056Z" fill="#404040"/>
<path d="M94.8062 60.8318C94.6694 59.3234 95.4974 57.6638 96.9446 57.2174C97.9166 56.9186 99.0362 57.2462 99.7274 57.9842V57.977C100.789 57.7178 101.931 58.2722 102.593 58.9994C103.255 59.723 103.54 60.7742 103.338 61.7354C103.198 62.4122 102.827 63.0314 102.345 63.5246C101.175 64.7198 99.2918 65.1518 97.715 64.5902C96.1418 64.0286 94.9574 62.4986 94.8098 60.8354L94.8062 60.8318Z" fill="#404040"/>
<g opacity="0.4">
<path d="M94.8062 60.8318C94.6694 59.3234 95.4974 57.6638 96.9446 57.2174C97.9166 56.9186 99.0362 57.2462 99.7274 57.9842V57.977C100.789 57.7178 101.931 58.2722 102.593 58.9994C103.255 59.723 103.54 60.7742 103.338 61.7354C103.198 62.4122 102.827 63.0314 102.345 63.5246C101.175 64.7198 99.2918 65.1518 97.715 64.5902C96.1418 64.0286 94.9574 62.4986 94.8098 60.8354L94.8062 60.8318Z" fill="white"/>
</g>
<g opacity="0.4">
<path d="M100.304 58.6289C101.114 58.6757 101.88 59.1797 102.244 59.9033C102.608 60.6269 102.554 61.5449 102.107 62.2181C101.834 62.6357 100.894 63.3629 100.894 63.3629C100.894 63.3629 99.796 62.2649 99.7852 62.2145C100.444 61.9697 100.952 61.3577 101.074 60.6665C101.196 59.9753 100.926 59.2265 100.39 58.7729" fill="white"/>
</g>
<path d="M14.1188 153.201C12.2864 151.023 11.1812 148.212 11.1812 145.141C11.1812 138.218 16.7936 132.609 23.7128 132.609C30.632 132.609 36.2444 138.222 36.2444 145.141C36.2444 149.288 34.2284 152.964 31.1252 155.246L8.4668 155.189C9.572 153.551 12.4952 153.464 14.1188 153.201Z" fill="#3F83F8"/>
<path opacity="0.3" d="M16.3 151.715C13.384 149.836 12.0016 145.998 12.9556 142.676C13.0924 142.208 13.258 141.747 13.4812 141.318C13.3336 141.779 13.2076 142.244 13.1284 142.715C12.4768 146.02 13.7548 149.523 16.3 151.715Z" fill="white"/>
<g opacity="0.3">
<path d="M19.2738 135.608C20.307 134.903 22.4058 134.291 24.7962 134.586C27.9174 134.719 30.3438 136.069 32.0178 138.045C33.6954 140.022 34.4982 142.711 34.1814 145.285C34.0698 146.192 33.7818 147.15 33.051 147.697C32.1474 148.374 30.8226 148.194 29.8758 147.578C28.929 146.963 28.2774 145.998 27.651 145.062C27.021 144.126 26.3622 143.165 25.4082 142.563C24.141 141.764 22.5606 141.717 21.099 141.397C19.6338 141.08 18.057 140.259 17.7438 138.794C17.481 137.57 18.2406 136.314 19.2738 135.608Z" fill="white"/>
</g>
<g opacity="0.5">
<path d="M14.1188 153.201C12.2864 151.023 11.1812 148.212 11.1812 145.141C11.1812 138.218 16.7936 132.609 23.7128 132.609C30.632 132.609 36.2444 138.222 36.2444 145.141C36.2444 149.288 34.2284 152.964 31.1252 155.246L8.4668 155.189C9.572 153.551 12.4952 153.464 14.1188 153.201Z" fill="white"/>
</g>
<path d="M74.2103 44.9349C74.0051 44.9709 87.5339 23.7705 94.0895 13.5141C94.8455 12.3297 96.9011 13.0893 96.7175 14.4861C95.1047 26.6181 91.7279 51.7569 91.4219 51.8145C91.0151 51.8901 74.2139 44.9349 74.2139 44.9349H74.2103Z" fill="#9A3412"/>
<path d="M80.0438 35.6805L79.7515 35.8906L91.2706 51.9152L91.5629 51.7051L80.0438 35.6805Z" fill="#C2410C"/>
<path d="M76.7655 41.1004L76.4731 41.3105L81.2829 48.0016L81.5752 47.7915L76.7655 41.1004Z" fill="#C2410C"/>
<path d="M83.4827 30.2942L83.188 30.501L92.4814 43.7438L92.7761 43.537L83.4827 30.2942Z" fill="#C2410C"/>
<path d="M86.8127 24.9807L86.5181 25.1875L93.6587 35.3627L93.9534 35.1559L86.8127 24.9807Z" fill="#C2410C"/>
<path d="M89.7566 20.4211L89.4619 20.6279L94.7456 28.157L95.0402 27.9502L89.7566 20.4211Z" fill="#C2410C"/>
<path d="M92.1365 16.7746L91.8418 16.9814L95.5434 22.2562L95.8381 22.0494L92.1365 16.7746Z" fill="#C2410C"/>
<path d="M94.1115 13.8386L93.8105 14.0361L96.1593 17.6145L96.4603 17.417L94.1115 13.8386Z" fill="#C2410C"/>
<path d="M93.0496 40.9612L75.959 45.5566L76.0525 45.9043L93.143 41.3089L93.0496 40.9612Z" fill="#C2410C"/>
<path d="M92.1757 47.0005L84.4961 49.0654L84.5896 49.4131L92.2692 47.3481L92.1757 47.0005Z" fill="#C2410C"/>
<path d="M93.9375 34.5381L77.625 39.1387L77.7227 39.4852L94.0352 34.8846L93.9375 34.5381Z" fill="#C2410C"/>
<path d="M94.6831 28.2712L82.1924 31.7939L82.2901 32.1404L94.7809 28.6177L94.6831 28.2712Z" fill="#C2410C"/>
<path d="M95.4033 22.8236L86.3101 25.4482L86.4099 25.7941L95.5031 23.1695L95.4033 22.8236Z" fill="#C2410C"/>
<path d="M96.1247 18.3787L89.6489 20.2051L89.7466 20.5516L96.2224 18.7252L96.1247 18.3787Z" fill="#C2410C"/>
<path d="M96.6049 14.8664L92.3882 16.0557L92.4859 16.4021L96.7026 15.2129L96.6049 14.8664Z" fill="#C2410C"/>
<path d="M93.3772 64.0651C93.6328 62.4847 91.948 61.9123 91.3684 61.8007C90.7888 61.6927 90.1624 61.7071 89.6548 61.4083L89.644 61.4011C89.0896 61.0699 88.906 60.3535 89.1724 59.7631C89.8816 58.1971 90.2596 56.4475 90.2128 54.6043C90.0544 48.4303 85.0432 43.3687 78.8728 43.1455C72.1696 42.9043 66.6616 48.2683 66.6616 54.9139C66.6616 57.0523 67.234 59.0539 68.2276 60.7819C68.2708 61.1383 68.2168 61.4767 67.9684 61.7323C67.45 62.2651 66.5392 61.9591 65.8372 62.2039C65.2792 62.3983 64.6348 63.1399 64.6672 63.7303L71.4496 63.8095C71.4496 65.6239 71.932 67.4419 72.8572 69.0043C73.0804 69.3859 73.3432 69.7639 73.7176 69.9979C74.092 70.2319 74.6068 70.2967 74.9704 70.0447C75.406 69.7423 75.478 69.1411 75.5104 68.6119C75.6076 67.0279 75.7048 65.4439 75.802 63.8599H76.2664C76.5292 64.4359 76.8496 64.9795 77.2168 65.4871C77.3896 65.7247 77.5912 65.9659 77.8756 66.0379C78.4768 66.1927 78.9664 65.4907 79.0276 64.8715C79.06 64.5511 79.0312 64.2199 79.0348 63.8959L93.3772 64.0615V64.0651Z" fill="#3F83F8"/>
<g opacity="0.3">
<path d="M93.3772 64.0651C93.6328 62.4847 91.948 61.9123 91.3684 61.8007C90.7888 61.6927 90.1624 61.7071 89.6548 61.4083L89.644 61.4011C89.0896 61.0699 88.906 60.3535 89.1724 59.7631C89.8816 58.1971 90.2596 56.4475 90.2128 54.6043C90.0544 48.4303 85.0432 43.3687 78.8728 43.1455C72.1696 42.9043 66.6616 48.2683 66.6616 54.9139C66.6616 57.0523 67.234 59.0539 68.2276 60.7819C68.2708 61.1383 68.2168 61.4767 67.9684 61.7323C67.45 62.2651 66.5392 61.9591 65.8372 62.2039C65.2792 62.3983 64.6348 63.1399 64.6672 63.7303L71.4496 63.8095C71.4496 65.6239 71.932 67.4419 72.8572 69.0043C73.0804 69.3859 73.3432 69.7639 73.7176 69.9979C74.092 70.2319 74.6068 70.2967 74.9704 70.0447C75.406 69.7423 75.478 69.1411 75.5104 68.6119C75.6076 67.0279 75.7048 65.4439 75.802 63.8599H76.2664C76.5292 64.4359 76.8496 64.9795 77.2168 65.4871C77.3896 65.7247 77.5912 65.9659 77.8756 66.0379C78.4768 66.1927 78.9664 65.4907 79.0276 64.8715C79.06 64.5511 79.0312 64.2199 79.0348 63.8959L93.3772 64.0615V64.0651Z" fill="black"/>
</g>
<g opacity="0.2">
<path d="M86.0977 70.6964C86.4541 70.7684 86.8141 70.8404 87.1777 70.826C87.5413 70.8116 87.9121 70.7 88.1749 70.448C88.5421 70.0952 88.6285 69.548 88.6861 69.044C88.8445 67.6724 88.9381 66.29 89.0353 64.9148C89.3125 65.552 89.6869 66.146 90.1477 66.668C90.2953 66.8336 90.4825 67.0064 90.7021 66.9848C90.9217 66.9632 91.0729 66.7544 91.1773 66.56C91.5193 65.912 91.6921 64.5872 91.6669 63.8564H87.9517L86.1013 65.4908V70.7L86.0977 70.6964Z" fill="black"/>
</g>
<path d="M90.9291 63.2373L84.1611 63.6549C84.3195 65.4837 84.4779 67.3125 84.6363 69.1413C84.6831 69.6813 84.7371 70.2429 85.0035 70.7145C85.2735 71.1861 85.8207 71.5461 86.3499 71.4165C86.7459 71.3193 87.0411 70.9737 87.1851 70.5921C87.3291 70.2105 87.3471 69.7965 87.3615 69.3897L87.4911 66.0741C87.5055 65.7321 87.5775 65.3037 87.9087 65.2101C88.2183 65.1201 88.5099 65.4081 88.6503 65.6997C88.7907 65.9913 88.8699 66.3297 89.1255 66.5277C89.5251 66.8373 90.1515 66.6033 90.4251 66.1785C90.6987 65.7537 90.7167 65.2209 90.7095 64.7169C90.7023 64.2129 90.6951 63.6837 90.9291 63.2373Z" fill="#3F83F8"/>
<path d="M94.1096 61.5215C98.2002 57.8756 98.5607 51.604 94.9148 47.5134C91.269 43.4228 84.9973 43.0622 80.9067 46.7081C76.8161 50.354 76.4556 56.6257 80.1014 60.7163C83.7473 64.8069 90.019 65.1674 94.1096 61.5215Z" fill="#3F83F8"/>
<path d="M100.764 62.9675C100.321 62.3015 99.5798 61.8983 98.8454 61.5815C96.8366 60.7139 94.6478 60.2711 92.459 60.2855L81.569 61.9271C81.7742 62.3807 81.7526 62.9279 81.515 63.3635C81.2774 63.7991 80.8238 63.7847 80.3306 63.8531C86.9582 63.8639 93.5822 64.1987 100.21 64.2095C100.39 64.2095 100.577 64.2095 100.732 64.1123C101.095 63.8855 101.002 63.3203 100.764 62.9639V62.9675Z" fill="#3F83F8"/>
<g opacity="0.6">
<path d="M100.764 62.9671C100.321 62.3011 99.5798 61.8979 98.8454 61.5811C97.6502 61.0627 96.3866 60.7027 95.1014 60.4939C96.5522 58.7695 97.4306 56.5411 97.4306 54.1111C97.4306 48.6319 92.9882 44.1895 87.509 44.1895C82.0298 44.1895 77.5874 48.6319 77.5874 54.1111C77.5874 57.3943 79.1822 60.3067 81.641 62.1103C81.767 62.5243 81.7238 62.9851 81.5186 63.3667C81.281 63.8023 80.8274 63.7879 80.3342 63.8563C81.6194 63.8563 82.901 63.8743 84.1862 63.8959C84.3374 65.6419 84.4886 67.3915 84.6434 69.1375C84.6902 69.6775 84.7442 70.2391 85.0106 70.7107C85.2806 71.1823 85.8278 71.5422 86.357 71.4127C86.753 71.3155 87.0482 70.9699 87.1922 70.5883C87.3362 70.2067 87.3542 69.7927 87.3686 69.3859L87.4982 66.0703C87.5126 65.7283 87.5846 65.2999 87.9158 65.2063C88.2254 65.1163 88.517 65.4043 88.6574 65.6959C88.7978 65.9875 88.877 66.3258 89.1326 66.5238C89.5322 66.8335 90.1586 66.5995 90.4322 66.1747C90.7058 65.7499 90.7238 65.2171 90.7166 64.7131C90.7166 64.4899 90.713 64.2666 90.731 64.0434C93.8918 64.1262 97.0562 64.2055 100.217 64.2091C100.397 64.2091 100.584 64.2091 100.739 64.1119C101.103 63.8851 101.009 63.3199 100.771 62.9634L100.764 62.9671Z" fill="white"/>
</g>
<g opacity="0.3">
<path d="M90.7957 46.2452C89.9785 45.6872 88.3153 45.2012 86.4217 45.4352C83.9521 45.5432 82.0297 46.6088 80.7013 48.1748C79.3729 49.7372 78.7357 51.8684 78.9877 53.906C79.0777 54.6224 79.3045 55.382 79.8841 55.814C80.6005 56.3504 81.6481 56.21 82.3969 55.7204C83.1457 55.2344 83.6605 54.4676 84.1609 53.7296C84.6577 52.988 85.1797 52.2284 85.9357 51.7496C86.9401 51.116 88.1893 51.08 89.3485 50.828C90.5077 50.576 91.7569 49.928 92.0053 48.7688C92.2141 47.8004 91.6129 46.8032 90.7921 46.2452H90.7957Z" fill="white"/>
</g>
<path opacity="0.3" d="M93.377 59.4393C95.3534 57.6717 96.3542 54.9321 95.8718 52.3185C95.8178 51.9441 95.7169 51.5769 95.6089 51.2061C95.7925 51.5445 95.9258 51.9081 96.041 52.2789C96.8294 54.9069 95.7206 57.9921 93.377 59.4393Z" fill="white"/>
<g opacity="0.2">
<path d="M60.9043 69.2453C61.2607 69.3173 61.6207 69.3893 61.9843 69.3749C62.3479 69.3605 62.7187 69.2489 62.9815 68.9969C63.3487 68.6441 63.4351 68.0969 63.4927 67.5929C63.6511 66.2213 63.7447 64.8389 63.8419 63.4637C64.1191 64.1009 64.4935 64.6949 64.9543 65.2169C65.1019 65.3825 65.2891 65.5553 65.5087 65.5337C65.7283 65.5121 65.8795 65.3033 65.9839 65.1089C66.3259 64.4609 66.4951 63.7265 66.4699 62.9921L62.7583 62.4053L60.9079 64.0397V69.2489L60.9043 69.2453Z" fill="black"/>
</g>
<path d="M78.6388 63.8384C78.8728 62.3983 77.3356 61.8764 76.81 61.7756C76.2808 61.6748 75.712 61.6892 75.2512 61.4156L75.2404 61.4083C74.7364 61.1059 74.5708 60.4544 74.812 59.9179C75.46 58.4888 75.802 56.8976 75.7588 55.2164C75.6148 49.5932 71.0464 44.9743 65.4232 44.7727C59.314 44.5531 54.2956 49.4384 54.2956 55.4972C54.2956 57.4448 54.8176 59.2699 55.7248 60.8431C55.7644 61.1671 55.714 61.4768 55.4872 61.7072C55.0156 62.1932 54.184 61.9159 53.5468 62.1391C53.0392 62.3155 52.4488 62.9923 52.4776 63.5287L58.6588 63.6007C58.6588 65.2567 59.098 66.9128 59.9404 68.3348C60.1456 68.6804 60.3832 69.0259 60.7252 69.2419C61.0672 69.4579 61.5352 69.512 61.8664 69.2852C62.2624 69.0116 62.3308 68.4608 62.3596 67.9783C62.446 66.5347 62.536 65.0912 62.6224 63.6476H63.0472C63.2884 64.1695 63.5764 64.6663 63.9148 65.1307C64.0732 65.3467 64.2568 65.5664 64.516 65.6348C65.0632 65.7752 65.5096 65.1379 65.5636 64.5727C65.5924 64.2811 65.5672 63.9787 65.5708 63.6835L78.6388 63.8348V63.8384Z" fill="#3F83F8"/>
<g opacity="0.3">
<path d="M68.7059 46.9327C67.8887 46.3747 66.2255 45.8887 64.3319 46.1227C61.8623 46.2307 59.9399 47.2963 58.6115 48.8623C57.2831 50.4247 56.6459 52.5559 56.8979 54.5935C56.9879 55.3099 57.2147 56.0695 57.7943 56.5015C58.5107 57.0379 59.5583 56.8975 60.3071 56.4079C61.0559 55.9219 61.5707 55.1551 62.0711 54.4171C62.5679 53.6755 63.0899 52.9159 63.8459 52.4371C64.8503 51.8035 66.0995 51.7675 67.2587 51.5155C68.4179 51.2635 69.6671 50.6155 69.9155 49.4563C70.1243 48.4879 69.5231 47.4907 68.7023 46.9327H68.7059Z" fill="white"/>
</g>
<path opacity="0.3" d="M72.0078 60.8904C73.9842 59.1228 74.985 56.3832 74.5026 53.7696C74.4486 53.3952 74.3478 53.028 74.2398 52.6572C74.4234 52.9956 74.5566 53.3592 74.6718 53.73C75.4602 56.358 74.3514 59.4432 72.0078 60.8904Z" fill="white"/>
<path d="M55.0478 103.219C55.289 101.743 53.7158 101.21 53.1722 101.106C52.6286 101.001 52.049 101.019 51.5737 100.738L51.563 100.731C51.0445 100.422 50.8753 99.752 51.1237 99.2048C51.7861 97.7432 52.139 96.1124 52.0922 94.3916C51.9446 88.6316 47.2682 83.9048 41.5082 83.6996C35.2549 83.4764 30.1141 88.4804 30.1141 94.6832C30.1141 96.6776 30.6469 98.546 31.5757 100.159C31.6153 100.49 31.5649 100.807 31.3345 101.044C30.8521 101.541 30.0025 101.257 29.3473 101.487C28.8253 101.671 28.2241 102.358 28.2529 102.909L34.5817 102.981C34.5817 104.677 35.0318 106.372 35.8958 107.83C36.1046 108.187 36.3493 108.536 36.6986 108.759C37.0478 108.979 37.5266 109.036 37.8686 108.802C38.2754 108.522 38.3437 107.956 38.3725 107.463C38.4625 105.984 38.5525 104.508 38.6425 103.028H39.0782C39.323 103.564 39.6218 104.072 39.9674 104.544C40.1294 104.763 40.3165 104.99 40.5829 105.058C41.1445 105.202 41.6018 104.547 41.6558 103.971C41.6846 103.672 41.6593 103.363 41.6629 103.06L55.0441 103.215L55.0478 103.219Z" fill="#3F83F8"/>
<g opacity="0.3">
<path d="M44.8742 85.906C44.0354 85.3336 42.3326 84.8368 40.3958 85.078C37.865 85.186 35.8994 86.2804 34.5386 87.8824C33.1778 89.4844 32.5262 91.666 32.7854 93.7504C32.8754 94.4848 33.1094 95.2624 33.7034 95.7052C34.4342 96.2524 35.5106 96.1084 36.2774 95.6116C37.0442 95.1112 37.5734 94.33 38.081 93.5704C38.5922 92.8108 39.125 92.0332 39.899 91.5436C40.925 90.8956 42.2066 90.856 43.3946 90.6004C44.5826 90.3412 45.8606 89.6788 46.1162 88.4908C46.3286 87.5008 45.713 86.4784 44.8742 85.906Z" fill="white"/>
</g>
<path opacity="0.3" d="M48.2588 100.202C50.2856 98.3945 51.3152 95.5865 50.8148 92.9081C50.7572 92.5229 50.6564 92.1485 50.5448 91.7705C50.732 92.1161 50.8688 92.4905 50.9876 92.8685C51.7904 95.5613 50.6564 98.7149 48.2588 100.202Z" fill="white"/>
<g opacity="0.5">
<path d="M55.0478 103.219C55.289 101.743 53.7158 101.21 53.1722 101.106C52.6286 101.001 52.049 101.019 51.5737 100.738L51.563 100.731C51.0445 100.422 50.8753 99.752 51.1237 99.2048C51.7861 97.7432 52.139 96.1124 52.0922 94.3916C51.9446 88.6316 47.2682 83.9048 41.5082 83.6996C35.2549 83.4764 30.1141 88.4804 30.1141 94.6832C30.1141 96.6776 30.6469 98.546 31.5757 100.159C31.6153 100.49 31.5649 100.807 31.3345 101.044C30.8521 101.541 30.0025 101.257 29.3473 101.487C28.8253 101.671 28.2241 102.358 28.2529 102.909L34.5817 102.981C34.5817 104.677 35.0318 106.372 35.8958 107.83C36.1046 108.187 36.3493 108.536 36.6986 108.759C37.0478 108.979 37.5266 109.036 37.8686 108.802C38.2754 108.522 38.3437 107.956 38.3725 107.463C38.4625 105.984 38.5525 104.508 38.6425 103.028H39.0782C39.323 103.564 39.6218 104.072 39.9674 104.544C40.1294 104.763 40.3165 104.99 40.5829 105.058C41.1445 105.202 41.6018 104.547 41.6558 103.971C41.6846 103.672 41.6593 103.363 41.6629 103.06L55.0441 103.215L55.0478 103.219Z" fill="white"/>
</g>
<path d="M60.2243 47.5986C57.9491 49.5606 56.5595 52.4478 56.4335 55.443C56.4335 55.6446 56.4299 55.8462 56.4227 56.0478C56.3579 55.7058 56.3183 55.1874 56.3039 54.8346C56.2859 51.9762 57.7763 49.107 60.2279 47.5986H60.2243Z" fill="white"/>
<path d="M82.9005 46.3389C80.6253 48.3009 79.2357 51.1881 79.1097 54.1833C79.1097 54.3849 79.1061 54.5865 79.0989 54.7881C79.0341 54.4461 78.9945 53.9277 78.9801 53.5749C78.9621 50.7165 80.4525 47.8473 82.9041 46.3389H82.9005Z" fill="white"/>
<path d="M105.195 154.757C106.29 153.457 106.949 151.779 106.949 149.947C106.949 145.818 103.601 142.47 99.4713 142.47C95.3421 142.47 91.9941 145.818 91.9941 149.947C91.9941 152.42 93.1965 154.613 95.0505 155.973L108.569 155.941C107.91 154.962 106.164 154.911 105.195 154.753V154.757Z" fill="#3F83F8"/>
<path opacity="0.3" d="M103.896 153.871C105.588 152.265 106.222 149.911 105.577 147.668C106.769 149.72 105.959 152.701 103.896 153.871Z" fill="white"/>
<g opacity="0.3">
<path d="M102.118 144.262C101.502 143.841 100.249 143.478 98.8236 143.654C96.9624 143.733 95.5152 144.54 94.5144 145.717C93.5136 146.894 93.0348 148.5 93.222 150.033C93.2904 150.573 93.4596 151.146 93.8988 151.473C94.4388 151.876 95.2272 151.772 95.7924 151.405C96.3576 151.038 96.7464 150.462 97.1208 149.904C97.4952 149.346 97.8912 148.773 98.46 148.413C99.216 147.934 100.159 147.909 101.03 147.718C101.905 147.528 102.845 147.042 103.032 146.167C103.19 145.436 102.737 144.687 102.118 144.266V144.262Z" fill="white"/>
</g>
<g opacity="0.5">
<path d="M105.195 154.757C106.29 153.457 106.949 151.779 106.949 149.947C106.949 145.818 103.601 142.47 99.4713 142.47C95.3421 142.47 91.9941 145.818 91.9941 149.947C91.9941 152.42 93.1965 154.613 95.0505 155.973L108.569 155.941C107.91 154.962 106.164 154.911 105.195 154.753V154.757Z" fill="white"/>
</g>
<path d="M95.5043 144.903C93.8015 146.891 93.1859 149.569 93.8411 152.1C92.6495 149.742 93.4019 146.498 95.5043 144.903Z" fill="white"/>
<path d="M135.803 154.209C135.248 153.374 134.32 152.873 133.402 152.477C131.908 151.833 130.331 151.376 128.722 151.113C130.536 148.957 131.63 146.174 131.63 143.132C131.63 136.277 126.076 130.723 119.221 130.723C112.367 130.723 106.812 136.277 106.812 143.132C106.812 147.239 108.81 150.879 111.881 153.136C112.039 153.651 111.985 154.231 111.726 154.706C111.427 155.249 110.862 155.231 110.246 155.318C112.655 155.321 115.063 155.361 117.468 155.415L135.601 155.645C136.058 155.365 136.094 154.655 135.799 154.209H135.803Z" fill="#3F83F8"/>
<g opacity="0.5">
<path d="M135.803 154.209C135.248 153.374 134.32 152.873 133.402 152.477C131.908 151.833 130.331 151.376 128.722 151.113C130.536 148.957 131.63 146.174 131.63 143.132C131.63 136.277 126.076 130.723 119.221 130.723C112.367 130.723 106.812 136.277 106.812 143.132C106.812 147.239 108.81 150.879 111.881 153.136C112.039 153.651 111.985 154.231 111.726 154.706C111.427 155.249 110.862 155.231 110.246 155.318C112.655 155.321 115.063 155.361 117.468 155.415L135.601 155.645C136.058 155.365 136.094 154.655 135.799 154.209H135.803Z" fill="white"/>
</g>
<path opacity="0.3" d="M126.565 149.645C129.082 147.474 130.349 144.007 129.705 140.735C129.629 140.267 129.499 139.806 129.355 139.349C129.575 139.773 129.741 140.231 129.877 140.695C130.824 143.982 129.453 147.787 126.565 149.645Z" fill="white"/>
<g opacity="0.3">
<path d="M123.617 133.696C122.595 132.998 120.514 132.39 118.149 132.685C115.06 132.818 112.659 134.154 110.995 136.108C109.336 138.063 108.537 140.727 108.853 143.276C108.965 144.172 109.249 145.123 109.973 145.663C110.866 146.332 112.18 146.156 113.116 145.548C114.052 144.939 114.696 143.982 115.319 143.056C115.942 142.128 116.593 141.177 117.54 140.583C118.793 139.791 120.359 139.744 121.806 139.431C123.257 139.114 124.816 138.304 125.129 136.857C125.388 135.648 124.636 134.398 123.613 133.704L123.617 133.696Z" fill="white"/>
</g>
<path d="M111.024 136.339C109.321 138.326 108.705 141.004 109.361 143.535C108.169 141.177 108.921 137.934 111.024 136.339Z" fill="white"/>
<path d="M51.4332 57.5459C51.3576 53.8523 50.8212 52.1387 47.9736 49.8923L48.42 49.3271C51.5196 51.7715 52.0776 53.8307 52.1532 57.5279L51.4332 57.5423V57.5459Z" fill="#404040"/>
<path d="M56.6963 59.9725C56.8331 58.4641 56.0051 56.8045 54.5579 56.3581C53.5859 56.0593 52.4663 56.3869 51.7751 57.1249V57.1177C50.7131 56.8585 49.5719 57.4129 48.9095 58.1401C48.2471 58.8637 47.9627 59.9149 48.1643 60.8761C48.3047 61.5529 48.6755 62.1721 49.1579 62.6653C50.3279 63.8605 52.2107 64.2925 53.7875 63.7309C55.3607 63.1693 56.5451 61.6393 56.6927 59.9761L56.6963 59.9725Z" fill="#404040"/>
<g opacity="0.3">
<path d="M56.6963 59.9725C56.8331 58.4641 56.0051 56.8045 54.5579 56.3581C53.5859 56.0593 52.4663 56.3869 51.7751 57.1249V57.1177C50.7131 56.8585 49.5719 57.4129 48.9095 58.1401C48.2471 58.8637 47.9627 59.9149 48.1643 60.8761C48.3047 61.5529 48.6755 62.1721 49.1579 62.6653C50.3279 63.8605 52.2107 64.2925 53.7875 63.7309C55.3607 63.1693 56.5451 61.6393 56.6927 59.9761L56.6963 59.9725Z" fill="white"/>
</g>
<g opacity="0.4">
<path d="M51.1956 57.7695C50.3856 57.8163 49.6188 58.3203 49.2552 59.0439C48.8916 59.7675 48.9456 60.6855 49.392 61.3587C49.6656 61.7763 50.6052 62.5035 50.6052 62.5035C50.6052 62.5035 51.7032 61.4055 51.714 61.3551C51.0552 61.1103 50.5476 60.4983 50.4252 59.8071C50.3028 59.1159 50.5728 58.3671 51.1092 57.9135" fill="white"/>
</g>
<path d="M5.68066 155.246C5.68066 157.856 7.79746 159.976 10.4111 159.976H13.9319L15.6419 161.352H135.443L137.153 159.976H140.591C143.201 159.976 145.321 157.86 145.321 155.246H5.68066Z" fill="#404040"/>
</g>
<defs>
<clipPath id="clip0_3543_126325">
<rect width="150.48" height="180" fill="white" transform="translate(0.259766)"/>
</clipPath>
</defs>
</svg>
