<svg width="16" height="16" viewBox="0 0 16 16" fill="none" xmlns="http://www.w3.org/2000/svg">
<path d="M10.6669 7.33594H10.6729M7.99959 7.33594H8.00558M5.33228 7.33594H5.33826M5.66927 12.6693H5.33594C2.66927 12.6693 1.33594 12.0026 1.33594 8.66927V5.33594C1.33594 2.66927 2.66927 1.33594 5.33594 1.33594H10.6693C13.3359 1.33594 14.6693 2.66927 14.6693 5.33594V8.66927C14.6693 11.3359 13.3359 12.6693 10.6693 12.6693H10.3359C10.1293 12.6693 9.92927 12.7693 9.8026 12.9359L8.8026 14.2693C8.3626 14.8559 7.6426 14.8559 7.2026 14.2693L6.2026 12.9359C6.09594 12.7893 5.84927 12.6693 5.66927 12.6693Z" stroke="#737373" stroke-linecap="round" stroke-linejoin="round"/>
</svg>
