<svg width="33" height="32" viewBox="0 0 33 32" fill="none" xmlns="http://www.w3.org/2000/svg">
<g clip-path="url(#clip0_419_77185)">
<path d="M11.4769 27.7733L11.6682 28.2352L11.4769 27.7733C10.5328 28.1644 9.49395 28.2667 8.49171 28.0673C7.48948 27.868 6.56886 27.3759 5.84629 26.6533C5.12372 25.9307 4.63164 25.0101 4.43229 24.0079C4.23293 23.0056 4.33525 21.9668 4.7263 21.0227C5.11735 20.0786 5.77958 19.2717 6.62923 18.704C7.47888 18.1363 8.47781 17.8333 9.49968 17.8333H14.6663V22.9999C14.6663 24.0218 14.3633 25.0207 13.7956 25.8704C13.2279 26.72 12.421 27.3822 11.4769 27.7733ZM9.49968 3.83325C10.1782 3.83325 10.85 3.96689 11.4769 4.22654C12.1037 4.48619 12.6733 4.86676 13.1531 5.34653C13.6328 5.8263 14.0134 6.39587 14.2731 7.02272C14.5327 7.64957 14.6663 8.32142 14.6663 8.99992V14.1666H9.49968C8.12939 14.1666 6.81523 13.6222 5.84629 12.6533C4.87735 11.6844 4.33301 10.3702 4.33301 8.99992C4.33301 7.62963 4.87735 6.31547 5.84629 5.34653C6.81523 4.3776 8.12939 3.83325 9.49968 3.83325ZM23.4997 3.83325C24.87 3.83325 26.1841 4.3776 27.1531 5.34653C28.122 6.31547 28.6663 7.62963 28.6663 8.99992C28.6663 10.3702 28.122 11.6844 27.1531 12.6533C26.1841 13.6222 24.87 14.1666 23.4997 14.1666H18.333V8.99992C18.333 7.62963 18.8774 6.31547 19.8463 5.34653C20.8152 4.3776 22.1294 3.83325 23.4997 3.83325ZM18.333 17.8333H23.4997C24.5215 17.8333 25.5205 18.1363 26.3701 18.704C27.2198 19.2717 27.882 20.0786 28.2731 21.0227C28.6641 21.9668 28.7664 23.0056 28.5671 24.0079C28.3677 25.0101 27.8756 25.9307 27.1531 26.6533C26.4305 27.3759 25.5099 27.868 24.5076 28.0673C23.5054 28.2667 22.4666 28.1644 21.5225 27.7733C20.5784 27.3822 19.7715 26.72 19.2038 25.8704C18.636 25.0207 18.333 24.0218 18.333 22.9999V17.8333Z" fill="#76A9FA" stroke="#76A9FA"/>
</g>
<defs>
<clipPath id="clip0_419_77185">
<rect width="32" height="32" fill="white" transform="translate(0.5)"/>
</clipPath>
</defs>
</svg>
