<svg width="16" height="16" viewBox="0 0 16 16" fill="none" xmlns="http://www.w3.org/2000/svg">
<path d="M5.33594 2.0026H6.0026C4.7026 5.89594 4.7026 10.1093 6.0026 14.0026H5.33594M10.0026 2.0026C11.3026 5.89594 11.3026 10.1093 10.0026 14.0026M2.0026 10.6693V10.0026C5.89594 11.3026 10.1093 11.3026 14.0026 10.0026V10.6693M2.0026 6.0026C5.89594 4.7026 10.1093 4.7026 14.0026 6.0026M14.6693 8.0026C14.6693 11.6845 11.6845 14.6693 8.0026 14.6693C4.32071 14.6693 1.33594 11.6845 1.33594 8.0026C1.33594 4.32071 4.32071 1.33594 8.0026 1.33594C11.6845 1.33594 14.6693 4.32071 14.6693 8.0026Z" stroke="#171717" strokeLinecap="round" strokeLinejoin="round"/>
</svg>
