<svg width="103" height="140" viewBox="0 0 103 140" fill="none" xmlns="http://www.w3.org/2000/svg">
<g id="Frame 1410085499">
<g id="freepik--exams-sheet--inject-7">
<path id="Vector" d="M90.8155 140H24.3446C23.9467 140.007 23.5521 139.929 23.1865 139.772C22.8208 139.615 22.4925 139.382 22.2231 139.089C21.9536 138.797 21.7491 138.45 21.6229 138.073C21.4966 137.695 21.4516 137.296 21.4907 136.9L29.8705 29.396C29.9463 28.5582 30.3292 27.778 30.9456 27.2056C31.562 26.6332 32.3683 26.3089 33.2094 26.2953H99.676C100.074 26.2891 100.469 26.3671 100.835 26.5241C101.2 26.681 101.529 26.9135 101.799 27.2062C102.069 27.4989 102.274 27.8452 102.4 28.2226C102.527 28.5999 102.573 28.9998 102.534 29.396L94.1544 136.9C94.0777 137.737 93.6945 138.517 93.0783 139.089C92.4621 139.661 91.6563 139.986 90.8155 140Z" fill="#2E353A"/>
<path id="Vector_2" opacity="0.2" d="M90.8155 140H24.3446C23.9467 140.007 23.5521 139.929 23.1865 139.772C22.8208 139.615 22.4925 139.382 22.2231 139.089C21.9536 138.797 21.7491 138.45 21.6229 138.073C21.4966 137.695 21.4516 137.296 21.4907 136.9L29.8705 29.396C29.9463 28.5582 30.3292 27.778 30.9456 27.2056C31.562 26.6332 32.3683 26.3089 33.2094 26.2953H99.676C100.074 26.2891 100.469 26.3671 100.835 26.5241C101.2 26.681 101.529 26.9135 101.799 27.2062C102.069 27.4989 102.274 27.8452 102.4 28.2226C102.527 28.5999 102.573 28.9998 102.534 29.396L94.1544 136.9C94.0777 137.737 93.6945 138.517 93.0783 139.089C92.4621 139.661 91.6563 139.986 90.8155 140Z" fill="white"/>
<path id="Vector_3" d="M81.8122 33.3246H49.982C49.8429 33.3271 49.7048 33.3001 49.5767 33.2454C49.4487 33.1908 49.3337 33.1097 49.2392 33.0074C49.1448 32.9052 49.073 32.7842 49.0286 32.6522C48.9842 32.5203 48.9682 32.3805 48.9817 32.2419L49.471 25.9582C49.4977 25.6647 49.6318 25.3915 49.8476 25.1908C50.0634 24.9902 50.3457 24.8764 50.6403 24.8712H82.4705C82.6097 24.8693 82.7477 24.8968 82.8756 24.952C83.0034 25.0072 83.1181 25.0888 83.2121 25.1914C83.3062 25.2941 83.3775 25.4154 83.4213 25.5476C83.4652 25.6797 83.4806 25.8197 83.4665 25.9582L82.9771 32.2246C82.9546 32.52 82.8227 32.7964 82.6073 32.9998C82.3919 33.2032 82.1084 33.319 81.8122 33.3246Z" fill="#AF70FF"/>
<path id="Vector_4" opacity="0.2" d="M81.8122 33.3246H49.982C49.8429 33.3271 49.7048 33.3001 49.5767 33.2454C49.4487 33.1908 49.3337 33.1097 49.2392 33.0074C49.1448 32.9052 49.073 32.7842 49.0286 32.6522C48.9842 32.5203 48.9682 32.3805 48.9817 32.2419L49.471 25.9582C49.4977 25.6647 49.6318 25.3915 49.8476 25.1908C50.0634 24.9902 50.3457 24.8764 50.6403 24.8712H82.4705C82.6097 24.8693 82.7477 24.8968 82.8756 24.952C83.0034 25.0072 83.1181 25.0888 83.2121 25.1914C83.3062 25.2941 83.3775 25.4154 83.4213 25.5476C83.4652 25.6797 83.4806 25.8197 83.4665 25.9582L82.9771 32.2246C82.9546 32.52 82.8227 32.7964 82.6073 32.9998C82.3919 33.2032 82.1084 33.319 81.8122 33.3246Z" fill="black"/>
<path id="Vector_5" d="M68.8767 26.8227H63.8965L64.0914 24.3283C64.1522 23.6556 64.4596 23.0292 64.9545 22.5695C65.4493 22.1098 66.0967 21.8493 66.772 21.8382C67.0919 21.8331 67.4093 21.8955 67.7033 22.0214C67.9974 22.1474 68.2616 22.334 68.4787 22.569C68.6957 22.804 68.8607 23.0822 68.9629 23.3854C69.0651 23.6885 69.1021 24.0098 69.0716 24.3283L68.8767 26.8227Z" fill="#AF70FF"/>
<path id="Vector_6" opacity="0.4" d="M68.8767 26.8227H63.8965L64.0914 24.3283C64.1522 23.6556 64.4596 23.0292 64.9545 22.5695C65.4493 22.1098 66.0967 21.8493 66.772 21.8382C67.0919 21.8331 67.4093 21.8955 67.7033 22.0214C67.9974 22.1474 68.2616 22.334 68.4787 22.569C68.6957 22.804 68.8607 23.0822 68.9629 23.3854C69.0651 23.6885 69.1021 24.0098 69.0716 24.3283L68.8767 26.8227Z" fill="white"/>
<path id="Vector_7" d="M89.9192 135.511H25.9385L34.1061 30.7832H98.0825L89.9192 135.511Z" fill="white"/>
<path id="Vector_8" d="M75.8924 36.2644H55.4518C55.1241 36.269 54.7992 36.2044 54.4981 36.0748C54.1971 35.9453 53.9268 35.7537 53.7049 35.5125C53.483 35.2714 53.3144 34.9862 53.2102 34.6754C53.106 34.3647 53.0686 34.0355 53.1003 33.7093L53.3601 30.3834C53.423 29.6935 53.7385 29.0511 54.246 28.5795C54.7536 28.1079 55.4174 27.8404 56.1101 27.8283H76.555C76.8829 27.8238 77.208 27.8884 77.5092 28.018C77.8104 28.1475 78.081 28.339 78.3032 28.5801C78.5255 28.8211 78.6945 29.1063 78.7992 29.417C78.9039 29.7277 78.9419 30.057 78.9109 30.3834L78.651 33.7093C78.5861 34.4 78.2688 35.0425 77.7599 35.5139C77.2509 35.9853 76.586 36.2525 75.8924 36.2644ZM56.0321 28.6988C55.5752 28.7065 55.1372 28.8828 54.8023 29.1937C54.4674 29.5046 54.2592 29.9283 54.2176 30.3834L53.9577 33.7093C53.9364 33.9247 53.9608 34.1421 54.0292 34.3474C54.0977 34.5527 54.2087 34.7413 54.3551 34.9007C54.5014 35.0601 54.6798 35.1868 54.8785 35.2726C55.0772 35.3583 55.2917 35.4012 55.5081 35.3983H75.9574C76.4154 35.3906 76.8545 35.2139 77.1902 34.9021C77.526 34.5904 77.7346 34.1656 77.7762 33.7093L78.0361 30.3834C78.0561 30.1682 78.0307 29.9511 77.9614 29.7463C77.8922 29.5416 77.7806 29.3537 77.634 29.1948C77.4874 29.0359 77.309 28.9097 77.1104 28.8242C76.9118 28.7388 76.6975 28.6961 76.4814 28.6988H56.0321Z" fill="#AF70FF"/>
<g id="Group" opacity="0.4">
<path id="Vector_9" d="M75.8924 36.2644H55.4518C55.1241 36.269 54.7992 36.2044 54.4981 36.0748C54.1971 35.9453 53.9268 35.7537 53.7049 35.5125C53.483 35.2714 53.3144 34.9862 53.2102 34.6754C53.106 34.3647 53.0686 34.0355 53.1003 33.7093L53.3601 30.3834C53.423 29.6935 53.7385 29.0511 54.246 28.5795C54.7536 28.1079 55.4174 27.8404 56.1101 27.8283H76.555C76.8829 27.8238 77.208 27.8884 77.5092 28.018C77.8104 28.1475 78.081 28.339 78.3032 28.5801C78.5255 28.8211 78.6945 29.1063 78.7992 29.417C78.9039 29.7277 78.9419 30.057 78.9109 30.3834L78.651 33.7093C78.5861 34.4 78.2688 35.0425 77.7599 35.5139C77.2509 35.9853 76.586 36.2525 75.8924 36.2644ZM56.0321 28.6988C55.5752 28.7065 55.1372 28.8828 54.8023 29.1937C54.4674 29.5046 54.2592 29.9283 54.2176 30.3834L53.9577 33.7093C53.9364 33.9247 53.9608 34.1421 54.0292 34.3474C54.0977 34.5527 54.2087 34.7413 54.3551 34.9007C54.5014 35.0601 54.6798 35.1868 54.8785 35.2726C55.0772 35.3583 55.2917 35.4012 55.5081 35.3983H75.9574C76.4154 35.3906 76.8545 35.2139 77.1902 34.9021C77.526 34.5904 77.7346 34.1656 77.7762 33.7093L78.0361 30.3834C78.0561 30.1682 78.0307 29.9511 77.9614 29.7463C77.8922 29.5416 77.7806 29.3537 77.634 29.1948C77.4874 29.0359 77.309 28.9097 77.1104 28.8242C76.9118 28.7388 76.6975 28.6961 76.4814 28.6988H56.0321Z" fill="white"/>
</g>
<path id="Vector_10" d="M74.8355 29.7451H57.513C57.4366 29.7467 57.3607 29.7321 57.2903 29.7023C57.22 29.6724 57.1567 29.628 57.1048 29.5719C57.0528 29.5159 57.0133 29.4495 56.9889 29.3771C56.9644 29.3047 56.9556 29.2279 56.963 29.1518L57.0972 27.4196C57.1131 27.2587 57.1877 27.1093 57.3067 26.9999C57.4257 26.8905 57.5808 26.8287 57.7425 26.8263H75.065C75.1413 26.8246 75.217 26.8392 75.2871 26.8691C75.3573 26.899 75.4203 26.9435 75.4719 26.9997C75.5235 27.0558 75.5626 27.1223 75.5865 27.1947C75.6104 27.2671 75.6187 27.3438 75.6107 27.4196L75.4764 29.1518C75.4615 29.3124 75.3878 29.4617 75.2695 29.5712C75.1512 29.6807 74.9967 29.7426 74.8355 29.7451Z" fill="#AF70FF"/>
<path id="Vector_11" d="M89.5036 46.0791H41.0005L41.4119 40.7871H89.915L89.5036 46.0791Z" fill="#AF70FF"/>
<path id="Vector_12" d="M69.8727 53.4462H37.5835L37.6918 52.082H69.981L69.8727 53.4462Z" fill="#AF70FF"/>
<path id="Vector_13" d="M69.569 57.39H37.2798L37.3837 56.0215H69.6729L69.569 57.39Z" fill="#AF70FF"/>
<path id="Vector_14" d="M69.2619 61.3294H36.9727L37.0766 59.9609H69.3658L69.2619 61.3294Z" fill="#AF70FF"/>
<path id="Vector_15" d="M68.9542 65.2665H36.665L36.769 63.9023H69.0582L68.9542 65.2665Z" fill="#AF70FF"/>
<path id="Vector_16" d="M90.1401 65.2645H76.9663L77.997 52.082H91.1708L90.1401 65.2645Z" fill="#AF70FF"/>
<path id="Vector_17" d="M86.4934 56.9765C86.554 56.2057 85.9564 55.6773 84.8737 55.6773C84.4535 55.6573 84.0342 55.7326 83.6472 55.8976C83.2602 56.0626 82.9156 56.313 82.6391 56.6301L81.8076 56.0021C82.2114 55.5515 82.7104 55.1965 83.2684 54.9628C83.8265 54.7291 84.4296 54.6226 85.0339 54.651C86.7662 54.651 87.8315 55.4608 87.7233 56.8163C87.5674 58.83 85.4237 58.9816 85.3024 60.545H84.0942C84.2458 58.6395 86.3851 58.3623 86.4934 56.9765ZM83.7737 62.4894C83.7893 62.2735 83.8885 62.0721 84.0503 61.9281C84.212 61.7842 84.4235 61.709 84.6399 61.7186C84.7394 61.7147 84.8387 61.7325 84.9307 61.7708C85.0227 61.809 85.1054 61.8668 85.1729 61.9401C85.2404 62.0134 85.2913 62.1004 85.3218 62.1953C85.3524 62.2901 85.3621 62.3905 85.3501 62.4894C85.3338 62.6989 85.2391 62.8946 85.085 63.0374C84.931 63.1803 84.7287 63.2598 84.5186 63.2603C84.4166 63.2679 84.3141 63.2529 84.2186 63.2165C84.123 63.1801 84.0366 63.123 83.9655 63.0495C83.8944 62.9759 83.8404 62.8876 83.8072 62.7908C83.7741 62.694 83.7626 62.5911 83.7737 62.4894Z" fill="white"/>
<path id="Vector_18" d="M68.318 73.3978H36.0288L36.1371 72.0293H68.4263L68.318 73.3978Z" fill="#AF70FF"/>
<path id="Vector_19" d="M68.0104 77.3348H35.7212L35.8295 75.9707H68.1187L68.0104 77.3348Z" fill="#AF70FF"/>
<path id="Vector_20" d="M67.7076 81.2743H35.4185L35.5224 79.9102H67.8116L67.7076 81.2743Z" fill="#AF70FF"/>
<path id="Vector_21" d="M67.4 85.2181H35.1108L35.2148 83.8496H67.504L67.4 85.2181Z" fill="#AF70FF"/>
<path id="Vector_22" d="M88.5854 85.2161H75.4116L76.438 72.0293H89.6118L88.5854 85.2161Z" fill="#AF70FF"/>
<path id="Vector_23" d="M84.9387 76.9291C84.9993 76.1539 84.4017 75.6299 83.319 75.6299C82.8988 75.6099 82.4795 75.6852 82.0925 75.8502C81.7056 76.0152 81.3609 76.2656 81.0844 76.5826L80.2529 75.9634C80.6561 75.512 81.155 75.1565 81.7132 74.9227C82.2714 74.689 82.8748 74.5829 83.4793 74.6122C85.2115 74.6122 86.2768 75.422 86.1686 76.7775C86.0127 78.7913 83.869 78.9428 83.7478 80.5062H82.5395C82.6867 78.5617 84.8304 78.3149 84.9387 76.9291ZM82.219 82.4593C82.2335 82.2464 82.3292 82.0472 82.4863 81.9029C82.6435 81.7586 82.8502 81.6803 83.0635 81.6841C83.1635 81.6802 83.2632 81.6981 83.3555 81.7366C83.4479 81.775 83.5308 81.8332 83.5984 81.907C83.666 81.9808 83.7167 82.0684 83.747 82.1638C83.7773 82.2592 83.7864 82.36 83.7737 82.4593C83.7564 82.6684 83.6615 82.8635 83.5076 83.0061C83.3538 83.1488 83.1521 83.2287 82.9423 83.2302C82.842 83.2345 82.742 83.2171 82.6491 83.1792C82.5561 83.1413 82.4725 83.0838 82.4038 83.0106C82.3352 82.9374 82.2831 82.8503 82.2512 82.7551C82.2193 82.66 82.2084 82.5591 82.219 82.4593Z" fill="white"/>
<path id="Vector_24" d="M66.7633 93.3466H34.4741L34.5824 91.9824H66.8716L66.7633 93.3466Z" fill="#AF70FF"/>
<path id="Vector_25" d="M66.4557 97.2865H34.1665L34.2748 95.918H66.564L66.4557 97.2865Z" fill="#AF70FF"/>
<path id="Vector_26" d="M66.1482 101.228H33.8633L33.9672 99.8594H66.2564L66.1482 101.228Z" fill="#AF70FF"/>
<path id="Vector_27" d="M65.8454 105.163H33.5562L33.6601 103.799H65.9493L65.8454 105.163Z" fill="#AF70FF"/>
<path id="Vector_28" d="M87.0307 105.165H73.8569L74.8833 91.9824H88.0571L87.0307 105.165Z" fill="#AF70FF"/>
<path id="Vector_29" d="M83.3845 96.875C83.4451 96.1041 82.8475 95.5758 81.7605 95.5758C81.341 95.5561 80.9224 95.6316 80.5362 95.7966C80.15 95.9616 79.8061 96.2118 79.5302 96.5285L78.6987 95.8833C79.1019 95.432 79.6008 95.0764 80.159 94.8426C80.7172 94.6089 81.3206 94.5028 81.9251 94.5321C83.6573 94.5321 84.7183 95.3376 84.6144 96.6758C84.4585 98.6939 82.3148 98.8411 82.1936 100.404H81.0026C81.1325 98.5293 83.2762 98.2608 83.3845 96.875ZM80.6648 102.379C80.6803 102.167 80.7765 101.969 80.9336 101.826C81.0906 101.682 81.2967 101.604 81.5093 101.608C81.6089 101.605 81.7081 101.622 81.8002 101.661C81.8922 101.699 81.9748 101.757 82.0424 101.83C82.1099 101.903 82.1607 101.99 82.1913 102.085C82.2219 102.18 82.2315 102.28 82.2195 102.379C82.2032 102.589 82.1086 102.784 81.9545 102.927C81.8004 103.07 81.5982 103.15 81.3881 103.15C81.2876 103.155 81.1873 103.138 81.094 103.101C81.0007 103.063 80.9167 103.005 80.8479 102.932C80.7791 102.859 80.7271 102.771 80.6955 102.676C80.6638 102.58 80.6534 102.479 80.6648 102.379Z" fill="white"/>
<path id="Vector_30" d="M65.2086 113.296H32.9194L33.0277 111.928H65.3169L65.2086 113.296Z" fill="#AF70FF"/>
<path id="Vector_31" d="M64.901 117.236H32.6118L32.7201 115.867H65.0093L64.901 117.236Z" fill="#AF70FF"/>
<path id="Vector_32" d="M64.5934 121.175H32.3042L32.4125 119.811H64.7017L64.5934 121.175Z" fill="#AF70FF"/>
<path id="Vector_33" d="M64.2858 125.117H31.9966L32.1048 123.748H64.3941L64.2858 125.117Z" fill="#AF70FF"/>
<path id="Vector_34" d="M85.476 125.115H72.3022L73.3286 111.928H86.5024L85.476 125.115Z" fill="#AF70FF"/>
<path id="Vector_35" d="M81.8293 116.826C81.8899 116.051 81.2923 115.527 80.2053 115.527C79.7857 115.507 79.3671 115.583 78.9808 115.748C78.5945 115.913 78.2507 116.163 77.975 116.48L77.1436 115.852C77.5467 115.401 78.0456 115.045 78.6038 114.811C79.162 114.578 79.7654 114.472 80.3699 114.501C82.1021 114.501 83.1631 115.311 83.0592 116.666C82.9033 118.68 80.7596 118.832 80.6384 120.395H79.4301C79.5774 118.476 81.721 118.212 81.8293 116.826ZM79.1097 122.339C79.1241 122.126 79.2198 121.927 79.377 121.783C79.5342 121.639 79.7408 121.56 79.9541 121.564C80.0541 121.56 80.1538 121.578 80.2462 121.617C80.3385 121.655 80.4214 121.713 80.489 121.787C80.5566 121.861 80.6073 121.948 80.6376 122.044C80.6679 122.139 80.677 122.24 80.6644 122.339C80.6471 122.548 80.5521 122.744 80.3983 122.886C80.2444 123.029 80.0427 123.109 79.8329 123.11C79.7326 123.114 79.6326 123.097 79.5397 123.059C79.4468 123.021 79.3631 122.964 79.2945 122.891C79.2258 122.817 79.1737 122.73 79.1418 122.635C79.11 122.54 79.099 122.439 79.1097 122.339Z" fill="white"/>
<path id="Vector_36" opacity="0.7" d="M89.5036 46.0791H41.0005L41.4119 40.7871H89.915L89.5036 46.0791Z" fill="white"/>
<path id="Vector_37" opacity="0.7" d="M69.8727 53.4462H37.5835L37.6918 52.082H69.981L69.8727 53.4462Z" fill="white"/>
<path id="Vector_38" opacity="0.7" d="M69.569 57.39H37.2798L37.3837 56.0215H69.6729L69.569 57.39Z" fill="white"/>
<path id="Vector_39" opacity="0.7" d="M69.2619 61.3294H36.9727L37.0766 59.9609H69.3658L69.2619 61.3294Z" fill="white"/>
<path id="Vector_40" opacity="0.7" d="M68.9542 65.2665H36.665L36.769 63.9023H69.0582L68.9542 65.2665Z" fill="white"/>
<path id="Vector_41" opacity="0.7" d="M90.1401 65.2645H76.9663L77.997 52.082H91.1708L90.1401 65.2645Z" fill="white"/>
<path id="Vector_42" opacity="0.7" d="M68.318 73.3978H36.0288L36.1371 72.0293H68.4263L68.318 73.3978Z" fill="white"/>
<path id="Vector_43" opacity="0.7" d="M68.0104 77.3348H35.7212L35.8295 75.9707H68.1187L68.0104 77.3348Z" fill="white"/>
<path id="Vector_44" opacity="0.7" d="M67.7076 81.2743H35.4185L35.5224 79.9102H67.8116L67.7076 81.2743Z" fill="white"/>
<path id="Vector_45" opacity="0.7" d="M67.4 85.2181H35.1108L35.2148 83.8496H67.504L67.4 85.2181Z" fill="white"/>
<path id="Vector_46" opacity="0.7" d="M88.5854 85.2161H75.4116L76.438 72.0293H89.6118L88.5854 85.2161Z" fill="white"/>
<path id="Vector_47" opacity="0.7" d="M66.7633 93.3466H34.4741L34.5824 91.9824H66.8716L66.7633 93.3466Z" fill="white"/>
<path id="Vector_48" opacity="0.7" d="M66.4557 97.2865H34.1665L34.2748 95.918H66.564L66.4557 97.2865Z" fill="white"/>
<path id="Vector_49" opacity="0.7" d="M66.1482 101.228H33.8633L33.9672 99.8594H66.2564L66.1482 101.228Z" fill="white"/>
<path id="Vector_50" opacity="0.7" d="M65.8454 105.163H33.5562L33.6601 103.799H65.9493L65.8454 105.163Z" fill="white"/>
<path id="Vector_51" opacity="0.7" d="M87.0307 105.165H73.8569L74.8833 91.9824H88.0571L87.0307 105.165Z" fill="white"/>
<path id="Vector_52" opacity="0.7" d="M65.2086 113.296H32.9194L33.0277 111.928H65.3169L65.2086 113.296Z" fill="white"/>
<path id="Vector_53" opacity="0.7" d="M64.901 117.236H32.6118L32.7201 115.867H65.0093L64.901 117.236Z" fill="white"/>
<path id="Vector_54" opacity="0.7" d="M64.5934 121.175H32.3042L32.4125 119.811H64.7017L64.5934 121.175Z" fill="white"/>
<path id="Vector_55" opacity="0.7" d="M64.2858 125.117H31.9966L32.1048 123.748H64.3941L64.2858 125.117Z" fill="white"/>
<path id="Vector_56" opacity="0.7" d="M85.476 125.115H72.3022L73.3286 111.928H86.5024L85.476 125.115Z" fill="white"/>
</g>
<g id="freepik--Lightbulb--inject-7">
<path id="Vector_57" d="M26.0728 16.5829C25.6997 15.2307 24.9893 13.9953 24.0083 12.9927C23.0273 11.99 21.8078 11.2529 20.4641 10.8504C19.1203 10.4479 17.6964 10.3931 16.3257 10.6913C14.9551 10.9895 13.6825 11.6308 12.6275 12.5552C11.5724 13.4795 10.7693 14.6567 10.2934 15.9762C9.81762 17.2958 9.68464 18.7146 9.90698 20.0996C10.1293 21.4846 10.6997 22.7904 11.5646 23.8948C12.4296 24.9991 13.5607 25.8657 14.8521 26.4134C15.4072 26.6411 15.8547 27.0715 16.1037 27.6173L16.3852 28.2539L24.3579 26.0886L24.2756 25.3957C24.2183 24.795 24.3865 24.1945 24.7476 23.7111C25.4907 22.6992 25.9958 21.5327 26.2253 20.2985C26.4547 19.0643 26.4026 17.7941 26.0728 16.5829Z" fill="#AF70FF"/>
<path id="Vector_58" d="M18.9877 28.2683C18.9877 28.2683 17.7881 24.505 15.6704 22.8377L16.844 22.5172L16.935 20.7113L18.8534 23.4873L18.6975 20.1094L20.59 23.1885L20.7806 21.4562L22.4565 21.0231C21.5397 23.0826 21.3757 25.3987 21.9931 27.5667" stroke="white" stroke-linecap="round" stroke-linejoin="round"/>
<path id="Vector_59" d="M20.4948 27.6359C19.083 28.0213 18.2948 29.6453 18.7365 31.2607C19.1782 32.876 20.6766 33.859 22.0884 33.4866C23.5002 33.1142 24.2841 31.4815 23.8467 29.8662C23.4093 28.2509 21.9065 27.2548 20.4948 27.6359Z" fill="#2E353A"/>
<path id="Vector_60" d="M23.2141 32.0055L20.3732 32.7806C19.6945 32.9653 18.9712 32.8867 18.348 32.5607C17.7248 32.2347 17.2479 31.6852 17.0126 31.0224L16.0815 28.3937C16.0629 28.3418 16.0552 28.2865 16.0591 28.2315C16.0629 28.1764 16.0781 28.1228 16.1038 28.0739C16.1294 28.0251 16.1649 27.9821 16.2081 27.9477C16.2512 27.9133 16.301 27.8882 16.3544 27.874L24.1841 25.739C24.2374 25.7243 24.2931 25.7208 24.3478 25.7288C24.4025 25.7367 24.4549 25.756 24.5018 25.7853C24.5486 25.8147 24.5888 25.8534 24.6199 25.8991C24.6509 25.9448 24.6721 25.9965 24.6822 26.0508L25.2148 28.7835C25.349 29.4738 25.2175 30.1894 24.8464 30.7869C24.4754 31.3844 23.8924 31.8196 23.2141 32.0055Z" fill="#AF70FF"/>
<path id="Vector_61" opacity="0.4" d="M23.2141 32.0055L20.3732 32.7806C19.6945 32.9653 18.9712 32.8867 18.348 32.5607C17.7248 32.2347 17.2479 31.6852 17.0126 31.0224L16.0815 28.3937C16.0629 28.3418 16.0552 28.2865 16.0591 28.2315C16.0629 28.1764 16.0781 28.1228 16.1038 28.0739C16.1294 28.0251 16.1649 27.9821 16.2081 27.9477C16.2512 27.9133 16.301 27.8882 16.3544 27.874L24.1841 25.739C24.2374 25.7243 24.2931 25.7208 24.3478 25.7288C24.4025 25.7367 24.4549 25.756 24.5018 25.7853C24.5486 25.8147 24.5888 25.8534 24.6199 25.8991C24.6509 25.9448 24.6721 25.9965 24.6822 26.0508L25.2148 28.7835C25.349 29.4738 25.2175 30.1894 24.8464 30.7869C24.4754 31.3844 23.8924 31.8196 23.2141 32.0055Z" fill="white"/>
<path id="Vector_62" d="M7.02654 24.8622C6.25071 24.7196 5.46382 24.6457 4.675 24.6413C4.28284 24.6389 3.89091 24.6606 3.5014 24.7063C3.30652 24.7366 3.11165 24.7582 2.92543 24.8059C2.83016 24.8319 2.73488 24.8448 2.64394 24.8795L2.37111 24.9661L2.0593 25.0657L2.24552 24.7929C2.77076 24.0152 3.18882 23.1704 3.48841 22.2811C3.63732 21.84 3.74603 21.3863 3.81321 20.9256C3.84629 20.6974 3.86654 20.4675 3.87384 20.2371C3.88683 20.0077 3.88683 19.7778 3.87384 19.5485C3.85728 19.3214 3.82545 19.0957 3.77856 18.8729L3.69628 18.5438L3.58802 18.219C3.51113 18.0067 3.41699 17.801 3.30653 17.604C3.20006 17.4054 3.07996 17.2144 2.94708 17.0324C2.81314 16.8507 2.66854 16.6772 2.51402 16.5127L2.27584 16.2702L2.016 16.045C1.8471 15.8891 1.64789 15.7678 1.47034 15.6119C1.29278 15.456 1.08058 15.3694 0.8857 15.2438L0.452637 14.958L0.933337 14.7285C1.16286 14.6159 1.40538 14.4816 1.6349 14.3431C1.86442 14.2045 2.09395 14.0616 2.31914 13.91C2.7655 13.6057 3.18953 13.27 3.58802 12.9053C3.7829 12.7234 3.97344 12.5372 4.15966 12.3423C4.34588 12.1474 4.51477 11.9396 4.675 11.7317C4.83524 11.5238 4.99114 11.2986 5.10807 11.0778C5.24793 10.8563 5.37377 10.6264 5.48483 10.3892C5.59928 10.1536 5.69766 9.91052 5.77932 9.66164L5.89191 9.28921L5.97419 8.90378C6.0225 8.64939 6.05146 8.3917 6.06081 8.13293C6.08379 7.61085 6.03719 7.08802 5.92223 6.57823L5.83561 6.19281L5.71436 5.81604C5.64074 5.56053 5.52381 5.32235 5.42854 5.0755C5.33326 4.82866 5.19468 4.59913 5.07775 4.35662L4.45847 3.05743L5.64507 3.81962C5.85294 3.9582 6.07813 4.09245 6.32498 4.21804C6.57182 4.34363 6.80135 4.46489 7.04386 4.57315C7.52681 4.7987 8.02453 4.99114 8.5336 5.14913C8.78911 5.22275 9.04462 5.29204 9.30012 5.34833C9.55577 5.4067 9.8146 5.45007 10.0753 5.47825C10.3324 5.51124 10.5913 5.52716 10.8505 5.52589C11.1068 5.52396 11.3628 5.50661 11.617 5.47392L11.9894 5.40896L12.3575 5.30936C12.5953 5.23131 12.8268 5.13577 13.0504 5.02354C13.162 4.96991 13.2691 4.90765 13.3709 4.83732C13.4795 4.7742 13.5824 4.70175 13.6784 4.62079C13.8771 4.46611 14.0652 4.29829 14.2414 4.11843C14.4146 3.93154 14.5752 3.73333 14.7221 3.52514C14.8748 3.31586 15.0123 3.09587 15.1335 2.86688C15.2677 2.64602 15.3587 2.39484 15.4756 2.16099C15.5925 1.92713 15.6618 1.6673 15.7571 1.42045L16.2984 0L16.5669 1.48108C16.6123 1.72332 16.6745 1.96208 16.7531 2.19563C16.9815 2.91988 17.3299 3.60061 17.7838 4.20938C18.0831 4.60687 18.4375 4.95974 18.8362 5.25739C19.0327 5.40718 19.2413 5.54044 19.4598 5.65581C19.6782 5.77444 19.9055 5.87579 20.1397 5.95895C20.3747 6.04103 20.6149 6.10758 20.8586 6.15816C21.106 6.20794 21.3562 6.24265 21.6078 6.2621C21.8602 6.27511 22.1132 6.27511 22.3656 6.2621C22.6212 6.2621 22.8767 6.22745 23.1322 6.2058C23.3877 6.18414 23.6432 6.12352 23.8944 6.08454L24.6522 5.90266L25.4014 5.67746L26.142 5.41329L27.1683 5.04519L26.5793 5.95895C26.4711 6.11919 26.3628 6.31406 26.2632 6.50028C26.1636 6.6865 26.0727 6.87705 25.9861 7.07626C25.8157 7.46457 25.6809 7.86753 25.5833 8.28017C25.4864 8.68732 25.4385 9.10456 25.4404 9.52306C25.445 9.93325 25.5167 10.3399 25.6526 10.727L25.7695 11.0128L25.9168 11.3289C26.0227 11.5045 26.1429 11.6711 26.2762 11.827C26.4099 11.9816 26.5546 12.1264 26.7093 12.26C26.8696 12.3994 27.0388 12.5281 27.216 12.6455C27.3916 12.7653 27.5737 12.8751 27.7616 12.9746C27.9478 13.0785 28.147 13.1565 28.3419 13.2517L28.9482 13.4813L29.5718 13.6761L30.0049 13.8147L29.6411 14.0962C29.3962 14.2864 29.166 14.4949 28.9525 14.7198C28.7369 14.9453 28.5372 15.1855 28.3549 15.4387C28.2553 15.5643 28.1774 15.6985 28.0907 15.8285C28.0073 15.9593 27.9321 16.0953 27.8655 16.2355C27.7895 16.374 27.7257 16.519 27.675 16.6686C27.6149 16.8086 27.5671 16.9535 27.5321 17.1017C27.5018 17.2532 27.4498 17.4005 27.4325 17.5347L27.3892 17.9981C27.3892 18.154 27.3892 18.3099 27.4152 18.4658C27.4239 18.6213 27.45 18.7753 27.4931 18.9249C27.5214 19.0723 27.562 19.2172 27.6144 19.3579L27.7919 19.791C27.8516 19.9421 27.9255 20.0871 28.0128 20.2241L28.2553 20.6571L28.3462 20.8087H28.1774C27.5369 20.8104 26.8993 20.8948 26.2805 21.0599C25.9706 21.142 25.6713 21.2597 25.3884 21.4107C25.3181 21.4484 25.2501 21.4903 25.1849 21.5362C25.1145 21.576 25.0491 21.624 24.99 21.6792C24.9255 21.7264 24.8647 21.7785 24.8081 21.8351L24.6392 22.0126L24.7995 21.8264C24.8518 21.7648 24.9098 21.7083 24.9727 21.6575C25.0313 21.5999 25.0951 21.5477 25.1632 21.5016C25.2282 21.4583 25.2932 21.4063 25.3624 21.3673C25.6425 21.1995 25.9402 21.063 26.2502 20.9603C26.8737 20.7577 27.5223 20.6426 28.1774 20.6181L28.1037 20.7697L27.8352 20.3367C27.7378 20.2007 27.6537 20.0557 27.5841 19.9036L27.3805 19.4705C27.3159 19.317 27.2666 19.1574 27.2333 18.9942C27.1792 18.8358 27.1443 18.6715 27.1293 18.5048C27.1293 18.3402 27.0904 18.1713 27.086 18.0068V17.5001C27.086 17.3355 27.1467 17.171 27.1726 17.0064C27.2056 16.8412 27.252 16.679 27.3112 16.5214C27.3586 16.36 27.4209 16.2034 27.4974 16.0537C27.5626 15.9044 27.6378 15.7597 27.7226 15.6206C27.8014 15.4717 27.8882 15.3271 27.9825 15.1875C28.1693 14.9113 28.3762 14.6493 28.6018 14.4037C28.8275 14.1529 29.0722 13.9198 29.3336 13.7065L29.4159 14.1395L28.762 13.9533L28.1167 13.7238C27.9045 13.6328 27.6837 13.5506 27.4844 13.4423C27.2768 13.341 27.0758 13.2267 26.8825 13.1002C26.6844 12.9758 26.4949 12.8384 26.3152 12.6888C26.1372 12.5382 25.972 12.3731 25.8215 12.1951C25.66 12.0166 25.515 11.8238 25.3884 11.6191L25.2109 11.3073L25.068 10.9738C24.9012 10.5329 24.8076 10.0678 24.7908 9.59669C24.7737 9.12413 24.8159 8.65129 24.9164 8.18923C25.0125 7.73491 25.1488 7.29 25.3235 6.85972C25.4101 6.64319 25.5053 6.42666 25.6093 6.22745C25.7132 6.02824 25.8215 5.82037 25.9557 5.60817L26.3888 6.15383L25.6179 6.43532L24.8341 6.67784C24.5656 6.75146 24.2971 6.81209 24.0286 6.87705C23.7601 6.94201 23.4873 6.98098 23.2101 7.0113C22.933 7.04961 22.654 7.07274 22.3743 7.08059C22.0858 7.09651 21.7967 7.09651 21.5082 7.08059C21.2261 7.06011 20.9455 7.02251 20.668 6.96799C20.388 6.91169 20.1117 6.83792 19.8409 6.74713C19.5708 6.65096 19.3074 6.53666 19.0527 6.40501C18.7967 6.27208 18.552 6.11856 18.3208 5.94596C17.8591 5.60587 17.4479 5.20198 17.0996 4.74638C16.7538 4.29767 16.463 3.80916 16.2335 3.29128C16.1164 3.03447 16.0138 2.77134 15.926 2.50311C15.8325 2.2298 15.7573 1.95058 15.7008 1.6673L16.5106 1.72793C16.411 1.99642 16.3201 2.26925 16.2118 2.53342C16.1008 2.80076 15.9765 3.06237 15.8394 3.31727C15.7131 3.577 15.5683 3.82737 15.4063 4.06647C15.2365 4.30904 15.0514 4.54048 14.852 4.75937C14.6453 4.9753 14.4223 5.17509 14.1851 5.35699C14.0682 5.45103 13.9436 5.53505 13.8126 5.60817C13.6877 5.69152 13.5575 5.76674 13.4229 5.83336C13.1534 5.96741 12.874 6.08035 12.5871 6.17115L12.154 6.27942L11.7209 6.35737C11.4337 6.39391 11.1443 6.40983 10.8548 6.40501C10.5652 6.40557 10.2758 6.38676 9.98869 6.34871C9.69742 6.31413 9.40827 6.26353 9.12257 6.19714C8.84107 6.13651 8.56392 6.05856 8.29109 5.97194C7.74856 5.80211 7.21887 5.59371 6.70607 5.34833C6.44623 5.23141 6.19506 5.10149 5.94821 4.96724C5.70137 4.83299 5.45885 4.69008 5.20334 4.53417L5.77066 4.01883C5.89625 4.27867 6.03049 4.52984 6.14309 4.79834C6.25902 5.06299 6.36165 5.33327 6.45057 5.60817L6.58048 6.04124L6.67576 6.4743C6.73403 6.76056 6.7774 7.04966 6.80568 7.34043C6.82251 7.62889 6.82251 7.91809 6.80568 8.20655C6.79251 8.49743 6.75776 8.78694 6.70174 9.07268L6.60647 9.50574L6.47655 9.93881C6.38192 10.2173 6.26908 10.4893 6.13876 10.753C6.01239 11.0154 5.86767 11.2687 5.7057 11.5108C5.5472 11.7475 5.37664 11.9759 5.19468 12.1951C5.00846 12.4203 4.81792 12.6281 4.61871 12.8403C4.4195 13.0525 4.2073 13.2387 3.99509 13.4293C3.56325 13.8008 3.10757 14.1437 2.63095 14.4557C2.39132 14.6116 2.1488 14.7559 1.9034 14.8887C1.65222 15.0273 1.40538 15.1572 1.13255 15.2785L1.16286 14.7631C1.3664 14.9017 1.59593 15.0273 1.77781 15.1702C1.9597 15.3131 2.17623 15.4604 2.35378 15.6336L2.63095 15.8848L2.88645 16.1533C3.05303 16.3378 3.20918 16.5316 3.35416 16.7336C3.49747 16.9394 3.62626 17.1551 3.73959 17.3788C3.85459 17.5993 3.95303 17.828 4.03407 18.0631L4.14234 18.4225L4.22029 18.7863C4.26621 19.0308 4.29515 19.2783 4.3069 19.5268C4.33764 20.5082 4.16666 21.4854 3.80455 22.398C3.45951 23.3019 2.99488 24.1554 2.42308 24.9358L2.29749 24.7626L2.58764 24.6803C2.68724 24.65 2.78685 24.637 2.88645 24.6153C3.08133 24.572 3.28054 24.559 3.47975 24.533C3.87782 24.5093 4.27694 24.5093 4.675 24.533C5.46684 24.575 6.2536 24.6852 7.02654 24.8622Z" fill="#AF70FF"/>
<path id="Vector_63" opacity="0.7" d="M7.02654 24.8622C6.25071 24.7196 5.46382 24.6457 4.675 24.6413C4.28284 24.6389 3.89091 24.6606 3.5014 24.7063C3.30652 24.7366 3.11165 24.7582 2.92543 24.8059C2.83016 24.8319 2.73488 24.8448 2.64394 24.8795L2.37111 24.9661L2.0593 25.0657L2.24552 24.7929C2.77076 24.0152 3.18882 23.1704 3.48841 22.2811C3.63732 21.84 3.74603 21.3863 3.81321 20.9256C3.84629 20.6974 3.86654 20.4675 3.87384 20.2371C3.88683 20.0077 3.88683 19.7778 3.87384 19.5485C3.85728 19.3214 3.82545 19.0957 3.77856 18.8729L3.69628 18.5438L3.58802 18.219C3.51113 18.0067 3.41699 17.801 3.30653 17.604C3.20006 17.4054 3.07996 17.2144 2.94708 17.0324C2.81314 16.8507 2.66854 16.6772 2.51402 16.5127L2.27584 16.2702L2.016 16.045C1.8471 15.8891 1.64789 15.7678 1.47034 15.6119C1.29278 15.456 1.08058 15.3694 0.8857 15.2438L0.452637 14.958L0.933337 14.7285C1.16286 14.6159 1.40538 14.4816 1.6349 14.3431C1.86442 14.2045 2.09395 14.0616 2.31914 13.91C2.7655 13.6057 3.18953 13.27 3.58802 12.9053C3.7829 12.7234 3.97344 12.5372 4.15966 12.3423C4.34588 12.1474 4.51477 11.9396 4.675 11.7317C4.83524 11.5238 4.99114 11.2986 5.10807 11.0778C5.24793 10.8563 5.37377 10.6264 5.48483 10.3892C5.59928 10.1536 5.69766 9.91052 5.77932 9.66164L5.89191 9.28921L5.97419 8.90378C6.0225 8.64939 6.05146 8.3917 6.06081 8.13293C6.08379 7.61085 6.03719 7.08802 5.92223 6.57823L5.83561 6.19281L5.71436 5.81604C5.64074 5.56053 5.52381 5.32235 5.42854 5.0755C5.33326 4.82866 5.19468 4.59913 5.07775 4.35662L4.45847 3.05743L5.64507 3.81962C5.85294 3.9582 6.07813 4.09245 6.32498 4.21804C6.57182 4.34363 6.80135 4.46489 7.04386 4.57315C7.52681 4.7987 8.02453 4.99114 8.5336 5.14913C8.78911 5.22275 9.04462 5.29204 9.30012 5.34833C9.55577 5.4067 9.8146 5.45007 10.0753 5.47825C10.3324 5.51124 10.5913 5.52716 10.8505 5.52589C11.1068 5.52396 11.3628 5.50661 11.617 5.47392L11.9894 5.40896L12.3575 5.30936C12.5953 5.23131 12.8268 5.13577 13.0504 5.02354C13.162 4.96991 13.2691 4.90765 13.3709 4.83732C13.4795 4.7742 13.5824 4.70175 13.6784 4.62079C13.8771 4.46611 14.0652 4.29829 14.2414 4.11843C14.4146 3.93154 14.5752 3.73333 14.7221 3.52514C14.8748 3.31586 15.0123 3.09587 15.1335 2.86688C15.2677 2.64602 15.3587 2.39484 15.4756 2.16099C15.5925 1.92713 15.6618 1.6673 15.7571 1.42045L16.2984 0L16.5669 1.48108C16.6123 1.72332 16.6745 1.96208 16.7531 2.19563C16.9815 2.91988 17.3299 3.60061 17.7838 4.20938C18.0831 4.60687 18.4375 4.95974 18.8362 5.25739C19.0327 5.40718 19.2413 5.54044 19.4598 5.65581C19.6782 5.77444 19.9055 5.87579 20.1397 5.95895C20.3747 6.04103 20.6149 6.10758 20.8586 6.15816C21.106 6.20794 21.3562 6.24265 21.6078 6.2621C21.8602 6.27511 22.1132 6.27511 22.3656 6.2621C22.6212 6.2621 22.8767 6.22745 23.1322 6.2058C23.3877 6.18414 23.6432 6.12352 23.8944 6.08454L24.6522 5.90266L25.4014 5.67746L26.142 5.41329L27.1683 5.04519L26.5793 5.95895C26.4711 6.11919 26.3628 6.31406 26.2632 6.50028C26.1636 6.6865 26.0727 6.87705 25.9861 7.07626C25.8157 7.46457 25.6809 7.86753 25.5833 8.28017C25.4864 8.68732 25.4385 9.10456 25.4404 9.52306C25.445 9.93325 25.5167 10.3399 25.6526 10.727L25.7695 11.0128L25.9168 11.3289C26.0227 11.5045 26.1429 11.6711 26.2762 11.827C26.4099 11.9816 26.5546 12.1264 26.7093 12.26C26.8696 12.3994 27.0388 12.5281 27.216 12.6455C27.3916 12.7653 27.5737 12.8751 27.7616 12.9746C27.9478 13.0785 28.147 13.1565 28.3419 13.2517L28.9482 13.4813L29.5718 13.6761L30.0049 13.8147L29.6411 14.0962C29.3962 14.2864 29.166 14.4949 28.9525 14.7198C28.7369 14.9453 28.5372 15.1855 28.3549 15.4387C28.2553 15.5643 28.1774 15.6985 28.0907 15.8285C28.0073 15.9593 27.9321 16.0953 27.8655 16.2355C27.7895 16.374 27.7257 16.519 27.675 16.6686C27.6149 16.8086 27.5671 16.9535 27.5321 17.1017C27.5018 17.2532 27.4498 17.4005 27.4325 17.5347L27.3892 17.9981C27.3892 18.154 27.3892 18.3099 27.4152 18.4658C27.4239 18.6213 27.45 18.7753 27.4931 18.9249C27.5214 19.0723 27.562 19.2172 27.6144 19.3579L27.7919 19.791C27.8516 19.9421 27.9255 20.0871 28.0128 20.2241L28.2553 20.6571L28.3462 20.8087H28.1774C27.5369 20.8104 26.8993 20.8948 26.2805 21.0599C25.9706 21.142 25.6713 21.2597 25.3884 21.4107C25.3181 21.4484 25.2501 21.4903 25.1849 21.5362C25.1145 21.576 25.0491 21.624 24.99 21.6792C24.9255 21.7264 24.8647 21.7785 24.8081 21.8351L24.6392 22.0126L24.7995 21.8264C24.8518 21.7648 24.9098 21.7083 24.9727 21.6575C25.0313 21.5999 25.0951 21.5477 25.1632 21.5016C25.2282 21.4583 25.2932 21.4063 25.3624 21.3673C25.6425 21.1995 25.9402 21.063 26.2502 20.9603C26.8737 20.7577 27.5223 20.6426 28.1774 20.6181L28.1037 20.7697L27.8352 20.3367C27.7378 20.2007 27.6537 20.0557 27.5841 19.9036L27.3805 19.4705C27.3159 19.317 27.2666 19.1574 27.2333 18.9942C27.1792 18.8358 27.1443 18.6715 27.1293 18.5048C27.1293 18.3402 27.0904 18.1713 27.086 18.0068V17.5001C27.086 17.3355 27.1467 17.171 27.1726 17.0064C27.2056 16.8412 27.252 16.679 27.3112 16.5214C27.3586 16.36 27.4209 16.2034 27.4974 16.0537C27.5626 15.9044 27.6378 15.7597 27.7226 15.6206C27.8014 15.4717 27.8882 15.3271 27.9825 15.1875C28.1693 14.9113 28.3762 14.6493 28.6018 14.4037C28.8275 14.1529 29.0722 13.9198 29.3336 13.7065L29.4159 14.1395L28.762 13.9533L28.1167 13.7238C27.9045 13.6328 27.6837 13.5506 27.4844 13.4423C27.2768 13.341 27.0758 13.2267 26.8825 13.1002C26.6844 12.9758 26.4949 12.8384 26.3152 12.6888C26.1372 12.5382 25.972 12.3731 25.8215 12.1951C25.66 12.0166 25.515 11.8238 25.3884 11.6191L25.2109 11.3073L25.068 10.9738C24.9012 10.5329 24.8076 10.0678 24.7908 9.59669C24.7737 9.12413 24.8159 8.65129 24.9164 8.18923C25.0125 7.73491 25.1488 7.29 25.3235 6.85972C25.4101 6.64319 25.5053 6.42666 25.6093 6.22745C25.7132 6.02824 25.8215 5.82037 25.9557 5.60817L26.3888 6.15383L25.6179 6.43532L24.8341 6.67784C24.5656 6.75146 24.2971 6.81209 24.0286 6.87705C23.7601 6.94201 23.4873 6.98098 23.2101 7.0113C22.933 7.04961 22.654 7.07274 22.3743 7.08059C22.0858 7.09651 21.7967 7.09651 21.5082 7.08059C21.2261 7.06011 20.9455 7.02251 20.668 6.96799C20.388 6.91169 20.1117 6.83792 19.8409 6.74713C19.5708 6.65096 19.3074 6.53666 19.0527 6.40501C18.7967 6.27208 18.552 6.11856 18.3208 5.94596C17.8591 5.60587 17.4479 5.20198 17.0996 4.74638C16.7538 4.29767 16.463 3.80916 16.2335 3.29128C16.1164 3.03447 16.0138 2.77134 15.926 2.50311C15.8325 2.2298 15.7573 1.95058 15.7008 1.6673L16.5106 1.72793C16.411 1.99642 16.3201 2.26925 16.2118 2.53342C16.1008 2.80076 15.9765 3.06237 15.8394 3.31727C15.7131 3.577 15.5683 3.82737 15.4063 4.06647C15.2365 4.30904 15.0514 4.54048 14.852 4.75937C14.6453 4.9753 14.4223 5.17509 14.1851 5.35699C14.0682 5.45103 13.9436 5.53505 13.8126 5.60817C13.6877 5.69152 13.5575 5.76674 13.4229 5.83336C13.1534 5.96741 12.874 6.08035 12.5871 6.17115L12.154 6.27942L11.7209 6.35737C11.4337 6.39391 11.1443 6.40983 10.8548 6.40501C10.5652 6.40557 10.2758 6.38676 9.98869 6.34871C9.69742 6.31413 9.40827 6.26353 9.12257 6.19714C8.84107 6.13651 8.56392 6.05856 8.29109 5.97194C7.74856 5.80211 7.21887 5.59371 6.70607 5.34833C6.44623 5.23141 6.19506 5.10149 5.94821 4.96724C5.70137 4.83299 5.45885 4.69008 5.20334 4.53417L5.77066 4.01883C5.89625 4.27867 6.03049 4.52984 6.14309 4.79834C6.25902 5.06299 6.36165 5.33327 6.45057 5.60817L6.58048 6.04124L6.67576 6.4743C6.73403 6.76056 6.7774 7.04966 6.80568 7.34043C6.82251 7.62889 6.82251 7.91809 6.80568 8.20655C6.79251 8.49743 6.75776 8.78694 6.70174 9.07268L6.60647 9.50574L6.47655 9.93881C6.38192 10.2173 6.26908 10.4893 6.13876 10.753C6.01239 11.0154 5.86767 11.2687 5.7057 11.5108C5.5472 11.7475 5.37664 11.9759 5.19468 12.1951C5.00846 12.4203 4.81792 12.6281 4.61871 12.8403C4.4195 13.0525 4.2073 13.2387 3.99509 13.4293C3.56325 13.8008 3.10757 14.1437 2.63095 14.4557C2.39132 14.6116 2.1488 14.7559 1.9034 14.8887C1.65222 15.0273 1.40538 15.1572 1.13255 15.2785L1.16286 14.7631C1.3664 14.9017 1.59593 15.0273 1.77781 15.1702C1.9597 15.3131 2.17623 15.4604 2.35378 15.6336L2.63095 15.8848L2.88645 16.1533C3.05303 16.3378 3.20918 16.5316 3.35416 16.7336C3.49747 16.9394 3.62626 17.1551 3.73959 17.3788C3.85459 17.5993 3.95303 17.828 4.03407 18.0631L4.14234 18.4225L4.22029 18.7863C4.26621 19.0308 4.29515 19.2783 4.3069 19.5268C4.33764 20.5082 4.16666 21.4854 3.80455 22.398C3.45951 23.3019 2.99488 24.1554 2.42308 24.9358L2.29749 24.7626L2.58764 24.6803C2.68724 24.65 2.78685 24.637 2.88645 24.6153C3.08133 24.572 3.28054 24.559 3.47975 24.533C3.87782 24.5093 4.27694 24.5093 4.675 24.533C5.46684 24.575 6.2536 24.6852 7.02654 24.8622Z" fill="white"/>
</g>
</g>
</svg>
