<svg width="33" height="32" viewBox="0 0 33 32" fill="none" xmlns="http://www.w3.org/2000/svg">
<rect x="1" y="0.5" width="31" height="31" rx="7.5" fill="#F5F5F5"/>
<path d="M15.3333 17.3359C15.3333 17.1734 15.2962 17.0214 15.2415 16.8903C15.1857 16.7564 15.1081 16.6353 15.0116 16.5281L14.994 16.5086L14.9745 16.491C14.8673 16.3945 14.7462 16.3169 14.6123 16.2611C14.3292 16.1431 14.0041 16.1431 13.721 16.2611C13.5871 16.3169 13.466 16.3945 13.3589 16.491L13.3393 16.5086L13.3217 16.5281C13.2252 16.6353 13.1476 16.7564 13.0918 16.8903C13.0372 17.0214 13 17.1734 13 17.3359C13 17.4985 13.0372 17.6504 13.0918 17.7816C13.1476 17.9155 13.2252 18.0366 13.3217 18.1438L13.3393 18.1633L13.3588 18.1809C13.466 18.2774 13.5871 18.355 13.721 18.4108L13.9133 17.9493L13.721 18.4108C13.8522 18.4655 14.0041 18.5026 14.1667 18.5026C14.3292 18.5026 14.4812 18.4655 14.6123 18.4108L14.4286 17.9699L14.6123 18.4108C14.7462 18.355 14.8673 18.2774 14.9745 18.1809L14.994 18.1633L15.0116 18.1438C15.1081 18.0366 15.1857 17.9155 15.2415 17.7816C15.2962 17.6504 15.3333 17.4985 15.3333 17.3359ZM15.3333 17.3359C15.3333 17.0262 15.4617 16.732 15.6637 16.5187L15.6774 16.5043L15.6922 16.491C15.7972 16.3964 15.9157 16.3199 16.0465 16.2644C16.3342 16.1353 16.6658 16.1353 16.9535 16.2644C17.0843 16.3199 17.2028 16.3964 17.3078 16.491L17.3226 16.5043L17.3363 16.5187C17.5383 16.732 17.6667 17.0262 17.6667 17.3359C17.6667 17.6456 17.5383 17.9399 17.3363 18.1531L17.3226 18.1676L17.3078 18.1809C17.2007 18.2774 17.0796 18.355 16.9456 18.4108L16.7533 17.9493L16.9456 18.4108C16.8145 18.4655 16.6625 18.5026 16.5 18.5026C16.3375 18.5026 16.1855 18.4655 16.0544 18.4108L16.2467 17.9493L16.0544 18.4108C15.9204 18.355 15.7993 18.2774 15.6922 18.1809L15.6774 18.1676L15.6637 18.1531C15.4617 17.9399 15.3333 17.6456 15.3333 17.3359ZM19.1667 10.8318L19.6206 10.8738C20.4273 10.9485 20.9721 11.2194 21.331 11.6004C21.6609 11.9506 21.8743 12.4367 21.9551 13.0626H11.0449C11.1257 12.4367 11.3391 11.9506 11.669 11.6004C12.0279 11.2194 12.5727 10.9485 13.3794 10.8738L13.8333 10.8318V10.8359H14.3333H18.6667H19.1667V10.8318ZM14.9745 20.5143L14.9893 20.5009L15.003 20.4865C15.205 20.2732 15.3333 19.979 15.3333 19.6693C15.3333 19.3596 15.205 19.0653 15.003 18.8521L14.9893 18.8376L14.9745 18.8243C14.8673 18.7278 14.7462 18.6502 14.6123 18.5944C14.3292 18.4765 14.0041 18.4765 13.721 18.5944L13.9133 19.0559L13.721 18.5944C13.5871 18.6502 13.466 18.7278 13.3589 18.8243L13.3441 18.8376L13.3304 18.8521C13.1284 19.0653 13 19.3596 13 19.6693C13 19.979 13.1284 20.2732 13.3304 20.4865L13.344 20.5009L13.3588 20.5142C13.466 20.6107 13.5871 20.6883 13.721 20.7441C13.8522 20.7988 14.0042 20.8359 14.1667 20.8359C14.3292 20.8359 14.4812 20.7988 14.6123 20.7441C14.7462 20.6883 14.8673 20.6107 14.9745 20.5143ZM11.1667 15.0626H21.8333C21.9239 15.0626 22 15.1387 22 15.2293V19.3359C22 20.2593 21.7691 20.9524 21.3419 21.4124C20.921 21.8657 20.238 22.1693 19.1667 22.1693H13.8333C12.762 22.1693 12.079 21.8657 11.6581 21.4124C11.2309 20.9524 11 20.2593 11 19.3359V15.2293C11 15.1387 11.0761 15.0626 11.1667 15.0626Z" fill="#737373" stroke="#737373"/>
<rect x="1" y="0.5" width="31" height="31" rx="7.5" stroke="#E5E5E5"/>
</svg>
