<svg width="49" height="40" viewBox="0 0 49 40" fill="none" xmlns="http://www.w3.org/2000/svg">
<path d="M1.66406 3.83333V38.8333L6.73993 18.5299C7.1851 16.7492 8.78503 15.5 10.6205 15.5H43.0807V10.8333C43.0807 9.54463 42.0361 8.5 40.7474 8.5H26.8709C25.6838 8.5 24.558 7.97271 23.798 7.06074L20.3634 2.93926C19.6035 2.02729 18.4777 1.5 17.2906 1.5H3.9974C2.70873 1.5 1.66406 2.54467 1.66406 3.83333Z" stroke="black" stroke-width="1.5" stroke-linecap="round" stroke-linejoin="round"/>
<path d="M40.3848 38.8333C42.2916 38.8333 43.9332 37.4875 44.3072 35.6178L47.3738 20.2845C47.8689 17.8093 45.9757 15.5 43.4515 15.5H10.4303C8.58165 15.5 6.97381 16.7668 6.54132 18.5642L1.66406 38.8333H40.3848Z" fill="#1AA588" stroke="black" stroke-width="1.5" stroke-linecap="round" stroke-linejoin="round"/>
</svg>
