<svg width="16" height="16" viewBox="0 0 16 16" fill="none" xmlns="http://www.w3.org/2000/svg">
<path d="M3.59896 1.40039H12.399C13.1323 1.40039 13.7323 2.00039 13.7323 2.73372V4.20039C13.7323 4.73372 13.399 5.40039 13.0656 5.73372L10.199 8.26706C9.79896 8.60039 9.53229 9.26706 9.53229 9.80039V12.6671C9.53229 13.0671 9.26563 13.6004 8.93229 13.8004L7.99896 14.4004C7.13229 14.9337 5.93229 14.3337 5.93229 13.2671V9.73372C5.93229 9.26706 5.66563 8.66706 5.39896 8.33372L2.86563 5.66706C2.53229 5.33372 2.26562 4.73372 2.26562 4.33372V2.80039C2.26562 2.00039 2.86563 1.40039 3.59896 1.40039Z" stroke="#171717" strokeMiterlimit="10" strokeLinecap="round" strokeLinejoin="round"/>
<path d="M7.28667 1.40039L4 6.66706" stroke="#171717" strokeMiterlimit="10" strokeLinecap="round" strokeLinejoin="round"/>
</svg>
