<svg width="40" height="40" viewBox="0 0 40 40" fill="none" xmlns="http://www.w3.org/2000/svg">
<g id="149080_instance">
<g id="149081_group">
<g id="149082_group">
<path id="149083_vector" d="M17.3667 22.3661H22.1L22.6334 17.6328H17.9L17.3667 22.3661Z" fill="#FCD9BD"/>
<path id="149084_vector" d="M26.9835 3.33203H13.0168C6.95016 3.33203 3.3335 6.9487 3.3335 13.0154V26.9654C3.3335 33.0487 6.95016 36.6654 13.0168 36.6654H26.9668C33.0335 36.6654 36.6502 33.0487 36.6502 26.982V13.0154C36.6668 6.9487 33.0502 3.33203 26.9835 3.33203ZM31.3668 17.632H25.0835L24.5502 22.382H30.1668C30.8335 22.382 31.3835 22.932 31.3835 23.5987C31.3835 24.2654 30.8335 24.8154 30.1668 24.8154H24.2835L23.6002 30.9154C23.5335 31.532 23.0002 31.9987 22.3835 31.9987C22.3335 31.9987 22.3002 31.9987 22.2502 31.9987C21.5835 31.932 21.1002 31.3154 21.1668 30.6487L21.8168 24.8154H17.0835L16.4002 30.9154C16.3335 31.532 15.8002 31.9987 15.1835 31.9987C15.1335 31.9987 15.1002 31.9987 15.0502 31.9987C14.3835 31.932 13.9002 31.3154 13.9668 30.6487L14.6168 24.8154H8.6335C7.96683 24.8154 7.41683 24.2654 7.41683 23.5987C7.41683 22.932 7.96683 22.382 8.6335 22.382H14.9168L15.4502 17.632H9.8335C9.16683 17.632 8.61683 17.082 8.61683 16.4154C8.61683 15.7487 9.16683 15.1987 9.8335 15.1987H15.7168L16.4002 9.0987C16.4668 8.43203 17.0835 7.9487 17.7502 8.01536C18.4168 8.08203 18.9002 8.6987 18.8335 9.36536L18.1835 15.1987H22.9168L23.6002 9.0987C23.6835 8.43203 24.2835 7.9487 24.9502 8.01536C25.6168 8.08203 26.1002 8.6987 26.0335 9.36536L25.3835 15.1987H31.4002C32.0668 15.1987 32.6168 15.7487 32.6168 16.4154C32.6168 17.082 32.0335 17.632 31.3668 17.632Z" fill="#FCD9BD"/>
</g>
</g>
</g>
</svg>
