<svg width="24" height="25" viewBox="0 0 24 25" fill="none" xmlns="http://www.w3.org/2000/svg">
<rect x="0.5" y="1.0625" width="23" height="23" rx="3.5" fill="#FAFAFA"/>
<path d="M17.2426 9.95557C17.2426 10.2356 17.2226 10.5089 17.1893 10.7689C16.8826 10.6356 16.5493 10.5622 16.1959 10.5622C15.3826 10.5622 14.6626 10.9556 14.2159 11.5556C13.7626 10.9556 13.0426 10.5622 12.2293 10.5622C10.8626 10.5622 9.75594 11.6756 9.75594 13.0556C9.75594 14.8422 10.7026 16.2089 11.7559 17.1356C11.7226 17.1556 11.6893 17.1622 11.6559 17.1756C11.4559 17.2489 11.1226 17.2489 10.9226 17.1756C9.19594 16.5822 5.33594 14.1289 5.33594 9.95557C5.33594 8.11557 6.81593 6.62891 8.6426 6.62891C9.72927 6.62891 10.6893 7.1489 11.2893 7.95557C11.8959 7.1489 12.8559 6.62891 13.9359 6.62891C15.7626 6.62891 17.2426 8.11557 17.2426 9.95557Z" stroke="#737373" stroke-linecap="round" stroke-linejoin="round"/>
<path d="M18.6711 13.0558C18.6711 16.1758 15.7845 18.0158 14.4912 18.4558C14.3378 18.5092 14.0911 18.5092 13.9378 18.4558C13.3845 18.2692 12.5378 17.8225 11.7578 17.1358C10.7045 16.2092 9.75781 14.8425 9.75781 13.0558C9.75781 11.6758 10.8645 10.5625 12.2311 10.5625C13.0445 10.5625 13.7645 10.9558 14.2178 11.5558C14.6645 10.9558 15.3845 10.5625 16.1978 10.5625C16.5511 10.5625 16.8845 10.6358 17.1911 10.7692C18.0645 11.1558 18.6711 12.0292 18.6711 13.0558Z" stroke="#737373" stroke-linecap="round" stroke-linejoin="round"/>
<rect x="0.5" y="1.0625" width="23" height="23" rx="3.5" stroke="#E5E5E5"/>
</svg>
