<svg width="33" height="32" viewBox="0 0 33 32" fill="none" xmlns="http://www.w3.org/2000/svg">
<rect x="1" y="0.5" width="31" height="31" rx="7.5" fill="#F5F5F5"/>
<path d="M22.7199 19.4093L22.7194 19.408L20.6327 14.528L20.6323 14.5272C20.2862 13.7134 19.8431 13.4165 19.4734 13.3975L19.4731 13.3974C19.1108 13.3786 18.6351 13.6283 18.203 14.4073L18.2026 14.4082L16.9362 16.6809C16.9362 16.681 16.9362 16.681 16.9362 16.681C16.6181 17.2535 16.1134 17.6839 15.4829 17.7362C14.8423 17.7957 14.2728 17.4521 13.866 16.9337L22.7199 19.4093ZM22.7199 19.4093C23.0069 20.0753 22.9411 20.8345 22.532 21.4374L22.532 21.4374L22.5286 21.4425C22.1281 22.0487 21.4516 22.4115 20.7258 22.4115H12.2191C11.4661 22.4115 10.7801 22.0281 10.3843 21.3884C9.99021 20.7513 9.95594 19.9687 10.2933 19.2879C10.2934 19.2876 10.2936 19.2873 10.2937 19.287L11.4454 16.9902C11.4455 16.99 11.4456 16.9898 11.4458 16.9896C11.7339 16.4193 12.1213 16.1537 12.5022 16.1156C12.891 16.0768 13.3239 16.2522 13.7205 16.7485L13.8657 16.9334L22.7199 19.4093ZM14.8991 11.3315C14.8991 12.2998 14.1141 13.0848 13.1458 13.0848C12.1774 13.0848 11.3924 12.2998 11.3924 11.3315C11.3924 10.3631 12.1774 9.57812 13.1458 9.57812C14.1141 9.57812 14.8991 10.3631 14.8991 11.3315Z" fill="#737373" stroke="#737373"/>
<rect x="1" y="0.5" width="31" height="31" rx="7.5" stroke="#E5E5E5"/>
</svg>
