<svg width="262" height="260" viewBox="0 0 262 260" fill="none" xmlns="http://www.w3.org/2000/svg">
<path fill-rule="evenodd" clip-rule="evenodd" d="M2.77486 187.615C3.84563 187.234 4.97242 186.727 5.84135 185.992C6.87335 185.12 7.29305 183.997 7.57489 182.815C7.93674 181.296 8.08132 179.679 8.52009 178.157C8.68256 177.592 8.9952 177.379 9.12936 177.284C9.46843 177.045 9.81118 176.981 10.1336 177.005C10.5158 177.032 11.0407 177.177 11.386 177.818C11.4352 177.909 11.4992 178.049 11.5423 178.24C11.5736 178.381 11.5939 178.819 11.6272 179C11.7103 179.446 11.7798 179.891 11.845 180.339C12.0623 181.831 12.1872 183.097 12.8733 184.467C13.8044 186.327 14.7374 187.464 16.0026 187.968C17.226 188.456 18.6887 188.364 20.5577 187.982C20.7355 187.939 20.9115 187.902 21.0856 187.872C21.9096 187.728 22.6973 188.269 22.8592 189.09C23.021 189.91 22.4974 190.709 21.6807 190.89C21.5103 190.927 21.3423 190.963 21.1761 190.995C18.6506 191.621 15.7269 193.852 14.0278 195.806C13.5041 196.408 12.7373 198.093 11.9552 199.167C11.378 199.96 10.7293 200.482 10.1847 200.667C9.8198 200.791 9.51212 200.772 9.25796 200.709C8.88873 200.618 8.58228 200.418 8.3472 200.1C8.2192 199.926 8.10041 199.693 8.04379 199.395C8.01672 199.251 8.01366 198.887 8.01427 198.722C7.85489 198.174 7.65981 197.639 7.51765 197.085C7.17858 195.765 6.51334 194.93 5.72318 193.826C4.9841 192.792 4.19028 192.143 3.02659 191.625C2.87521 191.588 1.65366 191.289 1.22228 191.117C0.592126 190.866 0.291802 190.444 0.182879 190.217C-0.00235185 189.832 -0.021412 189.495 0.0155111 189.215C0.0702804 188.8 0.256128 188.446 0.585974 188.16C0.790282 187.982 1.09552 187.809 1.50413 187.725C1.81982 187.659 2.65733 187.621 2.77486 187.615ZM9.94103 185.464C9.99765 185.59 10.058 185.717 10.122 185.845C11.4856 188.568 13.0106 190.089 14.8641 190.827L14.9263 190.851C13.6863 191.771 12.5638 192.8 11.7059 193.787C11.3527 194.193 10.885 195.037 10.3798 195.902C9.92073 194.41 9.16996 193.355 8.22596 192.035C7.50473 191.027 6.74904 190.269 5.82042 189.651C6.54104 189.282 7.22842 188.848 7.82719 188.343C8.82411 187.5 9.48318 186.524 9.94103 185.464Z" fill="#FDF6B2"/>
<path fill-rule="evenodd" clip-rule="evenodd" d="M229.775 10.6152C230.846 10.2336 231.972 9.72654 232.841 8.99239C233.873 8.12039 234.293 6.99733 234.575 5.81518C234.937 4.29641 235.081 2.67855 235.52 1.15731C235.683 0.592392 235.995 0.378849 236.129 0.28408C236.468 0.0446953 236.811 -0.0192921 237.134 0.00470795C237.516 0.0324003 238.041 0.177006 238.386 0.817621C238.435 0.909313 238.499 1.04901 238.542 1.2404C238.574 1.38071 238.594 1.81947 238.627 2.00039C238.71 2.44593 238.78 2.89148 238.845 3.33948C239.062 4.83056 239.187 6.097 239.873 7.46685C240.804 9.32654 241.737 10.4644 243.003 10.9684C244.226 11.4558 245.689 11.3641 247.558 10.9819C247.735 10.9389 247.911 10.9019 248.086 10.8718C248.91 10.7278 249.697 11.2687 249.859 12.0896C250.021 12.9099 249.497 13.7093 248.681 13.8896C248.51 13.9272 248.342 13.9629 248.176 13.9955C245.651 14.6207 242.727 16.8521 241.028 18.8059C240.504 19.4084 239.737 21.0927 238.955 22.1672C238.378 22.9598 237.729 23.4822 237.185 23.6669C236.82 23.7912 236.512 23.7721 236.258 23.7093C235.889 23.6183 235.582 23.4182 235.347 23.1001C235.219 22.9259 235.1 22.6927 235.044 22.3948C235.017 22.2515 235.014 21.8872 235.014 21.7223C234.855 21.174 234.66 20.6385 234.518 20.0853C234.179 18.7653 233.513 17.9296 232.723 16.8256C231.984 15.7924 231.19 15.1432 230.027 14.625C229.875 14.5881 228.654 14.289 228.222 14.1173C227.592 13.8656 227.292 13.4441 227.183 13.217C226.998 12.8318 226.979 12.4952 227.016 12.2146C227.07 11.8004 227.256 11.4459 227.586 11.1598C227.79 10.9819 228.096 10.809 228.504 10.7247C228.82 10.6589 229.657 10.6207 229.775 10.6152ZM236.941 8.46377C236.998 8.58992 237.058 8.7167 237.122 8.8447C238.486 11.5684 240.011 13.089 241.864 13.8269L241.926 13.8509C240.686 14.7715 239.564 15.8004 238.706 16.7869C238.353 17.193 237.885 18.0367 237.38 18.9019C236.921 17.4096 236.17 16.3549 235.226 15.0349C234.505 14.0275 233.749 13.2693 232.82 12.6515C233.541 12.2816 234.228 11.8484 234.827 11.3426C235.824 10.5001 236.483 9.52408 236.941 8.46377Z" fill="#DEF7EC"/>
<circle cx="30" cy="6" r="6" fill="#F6F5FF"/>
<circle cx="256" cy="146" r="6" fill="#FDE8E8"/>
<path d="M129 228C191.96 228 243 176.96 243 114C243 51.0395 191.96 0 129 0C66.0395 0 15 51.0395 15 114C15 176.96 66.0395 228 129 228Z" fill="#F0F8FF"/>
<mask id="path-6-inside-1_5474_219347" fill="white">
<path fill-rule="evenodd" clip-rule="evenodd" d="M128.5 45C140.926 45 151 34.9264 151 22.5C151 10.0736 140.926 0 128.5 0C116.074 0 106 10.0736 106 22.5C106 34.9264 116.074 45 128.5 45ZM128 35C134.627 35 140 29.6274 140 23C140 16.3726 134.627 11 128 11C121.373 11 116 16.3726 116 23C116 29.6274 121.373 35 128 35Z"/>
</mask>
<path fill-rule="evenodd" clip-rule="evenodd" d="M128.5 45C140.926 45 151 34.9264 151 22.5C151 10.0736 140.926 0 128.5 0C116.074 0 106 10.0736 106 22.5C106 34.9264 116.074 45 128.5 45ZM128 35C134.627 35 140 29.6274 140 23C140 16.3726 134.627 11 128 11C121.373 11 116 16.3726 116 23C116 29.6274 121.373 35 128 35Z" fill="#A4CAFE"/>
<path d="M150 22.5C150 34.3741 140.374 44 128.5 44V46C141.479 46 152 35.4787 152 22.5H150ZM128.5 1C140.374 1 150 10.6259 150 22.5H152C152 9.52131 141.479 -1 128.5 -1V1ZM107 22.5C107 10.6259 116.626 1 128.5 1V-1C115.521 -1 105 9.52131 105 22.5H107ZM128.5 44C116.626 44 107 34.3741 107 22.5H105C105 35.4787 115.521 46 128.5 46V44ZM139 23C139 29.0751 134.075 34 128 34V36C135.18 36 141 30.1797 141 23H139ZM128 12C134.075 12 139 16.9249 139 23H141C141 15.8203 135.18 10 128 10V12ZM117 23C117 16.9249 121.925 12 128 12V10C120.82 10 115 15.8203 115 23H117ZM128 34C121.925 34 117 29.0751 117 23H115C115 30.1797 120.82 36 128 36V34Z" fill="#A4CAFE" mask="url(#path-6-inside-1_5474_219347)"/>
<mask id="path-8-inside-2_5474_219347" fill="white">
<path fill-rule="evenodd" clip-rule="evenodd" d="M197.767 92.5038V126.299C197.761 134.068 199.955 141.68 204.095 148.253C208.235 154.827 214.152 160.094 221.161 163.445C222.765 164.211 224.119 165.416 225.067 166.919C226.015 168.423 226.518 170.165 226.517 171.942V172.125C226.518 172.769 226.393 173.407 226.147 174.003C225.901 174.598 225.541 175.139 225.086 175.595C224.631 176.051 224.09 176.412 223.495 176.659C222.9 176.906 222.263 177.033 221.619 177.033H168.274C161.395 192.396 145.972 203.1 128.05 203.1C110.127 203.1 94.7049 192.396 87.8259 177.033H34.8985C34.2545 177.033 33.6168 176.906 33.0218 176.659C32.4269 176.412 31.8865 176.051 31.4315 175.595C30.9765 175.139 30.6159 174.598 30.3703 174.003C30.1247 173.407 29.9988 172.769 30 172.125V171.942C29.9951 170.159 30.4967 168.411 31.4466 166.902C32.3965 165.393 33.7555 164.184 35.3655 163.418C42.3702 160.069 48.2843 154.806 52.424 148.237C56.5637 141.669 58.7601 134.063 58.7593 126.299V92.5038C58.7593 74.0703 66.082 56.3917 79.1165 43.3572C92.151 30.3227 109.83 23 128.263 23C146.697 23 164.375 30.3227 177.41 43.3572C190.444 56.3917 197.767 74.0703 197.767 92.5038Z"/>
</mask>
<path fill-rule="evenodd" clip-rule="evenodd" d="M197.767 92.5038V126.299C197.761 134.068 199.955 141.68 204.095 148.253C208.235 154.827 214.152 160.094 221.161 163.445C222.765 164.211 224.119 165.416 225.067 166.919C226.015 168.423 226.518 170.165 226.517 171.942V172.125C226.518 172.769 226.393 173.407 226.147 174.003C225.901 174.598 225.541 175.139 225.086 175.595C224.631 176.051 224.09 176.412 223.495 176.659C222.9 176.906 222.263 177.033 221.619 177.033H168.274C161.395 192.396 145.972 203.1 128.05 203.1C110.127 203.1 94.7049 192.396 87.8259 177.033H34.8985C34.2545 177.033 33.6168 176.906 33.0218 176.659C32.4269 176.412 31.8865 176.051 31.4315 175.595C30.9765 175.139 30.6159 174.598 30.3703 174.003C30.1247 173.407 29.9988 172.769 30 172.125V171.942C29.9951 170.159 30.4967 168.411 31.4466 166.902C32.3965 165.393 33.7555 164.184 35.3655 163.418C42.3702 160.069 48.2843 154.806 52.424 148.237C56.5637 141.669 58.7601 134.063 58.7593 126.299V92.5038C58.7593 74.0703 66.082 56.3917 79.1165 43.3572C92.151 30.3227 109.83 23 128.263 23C146.697 23 164.375 30.3227 177.41 43.3572C190.444 56.3917 197.767 74.0703 197.767 92.5038Z" fill="white"/>
<path d="M197.767 126.299L201.767 126.302V126.299H197.767ZM221.161 163.445L219.435 167.054L219.437 167.055L221.161 163.445ZM226.517 171.942L222.517 171.941V171.942H226.517ZM226.517 172.125H222.517V172.133L226.517 172.125ZM168.274 177.033V173.033H165.682L164.623 175.398L168.274 177.033ZM87.8259 177.033L91.4766 175.398L90.4175 173.033H87.8259V177.033ZM31.4315 175.595L28.6005 178.421H28.6005L31.4315 175.595ZM30.3703 174.003L26.6726 175.528L30.3703 174.003ZM30 172.125L34 172.133V172.125H30ZM30 171.942H34.0001L34 171.931L30 171.942ZM31.4466 166.902L28.0614 164.771H28.0614L31.4466 166.902ZM35.3655 163.418L37.0853 167.029L37.0909 167.027L35.3655 163.418ZM52.424 148.237L49.04 146.105H49.04L52.424 148.237ZM58.7593 126.299H54.7593V126.299L58.7593 126.299ZM79.1165 43.3572L81.9449 46.1856L79.1165 43.3572ZM177.41 43.3572L174.581 46.1856L177.41 43.3572ZM201.767 126.299V92.5038H193.767V126.299H201.767ZM207.48 146.122C203.742 140.187 201.762 133.315 201.767 126.302L193.767 126.296C193.76 134.82 196.168 143.172 200.71 150.385L207.48 146.122ZM222.886 159.836C216.559 156.811 211.217 152.056 207.48 146.122L200.71 150.385C205.253 157.598 211.745 163.377 219.435 167.054L222.886 159.836ZM228.451 164.786C227.1 162.644 225.17 160.927 222.885 159.836L219.437 167.055C220.359 167.495 221.138 168.188 221.683 169.053L228.451 164.786ZM230.517 171.943C230.518 169.41 229.802 166.929 228.451 164.786L221.683 169.053C222.228 169.917 222.517 170.919 222.517 171.941L230.517 171.943ZM230.517 172.125V171.942H222.517V172.125H230.517ZM229.845 175.528C230.291 174.447 230.519 173.288 230.517 172.118L222.517 172.133C222.517 172.251 222.494 172.368 222.449 172.477L229.845 175.528ZM227.917 178.421C228.743 177.593 229.398 176.61 229.845 175.528L222.449 172.477C222.404 172.586 222.338 172.685 222.255 172.769L227.917 178.421ZM225.028 180.354C226.108 179.906 227.09 179.249 227.917 178.421L222.255 172.769C222.171 172.853 222.072 172.919 221.963 172.964L225.028 180.354ZM221.619 181.033C222.789 181.033 223.947 180.802 225.028 180.354L221.963 172.964C221.854 173.01 221.737 173.033 221.619 173.033V181.033ZM168.274 181.033H221.619V173.033H168.274V181.033ZM128.05 207.1C147.606 207.1 164.425 195.417 171.925 178.667L164.623 175.398C158.365 189.375 144.339 199.1 128.05 199.1V207.1ZM84.1751 178.667C91.6749 195.417 108.494 207.1 128.05 207.1V199.1C111.761 199.1 97.7349 189.375 91.4766 175.398L84.1751 178.667ZM34.8985 181.033H87.8259V173.033H34.8985V181.033ZM31.4894 180.354C32.5701 180.802 33.7286 181.033 34.8985 181.033V173.033C34.7804 173.033 34.6634 173.01 34.5543 172.964L31.4894 180.354ZM28.6005 178.421C29.427 179.249 30.4087 179.906 31.4894 180.354L34.5543 172.964C34.4452 172.919 34.346 172.853 34.2626 172.769L28.6005 178.421ZM26.6726 175.528C27.1188 176.61 27.7739 177.593 28.6005 178.421L34.2626 172.769C34.1792 172.685 34.113 172.586 34.0679 172.477L26.6726 175.528ZM26 172.118C25.9979 173.288 26.2264 174.447 26.6726 175.528L34.0679 172.477C34.0229 172.368 33.9998 172.251 34 172.133L26 172.118ZM26 171.942V172.125H34V171.942H26ZM28.0614 164.771C26.7078 166.922 25.993 169.412 26.0001 171.953L34 171.931C33.9972 170.906 34.2856 169.9 34.8318 169.033L28.0614 164.771ZM33.6457 159.806C31.3515 160.899 29.4149 162.621 28.0614 164.771L34.8318 169.033C35.3781 168.165 36.1596 167.47 37.0853 167.029L33.6457 159.806ZM49.04 146.105C45.3028 152.035 39.9638 156.786 33.6402 159.809L37.0909 167.027C44.7767 163.352 51.2657 157.577 55.808 150.37L49.04 146.105ZM54.7593 126.299C54.76 133.309 52.7772 140.175 49.04 146.105L55.808 150.37C60.3502 143.163 62.7602 134.818 62.7593 126.299L54.7593 126.299ZM54.7593 92.5038V126.299H62.7593V92.5038H54.7593ZM76.2881 40.5288C62.5034 54.3134 54.7593 73.0094 54.7593 92.5038H62.7593C62.7593 75.1311 69.6606 58.47 81.9449 46.1856L76.2881 40.5288ZM128.263 19C108.769 19 90.0727 26.7441 76.2881 40.5288L81.9449 46.1856C94.2293 33.9013 110.89 27 128.263 27V19ZM180.238 40.5288C166.454 26.7441 147.758 19 128.263 19V27C145.636 27 162.297 33.9013 174.581 46.1856L180.238 40.5288ZM201.767 92.5038C201.767 73.0094 194.023 54.3134 180.238 40.5288L174.581 46.1856C186.866 58.47 193.767 75.1311 193.767 92.5038H201.767Z" fill="#A4CAFE" mask="url(#path-8-inside-2_5474_219347)"/>
<path fill-rule="evenodd" clip-rule="evenodd" d="M227 177H30V171H227V177Z" fill="#A4CAFE" stroke="#A4CAFE" stroke-width="2"/>
<path d="M199 50C199 58.2843 192.284 65 184 65C175.716 65 169 58.2843 169 50C169 41.7157 175.716 35 184 35C192.284 35 199 41.7157 199 50Z" fill="#F05252" stroke="#F05252" stroke-width="2"/>
<path fill-rule="evenodd" clip-rule="evenodd" d="M74.0626 192.293C69.2977 196.621 64.5459 200.861 59.9099 205.328C58.909 206.285 58.8787 207.871 59.8347 208.876C60.7937 209.889 62.3806 209.929 63.372 208.974C67.9857 204.536 72.6962 200.331 77.4293 196.033C78.449 195.102 78.5207 193.513 77.5996 192.486C76.6659 191.454 75.0823 191.361 74.0626 192.293Z" fill="#A4CAFE"/>
<path fill-rule="evenodd" clip-rule="evenodd" d="M182.279 192.314C187.068 196.652 191.844 200.901 196.504 205.375C197.511 206.334 197.548 207.905 196.596 208.89C195.64 209.884 194.052 209.907 193.055 208.951C188.417 204.506 183.683 200.291 178.926 195.984C177.901 195.051 177.822 193.475 178.739 192.469C179.669 191.456 181.254 191.38 182.279 192.314Z" fill="#A4CAFE"/>
<path fill-rule="evenodd" clip-rule="evenodd" d="M125.098 220.289C125.053 226.731 124.951 233.103 125.094 239.544C125.12 240.93 126.261 242.031 127.642 242.012C129.031 241.997 130.131 240.858 130.101 239.482C129.963 233.076 130.062 226.757 130.109 220.36C130.114 218.978 128.999 217.844 127.626 217.823C126.24 217.807 125.103 218.906 125.098 220.289Z" fill="#A4CAFE"/>
</svg>
