<svg width="14" height="15" viewBox="0 0 14 15" fill="none" xmlns="http://www.w3.org/2000/svg">
<path d="M7.24198 10.2318C7.24706 10.2318 7.24706 10.2318 7.25214 10.2318C7.76507 10.2267 8.19167 9.91183 8.34403 9.41922L9.28356 6.39747C9.41052 5.98103 9.30387 5.53412 8.99408 5.23448C8.68937 4.93485 8.24753 4.82312 7.84125 4.95009L4.81444 5.88962C4.3269 6.04198 4.00695 6.46857 4.00187 6.9815C3.99799 7.36937 4.17777 7.7128 4.48012 7.92583C4.67144 8.06063 4.91246 8.09053 5.1461 8.10429L5.73382 8.13891C5.84827 8.14565 5.97129 8.15903 6.05428 8.23813C6.14317 8.32286 6.15009 8.45526 6.15009 8.57806L6.15009 9.01544C6.15009 9.29639 6.17386 9.59196 6.3495 9.81124C6.56089 10.0752 6.8809 10.2318 7.24198 10.2318ZM8.18659 5.66108C8.32371 5.66108 8.41513 5.73726 8.45575 5.77281C8.5624 5.87946 8.59795 6.02674 8.55225 6.17402L7.61272 9.19576C7.53146 9.45476 7.31816 9.46491 7.2369 9.46999C7.22081 9.46999 7.19716 9.46895 7.16926 9.46445C6.89172 9.41969 6.86617 9.05761 6.86617 8.77648V8.58076C6.86617 8.29815 6.84096 8.00048 6.65929 7.784C6.60093 7.71446 6.53436 7.65179 6.46124 7.59739C6.26708 7.45295 6.01746 7.42071 5.77588 7.40648L5.36339 7.38217C5.1405 7.36904 4.86736 7.35328 4.78661 7.14512C4.76153 7.08049 4.75857 7.02078 4.75857 6.99167C4.75857 6.92565 4.77889 6.70219 5.03281 6.62093L8.05963 5.6814C8.11041 5.66616 8.15104 5.66108 8.18659 5.66108Z" fill="#F98080" stroke="#F98080" stroke-width="0.4"/>
<rect x="-0.666667" y="0.666667" width="12.0008" height="12" rx="6" transform="matrix(-1 0 0 1 12.0026 0.898438)" stroke="#F98080" stroke-width="1.33333"/>
</svg>
