<svg width="33" height="32" viewBox="0 0 33 32" fill="none" xmlns="http://www.w3.org/2000/svg">
<rect x="1" y="0.5" width="31" height="31" rx="7.5" fill="#F5F5F5"/>
<path d="M15.5026 21.1693V10.6693C15.5026 10.3583 15.5682 10.1526 15.6601 10.0341C15.7343 9.93855 15.8739 9.83594 16.2026 9.83594H16.8026C17.1313 9.83594 17.2709 9.93855 17.3451 10.0341C17.437 10.1526 17.5026 10.3583 17.5026 10.6693V21.1693H15.5026ZM22.0026 18.0026V21.1693H20.3359V18.0026C20.3359 17.6823 20.3966 17.467 20.4809 17.3448C20.5434 17.2542 20.647 17.1693 20.9026 17.1693H21.4359C21.6916 17.1693 21.7951 17.2542 21.8577 17.3448C21.9419 17.467 22.0026 17.6823 22.0026 18.0026ZM11.0026 21.1693V14.6693C11.0026 14.349 11.0633 14.1336 11.1475 14.0115C11.2101 13.9208 11.3136 13.8359 11.5693 13.8359H12.1026C12.3582 13.8359 12.4618 13.9208 12.5243 14.0115C12.6086 14.1336 12.6693 14.349 12.6693 14.6693V21.1693H11.0026Z" fill="#737373" stroke="#737373"/>
<rect x="1" y="0.5" width="31" height="31" rx="7.5" stroke="#E5E5E5"/>
</svg>
