<svg width="33" height="32" viewBox="0 0 33 32" fill="none" xmlns="http://www.w3.org/2000/svg">
<rect x="1" y="0.5" width="31" height="31" rx="7.5" fill="#F5F5F5"/>
<path d="M19.5243 10.7534L19.5243 10.7529C19.5361 10.1514 19.3448 9.93441 19.232 9.875C19.1191 9.81549 18.8317 9.78057 18.3421 10.1291C18.3418 10.1293 18.3414 10.1296 18.3411 10.1298L16.2919 11.6068C16.0691 11.7705 15.7917 11.862 15.5365 11.9011C15.2794 11.9404 14.9899 11.9348 14.7319 11.8522L14.7281 11.851L14.7281 11.8509L12.7617 11.2044C12.7617 11.2044 12.7616 11.2044 12.7616 11.2043C12.2151 11.0251 11.9555 11.1396 11.8624 11.2316C11.7687 11.3242 11.651 11.5839 11.8215 12.1334C11.8216 12.1338 11.8217 12.1341 11.8218 12.1344L12.5012 14.2925C12.5904 14.5759 12.5826 14.89 12.5252 15.1629C12.4678 15.4362 12.3487 15.7255 12.1566 15.9488L12.1565 15.9488L10.8372 17.4814C10.8371 17.4815 10.837 17.4816 10.8368 17.4818C10.346 18.0546 10.3805 18.3622 10.4222 18.4473C10.4641 18.5325 10.6866 18.7476 11.4388 18.7099L19.5243 10.7534ZM19.5243 10.7534L19.4777 13.2797L19.5243 10.7534ZM13.6655 18.5966L11.4392 18.7099L19.4777 13.2801C19.4725 13.5524 19.5535 13.8325 19.6667 14.0664C19.7793 14.2989 19.949 14.5379 20.1711 14.7028L21.8222 15.9544L21.823 15.9551C22.283 16.3022 22.3368 16.5808 22.3142 16.7097C22.2915 16.8399 22.1444 17.0851 21.5943 17.259C21.5941 17.259 21.5939 17.2591 21.5937 17.2592L19.4417 17.9321L19.4408 17.9324C19.1605 18.0206 18.9065 18.2033 18.7132 18.4051C18.5205 18.6062 18.3474 18.8689 18.2735 19.1574C18.2734 19.158 18.2732 19.1587 18.273 19.1593L17.7607 21.1155C17.5684 21.8468 17.2956 21.9941 17.2022 22.0082C17.1097 22.0222 16.8067 21.9627 16.4097 21.3199C16.4097 21.3199 16.4096 21.3199 16.4096 21.3199L15.2367 19.4206C15.2367 19.4205 15.2366 19.4204 15.2366 19.4203C15.071 19.1514 14.8132 18.9443 14.5518 18.8083C14.2903 18.6722 13.9753 18.5811 13.6659 18.5966L13.6655 18.5966Z" fill="#737373" stroke="#737373"/>
<rect x="1" y="0.5" width="31" height="31" rx="7.5" stroke="#E5E5E5"/>
</svg>
