<svg width="283" height="250" viewBox="0 0 283 250" fill="none" xmlns="http://www.w3.org/2000/svg">
<g clip-path="url(#clip0_5357_9870)">
<path d="M309.529 219.519H-24.6953V219.686H309.529V219.519Z" fill="#EBEBEB"/>
<path d="M214.395 224.07H192.256V224.237H214.395V224.07Z" fill="#EBEBEB"/>
<path d="M267.591 225.534H261.782V225.701H267.591V225.534Z" fill="#EBEBEB"/>
<path d="M227.891 230.273H215.063V230.441H227.891V230.273Z" fill="#EBEBEB"/>
<path d="M142.416 228.015H113.546V228.182H142.416V228.015Z" fill="#EBEBEB"/>
<path d="M107.591 228.015H103.359V228.182H107.591V228.015Z" fill="#EBEBEB"/>
<path d="M89.6027 225.193H26.9824V225.36H89.6027V225.193Z" fill="#EBEBEB"/>
<path d="M133.727 189.705H4.65586C3.64473 189.704 2.67562 189.301 1.96127 188.585C1.24692 187.87 0.845702 186.9 0.845703 185.889V4.45139C0.854505 3.44606 1.2596 2.4848 1.973 1.7764C2.68641 1.06801 3.6505 0.669691 4.65586 0.667969H133.727C134.739 0.667969 135.71 1.0701 136.426 1.7859C137.141 2.50169 137.544 3.47252 137.544 4.48481V185.889C137.544 186.901 137.141 187.872 136.426 188.587C135.71 189.303 134.739 189.705 133.727 189.705ZM4.65586 0.801659C3.68905 0.80343 2.76245 1.18873 2.07943 1.873C1.39642 2.55727 1.01281 3.48458 1.01282 4.45139V185.889C1.01281 186.855 1.39642 187.783 2.07943 188.467C2.76245 189.151 3.68905 189.537 4.65586 189.538H133.727C134.694 189.537 135.621 189.151 136.306 188.467C136.99 187.783 137.375 186.856 137.376 185.889V4.45139C137.375 3.48396 136.99 2.55667 136.306 1.87259C135.621 1.18852 134.694 0.803426 133.727 0.801659H4.65586Z" fill="#EBEBEB"/>
<path d="M278.319 189.705H149.242C148.23 189.704 147.26 189.301 146.545 188.586C145.829 187.87 145.427 186.9 145.425 185.889V4.45139C145.435 3.44545 145.842 2.4842 146.556 1.77599C147.271 1.06777 148.236 0.669672 149.242 0.667969H278.319C279.323 0.671448 280.286 1.07054 280.998 1.77875C281.71 2.48696 282.114 3.44721 282.123 4.45139V185.889C282.123 186.899 281.722 187.867 281.009 188.583C280.297 189.298 279.329 189.702 278.319 189.705ZM149.242 0.801659C148.274 0.803426 147.347 1.18852 146.663 1.87259C145.979 2.55667 145.594 3.48396 145.592 4.45139V185.889C145.594 186.856 145.979 187.783 146.663 188.467C147.347 189.151 148.274 189.537 149.242 189.538H278.319C279.287 189.537 280.214 189.151 280.898 188.467C281.582 187.783 281.967 186.856 281.969 185.889V4.45139C281.967 3.48396 281.582 2.55667 280.898 1.87259C280.214 1.18852 279.287 0.803426 278.319 0.801659H149.242Z" fill="#EBEBEB"/>
<path d="M39.9039 156.323H15.793V158.536H39.9039V156.323Z" fill="#EBEBEB"/>
<path d="M28.1796 149.512C27.8963 149.453 27.6274 149.339 27.3883 149.176C27.1492 149.013 26.9446 148.804 26.7863 148.562C26.6279 148.32 26.5189 148.049 26.4655 147.764C26.4121 147.48 26.4154 147.188 26.4751 146.905L28.6742 136.363C28.7331 136.08 28.8473 135.811 29.0103 135.572C29.1732 135.333 29.3818 135.128 29.624 134.97C29.8661 134.812 30.1372 134.703 30.4216 134.649C30.7059 134.596 30.9981 134.599 31.2812 134.659C31.8525 134.779 32.3527 135.121 32.6722 135.61C32.9917 136.099 33.1045 136.694 32.9857 137.266L30.7865 147.807C30.6661 148.378 30.324 148.879 29.8353 149.198C29.3467 149.518 28.7512 149.63 28.1796 149.512Z" fill="#F0F0F0"/>
<path d="M26.8555 149.284C26.3648 149.359 25.8642 149.238 25.4625 148.946C25.0608 148.655 24.7903 148.216 24.7098 147.726L23.3327 138.629C23.2598 138.134 23.3855 137.631 23.6824 137.229C23.9792 136.827 24.423 136.559 24.917 136.483C25.4114 136.41 25.9145 136.536 26.3165 136.833C26.7186 137.13 26.9868 137.573 27.0627 138.067L28.3996 147.165C28.4693 147.65 28.3468 148.143 28.0584 148.538C27.77 148.934 27.3383 149.202 26.8555 149.284Z" fill="#F0F0F0"/>
<path d="M31.9427 156.323H23.7475L22.043 146.563H33.6472L31.9427 156.323Z" fill="#E6E6E6"/>
<path d="M34.2693 145.173H21.415V147.96H34.2693V145.173Z" fill="#E0E0E0"/>
<path d="M42.6508 219.518L37.1896 158.535H32.8848L41.0198 219.518H42.6508Z" fill="#F5F5F5"/>
<path d="M13.0391 219.518L18.4936 158.535H22.8051L14.6701 219.518H13.0391Z" fill="#F5F5F5"/>
<path d="M24.9902 219.518L26.541 158.535H30.8458L26.6279 219.518H24.9902Z" fill="#F5F5F5"/>
<path d="M250.74 158.535H274.851V156.323H250.74V158.535Z" fill="#EBEBEB"/>
<path d="M262.464 149.512C263.035 149.391 263.536 149.049 263.855 148.56C264.175 148.072 264.287 147.476 264.169 146.905L261.969 136.363C261.911 136.08 261.796 135.811 261.633 135.572C261.47 135.333 261.262 135.128 261.02 134.97C260.778 134.812 260.507 134.703 260.222 134.649C259.938 134.596 259.646 134.599 259.363 134.659C258.79 134.778 258.288 135.119 257.967 135.608C257.646 136.097 257.533 136.693 257.651 137.266L259.85 147.794C259.969 148.368 260.312 148.871 260.802 149.194C261.292 149.516 261.89 149.63 262.464 149.512Z" fill="#F0F0F0"/>
<path d="M263.787 149.284C264.281 149.357 264.785 149.231 265.187 148.935C265.589 148.638 265.857 148.194 265.933 147.7L267.31 138.602C267.383 138.108 267.257 137.605 266.96 137.203C266.663 136.801 266.22 136.533 265.726 136.457C265.481 136.42 265.231 136.431 264.99 136.491C264.75 136.551 264.524 136.657 264.324 136.804C264.125 136.951 263.957 137.136 263.829 137.348C263.701 137.561 263.617 137.796 263.58 138.041L262.203 147.139C262.13 147.633 262.256 148.136 262.552 148.538C262.849 148.94 263.293 149.208 263.787 149.284Z" fill="#F0F0F0"/>
<path d="M258.7 156.323H266.889L268.6 146.563H256.989L258.7 156.323Z" fill="#E6E6E6"/>
<path d="M256.367 147.961H269.222V145.173H256.367V147.961Z" fill="#E0E0E0"/>
<path d="M247.985 219.518L253.447 158.535H257.751L249.623 219.518H247.985Z" fill="#F5F5F5"/>
<path d="M277.604 219.518L272.143 158.535H267.838L275.966 219.518H277.604Z" fill="#F5F5F5"/>
<path d="M265.646 219.518L264.102 158.535H259.79L264.015 219.518H265.646Z" fill="#F5F5F5"/>
<path d="M130.793 104.698V14.2168L15.6459 14.2168V104.698H130.793Z" fill="#E6E6E6"/>
<path d="M132.109 104.706V14.2246L16.9623 14.2246V104.706H132.109Z" fill="#F0F0F0"/>
<path d="M24.5427 95.8086L124.529 95.8086L124.529 21.7979L24.5427 21.7979L24.5427 95.8086Z" fill="white"/>
<path d="M109.456 57.3054L112.003 41.5233C112.022 41.4547 112.023 41.3822 112.005 41.3133C111.987 41.2444 111.951 41.1815 111.9 41.1311C111.85 41.0808 111.787 41.0447 111.718 41.0267C111.649 41.0087 111.577 41.0094 111.508 41.0286L95.7261 43.5754C87.7849 44.8589 80.2849 52.3655 79.0149 60.2867L76.4681 76.0688C76.4503 76.1369 76.4508 76.2085 76.4694 76.2764C76.4881 76.3443 76.5243 76.4061 76.5745 76.4556C76.6246 76.5051 76.6869 76.5404 76.7551 76.5582C76.8232 76.5759 76.8948 76.5754 76.9627 76.5567L92.7448 74.0099C100.666 72.7466 108.173 65.2466 109.456 57.3054Z" fill="#F0F0F0"/>
<path d="M70.0638 57.3056L72.6173 41.5235C72.6344 41.4552 72.6335 41.3835 72.6148 41.3156C72.596 41.2477 72.5599 41.1858 72.5101 41.136C72.4603 41.0862 72.3984 41.0502 72.3305 41.0314C72.2626 41.0126 72.191 41.0117 72.1226 41.0288L56.3405 43.5756C48.3994 44.8591 40.8994 52.3657 39.6293 60.2869L37.0692 76.089C37.0519 76.1565 37.0525 76.2273 37.0709 76.2944C37.0893 76.3616 37.1249 76.4228 37.1741 76.472C37.2233 76.5212 37.2846 76.5568 37.3517 76.5752C37.4189 76.5936 37.4897 76.5942 37.5571 76.577L53.3392 74.0302C61.2804 72.7468 68.7871 65.2467 70.0638 57.3056Z" fill="#F0F0F0"/>
<path d="M89.7635 57.3054L92.2836 41.5233C92.3029 41.4547 92.3036 41.3822 92.2855 41.3133C92.2675 41.2444 92.2315 41.1815 92.1811 41.1311C92.1307 41.0808 92.0679 41.0447 91.9989 41.0267C91.93 41.0087 91.8575 41.0094 91.789 41.0286L76.0069 43.5754C68.0657 44.8589 60.5657 52.3655 59.2956 60.2867L56.7488 76.0687C56.7316 76.1362 56.7322 76.207 56.7506 76.2742C56.769 76.3413 56.8046 76.4025 56.8538 76.4518C56.903 76.501 56.9642 76.5366 57.0314 76.555C57.0986 76.5734 57.1694 76.574 57.2368 76.5567L73.0189 74.0099C80.9734 72.7466 88.4801 65.2466 89.7635 57.3054Z" fill="#E6E6E6"/>
<path d="M232.959 36.8174H166.909V172.586H232.959V36.8174Z" fill="#E6E6E6"/>
<path d="M242.283 36.8174H169.389V172.586H242.283V36.8174Z" fill="#F0F0F0"/>
<path d="M230.472 160.775V48.6289H181.207V160.775H230.472Z" fill="white"/>
<path d="M219.028 130.019V79.3777C219.028 76.7788 216.921 74.6719 214.322 74.6719H197.351C194.752 74.6719 192.645 76.7788 192.645 79.3777V130.019C192.645 132.618 194.752 134.725 197.351 134.725H214.322C216.921 134.725 219.028 132.618 219.028 130.019Z" fill="#F5F5F5"/>
<path d="M142.417 249.706C213.996 249.706 272.023 246.318 272.023 242.139C272.023 237.96 213.996 234.572 142.417 234.572C70.8379 234.572 12.8115 237.96 12.8115 242.139C12.8115 246.318 70.8379 249.706 142.417 249.706Z" fill="#F5F5F5"/>
<path opacity="0.3" d="M225.465 59.492C224.965 56.6714 224.295 53.8834 223.46 51.1431L224.128 50.9492C224.96 53.7175 225.63 56.532 226.134 59.3784L225.465 59.492Z" fill="#FF725E"/>
<path opacity="0.3" d="M221.361 45.0601C219.201 39.6778 216.422 34.5653 213.079 29.8262L213.627 29.4385C216.992 34.2133 219.79 39.3639 221.963 44.7861L221.361 45.0601Z" fill="#FF725E"/>
<path opacity="0.3" d="M223.727 85.1068C225.424 75.7066 225.235 66.0629 223.172 56.7363C221.109 47.4097 217.212 38.5862 211.709 30.7786C206.206 22.9711 199.206 16.3352 191.116 11.2568C183.026 6.17838 174.007 2.75866 164.583 1.19642C126.221 -5.1739 89.3692 20.4678 82.0162 58.683C79.5947 71.2013 80.539 84.138 84.7527 96.1719C88.9664 108.206 96.2985 118.906 106 127.179C108.687 129.511 110.718 132.506 111.89 135.865C113.063 139.225 113.337 142.832 112.685 146.33L111.829 151.063C111.186 154.63 111.987 158.306 114.054 161.283C116.121 164.26 119.285 166.294 122.852 166.938L147.765 171.404C151.332 172.046 155.008 171.246 157.985 169.179C160.962 167.112 162.996 163.947 163.641 160.381L164.496 155.642C165.122 152.122 166.658 148.828 168.95 146.086C171.243 143.343 174.212 141.247 177.564 140.007C189.383 135.683 199.862 128.34 207.961 118.708C216.06 109.076 221.496 97.4917 223.727 85.1068Z" fill="#FF725E"/>
<path d="M129.168 53.3661C139.583 53.1207 147.828 44.4785 147.582 34.0633C147.337 23.6481 138.695 15.4039 128.279 15.6493C117.864 15.8948 109.62 24.5369 109.865 34.9521C110.111 45.3674 118.753 53.6116 129.168 53.3661Z" fill="white"/>
<path d="M161.827 32.1859C165.492 31.0826 167.57 27.2164 166.467 23.5505C165.363 19.8846 161.497 17.8072 157.831 18.9105C154.165 20.0138 152.088 23.88 153.191 27.5459C154.294 31.2118 158.161 33.2892 161.827 32.1859Z" fill="white"/>
<path d="M75.3047 67.0453C75.0039 68.4824 74.6697 70.08 74.3756 71.5907C74.0814 73.1014 73.8141 74.6522 73.5801 76.1562C73.3461 77.6602 73.179 79.1375 73.1055 80.5011C73.0654 81.1696 73.1055 81.838 73.1055 82.3862C73.1055 82.9343 73.2258 83.3822 73.1991 83.4356L72.8983 82.8875C72.7579 82.7538 72.5106 82.6268 72.4638 82.687C72.417 82.7471 72.5841 82.8474 72.8782 82.9276C73.7574 83.1096 74.66 83.1503 75.552 83.0479C76.6739 82.9571 77.7897 82.8031 78.8943 82.5867C80.0306 82.3862 81.2472 82.092 82.3502 81.8648L82.5507 81.8247C83.0895 81.7053 83.6529 81.7732 84.148 82.0171C84.643 82.2611 85.0401 82.6665 85.2737 83.1665C85.5074 83.6665 85.5636 84.2312 85.4331 84.7674C85.3026 85.3036 84.9933 85.7794 84.556 86.1161C83.4553 86.9621 82.291 87.7219 81.0734 88.3888C79.8264 89.0785 78.5226 89.6599 77.1764 90.1268C75.6162 90.6837 73.9732 90.973 72.3167 90.9824C71.205 90.975 70.104 90.7643 69.0681 90.3608C67.7301 89.8382 66.5701 88.9427 65.7258 87.7806C65.639 87.6545 65.5609 87.5227 65.4919 87.3862L65.4183 87.2525C64.8331 86.0875 64.4253 84.8415 64.2084 83.556C64.0403 82.5479 63.9421 81.5294 63.9143 80.5078C63.8559 78.6718 63.9207 76.8339 64.1082 75.0065C64.2686 73.2351 64.5293 71.5105 64.8234 69.8059C65.1175 68.1014 65.4919 66.4637 65.9598 64.6923C66.3171 63.5184 67.1088 62.525 68.1734 61.9147C69.2379 61.3044 70.4952 61.1232 71.6888 61.4079C72.8824 61.6927 73.9224 62.422 74.5968 63.4472C75.2712 64.4723 75.5291 65.7161 75.3181 66.9249L75.3047 67.0453Z" fill="#FF725E"/>
<path opacity="0.2" d="M75.3047 67.0453C75.0039 68.4824 74.6697 70.08 74.3756 71.5907C74.0814 73.1014 73.8141 74.6522 73.5801 76.1562C73.3461 77.6602 73.179 79.1375 73.1055 80.5011C73.0654 81.1696 73.1055 81.838 73.1055 82.3862C73.1055 82.9343 73.2258 83.3822 73.1991 83.4356L72.8983 82.8875C72.7579 82.7538 72.5106 82.6268 72.4638 82.687C72.417 82.7471 72.5841 82.8474 72.8782 82.9276C73.7574 83.1096 74.66 83.1503 75.552 83.0479C76.6739 82.9571 77.7897 82.8031 78.8943 82.5867C80.0306 82.3862 81.2472 82.092 82.3502 81.8648L82.5507 81.8247C83.0895 81.7053 83.6529 81.7732 84.148 82.0171C84.643 82.2611 85.0401 82.6665 85.2737 83.1665C85.5074 83.6665 85.5636 84.2312 85.4331 84.7674C85.3026 85.3036 84.9933 85.7794 84.556 86.1161C83.4553 86.9621 82.291 87.7219 81.0734 88.3888C79.8264 89.0785 78.5226 89.6599 77.1764 90.1268C75.6162 90.6837 73.9732 90.973 72.3167 90.9824C71.205 90.975 70.104 90.7643 69.0681 90.3608C67.7301 89.8382 66.5701 88.9427 65.7258 87.7806C65.639 87.6545 65.5609 87.5227 65.4919 87.3862L65.4183 87.2525C64.8331 86.0875 64.4253 84.8415 64.2084 83.556C64.0403 82.5479 63.9421 81.5294 63.9143 80.5078C63.8559 78.6718 63.9207 76.8339 64.1082 75.0065C64.2686 73.2351 64.5293 71.5105 64.8234 69.8059C65.1175 68.1014 65.4919 66.4637 65.9598 64.6923C66.3171 63.5184 67.1088 62.525 68.1734 61.9147C69.2379 61.3044 70.4952 61.1232 71.6888 61.4079C72.8824 61.6927 73.9224 62.422 74.5968 63.4472C75.2712 64.4723 75.5291 65.7161 75.3181 66.9249L75.3047 67.0453Z" fill="black"/>
<path d="M60.3386 185.16C60.3386 185.16 57.2771 181.437 57.4241 180.194L53.888 178.188L51.5752 181.818L54.4629 183.456L55.011 183.315L55.3452 183.984C56.825 184.927 58.4418 185.635 60.138 186.083C60.2547 185.963 60.3354 185.814 60.3708 185.65C60.4063 185.487 60.3951 185.317 60.3386 185.16Z" fill="#FF725E"/>
<path d="M63.9605 138.369C66.5942 119.505 65.7386 108.041 68.4993 98.7432L85.6317 97.3662C85.6317 97.3662 78.0381 127.259 74.5555 139.706C71.0728 152.152 57.7172 180.655 57.7172 180.655L53.0381 177.981C53.0381 177.981 59.3215 152.928 63.9605 138.369Z" fill="#263238"/>
<path d="M77.9321 111.283C76.769 113.957 74.4963 131.277 74.5029 139.92C74.5029 139.853 74.5029 139.786 74.5564 139.719C75.7797 135.341 77.511 128.803 79.2356 122.159L77.9321 111.283Z" fill="black"/>
<path d="M91.4747 184.866C91.4747 184.866 84.2621 183.824 83.7407 182.674H79.2354L79.4493 186.972H81.9559L82.3637 186.578L82.9787 186.972C84.984 186.972 90.7862 186.41 91.9426 185.635C91.938 185.477 91.8925 185.324 91.8104 185.189C91.7284 185.054 91.6127 184.943 91.4747 184.866Z" fill="#FF725E"/>
<path d="M79.1413 138.864C75.3779 113.302 75.3779 97.4801 75.3779 97.4801L92.1426 97.2061C92.1426 97.2061 90.1373 127.694 89.4287 140.461C88.7001 153.737 84.5557 182.955 84.5557 182.955H78.7135C78.7135 182.955 77.3766 155.281 79.1413 138.864Z" fill="#263238"/>
<path d="M76.7948 49.3779C76.0194 52.7202 75.4579 57.0851 74.4619 59.5718C76.1531 61.1426 78.8937 63.0945 82.5502 63.041C86.2066 62.9876 85.5381 60.521 84.5555 59.2442C81.9352 57.9073 81.8349 56.5704 82.4766 55.414L76.7948 49.3779Z" fill="#7F3E3B"/>
<path d="M71.0596 60.3946C72.0419 59.512 73.09 58.7053 74.1946 57.9815C75.1171 57.5203 82.216 57.674 83.8403 57.9815C85.4646 58.289 87.4901 60.7355 87.4901 60.7355L71.0596 60.3946Z" fill="white"/>
<path d="M88.3395 48.9575C88.2592 49.285 88.3796 49.626 88.5935 49.626C88.8074 49.626 89.048 49.4455 89.1215 49.1112C89.1951 48.777 89.0814 48.4762 88.8608 48.4428C88.6403 48.4094 88.413 48.63 88.3395 48.9575Z" fill="#263238"/>
<path d="M88.2126 49.4189C88.3822 50.5115 88.7017 51.5754 89.1618 52.5807C88.8991 52.6906 88.6159 52.7433 88.3312 52.7352C88.0466 52.7271 87.7668 52.6585 87.5107 52.5339L88.2126 49.4189Z" fill="#630F0F"/>
<path d="M89.4827 47.0585C89.4537 47.0732 89.4216 47.0808 89.3891 47.0808C89.3566 47.0808 89.3245 47.0732 89.2955 47.0585C89.0705 46.9513 88.8228 46.9001 88.5737 46.9094C88.3246 46.9188 88.0815 46.9883 87.8651 47.112C87.8208 47.1378 87.7683 47.1457 87.7184 47.134C87.6684 47.1223 87.6249 47.092 87.5966 47.0492C87.5684 47.0064 87.5576 46.9544 87.5665 46.904C87.5754 46.8535 87.6033 46.8083 87.6445 46.7777C87.9158 46.6183 88.2218 46.5272 88.5362 46.512C88.8505 46.4969 89.1639 46.5582 89.4493 46.6908C89.4983 46.7129 89.5368 46.753 89.5568 46.8029C89.5767 46.8528 89.5765 46.9085 89.5562 46.9582C89.5386 46.9962 89.5136 47.0303 89.4827 47.0585Z" fill="#263238"/>
<path d="M77.3771 45.595C76.7087 49.706 76.1204 52.079 77.7113 54.599C80.0977 58.3958 85.5322 57.6204 87.4105 53.7835C89.1017 50.3276 89.9039 44.1913 86.2809 41.718C85.4795 41.171 84.5525 40.8363 83.5866 40.7451C82.6207 40.6539 81.6474 40.8093 80.7579 41.1966C79.8683 41.5839 79.0916 42.1906 78.5003 42.9599C77.9091 43.7291 77.5226 44.6358 77.3771 45.595Z" fill="#7F3E3B"/>
<path d="M84.1009 51.5843C79.6824 54.2915 77.0421 53.6632 75.9458 52.0522C74.1477 49.4185 75.9458 47.9413 75.9458 47.9413C73.8135 48.0148 73.2119 44.3383 74.6958 43.075C73.3589 41.7381 74.248 38.6231 76.5274 39.1044C76.3402 36.8049 79.9298 34.5389 83.3857 36.952C86.2199 35.468 90.157 36.5776 91.1196 39.1779C92.0822 41.7782 90.6383 42.8945 90.6383 42.8945C91.4939 43.8236 89.9699 46.6311 87.256 46.5241C86.7747 47.9814 86.5875 49.1311 84.8429 49.1979C84.4351 51.0963 84.883 50.9159 84.1009 51.5843Z" fill="#263238"/>
<path d="M83.0384 48.9506C82.7918 49.805 82.8827 50.7214 83.2924 51.5107C83.8338 52.4867 84.8967 52.0388 85.4047 50.9826C85.8659 50.0334 86.1467 48.3757 85.2844 47.7741C84.4221 47.1725 83.3392 47.8543 83.0384 48.9506Z" fill="#7F3E3B"/>
<path d="M71.294 59.9333C77.6239 59.2129 84.0202 59.3118 90.3248 60.2274C91.6441 60.4629 92.8481 61.1294 93.7481 62.1225C94.648 63.1157 95.1931 64.3792 95.298 65.7153C95.9665 73.8504 94.1617 88.0683 92.6242 102.386C80.0774 106.598 67.3368 102.326 67.3368 102.326C67.056 99.4386 68.6135 89.9801 69.5828 84.9466C68.8742 79.7327 67.0627 73.7568 66.04 66.8317C65.9226 66.0324 65.966 65.2178 66.1678 64.4356C66.3696 63.6534 66.7257 62.9194 67.2152 62.2767C67.7047 61.6341 68.3176 61.0957 69.0181 60.6933C69.7185 60.2909 70.4923 60.0325 71.294 59.9333Z" fill="#FF725E"/>
<path opacity="0.2" d="M88.3398 71.3232C89.1888 76.223 91.9027 82.0585 94.3559 85.9222C94.6968 82.5398 94.9842 79.3112 95.1647 76.3433L88.3398 71.3232Z" fill="black"/>
<path d="M120.251 76.4105L119.008 75.9292C118.777 75.8407 118.529 75.8086 118.284 75.8353C118.038 75.862 117.803 75.9469 117.597 76.0829L115.639 77.373C115.253 77.6269 114.935 77.9694 114.709 78.3718C114.483 78.7742 114.357 79.2248 114.342 79.6859V80.2674C116.347 81.2033 119.208 80.7353 119.208 80.7353L120.037 80.6952C120.208 80.6909 120.376 80.6528 120.532 80.5832C120.688 80.5136 120.829 80.4138 120.947 80.2895C121.064 80.1653 121.156 80.0191 121.217 79.8592C121.277 79.6994 121.306 79.5292 121.3 79.3583L121.24 77.7139C121.22 77.4239 121.116 77.1459 120.94 76.9143C120.765 76.6827 120.525 76.5076 120.251 76.4105Z" fill="#7F3E3B"/>
<path d="M94.5492 63.6837C95.2177 65.0206 95.8861 66.4712 96.5947 67.8482C97.3032 69.2252 98.0185 70.6156 98.7471 71.9458C99.4757 73.276 100.258 74.5527 101.033 75.6824C101.421 76.2439 101.822 76.7519 102.176 77.173C102.531 77.5942 102.845 77.895 102.891 77.9484L102.323 77.7145C102.935 77.9947 103.602 78.134 104.275 78.1222C105.296 78.1431 106.318 78.085 107.33 77.9484C108.426 77.8148 109.549 77.6142 110.672 77.387C111.795 77.1597 113.005 76.8856 114.108 76.665L114.295 76.6249C114.834 76.5056 115.397 76.5735 115.892 76.8174C116.388 77.0613 116.785 77.4667 117.018 77.9667C117.252 78.4667 117.308 79.0314 117.178 79.5676C117.047 80.1039 116.738 80.5796 116.301 80.9164C115.242 81.7441 114.125 82.4947 112.958 83.1624C111.774 83.8423 110.543 84.4387 109.275 84.9471C107.892 85.5028 106.453 85.9106 104.984 86.1637C103.193 86.5073 101.348 86.4479 99.5826 85.9899C99.4563 85.9564 99.3333 85.9117 99.215 85.8562L99.0145 85.7559C97.8434 85.1847 96.766 84.4386 95.8193 83.5434C95.0693 82.8502 94.3701 82.1041 93.727 81.3107C92.5575 79.8945 91.4855 78.4004 90.5185 76.8388C89.5626 75.3415 88.7137 73.8174 87.9115 72.2867C87.1094 70.7559 86.3808 69.2319 85.6856 67.5407C85.4258 66.9635 85.2821 66.3408 85.263 65.7082C85.2438 65.0755 85.3494 64.4452 85.5738 63.8534C86.027 62.6581 86.9364 61.6918 88.102 61.167C89.2677 60.6423 90.594 60.6021 91.7893 61.0552C92.3812 61.2796 92.923 61.6184 93.384 62.0522C93.8449 62.486 94.2159 63.0063 94.4757 63.5835L94.5492 63.6837Z" fill="#FF725E"/>
<path d="M99.0683 186.972H41.6953V191.678H99.0683V186.972Z" fill="#263238"/>
<path d="M92.3837 212.354H35.0107V217.059H92.3837V212.354Z" fill="#263238"/>
<path d="M85.6992 237.734H28.3262V242.44H85.6992V237.734Z" fill="#263238"/>
<path d="M99.0683 186.972H97.7715V242.44H99.0683V186.972Z" fill="#263238"/>
<path d="M82.5439 242.44H83.8407L96.5012 186.972H95.1977L82.5439 242.44Z" fill="#263238"/>
<path d="M49.9569 186.972H48.6602V242.44H49.9569V186.972Z" fill="#263238"/>
<path d="M33.4326 242.44H34.7294L47.3898 186.972H46.0864L33.4326 242.44Z" fill="#263238"/>
<path d="M170.091 176.25C164.222 175.582 161.748 180.782 165.993 183.336C170.238 185.889 158.64 193.683 164.168 197.808C169.696 201.932 176.421 210.742 180.264 202.406C184.108 194.071 173.693 189.706 178.373 185.655C183.052 181.604 176.742 169.9 170.091 176.25Z" fill="#E0E0E0"/>
<path d="M180.265 202.574C180.237 202.574 180.209 202.567 180.184 202.553C180.159 202.539 180.139 202.518 180.125 202.494C180.103 202.454 180.096 202.408 180.108 202.364C180.119 202.321 180.147 202.283 180.185 202.26C181.488 201.498 182.244 200.622 182.484 199.586C182.946 197.58 181.428 195.321 179.964 193.109C178.186 190.435 176.348 187.641 178.454 185.615C179.744 184.372 180.152 182.413 179.577 180.228C178.908 177.634 177.037 175.548 174.964 175C173.253 174.566 171.515 175.214 169.944 176.879C169.913 176.909 169.871 176.926 169.827 176.926C169.784 176.926 169.742 176.909 169.71 176.879C169.694 176.863 169.681 176.844 169.673 176.824C169.664 176.803 169.659 176.781 169.659 176.758C169.659 176.736 169.664 176.714 169.673 176.693C169.681 176.672 169.694 176.654 169.71 176.638C171.803 174.425 173.774 174.345 175.058 174.673C177.25 175.228 179.196 177.427 179.918 180.134C180.526 182.44 180.078 184.519 178.701 185.849C176.796 187.681 178.48 190.228 180.258 192.915C181.762 195.187 183.313 197.534 182.819 199.659C182.558 200.789 181.756 201.732 180.365 202.547C180.335 202.564 180.3 202.574 180.265 202.574Z" fill="#E0E0E0"/>
<path d="M157.276 220.989L169.449 223.222C170.552 229.586 167.784 237.767 156.842 237.767C143.526 237.767 130.846 235.214 132.731 229.077C135.01 221.731 157.276 220.989 157.276 220.989Z" fill="#263238"/>
<path opacity="0.2" d="M157.276 220.989L169.449 223.222C170.552 229.586 167.784 237.767 156.842 237.767C143.526 237.767 130.846 235.214 132.731 229.077C135.01 221.731 157.276 220.989 157.276 220.989Z" fill="black"/>
<path d="M169.757 231.952C172.25 234.064 176.676 238.129 176.074 238.603C173.133 240.949 169.991 235.796 166.796 236.598C167.25 234.298 169.757 231.952 169.757 231.952Z" fill="#263238"/>
<path d="M175.271 223.222C176.374 229.586 173.607 239.88 162.664 239.88C144.723 239.88 134.248 240.167 132.791 233.931C131.334 227.694 157.042 226.992 157.042 226.992C156.35 225.927 155.899 224.725 155.719 223.468C155.538 222.21 155.634 220.929 156 219.713C167.851 219.92 175.271 223.222 175.271 223.222Z" fill="#263238"/>
<path d="M163.099 200.615C162.384 201.952 161.635 203.075 160.84 204.265C160.031 205.438 159.163 206.569 158.239 207.654C157.29 208.777 156.26 209.829 155.158 210.802C154.578 211.315 153.969 211.792 153.333 212.233C153.012 212.46 152.664 212.674 152.317 212.901L151.775 213.209C151.481 213.37 151.172 213.504 150.853 213.61C149.724 213.952 148.519 213.952 147.39 213.61C146.545 213.364 145.732 213.016 144.971 212.574C143.682 211.799 142.48 210.887 141.388 209.853C139.339 207.93 137.507 205.787 135.926 203.463C135.717 203.162 135.626 202.794 135.67 202.43C135.714 202.067 135.889 201.731 136.164 201.488C136.438 201.245 136.792 201.111 137.159 201.112C137.525 201.112 137.879 201.247 138.152 201.491L138.199 201.538C140.111 203.258 142.119 204.867 144.215 206.357C145.175 207.043 146.198 207.636 147.27 208.129C147.695 208.324 148.145 208.462 148.607 208.536C148.975 208.59 149.155 208.536 149.102 208.496C149.048 208.456 149.048 208.496 149.102 208.496L149.416 208.276C149.623 208.115 149.837 207.961 150.051 207.781C150.465 207.427 150.886 207.046 151.301 206.631C152.143 205.766 152.935 204.853 153.674 203.897C154.429 202.921 155.171 201.892 155.873 200.856C156.575 199.82 157.277 198.703 157.878 197.707L157.925 197.634C158.336 196.97 158.989 196.493 159.746 196.302C160.502 196.11 161.304 196.221 161.98 196.61C162.657 196.998 163.156 197.635 163.373 198.385C163.589 199.135 163.505 199.939 163.139 200.629L163.099 200.615Z" fill="#FFC3BD"/>
<path d="M160.653 195.736C156.689 196.525 153.507 203.276 153.507 203.276L159.69 210.241C159.69 210.241 162.972 205.629 163.6 203.49C164.229 201.351 162.925 195.282 160.653 195.736Z" fill="#FF725E"/>
<path d="M132.511 201.517L132.979 199.592C133.005 199.482 133.053 199.379 133.12 199.287C133.187 199.196 133.272 199.119 133.369 199.06C133.466 199.002 133.573 198.963 133.686 198.947C133.798 198.93 133.912 198.936 134.022 198.964L135.412 199.312C135.952 199.447 136.438 199.746 136.802 200.167L139.055 202.767L137.945 204.586C136.923 204.429 135.939 204.082 135.044 203.563L132.952 202.487C132.78 202.399 132.642 202.255 132.562 202.079C132.482 201.903 132.464 201.705 132.511 201.517Z" fill="#FFC3BD"/>
<path d="M160.653 195.735C165.592 194.713 169.429 194.124 174.764 196.404C176.156 197.005 177.304 198.057 178.025 199.391C178.745 200.725 178.995 202.263 178.734 203.757C177.551 210.742 175.452 216.898 175.272 223.242C162.952 228.336 155.8 223.79 156 219.733C158.908 212.119 156.829 203.443 157.872 199.198C158.407 197.012 159.022 196.076 160.653 195.735Z" fill="#FF725E"/>
<path d="M170.739 186.832C170.271 189.225 169.689 194.098 171.36 195.689C168.881 197.526 166.55 199.556 164.389 201.758C161.715 197.808 163.921 195.662 163.921 195.662C166.594 194.994 166.641 192.587 166.173 190.729L170.739 186.832Z" fill="#FFC3BD"/>
<path opacity="0.2" d="M168.881 188.423L166.207 190.729C166.319 191.168 166.395 191.615 166.434 192.066C167.457 191.919 169.055 191.05 169.275 189.947C169.275 189.414 169.139 188.889 168.881 188.423Z" fill="black"/>
<path d="M176.14 185.722C173.968 189.064 173.119 190.555 170.358 191.351C166.2 192.554 162.544 189.145 163.673 185.208C164.69 181.658 168.072 176.758 172.256 177.286C173.18 177.4 174.058 177.748 174.809 178.297C175.56 178.846 176.159 179.578 176.548 180.423C176.937 181.268 177.104 182.198 177.032 183.125C176.961 184.053 176.654 184.947 176.14 185.722Z" fill="#FFC3BD"/>
<path opacity="0.2" d="M170.539 183.623C170.719 183.633 170.895 183.681 171.055 183.764C171.216 183.847 171.356 183.963 171.468 184.104C171.129 184.01 170.812 183.846 170.539 183.623Z" fill="black"/>
<path opacity="0.2" d="M170.452 183.884C170.615 183.933 170.764 184.018 170.888 184.134C171.012 184.25 171.108 184.393 171.167 184.552C170.884 184.383 170.64 184.155 170.452 183.884Z" fill="black"/>
<path opacity="0.2" d="M169.028 178.864C169.986 179.246 170.865 179.801 171.622 180.502C170.706 180.043 169.837 179.494 169.028 178.864Z" fill="black"/>
<path d="M169.73 176.725C171.602 180.789 173.634 182.192 174.47 182.607C171.716 183.944 171.829 187.493 174.61 188.422C177.391 189.352 178.18 183.823 178.093 181.791C178.006 179.759 174.403 175.327 169.73 176.725Z" fill="#E0E0E0"/>
<path d="M165.666 185.655C167.344 185.877 169.002 186.228 170.626 186.705C169.957 187.467 168.968 187.975 167.123 187.473C165.278 186.972 165.666 185.655 165.666 185.655Z" fill="white"/>
<path d="M170.064 183.523C169.91 183.811 169.629 183.951 169.442 183.851C169.255 183.751 169.235 183.43 169.395 183.149C169.556 182.868 169.836 182.721 170.017 182.822C170.197 182.922 170.224 183.243 170.064 183.523Z" fill="#263238"/>
<path d="M166.862 181.724C166.702 182.005 166.421 182.152 166.241 182.045C166.06 181.938 166.033 181.624 166.194 181.377C166.354 181.129 166.628 180.949 166.815 181.056C167.003 181.163 167.023 181.437 166.862 181.724Z" fill="#263238"/>
<path d="M166.888 181.084L166.32 180.502C166.32 180.502 166.367 181.231 166.888 181.084Z" fill="#263238"/>
<path d="M167.564 182.787C166.954 183.289 166.28 183.707 165.559 184.03C165.732 184.585 166.461 184.786 166.461 184.786L167.564 182.787Z" fill="#ED847E"/>
<path d="M175.366 189.171C174.704 189.571 173.911 189.694 173.16 189.512C172.164 189.258 172.177 188.249 172.879 187.573C173.581 186.898 174.791 186.37 175.586 186.979C175.752 187.119 175.881 187.297 175.962 187.498C176.044 187.699 176.075 187.917 176.053 188.133C176.031 188.349 175.957 188.556 175.838 188.737C175.718 188.918 175.556 189.067 175.366 189.171Z" fill="#FFC3BD"/>
<path d="M171.581 183.095C171.544 183.078 171.514 183.051 171.493 183.016C171.473 182.981 171.464 182.941 171.467 182.901C171.457 182.589 171.383 182.283 171.25 182.001C171.116 181.719 170.927 181.468 170.692 181.263C170.674 181.246 170.66 181.225 170.65 181.202C170.641 181.179 170.636 181.154 170.636 181.129C170.636 181.104 170.641 181.08 170.65 181.057C170.66 181.034 170.674 181.013 170.692 180.996C170.709 180.978 170.73 180.964 170.753 180.954C170.776 180.944 170.801 180.939 170.826 180.939C170.851 180.939 170.875 180.944 170.898 180.954C170.921 180.964 170.942 180.978 170.959 180.996C171.244 181.238 171.472 181.539 171.629 181.879C171.786 182.218 171.868 182.587 171.868 182.961C171.866 182.985 171.859 183.009 171.847 183.031C171.835 183.053 171.819 183.072 171.8 183.088C171.78 183.103 171.758 183.115 171.734 183.122C171.711 183.129 171.686 183.131 171.661 183.128L171.581 183.095Z" fill="#263238"/>
<path d="M166.609 179.633C166.576 179.627 166.545 179.613 166.52 179.592C166.494 179.571 166.474 179.543 166.462 179.512C166.452 179.489 166.448 179.463 166.448 179.438C166.449 179.412 166.455 179.387 166.465 179.364C166.476 179.341 166.491 179.32 166.51 179.303C166.529 179.286 166.551 179.273 166.575 179.265C166.855 179.149 167.159 179.103 167.46 179.129C167.761 179.156 168.052 179.255 168.307 179.419C168.348 179.448 168.376 179.493 168.385 179.543C168.394 179.593 168.382 179.644 168.354 179.686C168.322 179.725 168.277 179.75 168.228 179.758C168.178 179.765 168.128 179.754 168.086 179.726C167.882 179.6 167.65 179.525 167.411 179.506C167.171 179.487 166.931 179.526 166.709 179.619C166.678 179.633 166.643 179.638 166.609 179.633Z" fill="#263238"/>
<path d="M170.091 182.881L169.522 182.307C169.522 182.307 169.576 183.035 170.091 182.881Z" fill="#263238"/>
<path d="M128.574 187.714C128.156 187.747 127.751 187.874 127.389 188.086C127.028 188.298 126.719 188.59 126.487 188.939C126.255 189.288 126.106 189.686 126.051 190.101C125.995 190.517 126.035 190.939 126.167 191.337C128.574 198.362 136.448 203.115 145.332 202.38C154.215 201.645 161.201 195.649 162.417 188.342C162.482 187.928 162.451 187.504 162.328 187.104C162.204 186.703 161.991 186.336 161.704 186.029C161.417 185.723 161.065 185.487 160.673 185.337C160.281 185.188 159.86 185.13 159.443 185.167L128.574 187.714Z" fill="#263238"/>
<path d="M177.846 202.848C177.124 204.185 176.382 205.301 175.586 206.484C174.782 207.657 173.916 208.786 172.993 209.866C172.05 210.987 171.027 212.037 169.931 213.008C169.355 213.517 168.75 213.992 168.12 214.432C167.799 214.659 167.451 214.873 167.11 215.1L166.569 215.401L166.141 215.622C165.963 215.702 165.78 215.771 165.593 215.829C164.789 216.075 163.932 216.091 163.12 215.876C162.48 215.694 161.882 215.392 161.355 214.987C160.622 214.401 159.987 213.702 159.477 212.915C158.663 211.655 157.991 210.31 157.471 208.904C156.496 206.294 155.781 203.594 155.339 200.842C155.282 200.483 155.357 200.116 155.551 199.808C155.745 199.501 156.044 199.274 156.393 199.171C156.742 199.068 157.116 199.095 157.446 199.248C157.776 199.4 158.039 199.668 158.187 200V200.047C159.209 202.42 160.326 204.826 161.529 207.012C162.082 208.05 162.734 209.033 163.474 209.947C163.72 210.263 164.018 210.534 164.356 210.749C164.45 210.796 164.483 210.749 164.356 210.749C164.193 210.701 164.019 210.701 163.855 210.749C163.826 210.747 163.797 210.747 163.768 210.749C163.695 210.789 163.768 210.749 163.768 210.749L164.089 210.535C164.296 210.375 164.51 210.214 164.717 210.04C165.138 209.679 165.553 209.298 165.967 208.884C166.807 208.021 167.597 207.11 168.334 206.157C169.082 205.181 169.818 204.151 170.519 203.129C171.221 202.106 171.917 200.976 172.525 199.987L172.572 199.913C172.969 199.221 173.625 198.715 174.395 198.506C175.165 198.297 175.987 198.403 176.679 198.8C177.372 199.197 177.878 199.853 178.086 200.624C178.295 201.394 178.189 202.216 177.792 202.908L177.846 202.848Z" fill="#FFC3BD"/>
<path d="M175.492 197.526C171.482 197.56 168.253 205.501 168.253 205.501L174.429 212.473C174.429 212.473 177.718 207.861 178.347 205.722C178.975 203.583 178.514 197.506 175.492 197.526Z" fill="#FF725E"/>
<path d="M153.113 197.293L154.517 195.762C154.596 195.674 154.692 195.603 154.799 195.553C154.906 195.502 155.022 195.474 155.14 195.469C155.259 195.464 155.377 195.482 155.488 195.524C155.599 195.565 155.7 195.628 155.787 195.709L156.89 196.725C157.317 197.123 157.611 197.644 157.732 198.216L158.487 201.732L156.549 202.841C155.689 202.183 154.962 201.369 154.403 200.442L153.026 198.403C152.915 198.234 152.864 198.034 152.88 197.833C152.895 197.632 152.977 197.442 153.113 197.293Z" fill="#FFC3BD"/>
<path d="M174.095 189.84C174.09 190.017 174.033 190.19 173.93 190.335C173.828 190.481 173.686 190.593 173.52 190.658C173.355 190.723 173.174 190.739 173 190.702C172.826 190.666 172.667 190.579 172.541 190.453C172.416 190.327 172.331 190.167 172.295 189.993C172.26 189.818 172.277 189.638 172.343 189.473C172.41 189.308 172.523 189.166 172.669 189.065C172.816 188.964 172.988 188.908 173.166 188.904C173.29 188.9 173.413 188.922 173.528 188.967C173.642 189.013 173.747 189.082 173.834 189.17C173.921 189.258 173.989 189.362 174.034 189.478C174.079 189.593 174.1 189.716 174.095 189.84Z" fill="white"/>
<path d="M219.181 136.844C219.569 137.392 219.85 137.847 220.157 138.355C220.465 138.863 220.732 139.344 221.006 139.845C221.548 140.848 222.036 141.851 222.497 142.92C222.958 143.99 223.373 145.019 223.74 146.102C223.934 146.637 224.095 147.185 224.262 147.726L224.496 148.548C224.569 148.836 224.643 149.043 224.75 149.551C224.877 150.31 224.877 151.085 224.75 151.844C224.646 152.488 224.491 153.122 224.288 153.742C223.902 154.867 223.424 155.958 222.858 157.004C221.771 158.991 220.493 160.868 219.041 162.606C218.858 162.844 218.593 163.004 218.297 163.055C218.002 163.106 217.698 163.044 217.446 162.882C217.194 162.72 217.012 162.469 216.936 162.179C216.86 161.889 216.895 161.581 217.036 161.316V161.276C217.49 160.34 217.965 159.371 218.373 158.408C218.78 157.446 219.208 156.483 219.549 155.52C219.894 154.594 220.175 153.644 220.391 152.679C220.587 151.951 220.619 151.189 220.485 150.447L220.004 149.163C219.803 148.689 219.629 148.201 219.422 147.726C219.028 146.777 218.587 145.841 218.145 144.905C217.704 143.97 217.21 143.067 216.708 142.165C216.468 141.717 216.214 141.269 215.953 140.828L215.191 139.578L215.124 139.471C214.793 138.939 214.682 138.299 214.817 137.687C214.951 137.075 215.319 136.54 215.843 136.196C216.367 135.852 217.005 135.726 217.62 135.846C218.235 135.966 218.778 136.322 219.135 136.837L219.181 136.844Z" fill="#CE7A63"/>
<path d="M218.213 166.443L219.202 165.668C219.384 165.523 219.529 165.338 219.626 165.126C219.722 164.915 219.767 164.683 219.757 164.451L219.656 162.252C219.638 161.818 219.515 161.394 219.299 161.018C219.082 160.641 218.779 160.321 218.413 160.086L217.952 159.792C216.227 160.962 215.225 163.502 215.225 163.502L214.864 164.17C214.784 164.31 214.733 164.464 214.714 164.624C214.695 164.784 214.707 164.945 214.75 165.1C214.794 165.255 214.868 165.4 214.967 165.526C215.067 165.652 215.191 165.757 215.332 165.835L216.668 166.577C216.911 166.709 217.186 166.766 217.461 166.742C217.735 166.719 217.997 166.614 218.213 166.443Z" fill="#CE7A63"/>
<path d="M212.831 124.058C212.163 126.511 211.348 131.009 212.945 132.654C212.945 132.654 214.168 134.953 206.929 134.586C201.856 134.325 205.311 132.654 205.311 132.654C208.099 131.985 208.179 129.98 207.845 128.055L212.831 124.058Z" fill="#CE7A63"/>
<path d="M223.507 226.791L228.186 225.06C228.64 228.148 229.269 231.207 230.071 234.224L226.782 235.634C226.782 235.634 224.596 229.003 223.507 226.791Z" fill="#CE7A63"/>
<path d="M226.02 241.069C228.533 239.231 228.326 239.318 229.71 238.235C230.893 237.306 231.281 237.252 232.237 236.517C233.039 235.909 232.497 235.107 231.655 234.351C231.334 234.057 230.933 233.736 230.472 233.315C230.344 233.199 230.179 233.131 230.006 233.122C229.833 233.113 229.662 233.165 229.523 233.269L226.582 235.421C226.476 235.498 226.389 235.598 226.327 235.714C226.266 235.83 226.232 235.958 226.227 236.089C226.212 236.802 226.052 237.505 225.756 238.154C225.461 238.804 225.037 239.386 224.509 239.866C223.299 241.069 225.017 241.805 226.02 241.069Z" fill="#263238"/>
<path d="M203.165 158.696C203.165 158.696 208.112 184.164 211.942 196.029C215.952 208.496 221.855 222.366 224.522 230.488C225.351 230.595 227.717 229.605 228.874 228.623C228.874 228.623 227.109 207.326 221.079 196.33C221.688 164.244 215.585 158.696 215.585 158.696H203.165Z" fill="#FF725E"/>
<path opacity="0.2" d="M212.35 168.248L207.257 177.967C208.42 183.074 209.717 188.362 210.947 192.673C214.657 182.332 212.35 168.248 212.35 168.248Z" fill="black"/>
<path d="M223.513 228.977C223.673 229.53 223.785 230.096 223.847 230.668C223.853 230.717 223.869 230.763 223.895 230.804C223.92 230.846 223.955 230.881 223.996 230.907C224.037 230.933 224.083 230.95 224.131 230.956C224.18 230.962 224.229 230.958 224.275 230.942C226.011 230.379 227.671 229.603 229.215 228.63C229.282 228.588 229.337 228.528 229.374 228.458C229.41 228.387 229.427 228.308 229.422 228.229L229.208 226.597C229.199 226.546 229.178 226.497 229.147 226.455C229.116 226.413 229.075 226.379 229.028 226.356C228.981 226.332 228.93 226.32 228.877 226.32C228.825 226.321 228.773 226.333 228.727 226.357L223.774 228.503C223.681 228.538 223.605 228.606 223.557 228.692C223.509 228.779 223.494 228.88 223.513 228.977Z" fill="#263238"/>
<path opacity="0.1" d="M223.513 228.977C223.673 229.53 223.785 230.096 223.847 230.668C223.853 230.717 223.869 230.763 223.895 230.804C223.92 230.846 223.955 230.881 223.996 230.907C224.037 230.933 224.083 230.95 224.131 230.956C224.18 230.962 224.229 230.958 224.275 230.942C226.011 230.379 227.671 229.603 229.215 228.63C229.282 228.588 229.337 228.528 229.374 228.458C229.41 228.387 229.427 228.308 229.422 228.229L229.208 226.597C229.199 226.546 229.178 226.497 229.147 226.455C229.116 226.413 229.075 226.379 229.028 226.356C228.981 226.332 228.93 226.32 228.877 226.32C228.825 226.321 228.773 226.333 228.727 226.357L223.774 228.503C223.681 228.538 223.605 228.606 223.557 228.692C223.509 228.779 223.494 228.88 223.513 228.977Z" fill="white"/>
<path d="M199.054 228.977L203.559 229.304C202.824 232.9 202.049 238.582 202.049 238.582H198.466C198.466 238.582 199.108 231.436 199.054 228.977Z" fill="#CE7A63"/>
<path d="M194.683 242.138C197.792 242.138 197.571 242.091 199.322 242.031C200.82 241.977 201.174 242.165 202.384 242.138C203.386 242.138 203.346 241.155 203.052 240.046C202.932 239.625 202.765 239.123 202.591 238.515C202.545 238.342 202.444 238.19 202.302 238.081C202.161 237.972 201.987 237.913 201.809 237.913H198.166C198.034 237.91 197.904 237.941 197.787 238.001C197.67 238.062 197.571 238.151 197.497 238.261C197.098 238.826 196.581 239.297 195.982 239.644C195.384 239.99 194.717 240.202 194.028 240.266C192.344 240.52 193.44 242.138 194.683 242.138Z" fill="#263238"/>
<path d="M199.329 158.696C199.329 158.696 198.76 180.889 198.259 194.712C197.758 208.536 198.834 232.954 198.834 232.954C198.934 233.623 202.457 233.362 203.059 232.954C203.059 232.954 209.783 213.162 207.216 196.029C216.22 173.817 213.627 159.264 213.627 159.264L199.329 158.696Z" fill="#FF725E"/>
<path d="M198.353 231.109C198.353 231.564 198.313 232.372 198.273 232.974C198.265 233.07 198.295 233.166 198.356 233.24C198.417 233.315 198.504 233.363 198.6 233.375C200.158 233.503 201.724 233.488 203.279 233.328C203.354 233.321 203.424 233.29 203.48 233.239C203.535 233.188 203.573 233.121 203.587 233.048L203.901 231.41C203.911 231.356 203.909 231.301 203.895 231.248C203.882 231.195 203.857 231.146 203.823 231.104C203.788 231.061 203.745 231.027 203.697 231.002C203.648 230.978 203.595 230.964 203.54 230.962L198.734 230.775C198.686 230.768 198.638 230.772 198.592 230.785C198.545 230.799 198.503 230.823 198.467 230.854C198.43 230.886 198.402 230.925 198.382 230.969C198.362 231.013 198.352 231.061 198.353 231.109Z" fill="#263238"/>
<path opacity="0.1" d="M198.353 231.109C198.353 231.564 198.313 232.372 198.273 232.974C198.265 233.07 198.295 233.166 198.356 233.24C198.417 233.315 198.504 233.363 198.6 233.375C200.158 233.503 201.724 233.488 203.279 233.328C203.354 233.321 203.424 233.29 203.48 233.239C203.535 233.188 203.573 233.121 203.587 233.048L203.901 231.41C203.911 231.356 203.909 231.301 203.895 231.248C203.882 231.195 203.857 231.146 203.823 231.104C203.788 231.061 203.745 231.027 203.697 231.002C203.648 230.978 203.595 230.964 203.54 230.962L198.734 230.775C198.686 230.768 198.638 230.772 198.592 230.785C198.545 230.799 198.503 230.823 198.467 230.854C198.43 230.886 198.402 230.925 198.382 230.969C198.362 231.013 198.352 231.061 198.353 231.109Z" fill="white"/>
<path d="M214.709 154.826C214.793 156.124 214.954 157.416 215.19 158.696H199.495L199.328 154.685C199.328 154.685 211.427 154.017 214.709 154.826Z" fill="#CE7A63"/>
<path d="M197.817 138.522C197.722 140.936 197.758 143.352 197.924 145.762C198.058 148.903 197.457 149.672 197.924 154.826C199.642 155.829 210.966 155.788 216.527 155.073C216.193 150.615 215.779 147.613 218.793 137.587C218.96 137.048 219.002 136.479 218.915 135.922C218.828 135.365 218.616 134.836 218.293 134.374C217.971 133.911 217.547 133.529 217.055 133.255C216.562 132.981 216.014 132.824 215.451 132.794C214.783 132.727 214.074 132.673 213.352 132.64C210.81 132.473 208.26 132.473 205.719 132.64C204.883 132.714 204.027 132.814 203.205 132.921C201.796 133.083 200.488 133.731 199.504 134.753C198.521 135.775 197.925 137.108 197.817 138.522Z" fill="#263238"/>
<path d="M178.821 128.341C178.959 130.898 178.501 133.452 177.484 135.801C177.348 136.08 177.293 136.39 177.324 136.698C177.354 137.006 177.47 137.3 177.658 137.546C180.057 140.781 184.563 139.625 186.348 138.99C186.59 138.903 186.809 138.762 186.988 138.578C187.168 138.394 187.303 138.171 187.384 137.927C188.152 135.614 188.901 132.693 188.239 129.672C188.196 129.427 188.093 129.198 187.938 129.003C186.448 127.205 183.106 126.998 180.786 126.617C180.539 126.574 180.285 126.586 180.044 126.654C179.802 126.722 179.579 126.843 179.39 127.009C179.202 127.174 179.053 127.38 178.954 127.61C178.856 127.841 178.81 128.091 178.821 128.341Z" fill="white"/>
<path d="M187.397 123.884C188.907 123.884 190.131 122.366 190.131 120.495C190.131 118.623 188.907 117.105 187.397 117.105C185.887 117.105 184.663 118.623 184.663 120.495C184.663 122.366 185.887 123.884 187.397 123.884Z" fill="white"/>
<path d="M176.28 130.133C174.944 130.407 174.803 130.628 174.583 132.245C174.362 130.628 174.182 130.407 172.885 130.133C174.182 129.859 174.362 129.638 174.583 128.027C174.803 129.638 174.977 129.859 176.28 130.133Z" fill="white"/>
<path d="M185.318 128.904L185.986 129.953C186.116 130.148 186.197 130.371 186.221 130.604C186.246 130.837 186.213 131.073 186.127 131.29L185.324 133.349C185.167 133.753 184.915 134.114 184.589 134.402C184.263 134.689 183.874 134.894 183.453 135L182.925 135.134C181.668 133.469 181.528 130.742 181.528 130.742L181.407 129.973C181.376 129.815 181.377 129.653 181.41 129.496C181.442 129.338 181.506 129.189 181.597 129.057C181.688 128.924 181.804 128.811 181.939 128.724C182.074 128.637 182.225 128.577 182.383 128.549L183.907 128.282C184.177 128.237 184.455 128.271 184.705 128.382C184.956 128.492 185.169 128.674 185.318 128.904Z" fill="#CE7A63"/>
<path d="M199.609 140.374C199.449 140.561 199.382 140.621 199.282 140.728L199.001 141.002C198.814 141.171 198.627 141.332 198.439 141.483C198.065 141.784 197.691 142.058 197.31 142.326C196.547 142.827 195.749 143.274 194.923 143.662C194.114 144.048 193.282 144.38 192.43 144.658C191.591 144.926 190.739 145.149 189.877 145.327L189.736 145.36C189.632 145.38 189.527 145.394 189.422 145.4C188.892 145.411 188.365 145.318 187.871 145.126C187.453 144.966 187.063 144.74 186.715 144.458C186.191 144.014 185.739 143.491 185.378 142.907C184.79 141.96 184.323 140.942 183.987 139.879C183.67 138.904 183.413 137.911 183.219 136.904C183.028 135.91 182.892 134.906 182.811 133.896C182.786 133.608 182.867 133.321 183.038 133.088C183.208 132.854 183.458 132.691 183.74 132.627C184.022 132.563 184.318 132.604 184.572 132.742C184.827 132.879 185.023 133.104 185.124 133.375V133.422C185.451 134.271 185.792 135.166 186.153 136.015C186.514 136.864 186.895 137.707 187.31 138.489C187.68 139.223 188.128 139.916 188.647 140.554C188.817 140.77 189.022 140.955 189.255 141.102C189.375 141.102 189.422 141.182 189.255 141.102L188.8 141.176C189.502 140.928 190.191 140.668 190.866 140.38C191.541 140.093 192.203 139.772 192.818 139.431C193.436 139.096 194.036 138.727 194.616 138.328C194.903 138.134 195.177 137.934 195.431 137.727C195.565 137.626 195.679 137.519 195.799 137.419L195.959 137.279C196.006 137.279 196.08 137.165 196.053 137.198C196.256 136.943 196.509 136.732 196.797 136.578C197.084 136.424 197.4 136.33 197.725 136.302C198.05 136.273 198.377 136.311 198.687 136.413C198.997 136.515 199.283 136.679 199.527 136.895C199.772 137.111 199.97 137.375 200.109 137.669C200.249 137.964 200.327 138.284 200.339 138.61C200.351 138.936 200.297 139.261 200.179 139.565C200.062 139.87 199.884 140.147 199.656 140.38L199.609 140.374Z" fill="#CE7A63"/>
<path d="M203.915 132.834C200.76 132.767 197.524 134.565 192.651 138.549C192.551 140.715 196.301 144.318 196.301 144.318C196.301 144.318 208.119 137.8 203.915 132.834Z" fill="#263238"/>
<path d="M204.837 119.491C204.724 119.812 204.463 120.026 204.256 119.966C204.048 119.906 203.975 119.598 204.089 119.298C204.202 118.997 204.463 118.763 204.67 118.823C204.877 118.883 204.951 119.177 204.837 119.491Z" fill="#263238"/>
<path d="M204.756 118.856L204.088 118.415C204.088 118.415 204.248 119.124 204.756 118.856Z" fill="#263238"/>
<path d="M204.583 120.094C204.038 120.745 203.411 121.322 202.718 121.812C202.842 121.975 203.001 122.107 203.184 122.199C203.368 122.29 203.569 122.338 203.774 122.34L204.583 120.094Z" fill="#BA4D3C"/>
<path d="M205.318 116.844C205.295 116.839 205.273 116.83 205.253 116.816C205.234 116.802 205.217 116.785 205.205 116.764C205.18 116.719 205.174 116.665 205.188 116.616C205.202 116.566 205.234 116.523 205.278 116.497C205.548 116.325 205.853 116.217 206.17 116.181C206.487 116.145 206.809 116.182 207.11 116.289C207.133 116.3 207.153 116.315 207.169 116.334C207.186 116.353 207.198 116.375 207.206 116.399C207.213 116.423 207.216 116.448 207.213 116.473C207.21 116.498 207.203 116.522 207.19 116.543C207.166 116.59 207.125 116.626 207.076 116.645C207.026 116.663 206.972 116.663 206.923 116.644C206.684 116.562 206.43 116.535 206.18 116.566C205.929 116.598 205.69 116.686 205.479 116.824C205.43 116.85 205.373 116.857 205.318 116.844Z" fill="#263238"/>
<path d="M215.793 121.303C214.269 125.04 213.7 126.651 211.113 128.061C207.203 130.18 202.925 127.76 203.299 123.71C203.634 120.067 206.067 114.565 210.338 114.104C211.25 113.975 212.18 114.091 213.032 114.442C213.884 114.793 214.626 115.365 215.183 116.099C215.739 116.834 216.089 117.703 216.196 118.618C216.303 119.533 216.164 120.46 215.793 121.303Z" fill="#CE7A63"/>
<path d="M207.738 121.216C205.532 117.954 207.424 116.249 208.366 115.748C206.301 115.153 204.797 114.585 204.964 112.68C205.034 112.234 205.197 111.808 205.442 111.43C205.687 111.051 206.01 110.728 206.388 110.482C206.766 110.236 207.192 110.073 207.638 110.002C208.083 109.932 208.539 109.956 208.975 110.073C208.487 110.474 210.626 113.114 212.397 112.279C213.588 111.831 214.898 111.816 216.099 112.238C217.299 112.66 218.312 113.491 218.961 114.585C220.405 117.179 219.964 121.938 216.194 124.057C217.604 126.236 212.992 129.244 209.723 128.068C206.454 126.891 205.064 122.272 207.738 121.216Z" fill="#263238"/>
<path d="M221.367 113.804C222.216 116.197 221.213 118.396 219.101 118.837C217.156 119.238 214.682 118.115 214.475 115.829C214.295 113.864 215.017 111.558 216.741 110.802C218.62 109.98 220.538 111.451 221.367 113.804Z" fill="white"/>
<path d="M228.52 112.86C228.619 113.742 228.518 114.633 228.225 115.47C227.932 116.307 227.455 117.067 226.828 117.694C226.202 118.322 225.442 118.8 224.605 119.094C223.769 119.387 222.877 119.489 221.996 119.391C218.393 119.137 214.643 116.37 215.465 112.86C216.134 109.832 218.6 106.704 221.996 106.33C225.679 105.922 228.279 108.957 228.52 112.86Z" fill="#263238"/>
<path d="M208.667 121.416C208.47 121.748 208.206 122.034 207.892 122.257C207.578 122.481 207.22 122.636 206.842 122.713C205.9 122.867 205.606 121.771 206.02 120.748C206.395 119.832 207.357 118.649 208.206 118.97C209.055 119.291 209.262 120.541 208.667 121.416Z" fill="#CE7A63"/>
<path d="M215.619 132.834C218.353 133.255 219.456 134.084 221.688 139.585C220.672 141.637 215.92 143.596 215.92 143.596C215.92 143.596 212.771 136.477 215.619 132.834Z" fill="#263238"/>
<path d="M199.295 159.899C204.905 160.528 210.569 160.528 216.18 159.899C216.238 159.889 216.293 159.866 216.341 159.831C216.389 159.796 216.428 159.751 216.456 159.699C216.484 159.647 216.499 159.589 216.501 159.53C216.503 159.471 216.491 159.412 216.467 159.358C216.333 159.037 216.193 158.689 216.059 158.389C216.032 158.317 215.982 158.257 215.916 158.217C215.851 158.177 215.774 158.16 215.698 158.168C210.305 158.76 204.862 158.76 199.468 158.168C199.421 158.163 199.372 158.168 199.326 158.183C199.28 158.197 199.238 158.221 199.201 158.252C199.164 158.283 199.134 158.321 199.112 158.364C199.09 158.407 199.077 158.454 199.074 158.502L198.974 159.512C198.971 159.604 199.002 159.695 199.061 159.766C199.12 159.837 199.203 159.885 199.295 159.899Z" fill="#263238"/>
</g>
<defs>
<clipPath id="clip0_5357_9870">
<rect width="281.417" height="250" fill="white" transform="translate(0.706055)"/>
</clipPath>
</defs>
</svg>
