<svg width="222" height="120" viewBox="0 0 222 120" fill="none" xmlns="http://www.w3.org/2000/svg">
<path d="M130.112 118.828C126.656 117.092 123.595 114.663 121.118 111.693C120.475 110.914 119.873 110.102 119.314 109.26C118.9 108.638 117.961 107.568 117.854 106.828C117.66 105.369 120.058 103.793 121.22 103.38C122.383 102.966 124.805 102.679 125.71 103.701C126.425 104.508 126.513 106.566 126.878 107.592C127.919 110.542 129.477 113.282 131.479 115.686C131.94 116.157 132.301 116.716 132.539 117.33C132.652 117.64 132.658 117.979 132.558 118.293C132.458 118.607 132.256 118.879 131.985 119.067C131.421 119.397 130.711 119.125 130.112 118.828Z" fill="#FF725E"/>
<path d="M221.613 55.5258C207.807 58.2324 193.584 57.9804 179.883 54.7865C176.385 53.9644 167.698 51.9944 164.167 53.405C162.362 54.1298 160.679 55.4528 158.957 56.5862C152.775 60.6527 150.98 63.2648 144.462 62.2481L133.099 100.422C136.455 96.176 139.88 91.8663 143.888 89.0694C147.896 86.2725 152.643 85.178 156.505 87.5518C161.175 90.4703 167.328 101.279 171.672 98.9048C174.848 97.2996 171.103 88.2279 170.826 87.7755C174.007 92.951 180.608 103.103 185.973 97.538C187.456 95.0767 184.421 88.7192 184.421 88.7192C187.058 92.8683 190.808 94.9064 194.111 94.5805C196.917 94.3081 198.42 90.7864 196.878 88.2036C196.223 87.0956 195.439 86.0686 194.544 85.144C197.948 88.3884 202.438 89.6871 207.147 87.7025C210.921 86.1119 210.853 80.9462 208.416 77.9741L204.525 73.6596C212.225 72.5797 219.083 65.658 221.613 55.5258Z" fill="#E0E0E0"/>
<g opacity="0.3">
<path d="M151.179 61.707L147.623 62.4513L143.897 89.0682C143.897 89.0682 146.699 87.1906 148.119 86.8745C150.011 83.5259 151.261 79.8538 151.806 76.0467C152.487 71.2555 153.003 66.1918 151.179 61.707Z" fill="black"/>
</g>
<g opacity="0.3">
<path d="M189.626 79.3012C187.138 78.9037 184.847 77.7087 183.098 75.8962C183.339 77.0933 183.44 78.3143 183.4 79.5347C183.365 80.7469 182.903 81.9081 182.096 82.8131C180.807 84.107 178.929 83.9076 177.353 83.0709C175.749 82.176 174.366 80.9327 173.306 79.4325C172.212 77.9392 170.908 76.1929 169.824 74.8066C170.008 76.6356 170.796 79.272 171.04 81.0863C171.297 83.1439 171.497 84.7491 170.378 86.1305C169.332 87.4244 168.515 87.4001 167.002 86.8845C165.49 86.3689 162.746 83.7227 161.52 82.6234L159.385 79.9773C160.801 83.9234 163.641 87.1975 167.348 89.1561C168.846 89.9149 170.728 90.3721 172.056 89.302C173.486 88.154 173.545 85.897 173.467 83.9514C175.038 84.9242 176.633 85.897 178.385 86.3202C180.136 86.7434 182.096 86.6218 183.56 85.4885C185.024 84.3551 185.812 82.0835 185.019 80.3178C186.994 81.2469 189.154 81.8549 191.294 81.6117C192.398 81.5025 193.46 81.1307 194.391 80.5273C195.322 79.924 196.094 79.1066 196.645 78.1435C194.454 79.161 192.027 79.5613 189.626 79.3012Z" fill="black"/>
</g>
<path d="M199.184 76.2902L199.125 76.3485L198.945 76.5139C198.78 76.655 198.556 76.8836 198.221 77.1365C197.254 77.8691 196.175 78.4392 195.025 78.8244L194.451 79.0141C194.251 79.0725 194.042 79.1065 193.833 79.1552C193.624 79.2038 193.405 79.2573 193.181 79.2914L192.491 79.3741C192.252 79.4094 192.012 79.4272 191.771 79.4276C191.528 79.4276 191.284 79.4276 191.022 79.4276C190.492 79.4114 189.964 79.3627 189.441 79.2816C188.882 79.1952 188.33 79.0734 187.787 78.9168C187.219 78.7306 186.663 78.508 186.123 78.2504C184.96 77.6852 183.901 76.927 182.991 76.008L183.176 75.9107C183.517 77.2658 183.65 78.6649 183.57 80.0599C183.496 80.8066 183.269 81.5302 182.903 82.1856C182.529 82.884 181.916 83.4245 181.177 83.7081C180.405 83.9489 179.579 83.9489 178.808 83.7081C178.024 83.5005 177.277 83.1723 176.594 82.7352C175.236 81.7835 174.027 80.6361 173.005 79.3303C171.667 77.6723 170.506 75.879 169.541 73.9797L169.775 73.897C170.222 75.9642 170.636 77.9732 170.986 79.9189C171.183 80.8701 171.296 81.837 171.322 82.8082C171.315 83.7488 171.094 84.6755 170.675 85.5176C170.483 85.928 170.197 86.2881 169.842 86.5692C169.487 86.8504 169.071 87.0449 168.627 87.1373C167.78 87.2331 166.926 87.0486 166.195 86.612C164.93 85.8749 163.783 84.9536 162.79 83.8783C161.357 82.3589 160.041 80.7329 158.855 79.0141C158.431 78.411 158.12 77.9391 157.911 77.6181L157.678 77.2484C157.622 77.1673 157.598 77.1235 157.605 77.1171L157.697 77.2338L157.945 77.5889L158.918 78.9606C160.128 80.6571 161.457 82.2648 162.897 83.7713C163.896 84.8239 165.043 85.7252 166.302 86.4466C166.994 86.8498 167.797 87.0203 168.593 86.933C169.005 86.8468 169.391 86.665 169.719 86.4022C170.048 86.1394 170.31 85.8031 170.485 85.4203C170.885 84.6074 171.095 83.7141 171.098 82.8082C171.066 81.8517 170.952 80.8997 170.757 79.9626C170.402 78.0169 169.984 76.0226 169.536 73.9553C169.529 73.9231 169.535 73.8893 169.552 73.8611C169.569 73.8329 169.597 73.8126 169.629 73.8045C169.657 73.8 169.685 73.8041 169.71 73.8163C169.735 73.8285 169.756 73.8482 169.77 73.8726C170.725 75.7421 171.87 77.5089 173.185 79.1454C174.192 80.4343 175.382 81.5698 176.716 82.5163C177.375 82.9498 178.097 83.278 178.856 83.4892C179.58 83.7154 180.355 83.7154 181.079 83.4892C181.765 83.225 182.334 82.7225 182.68 82.0737C183.033 81.4495 183.253 80.7589 183.326 80.0453C183.404 78.6737 183.276 77.2981 182.947 75.9642C182.941 75.9352 182.947 75.9051 182.964 75.8805C182.98 75.8559 183.006 75.8388 183.035 75.8329C183.052 75.8311 183.07 75.8332 183.087 75.8391C183.104 75.845 183.119 75.8545 183.132 75.867C184.023 76.7697 185.059 77.5177 186.196 78.0802C186.725 78.3389 187.271 78.56 187.831 78.7417C188.364 78.9002 188.906 79.0237 189.455 79.1114C189.969 79.197 190.487 79.2507 191.007 79.2719H191.751C191.989 79.2723 192.226 79.2577 192.461 79.2281L193.142 79.1503C193.366 79.1211 193.58 79.0628 193.789 79.0238C193.999 78.9849 194.203 78.946 194.402 78.8876L194.971 78.7125C196.114 78.3401 197.193 77.7919 198.167 77.0879C198.503 76.8447 198.736 76.6258 198.911 76.4944L199.101 76.3437C199.145 76.3047 199.184 76.2853 199.184 76.2902Z" fill="#263238"/>
<g opacity="0.3">
<path d="M167.596 63.4922C166.769 64.5818 165.806 64.825 164.726 65.7394L155.712 72.024C158.475 70.521 161.593 69.2806 164.356 67.7776C165.092 67.2296 165.967 66.8979 166.881 66.8197C167.795 66.7415 168.713 66.9199 169.532 67.3349C174.162 68.8915 178.89 70.2534 183.73 70.5064C188.57 70.7593 193.551 69.9032 197.725 67.223C187.471 69.8643 176.964 68.7844 167.596 63.4922Z" fill="black"/>
</g>
<path d="M206.743 63.7697L206.611 63.8427L206.213 64.047L204.666 64.8009C203.99 65.1123 203.134 65.4333 202.156 65.8419C201.669 66.017 201.115 66.1921 200.546 66.3867L199.665 66.6785L198.722 66.9363C195.7 67.7866 192.591 68.2924 189.455 68.4442C185.622 68.6262 181.782 68.2991 178.034 67.4714C174.387 66.6472 170.866 65.3385 167.566 63.58H167.693C164.274 66.3316 160.712 68.9003 157.021 71.2752C155.664 72.1508 154.589 72.8123 153.82 73.2598L152.954 73.7462L152.731 73.8727C152.677 73.9019 152.653 73.9116 152.648 73.9068L152.721 73.8532L152.935 73.7122L153.781 73.182C154.521 72.6956 155.601 72.0292 156.943 71.1439C159.633 69.3684 163.383 66.7661 167.547 63.3611L167.605 63.3125L167.673 63.3514C170.978 65.0758 174.496 66.3548 178.136 67.1552C181.848 67.993 185.653 68.3429 189.455 68.1962C192.569 68.0511 195.657 67.5617 198.663 66.7369L199.607 66.4937L200.487 66.2067L202.097 65.6814C203.07 65.2922 203.936 64.9809 204.617 64.6842L206.179 63.974L206.587 63.7989C206.637 63.782 206.69 63.7722 206.743 63.7697Z" fill="#263238"/>
<path d="M61.9354 26.8212C60.7729 25.0799 59.7271 23.178 58.2921 21.7722C55.5001 19.0288 46.2435 17.2339 42.5029 16.5383C27.9697 13.8403 14.1374 8.21338 1.84786 0C-0.151327 10.2683 3.44819 19.4033 10.4137 23.5574L4.76639 25.8825C1.10364 27.5849 -1.22145 32.24 1.72626 35.2509C5.4036 39.0061 10.3067 39.6725 15.025 38.1305C13.7595 38.5973 12.5518 39.2077 11.4255 39.9497C8.80854 41.6619 8.71126 45.4901 11.3087 46.9007C14.344 48.5594 18.8726 48.2578 23.2407 45.5825C23.2407 45.5825 17.5203 50.1208 17.89 52.9761C20.6383 60.2724 31.4709 53.7446 36.8118 50.3397C36.3254 50.6364 28.7518 57.3539 31.1109 60.1313C34.2678 64.0811 44.9545 56.7799 50.7477 56.0551C55.5195 55.4617 59.6298 58.4435 62.2759 62.651C64.922 66.8585 66.3424 72.1897 67.7287 77.4479L77.5495 38.7191C70.7688 36.9388 66.1284 33.0815 61.9354 26.8212Z" fill="#E0E0E0"/>
<g opacity="0.3">
<path d="M22.3407 34.8384C24.9171 35.4943 27.6322 35.3484 30.1234 34.42C29.3715 35.4044 28.7381 36.4737 28.2361 37.6061C27.7381 38.7182 27.6756 39.9767 28.061 41.1327C28.7371 42.84 30.639 43.4334 32.5264 43.3264C34.4654 43.1826 36.3512 42.6254 38.057 41.692C39.7692 40.7873 41.7975 39.7464 43.4562 38.9194C42.4834 40.51 40.5377 42.5773 39.526 44.1339C38.378 45.9044 37.4781 47.2859 37.95 48.9981C38.3975 50.6081 39.2001 50.9438 40.8685 51.08C42.5369 51.2162 46.3894 49.9612 48.0529 49.4748L51.2779 47.9474C48.1046 50.9881 43.9441 52.787 39.5551 53.0159C37.7748 53.0889 35.7562 52.7241 34.939 51.2064C34.0634 49.5672 34.9974 47.4804 35.9118 45.7488C33.9662 45.9725 32.0205 46.1963 30.1234 45.8753C28.2264 45.5542 26.4072 44.6154 25.483 42.9567C24.5588 41.298 24.802 38.9292 26.3342 37.645C24.0189 37.6742 21.6646 37.3337 19.7043 36.2295C17.744 35.1254 16.2215 33.1554 16.0562 30.8789C17.7597 32.7365 19.9298 34.1037 22.3407 34.8384Z" fill="black"/>
</g>
<path d="M14.4365 28.1543C14.4365 28.1543 14.4365 28.1786 14.4852 28.2273L14.6019 28.451C14.7186 28.6504 14.8451 28.9374 15.0883 29.3266C15.7385 30.3985 16.5601 31.3565 17.5204 32.1624C19.2477 33.5946 21.3175 34.5535 23.5269 34.9449C25.7363 35.3363 28.0095 35.1468 30.1236 34.3951C30.137 34.3896 30.1513 34.387 30.1658 34.3872C30.1802 34.3875 30.1944 34.3907 30.2076 34.3966C30.2208 34.4025 30.2327 34.411 30.2425 34.4216C30.2523 34.4322 30.2598 34.4447 30.2647 34.4583C30.2718 34.4744 30.2754 34.4918 30.2754 34.5094C30.2754 34.527 30.2718 34.5444 30.2647 34.5605C29.3494 35.6443 28.6137 36.8677 28.0855 38.1843C27.8441 38.8821 27.7659 39.6259 27.8569 40.3586C27.9346 41.1177 28.3065 41.8161 28.893 42.3043C29.5271 42.7651 30.2726 43.0488 31.0527 43.1263C31.8592 43.2419 32.6782 43.2419 33.4848 43.1263C35.1449 42.8228 36.7554 42.2925 38.2711 41.5503C40.2773 40.6085 42.1839 39.4678 43.9623 38.1454C43.9752 38.135 43.9901 38.1274 44.006 38.123C44.022 38.1186 44.0387 38.1175 44.0551 38.1198C44.0715 38.1221 44.0872 38.1277 44.1014 38.1363C44.1155 38.1448 44.1278 38.1562 44.1374 38.1697C44.1552 38.1908 44.165 38.2175 44.165 38.2451C44.165 38.2727 44.1552 38.2994 44.1374 38.3205C42.7803 40.0376 41.4767 41.7254 40.2752 43.3549C39.6655 44.1348 39.1359 44.9741 38.6943 45.86C38.297 46.7082 38.1293 47.6458 38.2079 48.5791C38.2534 49.02 38.3999 49.4444 38.636 49.8195C38.8715 50.1765 39.197 50.4651 39.5796 50.6561C40.3439 50.9903 41.1834 51.1145 42.0117 51.0161C42.7897 50.9494 43.5599 50.811 44.3125 50.6026C45.0373 50.4178 45.7182 50.1794 46.3652 49.9508C48.3789 49.1816 50.3387 48.2781 52.2314 47.2463L53.7636 46.4145L54.1576 46.1956L54.2938 46.1275C54.2938 46.1275 54.2549 46.1616 54.1674 46.2151L53.7831 46.4534C53.4426 46.6577 52.9367 46.9399 52.2752 47.3241C50.3975 48.3879 48.4469 49.3177 46.4381 50.1065C45.7912 50.34 45.1054 50.5929 44.3709 50.7777C43.6091 50.9919 42.8291 51.1352 42.0409 51.2058C41.1787 51.3127 40.3037 51.1867 39.5067 50.841C39.0934 50.6313 38.7402 50.3199 38.4803 49.9362C38.2189 49.5365 38.0525 49.0823 37.9939 48.6083C37.9087 47.6353 38.0763 46.6568 38.4803 45.7676C38.9263 44.865 39.4642 44.0109 40.0855 43.2187C41.2869 41.5649 42.5857 39.8868 43.9428 38.1648L44.1131 38.3448C42.3228 39.6865 40.4014 40.8436 38.3782 41.7984C36.8385 42.553 35.2014 43.0899 33.5139 43.3939C32.6863 43.5106 31.8463 43.5106 31.0186 43.3939C30.1955 43.306 29.4102 43.0023 28.7422 42.5134C28.1131 41.9869 27.7122 41.2373 27.6234 40.4218C27.5293 39.6512 27.6125 38.8693 27.8666 38.1357C28.4075 36.7985 29.1597 35.5569 30.0944 34.4583L30.216 34.6286C27.7888 35.4956 25.1573 35.6142 22.6619 34.969C20.7408 34.4936 18.9581 33.5739 17.4572 32.284C16.486 31.4569 15.6635 30.4699 15.0251 29.3655C14.8068 28.9729 14.6103 28.5686 14.4365 28.1543Z" fill="#263238"/>
<g opacity="0.3">
<path d="M50.5581 29.5307C50.884 30.8635 51.7061 31.4764 52.3433 32.7605L58.3019 42.2117C56.2882 39.6969 53.822 37.2842 51.8082 34.7694C51.2737 33.9895 50.585 33.3273 49.7847 32.8238C48.9055 32.4407 47.9611 32.2294 47.0024 32.2011C41.8463 31.7147 36.6805 30.9851 31.8942 29.2291C27.1078 27.4731 22.6522 24.6033 19.7969 20.4492C28.5521 27.2206 39.529 30.4613 50.5581 29.5307Z" fill="black"/>
</g>
<path d="M12.6074 13.625C12.6074 13.625 12.6512 13.6591 12.7242 13.732L13.0452 14.0676C13.3322 14.379 13.7359 14.8167 14.2564 15.3712C14.7769 15.9258 15.487 16.5727 16.2702 17.3413L17.603 18.4843L18.3326 19.107L19.1401 19.7199C21.6977 21.703 24.4601 23.407 27.38 24.8029C30.9563 26.5132 34.7304 27.7745 38.6163 28.5581C42.542 29.3556 46.5526 29.6546 50.5531 29.4483H50.6261L50.6601 29.5164C53.2236 34.3319 55.6994 38.2719 57.5187 40.9813C58.4283 42.3433 59.1676 43.4134 59.6784 44.1333L60.2621 44.9651L60.408 45.1791L60.4518 45.2569C60.4518 45.2569 60.4518 45.2569 60.3885 45.1937C60.3253 45.1305 60.2961 45.0721 60.228 44.9845L59.6151 44.1771C59.0898 43.462 58.331 42.4114 57.4019 41.0591C54.8822 37.3751 52.5635 33.5577 50.4558 29.6234L50.5628 29.6866C46.5435 29.9076 42.5124 29.6134 38.5677 28.8111C34.6616 28.0291 30.8688 26.761 27.2779 25.0364C24.3422 23.6254 21.5694 21.8981 19.0087 19.8852L18.2353 19.2432L17.5105 18.6108L16.1826 17.4434C15.4092 16.6651 14.7234 15.9841 14.1932 15.4393L13.016 14.1017L12.7144 13.7466C12.6743 13.7103 12.6384 13.6695 12.6074 13.625Z" fill="#263238"/>
<g opacity="0.3">
<path d="M59.8389 59.5387C59.8389 59.5387 66.7217 43.2193 72.6852 36.9785C72.6852 36.9785 76.8928 38.8658 78.746 39.1042C80.5993 39.3425 78.5855 39.6392 78.104 39.6392C77.6224 39.6392 62.986 64.5537 62.986 64.5537C62.986 64.5537 61.1619 60.9104 59.8389 59.5387Z" fill="black"/>
</g>
<path d="M158.209 55.7627C160.49 54.1016 157.045 45.4874 150.515 36.5222C143.984 27.5571 136.842 21.636 134.562 23.297C132.281 24.9581 135.726 33.5724 142.256 42.5375C148.786 51.5027 155.929 57.4238 158.209 55.7627Z" fill="#FF725E"/>
<path d="M156.992 30.5381C163.558 39.4493 164.118 48.7886 159.424 53.5993C156.184 56.9312 150.021 49.416 143.455 40.5048C136.888 31.5936 130.886 23.5385 134.874 21.1599C141.241 17.3706 150.425 21.6268 156.992 30.5381Z" fill="#FF725E"/>
<g opacity="0.3">
<path d="M158.209 55.7627C160.49 54.1016 157.045 45.4874 150.515 36.5222C143.984 27.5571 136.842 21.636 134.562 23.297C132.281 24.9581 135.726 33.5724 142.256 42.5375C148.786 51.5027 155.929 57.4238 158.209 55.7627Z" fill="black"/>
</g>
<path d="M84.4275 31.5645C84.4275 31.5645 77.4522 34.6435 64.8247 55.6423L117.071 115.817C117.071 115.817 135.701 104.853 141.115 91.9147L84.4275 31.5645Z" fill="#FF725E"/>
<path d="M138.153 80.0451C138.153 102.231 121.683 120 100.081 120C78.4787 120 58.6084 99.5749 58.6084 77.3698C58.6027 70.6104 60.274 63.9552 63.4726 58.0005C70.1317 45.6017 82.9878 37.2012 97.7507 37.2012C119.338 37.2012 138.153 57.8595 138.153 80.0451Z" fill="#FF725E"/>
<path d="M149.973 67.7104C149.973 90.3971 132.885 108.57 110.471 108.57C88.0563 108.57 67.4466 87.6537 67.4466 64.9816C67.4335 58.0644 69.1597 51.2549 72.4665 45.1794C75.9306 38.7601 81.0637 33.3952 87.324 29.6512C93.5842 25.9072 100.739 23.9231 108.034 23.9082C130.453 23.9033 149.973 45.0237 149.973 67.7104Z" fill="#FF725E"/>
<path d="M147.623 69.2912C147.623 91.4817 131.158 109.246 109.551 109.246C87.9443 109.246 68.0837 88.8161 68.0837 66.6208C68.0837 44.4254 85.5949 26.4473 107.202 26.4473C128.809 26.4473 147.623 47.1055 147.623 69.2912Z" fill="white"/>
<path d="M147.623 69.2909C147.623 69.2909 147.623 69.0721 147.594 68.6391C147.565 68.2062 147.594 67.5593 147.502 66.6935C147.332 64.2313 146.941 61.7894 146.334 59.3971C146.14 58.6189 145.897 57.8066 145.644 56.965C145.391 56.1235 145.079 55.2285 144.705 54.3238C143.946 52.3449 143.042 50.4248 142 48.5792C139.48 44.0591 136.21 39.9998 132.33 36.5743C130.077 34.5873 127.621 32.8413 125.005 31.3647C123.613 30.5843 122.178 29.8859 120.705 29.2731C119.17 28.6463 117.595 28.1215 115.991 27.702C109.488 25.946 101.978 26.1795 94.8078 28.6359C87.2669 31.2662 80.707 36.1326 76.0027 42.5864C73.5292 45.9853 71.5994 49.7481 70.2824 53.7401C68.2131 59.9256 67.6871 66.5233 68.7502 72.9586C69.1174 75.0729 69.6459 77.156 70.3311 79.1896C71.6889 83.1685 73.6033 86.9351 76.0173 90.3773C80.5661 96.9301 86.7531 102.176 93.9614 105.593C97.3133 107.155 100.873 108.225 104.531 108.769C107.983 109.272 111.489 109.272 114.941 108.769C121.166 107.895 127.061 105.433 132.058 101.618C136.176 98.4791 139.618 94.5397 142.175 90.0368C144.096 86.6352 145.529 82.9805 146.432 79.1799C146.997 76.7828 147.356 74.3418 147.507 71.8836C147.58 71.0372 147.565 70.3903 147.589 69.9379C147.614 69.4855 147.618 69.2812 147.618 69.2812C147.618 69.2812 147.618 69.505 147.618 69.9379C147.618 70.3708 147.618 71.0226 147.565 71.8836C147.435 74.3523 147.09 76.805 146.534 79.2139C145.643 83.0286 144.218 86.6983 142.302 90.1146C139.751 94.6528 136.304 98.6247 132.17 101.789C128.263 104.761 123.806 106.929 119.056 108.168C114.306 109.407 109.358 109.693 104.497 109.007C100.817 108.462 97.2338 107.389 93.8592 105.821C86.6139 102.39 80.3938 97.1204 75.8179 90.5378C73.3865 87.0809 71.4589 83.296 70.0927 79.2966C69.4015 77.2508 68.8697 75.1546 68.5021 73.0267C67.4301 66.5523 67.9595 59.914 70.0441 53.6914C71.3679 49.6769 73.3111 45.8939 75.8033 42.4794C80.538 35.9866 87.1408 31.0927 94.7299 28.4511C101.944 25.9898 109.503 25.7611 116.045 27.5414C117.657 27.9635 119.24 28.4916 120.783 29.1223C122.263 29.7406 123.705 30.4455 125.102 31.2334C127.727 32.7191 130.189 34.4766 132.447 36.477C136.325 39.9104 139.593 43.9761 142.112 48.5013C143.153 50.3542 144.054 52.2826 144.807 54.2703C145.181 55.1799 145.449 56.0798 145.741 56.9213C146.033 57.7628 146.227 58.5946 146.422 59.3777C147.015 61.771 147.391 64.213 147.546 66.674C147.614 67.5155 147.589 68.1673 147.609 68.6197C147.628 69.0721 147.623 69.2909 147.623 69.2909Z" fill="#263238"/>
<path d="M117.602 35.9521L115.768 42.689L114.206 42.2658L115.7 36.779L114.352 36.4142L114.693 35.1641L117.602 35.9521Z" fill="#263238"/>
<path d="M122.33 43.107L121.984 44.3765L116.891 42.9902L117.169 41.9834L120.433 40.2371C120.706 40.1011 120.957 39.9239 121.177 39.7118C121.315 39.5623 121.417 39.3823 121.473 39.1864C121.513 39.0704 121.523 38.9466 121.505 38.8256C121.486 38.7045 121.439 38.5897 121.366 38.4909C121.175 38.2652 120.913 38.111 120.622 38.0531C120.348 37.9771 120.061 37.9605 119.781 38.0044C119.51 38.0545 119.257 38.1735 119.046 38.3498L118.098 37.3137C118.479 36.9892 118.941 36.774 119.435 36.6911C119.995 36.5958 120.569 36.6308 121.113 36.7932C121.568 36.9053 121.993 37.1107 122.364 37.3964C122.674 37.636 122.912 37.9578 123.049 38.3255C123.169 38.6954 123.169 39.0937 123.049 39.4637C122.963 39.8205 122.797 40.1531 122.563 40.4365C122.22 40.7897 121.817 41.078 121.371 41.2878L119.426 42.3287L122.33 43.107Z" fill="#263238"/>
<path d="M134.062 46.1474L132.822 53.0205L131.236 52.7335L132.243 47.1397L130.866 46.8916L131.095 45.6172L134.062 46.1474Z" fill="#263238"/>
<path d="M141.358 64.9568L141.13 66.2555L135.949 65.3168L136.134 64.2855L139.237 62.262C139.497 62.1031 139.73 61.9045 139.928 61.6735C140.056 61.5137 140.143 61.325 140.181 61.1238C140.209 61.0053 140.209 60.8818 140.181 60.7634C140.152 60.645 140.095 60.5351 140.016 60.4428C139.804 60.2374 139.53 60.1075 139.237 60.0731C138.957 60.019 138.668 60.0273 138.391 60.0975C138.126 60.1715 137.885 60.3121 137.691 60.506L136.664 59.5332C137.015 59.1742 137.457 58.9184 137.944 58.7939C138.492 58.6524 139.066 58.6357 139.622 58.7452C140.083 58.8181 140.525 58.9836 140.92 59.2316C141.25 59.446 141.515 59.7473 141.684 60.1023C141.842 60.4563 141.886 60.8506 141.811 61.2308C141.747 61.5963 141.601 61.9424 141.383 62.2426C141.073 62.6315 140.696 62.9611 140.269 63.2154L138.42 64.4217L141.358 64.9568Z" fill="#263238"/>
<path d="M140.235 78.5919C140.493 79.0046 140.582 79.5014 140.483 79.9782C140.414 80.3701 140.235 80.7345 139.967 81.0288C139.67 81.343 139.288 81.5643 138.868 81.666C138.331 81.7842 137.775 81.7842 137.238 81.666C136.755 81.579 136.286 81.4286 135.842 81.2185C135.435 81.0305 135.065 80.7719 134.748 80.4549L135.584 79.3507C135.823 79.6034 136.103 79.8139 136.411 79.9733C136.733 80.1425 137.08 80.2606 137.438 80.3235C137.761 80.401 138.1 80.3789 138.411 80.2603C138.532 80.2109 138.639 80.1306 138.72 80.0274C138.801 79.9242 138.854 79.8015 138.873 79.6717C138.975 79.1075 138.595 78.7524 137.739 78.5967L137.015 78.4654L137.199 77.4147L138.902 76.0722L135.983 75.542L136.212 74.2676L141.023 75.1334L140.838 76.1646L138.97 77.6871C139.483 77.8342 139.93 78.1538 140.235 78.5919Z" fill="#263238"/>
<path d="M133.376 92.5904L132.257 92.3861L131.995 93.8453L130.443 93.5681L130.706 92.1088L127.004 91.4424L127.198 90.3723L131.221 86.5977L132.89 86.8992L129.144 90.489L130.988 90.8247L131.221 89.5356L132.719 89.808L132.491 91.0922L133.61 91.2916L133.376 92.5904Z" fill="#263238"/>
<path d="M120.384 98.0292C120.576 98.258 120.713 98.528 120.783 98.8181C120.854 99.1083 120.857 99.4109 120.792 99.7024C120.726 100.107 120.547 100.484 120.277 100.792C119.98 101.114 119.594 101.341 119.168 101.444C118.63 101.573 118.07 101.581 117.529 101.468C117.047 101.38 116.58 101.23 116.137 101.021C115.726 100.836 115.351 100.577 115.033 100.257L115.88 99.1577C116.117 99.4088 116.395 99.6177 116.702 99.7754C117.02 99.9453 117.363 100.063 117.718 100.126C118.042 100.201 118.381 100.177 118.691 100.058C118.812 100.002 118.918 99.9186 118.999 99.8132C119.08 99.7078 119.134 99.5841 119.156 99.453C119.178 99.3219 119.168 99.1874 119.126 99.0613C119.083 98.9351 119.011 98.8213 118.915 98.7296C118.558 98.4816 118.145 98.3277 117.713 98.2821L115.957 97.9659L117.008 94.1621L121.196 94.9161L120.968 96.1953L118.127 95.6846L117.781 96.9688L118.341 97.0709C119.111 97.1488 119.832 97.4868 120.384 98.0292Z" fill="#263238"/>
<path d="M104.103 97.697C104.42 97.9273 104.667 98.2403 104.818 98.6018C104.969 98.975 105.008 99.384 104.93 99.7789C104.861 100.209 104.665 100.609 104.366 100.927C104.072 101.234 103.698 101.453 103.286 101.559C102.837 101.673 102.369 101.686 101.914 101.598C101.493 101.547 101.087 101.405 100.725 101.182C100.364 100.96 100.054 100.662 99.8178 100.309C99.3603 99.4941 99.2349 98.5341 99.4676 97.6289C99.5745 96.9326 99.85 96.273 100.27 95.7075C100.642 95.2217 101.15 94.8576 101.729 94.6617C102.347 94.4699 103.002 94.4348 103.636 94.5596C103.992 94.6221 104.338 94.7283 104.667 94.8758C104.958 94.9933 105.228 95.1576 105.465 95.3622L104.667 96.4226C104.325 96.1142 103.898 95.9144 103.442 95.8486C103.193 95.793 102.936 95.7876 102.686 95.8327C102.435 95.8778 102.196 95.9725 101.982 96.1113C101.542 96.449 101.249 96.944 101.165 97.4927C101.431 97.3231 101.728 97.209 102.039 97.1572C102.35 97.1054 102.668 97.1169 102.975 97.1911C103.385 97.2702 103.771 97.4433 104.103 97.697ZM102.926 100.27C103.044 100.191 103.145 100.089 103.223 99.9703C103.301 99.8514 103.354 99.718 103.379 99.5781C103.404 99.4382 103.4 99.2946 103.368 99.1561C103.337 99.0176 103.277 98.887 103.194 98.772C102.989 98.5354 102.706 98.3815 102.396 98.3391C102.088 98.2741 101.766 98.3225 101.491 98.4753C101.364 98.5454 101.255 98.643 101.171 98.7608C101.087 98.8786 101.03 99.0137 101.005 99.1563C100.976 99.295 100.979 99.4383 101.011 99.5761C101.044 99.7139 101.107 99.8429 101.194 99.954C101.407 100.2 101.704 100.358 102.026 100.397C102.331 100.468 102.652 100.423 102.926 100.27Z" fill="#263238"/>
<path d="M92.6238 87.6475L92.4389 88.6787L88.8345 94.0585L87.1078 93.7472L90.5759 88.6204L88.2995 88.2069L88.1001 89.3257L86.6846 89.0727L87.1175 86.6406L92.6238 87.6475Z" fill="#263238"/>
<path d="M83.4402 78.5953C83.5734 78.9101 83.6073 79.258 83.5375 79.5925C83.4762 79.9973 83.2768 80.3685 82.9732 80.6432C82.6478 80.9304 82.2485 81.1208 81.8204 81.1928C81.3031 81.2925 80.7715 81.2925 80.2541 81.1928C79.7386 81.107 79.2437 80.9255 78.7949 80.6578C78.4229 80.4376 78.1184 80.1196 77.9145 79.7384C77.7331 79.3743 77.6783 78.9601 77.7588 78.5613C77.8132 78.2224 77.9673 77.9075 78.2014 77.6566C78.4454 77.4044 78.7529 77.2229 79.0916 77.1312C78.872 76.9434 78.7045 76.7022 78.6052 76.4308C78.5072 76.1563 78.487 75.86 78.5468 75.5747C78.6064 75.2013 78.7897 74.8587 79.0673 74.6018C79.3658 74.3374 79.7307 74.1592 80.1228 74.0862C81.0723 73.9251 82.0483 74.097 82.8857 74.5727C83.2313 74.7741 83.5129 75.0692 83.698 75.4239C83.8694 75.7633 83.9209 76.1508 83.8439 76.5232C83.7992 76.8108 83.6783 77.0813 83.4937 77.3063C83.3017 77.5257 83.0574 77.693 82.7835 77.7928C83.071 77.996 83.2979 78.2733 83.4402 78.5953ZM81.4702 79.9135C81.5986 79.8519 81.71 79.7599 81.7947 79.6455C81.8795 79.531 81.935 79.3976 81.9566 79.2569C81.9875 79.1192 81.9837 78.976 81.9455 78.8401C81.9072 78.7042 81.8359 78.58 81.7377 78.4786C81.4941 78.2376 81.1778 78.0837 80.8378 78.0408C80.5119 77.9628 80.1691 77.9971 79.865 78.1381C79.739 78.2052 79.6298 78.2999 79.5458 78.4153C79.4617 78.5306 79.4048 78.6635 79.3796 78.804C79.3543 78.9445 79.3612 79.0889 79.3998 79.2263C79.4384 79.3637 79.5076 79.4906 79.6023 79.5974C79.8408 79.8364 80.1525 79.9888 80.4876 80.0303C80.8191 80.1004 81.1644 80.0593 81.4702 79.9135ZM80.4974 75.3363C80.3892 75.3942 80.2963 75.4768 80.2261 75.5774C80.1559 75.678 80.1105 75.7937 80.0936 75.9152C80.0665 76.0329 80.0683 76.1554 80.0988 76.2723C80.1293 76.3892 80.1876 76.4969 80.2687 76.5864C80.4644 76.7888 80.7238 76.9176 81.0032 76.9512C81.2789 77.0146 81.5678 76.9856 81.8253 76.8686C81.9339 76.8132 82.0276 76.7326 82.0987 76.6336C82.1698 76.5346 82.2161 76.42 82.2339 76.2994C82.2599 76.179 82.2572 76.0542 82.226 75.935C82.1947 75.8158 82.1357 75.7057 82.0539 75.6136C81.8534 75.4116 81.5918 75.2816 81.3097 75.2439C81.0364 75.1788 80.749 75.2115 80.4974 75.3363Z" fill="#263238"/>
<path d="M82.4428 60.939C82.9011 61.75 83.03 62.7061 82.8028 63.6095C82.7014 64.3139 82.4274 64.9823 82.0051 65.5552C81.6354 66.0432 81.1267 66.4078 80.5458 66.601C79.9269 66.7937 79.2694 66.8272 78.6342 66.6983C78.2805 66.6373 77.9358 66.5327 77.6078 66.387C77.3183 66.27 77.0503 66.1057 76.8149 65.9005L77.6127 64.8401C77.9531 65.1521 78.3809 65.3524 78.8385 65.4141C79.0871 65.4713 79.3448 65.477 79.5957 65.431C79.8466 65.385 80.0855 65.2882 80.2977 65.1466C80.7373 64.8052 81.0311 64.3098 81.1198 63.7603C80.853 63.9318 80.5544 64.0477 80.2419 64.1012C79.9293 64.1547 79.6091 64.1446 79.3006 64.0716C78.8834 64.0021 78.4885 63.8355 78.1477 63.5852C77.8314 63.3543 77.5842 63.0415 77.4327 62.6804C77.2772 62.3067 77.2382 61.8947 77.3208 61.4984C77.3868 61.0694 77.5819 60.6707 77.8802 60.3553C78.1743 60.0482 78.5483 59.8292 78.9601 59.723C79.4089 59.6098 79.8772 59.5965 80.3318 59.6841C80.7537 59.7273 81.1611 59.862 81.5257 60.0787C81.8903 60.2954 82.2033 60.589 82.4428 60.939ZM80.7793 62.7777C80.9014 62.7049 81.006 62.6061 81.0859 62.4885C81.1657 62.3708 81.2188 62.2371 81.2414 62.0967C81.2725 61.9584 81.272 61.8149 81.24 61.6768C81.208 61.5387 81.1453 61.4095 81.0565 61.299C80.8445 61.0551 80.5502 60.8975 80.2296 60.8564C79.9305 60.7901 79.6175 60.835 79.3492 60.9828C79.231 61.0618 79.13 61.1638 79.0522 61.2827C78.9744 61.4016 78.9214 61.5351 78.8965 61.675C78.8715 61.8149 78.875 61.9584 78.9068 62.0969C78.9387 62.2354 78.9981 62.366 79.0817 62.481C79.2939 62.7083 79.5744 62.8602 79.8808 62.9138C80.1871 62.9673 80.5025 62.9196 80.7793 62.7777Z" fill="#263238"/>
<path d="M85.1573 45.3927L83.4791 52.1686L81.9128 51.7794L83.2797 46.2634L81.9226 45.9278L82.2339 44.668L85.1573 45.3927Z" fill="#263238"/>
<path d="M86.1398 52.5095C85.761 52.103 85.5062 51.5967 85.4053 51.0503C85.2037 49.7218 85.5379 48.3676 86.3344 47.2854C86.5931 46.9692 86.9153 46.7108 87.2801 46.527C87.645 46.3431 88.0444 46.238 88.4524 46.2182C88.8605 46.1985 89.2682 46.2647 89.649 46.4125C90.0299 46.5603 90.3755 46.7864 90.6635 47.0762C91.0423 47.4828 91.2971 47.9891 91.398 48.5355C91.5918 49.8643 91.2565 51.2161 90.4641 52.3004C90.2054 52.6166 89.8832 52.875 89.5183 53.0588C89.1535 53.2426 88.7541 53.3478 88.346 53.3675C87.9379 53.3872 87.5303 53.321 87.1494 53.1732C86.7685 53.0254 86.4229 52.7993 86.1349 52.5095H86.1398ZM88.9708 51.6777C89.3649 51.2405 89.6279 50.701 89.7296 50.1212C89.9131 49.5611 89.9316 48.96 89.7831 48.3895C89.7213 48.1987 89.612 48.0267 89.4654 47.8897C89.3188 47.7527 89.1398 47.6553 88.9452 47.6067C88.7505 47.558 88.5467 47.5597 88.3529 47.6116C88.1591 47.6634 87.9817 47.7638 87.8374 47.9031C87.4441 48.341 87.1812 48.8802 87.0786 49.4597C86.895 50.0215 86.8764 50.6242 87.0251 51.1962C87.0828 51.3867 87.1903 51.5584 87.3365 51.6935C87.4828 51.8286 87.6624 51.9222 87.8569 51.9647C88.0513 52.0196 88.2569 52.022 88.4525 51.9716C88.6482 51.9212 88.827 51.8198 88.9708 51.6777Z" fill="#263238"/>
<path d="M100.343 35.8537L98.6603 42.6295L97.094 42.2404L98.4608 36.7244L97.1086 36.3887L97.4199 35.1289L100.343 35.8537Z" fill="#263238"/>
<path d="M104.137 36.7736L102.454 43.5494L100.888 43.1603L102.255 37.6443L100.898 37.3087L101.214 36.0488L104.137 36.7736Z" fill="#263238"/>
<g opacity="0.3">
<path d="M69.1832 69.2328C69.1832 47.0472 86.6944 29.0642 108.306 29.0642C124.236 29.0642 138.644 40.3054 145.114 55.1023C139.276 39.0504 124.11 26.4473 107.246 26.4473C85.6437 26.4473 68.1277 44.4448 68.1277 66.6208C68.1629 72.2317 69.3742 77.7729 71.6834 82.8867C70.0507 78.5186 69.2043 73.896 69.1832 69.2328Z" fill="black"/>
</g>
<path d="M111.283 17.6184C111.137 16.8352 102.357 17.7837 91.6655 19.744C80.974 21.7043 72.4276 23.9272 72.5686 24.7104C72.7097 25.4935 81.4944 24.5401 92.186 22.5847C102.877 20.6293 111.424 18.4015 111.283 17.6184Z" fill="#FF725E"/>
<path d="M91.9183 19.6905L72.5685 24.7007C72.5685 24.7007 70.4429 11.7132 89.1457 7.97266" fill="#FF725E"/>
<path d="M111.283 17.619C111.283 17.619 109.337 5.02074 91.9183 7.37015C91.4027 7.44312 89.1458 7.97331 89.1458 7.97331L91.4319 19.7642L111.283 17.619Z" fill="#FF725E"/>
<path d="M85.0405 9.35447C84.8909 8.28032 85.1618 7.18987 85.7967 6.31064C86.4317 5.43141 87.3816 4.83131 88.4483 4.63554C89.515 4.43977 90.6161 4.66345 91.5219 5.25991C92.4276 5.85638 93.0681 6.77955 93.3097 7.83683" fill="#FF725E"/>
<path d="M153.46 27.8427C153.906 27.515 154.411 27.2783 154.948 27.1459C155.485 27.0135 156.042 26.9882 156.589 27.0713C157.135 27.1544 157.66 27.3443 158.133 27.6303C158.606 27.9162 159.018 28.2925 159.346 28.7378C159.674 29.183 159.911 29.6884 160.043 30.2251C160.175 30.7619 160.201 31.3194 160.118 31.866C160.034 32.4125 159.845 32.9373 159.559 33.4104C159.273 33.8836 158.896 34.2958 158.451 34.6234" fill="#FF725E"/>
<g opacity="0.2">
<path d="M114.031 73.2359L114.196 71.3631L110.247 71.4556C110.247 71.4215 110.247 71.3923 110.247 71.3631C110.247 70.7269 110.035 70.1088 109.644 69.6072L112.241 55.7101C112.285 55.4831 112.27 55.2486 112.197 55.0291C112.114 54.8018 111.977 54.5977 111.799 54.4338C111.62 54.2699 111.406 54.1508 111.172 54.0866C110.938 54.0224 110.693 54.0148 110.456 54.0646C110.219 54.1143 109.997 54.2198 109.809 54.3725H109.78C109.527 54.5818 109.355 54.8724 109.293 55.1945L107.075 66.1341L100.095 46.7259L99.7109 46.1909C98.9472 45.1353 97.1912 45.8358 97.4831 47.0859C97.4803 47.1085 97.4803 47.1314 97.4831 47.154C97.8041 48.443 101.72 59.7036 105.027 69.1451C104.71 69.4169 104.454 69.754 104.278 70.1333C104.101 70.5126 104.009 70.9254 104.006 71.3437C104.006 71.4215 104.006 71.4993 104.006 71.582L72.948 72.336L104.565 73.0316C104.831 73.4015 105.174 73.7091 105.57 73.9326C105.967 74.1561 106.407 74.2902 106.861 74.3254C108.496 78.9854 109.687 82.3563 109.687 82.3563L112.513 81.2813L109.595 73.1969L109.634 73.1434L114.031 73.2359Z" fill="black"/>
</g>
<path d="M107.844 70.798L111.2 53.4426C111.261 53.109 111.432 52.8057 111.686 52.5816H111.716C111.904 52.4227 112.128 52.3127 112.368 52.2614C112.609 52.2101 112.858 52.219 113.095 52.2873C113.331 52.3557 113.547 52.4813 113.723 52.6532C113.899 52.825 114.03 53.0377 114.104 53.2723C114.178 53.5031 114.195 53.7486 114.153 53.9873L111.02 71.5423L107.844 70.798Z" fill="#455A64"/>
<path d="M101.618 43.9969C101.458 43.7619 101.221 43.5896 100.948 43.5092C100.676 43.4288 100.384 43.4453 100.122 43.5559C99.8598 43.6665 99.6443 43.8644 99.5118 44.1159C99.3792 44.3675 99.3379 44.6571 99.3947 44.9357V45.0086C99.959 47.3775 111.555 81.9085 111.555 81.9085L114.381 80.78L101.973 44.5563L101.618 43.9969Z" fill="#455A64"/>
<path d="M115.953 72.346L116.118 70.3809L74.8743 71.3975L115.953 72.346Z" fill="#263238"/>
<path d="M109.055 73.5035C110.78 73.5035 112.178 72.1053 112.178 70.3806C112.178 68.656 110.78 67.2578 109.055 67.2578C107.33 67.2578 105.932 68.656 105.932 70.3806C105.932 72.1053 107.33 73.5035 109.055 73.5035Z" fill="#FF725E"/>
<g opacity="0.3">
<path d="M111.283 17.6184C111.137 16.8352 102.357 17.7837 91.6655 19.744C80.974 21.7043 72.4276 23.9272 72.5686 24.7104C72.7097 25.4935 81.4944 24.5401 92.186 22.5847C102.877 20.6293 111.424 18.4015 111.283 17.6184Z" fill="black"/>
</g>
<path d="M95.4303 7.05883C95.4303 7.10261 94.691 7.11234 93.4847 7.21935C91.9418 7.3584 90.4096 7.59725 88.8977 7.93439C87.3875 8.2785 85.9009 8.71879 84.447 9.25259C83.333 9.66605 82.6618 9.9725 82.6423 9.93358C82.7809 9.82777 82.933 9.74105 83.0947 9.67577C83.3866 9.52012 83.8292 9.31583 84.3837 9.08721C85.8286 8.49589 87.3207 8.02727 88.8442 7.68631C90.3672 7.34306 91.9161 7.12667 93.4749 7.03937C94.0684 7.01019 94.5548 7.00532 94.8904 7.03937C95.0705 7.02292 95.2519 7.02946 95.4303 7.05883Z" fill="#263238"/>
<path d="M89.3745 20.1423C89.4086 20.6579 90.9311 28.139 90.9311 28.139L95.3672 27.0154L93.5237 19.043L89.3745 20.1423Z" fill="#FF725E"/>
<path d="M100.927 18.0653C100.856 18.0958 100.78 18.1155 100.703 18.1236L100.046 18.2501L97.6143 18.6733C95.5714 19.0332 92.7501 19.5391 89.6468 20.1326C86.5434 20.726 83.7416 21.3389 81.7133 21.7767L79.3152 22.2971L78.6585 22.4333C78.5817 22.45 78.5036 22.4597 78.425 22.4625C78.4951 22.424 78.5705 22.3961 78.6488 22.3798L79.2909 22.2047C79.8503 22.0539 80.6674 21.8448 81.6743 21.6064C83.693 21.12 86.4899 20.4925 89.5981 19.8845C92.7064 19.2765 95.5373 18.7949 97.5852 18.4836C98.6115 18.3279 99.4433 18.2112 100.017 18.1382L100.679 18.0604C100.761 18.0487 100.845 18.0504 100.927 18.0653Z" fill="#263238"/>
<path d="M104.41 24.1067C104.142 24.1622 103.87 24.1996 103.597 24.2186C103.072 24.2672 102.313 24.3596 101.384 24.5056C100.455 24.6515 99.351 24.8606 98.1446 25.1525C96.9383 25.4444 95.6201 25.8384 94.2533 26.3199C92.8864 26.8015 91.6461 27.3608 90.5273 27.9008C89.4085 28.4407 88.426 28.9904 87.6088 29.4768C86.7916 29.9632 86.1495 30.3767 85.7215 30.6734C85.5017 30.8362 85.269 30.981 85.0259 31.1063C85.2265 30.9184 85.4411 30.746 85.668 30.5907C86.0863 30.2696 86.7138 29.8319 87.5115 29.326C88.3092 28.8201 89.2918 28.2607 90.43 27.6916C91.6476 27.0894 92.8962 26.5519 94.1706 26.0816C95.4462 25.6267 96.7452 25.2402 98.062 24.9239C99.2829 24.6466 100.397 24.4375 101.336 24.3304C102.274 24.2234 103.038 24.1359 103.563 24.1164C103.845 24.0872 104.128 24.084 104.41 24.1067Z" fill="#263238"/>
<path d="M138.819 39.3857L148.231 32.9844L150.965 36.5742L140.954 42.8587L138.819 39.3857Z" fill="#FF725E"/>
<path d="M154.093 41.6914C153.946 41.5327 153.816 41.36 153.704 41.1758C153.436 40.7916 153.105 40.31 152.702 39.7166C151.86 38.4957 150.678 36.8272 149.326 35.0177C147.974 33.2083 146.694 31.6128 145.731 30.4892C145.245 29.9249 144.86 29.4774 144.583 29.1661C144.431 29.0178 144.294 28.8549 144.175 28.6797C144.353 28.8032 144.516 28.9468 144.661 29.1077C144.958 29.3996 145.376 29.8276 145.872 30.3822C146.869 31.4815 148.173 33.0672 149.535 34.8767C150.897 36.6862 152.05 38.3789 152.857 39.6242C153.261 40.2468 153.577 40.7575 153.791 41.1126C153.911 41.2949 154.012 41.4889 154.093 41.6914Z" fill="#263238"/>
<path d="M160.698 37.313C160.659 37.313 160.363 36.5834 159.798 35.4257C159.062 33.9193 158.213 32.4705 157.259 31.0917C156.301 29.7157 155.239 28.4148 154.083 27.2003C153.193 26.2712 152.624 25.741 152.624 25.6973C152.783 25.7963 152.933 25.9103 153.071 26.0378C153.349 26.2712 153.738 26.6215 154.2 27.0787C155.406 28.2704 156.497 29.5733 157.459 30.9701C158.422 32.3596 159.256 33.8348 159.949 35.377C160.212 35.9656 160.407 36.452 160.528 36.7974C160.603 36.9629 160.66 37.1357 160.698 37.313Z" fill="#263238"/>
<path d="M141.373 42.0797C141.205 41.9165 141.054 41.7373 140.921 41.5447C140.643 41.1945 140.24 40.6837 139.719 40.0854C138.379 38.4821 136.943 36.9617 135.419 35.5325C133.895 34.1006 132.287 32.7606 130.604 31.5195C129.957 31.0331 129.426 30.6683 129.057 30.4105C128.857 30.2903 128.669 30.1501 128.497 29.9922C128.712 30.0848 128.917 30.1972 129.11 30.3278C129.499 30.5564 130.044 30.9164 130.711 31.3736C132.426 32.579 134.052 33.9071 135.575 35.3477C137.11 36.7828 138.537 38.3289 139.846 39.9735C140.332 40.601 140.731 41.1312 140.984 41.5009C141.13 41.6822 141.26 41.8758 141.373 42.0797Z" fill="#263238"/>
<path d="M65.4182 54.9941C65.4182 54.9941 65.3841 55.0866 65.3112 55.2568L64.9755 56.0059C64.6885 56.6674 64.2556 57.6403 63.7595 58.9244C60.0138 67.8964 59.8554 77.9639 63.3168 87.0493C64.4395 90.2432 65.9143 93.3022 67.7141 96.1697C69.6426 99.2522 71.9123 102.108 74.4802 104.682C75.7815 105.989 77.1537 107.223 78.5905 108.379C79.9917 109.488 81.4532 110.519 82.9682 111.468C84.4356 112.378 85.9523 113.206 87.5114 113.948C89.0159 114.643 90.5588 115.252 92.1324 115.772C95.0471 116.738 98.0693 117.342 101.131 117.572C103.794 117.757 106.469 117.666 109.113 117.3C112.951 116.768 116.685 115.651 120.184 113.987C121.425 113.404 122.354 112.883 122.981 112.528L123.691 112.115L123.935 111.978C123.86 112.035 123.782 112.087 123.701 112.134L123.006 112.572C122.388 112.941 121.464 113.477 120.228 114.08C116.732 115.782 112.992 116.931 109.143 117.485C106.485 117.866 103.795 117.967 101.117 117.786C98.0407 117.567 95.0035 116.969 92.074 116.006C90.49 115.488 88.9374 114.879 87.4239 114.182C85.8541 113.438 84.3276 112.607 82.8515 111.691C81.3212 110.742 79.8465 109.706 78.4348 108.588C76.9889 107.428 75.6086 106.189 74.3002 104.877C71.7144 102.289 69.4299 99.4171 67.4903 96.3156C65.679 93.4324 64.1928 90.3573 63.059 87.1466C61.0999 81.7077 60.3205 75.9142 60.7729 70.151C61.1793 66.2851 62.1443 62.4986 63.6379 58.9098C64.6837 56.3367 65.4182 54.9941 65.4182 54.9941Z" fill="#263238"/>
<path d="M62.3538 107.888C66.7814 107.179 70.9448 105.319 74.4268 102.493C74.9619 102.056 76.0806 101.37 76.3725 100.728C76.9465 99.4776 75.3121 97.3617 74.4268 96.6515C73.5415 95.9414 71.5083 94.9782 70.4333 95.6349C69.5869 96.1505 68.9351 97.9697 68.3222 98.7918C66.5945 101.12 64.4666 103.123 62.0377 104.707C61.5043 104.998 61.0347 105.394 60.6562 105.869C60.4747 106.119 60.377 106.419 60.377 106.728C60.377 107.036 60.4747 107.337 60.6562 107.586C61.0648 108.014 61.7604 107.98 62.3538 107.888Z" fill="#FF725E"/>
<path d="M61.6096 105.077C61.6096 105.048 62.135 104.629 62.9813 103.919C64.0868 103.002 65.1438 102.028 66.1479 101.001C67.1498 99.9653 68.098 98.8792 68.9886 97.7466C69.3349 97.259 69.7085 96.7913 70.1074 96.3457C70.0488 96.4966 69.9703 96.6389 69.8739 96.7689C69.7085 97.0316 69.4556 97.4061 69.1297 97.8536C67.424 100.204 65.3913 102.299 63.0932 104.075C62.6554 104.415 62.2906 104.678 62.0279 104.848C61.9009 104.945 61.7598 105.022 61.6096 105.077Z" fill="#263238"/>
<path d="M75.5502 101.457C75.2429 101.845 74.892 102.195 74.5044 102.503C73.6044 103.281 72.6394 103.981 71.62 104.594C70.6018 105.208 69.5384 105.743 68.4388 106.195C67.9943 106.408 67.5278 106.571 67.0476 106.681C67.4728 106.439 67.9131 106.225 68.3658 106.039C69.4343 105.542 70.4766 104.99 71.4886 104.385C72.5024 103.775 73.4771 103.103 74.4071 102.372C74.7693 102.044 75.151 101.738 75.5502 101.457Z" fill="#263238"/>
<path d="M75.9784 101.035C76.0285 100.582 76.0447 100.127 76.0271 99.6726C75.9417 98.5845 75.4668 97.5638 74.6894 96.7978C73.8879 96.0591 72.8314 95.6599 71.7417 95.6839C71.2899 95.717 70.8411 95.7836 70.3992 95.8833C70.4993 95.807 70.6133 95.7508 70.7348 95.718C71.0561 95.5965 71.3939 95.5243 71.7368 95.5039C72.3075 95.4648 72.88 95.5434 73.419 95.7351C73.9579 95.9267 74.4516 96.2272 74.8694 96.6178C75.6931 97.423 76.1726 98.5163 76.207 99.6677C76.2238 100.009 76.191 100.352 76.1097 100.684C76.0907 100.809 76.046 100.928 75.9784 101.035Z" fill="#263238"/>
<path d="M131.319 63.2344C131.354 63.359 131.382 63.4857 131.401 63.6138C131.445 63.8667 131.533 64.2364 131.586 64.718C131.767 66.085 131.819 67.466 131.742 68.8428C131.579 72.3854 130.602 75.8428 128.885 78.9459C127.168 82.0489 124.758 84.7139 121.843 86.7334C120.169 87.9104 118.347 88.8623 116.424 89.5643C115.133 90.0455 113.799 90.4022 112.441 90.6296C111.954 90.722 111.584 90.7463 111.332 90.7804C111.203 90.8031 111.073 90.8129 110.942 90.8096C111.067 90.7754 111.194 90.7494 111.322 90.7318C111.575 90.6782 111.949 90.6393 112.421 90.5323C113.765 90.2688 115.083 89.8896 116.361 89.3989C118.258 88.6759 120.055 87.7166 121.712 86.5437C125.818 83.6725 128.873 79.5367 130.409 74.7674C131.468 71.53 131.836 68.1064 131.489 64.718C131.45 64.2315 131.377 63.8619 131.353 63.6089C131.328 63.4856 131.317 63.3601 131.319 63.2344Z" fill="#263238"/>
<path d="M127.422 70.459C127.475 70.656 127.504 70.8584 127.51 71.0621C127.539 71.2993 127.552 71.5382 127.549 71.7772C127.566 72.1012 127.566 72.426 127.549 72.75C127.5 73.57 127.378 74.384 127.184 75.1821C126.937 76.1649 126.595 77.1212 126.162 78.0374C125.717 78.9456 125.182 79.8075 124.567 80.6106C124.059 81.2628 123.493 81.8669 122.874 82.4152C122.621 82.6584 122.388 82.8432 122.145 83.0184C121.958 83.1678 121.764 83.3059 121.561 83.4318C121.396 83.5546 121.218 83.659 121.031 83.7431C121.001 83.6994 121.741 83.2567 122.753 82.2839C123.343 81.7234 123.888 81.1167 124.382 80.4695C125.584 78.8725 126.46 77.0544 126.96 75.1189C127.16 74.3301 127.297 73.5266 127.369 72.716C127.471 71.3297 127.374 70.4638 127.422 70.459Z" fill="#263238"/>
<path d="M186.051 70.1035C186.063 70.3167 186.05 70.5306 186.012 70.7407C185.946 71.3232 185.839 71.9003 185.691 72.4675C185.479 73.3242 185.052 74.1126 184.45 74.7586C184.085 75.1419 183.638 75.4379 183.142 75.6244C182.601 75.8103 182.02 75.8489 181.459 75.7363C180.43 75.4646 179.447 75.0434 178.54 74.4862C177.684 73.9998 176.945 73.5133 176.337 73.1096C175.729 72.7059 175.262 72.3167 174.946 72.0541C174.769 71.9272 174.606 71.7821 174.459 71.6211C174.646 71.7237 174.823 71.8425 174.989 71.9762C175.325 72.2146 175.811 72.5599 176.449 72.9491C177.086 73.3382 177.806 73.8052 178.662 74.2673C179.556 74.8032 180.523 75.2078 181.532 75.4687C182.05 75.5758 182.587 75.544 183.088 75.3763C183.55 75.2069 183.967 74.9359 184.309 74.5834C184.895 73.9678 185.321 73.2179 185.55 72.3994C185.711 71.8443 185.843 71.2809 185.944 70.7115C185.961 70.5061 185.997 70.3026 186.051 70.1035Z" fill="#263238"/>
<path d="M171.385 66.6582C171.411 66.8826 171.424 67.1084 171.424 67.3343C171.448 67.7672 171.531 68.3899 171.618 69.1681C171.756 70.0912 171.686 71.0334 171.414 71.9261C171.237 72.4632 170.916 72.9411 170.485 73.3076C170.004 73.6887 169.406 73.893 168.792 73.8864C168.199 73.8828 167.609 73.7943 167.041 73.6237C165.624 73.2372 164.3 72.567 163.15 71.6537C162.662 71.2694 162.211 70.8412 161.802 70.3745C161.656 70.2091 161.554 70.0729 161.486 69.9805C161.446 69.9353 161.414 69.8845 161.389 69.8297C161.976 70.4308 162.601 70.993 163.262 71.5127C163.99 72.0588 164.782 72.5145 165.621 72.8698C166.112 73.0804 166.617 73.2544 167.134 73.3903C167.678 73.5519 168.243 73.6354 168.812 73.6383C169.369 73.6419 169.911 73.4606 170.354 73.1227C170.748 72.7819 171.043 72.3419 171.21 71.8483C171.483 70.9895 171.566 70.0816 171.453 69.1876C171.39 68.4093 171.336 67.777 171.341 67.3343C171.325 67.108 171.339 66.8805 171.385 66.6582Z" fill="#263238"/>
<path d="M41.5397 32.4496C41.4904 32.4935 41.4346 32.5296 41.3743 32.5566C41.2624 32.6198 41.0971 32.7122 40.8879 32.8193C40.273 33.1205 39.6431 33.39 39.0006 33.6267C38.0487 33.978 37.0735 34.2624 36.0821 34.478C35.5227 34.5996 34.9244 34.7017 34.3066 34.7844C33.6629 34.8815 33.0116 34.9189 32.3609 34.8963C31.7162 34.8936 31.0855 34.708 30.5422 34.361C29.9988 34.014 29.5652 33.5198 29.2916 32.936C28.8498 31.9963 28.6813 30.9512 28.8052 29.9202C28.8796 29.2378 29.0098 28.5627 29.1943 27.9015C29.2492 27.6559 29.324 27.4151 29.4181 27.1816C29.3955 27.433 29.3516 27.682 29.2868 27.9259C29.1434 28.5884 29.0427 29.2594 28.9852 29.9348C28.877 30.9338 29.0453 31.9434 29.4716 32.8533C29.7312 33.3721 30.1135 33.8196 30.5855 34.1569C31.1085 34.4956 31.7138 34.6856 32.3366 34.7066C32.9693 34.73 33.6028 34.6942 34.2288 34.5996C34.8465 34.5266 35.4351 34.4244 35.9896 34.3126C36.9782 34.1099 37.9529 33.8451 38.9082 33.5197C39.7253 33.2473 40.3674 32.9798 40.8149 32.7901C41.0471 32.6576 41.2895 32.5437 41.5397 32.4496Z" fill="#263238"/>
<path d="M54.7169 37.4012C54.4883 37.5044 54.2505 37.5859 54.0067 37.6444C53.5446 37.7758 52.8733 37.9558 52.0318 38.1309C51.1903 38.306 50.1834 38.5006 49.0549 38.6513C48.4907 38.7243 47.8972 38.7875 47.2795 38.841C46.6323 38.9181 45.9774 38.905 45.3338 38.8021C44.6726 38.691 44.0735 38.3457 43.6459 37.8293C43.266 37.343 43.0136 36.7695 42.9114 36.1609C42.7599 35.1464 42.8465 34.1106 43.1644 33.1353C43.3978 32.3084 43.6216 31.6517 43.7529 31.1896C43.8077 30.9472 43.8776 30.7084 43.9621 30.4746C43.9505 30.7246 43.9113 30.9726 43.8454 31.214C43.7481 31.7004 43.5486 32.3571 43.3589 33.184C43.0748 34.1296 43.0067 35.127 43.1595 36.1025C43.2619 36.67 43.5006 37.2042 43.8551 37.659C44.2475 38.1323 44.7961 38.4497 45.4019 38.5541C46.0215 38.6519 46.6515 38.665 47.2746 38.593C47.8875 38.5443 48.4761 38.486 49.0403 38.4179C50.164 38.2817 51.1709 38.1163 52.0124 37.9558C52.8539 37.7952 53.53 37.6445 53.997 37.5374C54.2326 37.4714 54.4734 37.4258 54.7169 37.4012Z" fill="#263238"/>
<g opacity="0.3">
<path d="M89.3064 8.6543C85.9987 9.88981 82.6473 11.1545 79.8309 13.2802C77.0145 15.4058 74.7624 18.553 74.5581 22.0746L87.2829 19.1561C86.9139 17.3585 86.9027 15.5058 87.2499 13.7039C87.5971 11.902 88.2959 10.1861 89.3064 8.6543Z" fill="white"/>
</g>
<g opacity="0.3">
<path d="M136.479 21.261L136.63 21.3972C141.263 24.0431 145.239 27.7012 148.261 32.0985C150.153 30.5227 152.346 29.3478 154.706 28.6449C152.641 25.857 149.846 23.6927 146.631 22.39C143.415 21.0873 139.903 20.6966 136.479 21.261Z" fill="white"/>
</g>
<path d="M82.1268 12.082C82.1268 12.1307 81.4263 12.369 80.3805 12.9819C79.7711 13.3388 79.1934 13.7473 78.6537 14.2028C77.9992 14.7688 77.3983 15.3941 76.8588 16.0707C76.332 16.757 75.8711 17.4915 75.4822 18.2644C75.1691 18.8991 74.9119 19.5599 74.7137 20.2393C74.3732 21.4018 74.3148 22.1558 74.2662 22.1509C74.2427 21.975 74.2427 21.7967 74.2662 21.6207C74.2787 21.4131 74.3063 21.2066 74.3489 21.003C74.3899 20.7292 74.4468 20.4579 74.5191 20.1907C74.6997 19.493 74.9456 18.8138 75.2536 18.1623C75.6384 17.3682 76.1029 16.6152 76.6399 15.915C77.1867 15.2232 77.8046 14.5906 78.4835 14.0277C79.0392 13.5694 79.6388 13.1669 80.2735 12.8263C80.5135 12.6889 80.7621 12.567 81.0177 12.4614C81.2039 12.3691 81.3975 12.2927 81.5965 12.2328C81.7666 12.1615 81.9446 12.1109 82.1268 12.082Z" fill="white"/>
<path d="M88.0125 5.82812C88.0466 5.89622 87.5699 6.17348 87.1078 6.65018C86.6457 7.12687 86.3733 7.62302 86.3101 7.57924C86.4142 7.16316 86.6266 6.78202 86.9256 6.47449C87.2245 6.16696 87.5995 5.94396 88.0125 5.82812Z" fill="white"/>
<path d="M122.252 27.342L122.135 27.3177L121.799 27.2253C121.503 27.1475 121.074 27.0015 120.515 26.8605C118.935 26.4272 117.332 26.0813 115.714 25.8244C104.929 24.0718 93.8817 26.5193 84.8458 32.6635C83.4955 33.579 82.1964 34.5679 80.9545 35.6258C80.507 35.9955 80.1811 36.3068 79.9476 36.5013L79.6801 36.73C79.6217 36.7786 79.5876 36.8029 79.5828 36.7981C79.6065 36.767 79.6325 36.7377 79.6606 36.7105L79.9087 36.4673C80.1324 36.2581 80.4486 35.9322 80.8815 35.5528C82.113 34.4582 83.4128 33.4428 84.7729 32.5127C93.7986 26.2559 104.918 23.7882 115.743 25.6396C117.364 25.9127 118.965 26.2864 120.539 26.7583C121.099 26.9189 121.512 27.0794 121.814 27.1718L122.145 27.2885L122.252 27.342Z" fill="white"/>
<path d="M154.122 28.4694C153.938 28.2652 153.767 28.0491 153.611 27.8225C153.158 27.2303 152.671 26.6651 152.152 26.1297C150.421 24.3558 148.321 22.9844 146.001 22.1127C143.681 21.241 141.197 20.8903 138.727 21.0855C137.978 21.1399 137.234 21.2406 136.499 21.3871C136.23 21.4534 135.957 21.5038 135.682 21.5379C135.744 21.5025 135.811 21.4763 135.881 21.4601C136.017 21.4212 136.212 21.3531 136.474 21.2898C137.208 21.1053 137.954 20.9769 138.707 20.9056C141.209 20.6586 143.733 20.9898 146.087 21.8737C148.44 22.7576 150.558 24.1705 152.278 26.0032C152.799 26.553 153.277 27.1416 153.708 27.7641C153.864 27.9781 153.966 28.1629 154.044 28.2797C154.122 28.3964 154.132 28.4645 154.122 28.4694Z" fill="white"/>
<path d="M158.928 29.3016C158.884 29.3016 158.816 29.0827 158.587 28.8152C158.281 28.4411 157.877 28.1598 157.42 28.0029C156.947 27.8502 156.457 27.7603 155.961 27.7354C155.581 27.7062 155.343 27.6818 155.343 27.6429C155.542 27.5712 155.754 27.5414 155.965 27.5554C156.481 27.5313 156.997 27.6022 157.488 27.7645C157.99 27.9344 158.421 28.2664 158.714 28.7082C158.947 29.0438 158.952 29.3016 158.928 29.3016Z" fill="white"/>
<path d="M67.0817 76.7129C66.9805 76.4486 66.8992 76.177 66.8384 75.9006C66.7655 75.6379 66.6828 75.3169 66.605 74.9277C66.5271 74.5386 66.425 74.1154 66.352 73.6339C66.1769 72.661 66.031 71.5179 65.9288 70.2289C65.7255 67.4288 65.8643 64.6144 66.3423 61.8479C66.5709 60.5783 66.8287 59.4158 67.0963 58.5013C67.2179 58.0149 67.3638 57.6111 67.4805 57.2415C67.5973 56.8718 67.7091 56.5605 67.8064 56.3027C67.8931 56.0337 68.0004 55.7719 68.1275 55.5195C68.07 55.7968 67.9936 56.0698 67.8989 56.3367C67.8162 56.5945 67.714 56.9107 67.6167 57.3096C67.5194 57.7084 67.3784 58.1024 67.2714 58.5743C67.0233 59.5131 66.7849 60.6464 66.5709 61.9111C66.3569 63.1758 66.211 64.5864 66.1331 66.0651C66.0716 67.4559 66.0813 68.8489 66.1623 70.2386C66.2499 71.5179 66.3764 72.6707 66.5271 73.6436C66.5904 74.13 66.6779 74.558 66.746 74.9375C66.8141 75.3169 66.8774 75.6428 66.9357 75.9103C67.0073 76.1732 67.0561 76.4417 67.0817 76.7129Z" fill="white"/>
<g opacity="0.3">
<path d="M69.9272 105.592C69.9272 105.592 74.665 105.976 76.1242 105.076C77.5835 104.176 75.5503 101.457 75.5503 101.457L69.9272 105.592Z" fill="black"/>
</g>
<path d="M14.597 23.6066C14.5207 23.5761 14.4475 23.5387 14.3781 23.4947L13.7701 23.1299C13.4503 22.9403 13.1417 22.7324 12.8459 22.5073C12.4387 22.2272 12.0458 21.9269 11.6688 21.6074L11.0072 21.0529C10.7786 20.8583 10.5646 20.6297 10.3262 20.4108C9.83982 19.973 9.39231 19.4379 8.90589 18.9175C6.82686 16.5297 5.24438 13.7517 4.25084 10.7456C4.03682 10.05 3.82279 9.39336 3.69146 8.76101C3.62336 8.44484 3.5358 8.14325 3.48716 7.84654C3.43852 7.54982 3.38988 7.2677 3.3461 6.9953C3.26312 6.51215 3.20468 6.0251 3.17099 5.53604C3.12911 5.16621 3.108 4.79433 3.10775 4.42213C3.10775 4.14001 3.10775 3.90653 3.10775 3.71196C3.09624 3.6313 3.09624 3.54941 3.10775 3.46875C3.12728 3.54846 3.13869 3.62995 3.1418 3.71196C3.1418 3.90166 3.17099 4.13515 3.19531 4.41727C3.21088 4.78681 3.24497 5.15533 3.29746 5.52145C3.35583 5.9495 3.39474 6.44565 3.50662 6.98071C3.55526 7.2531 3.60877 7.53036 3.66227 7.82221C3.71578 8.11407 3.8082 8.41565 3.88116 8.72696C4.01736 9.34958 4.24111 10.0014 4.45514 10.6726C4.9788 12.1467 5.62644 13.5738 6.39109 14.9386C7.17606 16.2895 8.07602 17.5703 9.081 18.7667C9.56742 19.3017 10.0052 19.8222 10.477 20.26C10.7056 20.4838 10.9148 20.7075 11.1386 20.9069L11.7806 21.4712C12.1844 21.8409 12.5881 22.123 12.9286 22.3954C13.2174 22.6276 13.5177 22.8452 13.8285 23.0472L14.4024 23.4509C14.5338 23.5433 14.6019 23.5968 14.597 23.6066Z" fill="white"/>
<path d="M6.88713 35.0813C6.74722 35.0415 6.61547 34.9773 6.49799 34.8916C6.1634 34.6845 5.84764 34.4485 5.55433 34.1863C5.11513 33.7942 4.73936 33.3364 4.44043 32.8291C4.06935 32.2006 3.85729 31.491 3.82267 30.7619C3.78275 30.0248 3.96948 29.2932 4.35774 28.6654C4.68841 28.1629 5.15359 27.7635 5.70026 27.5126C6.06468 27.346 6.46223 27.2645 6.8628 27.2742C7.00937 27.2699 7.15521 27.2964 7.29086 27.3521C6.76844 27.3449 6.2512 27.4563 5.77809 27.678C5.27635 27.9298 4.85387 28.3153 4.55717 28.7919C4.20587 29.3779 4.03656 30.0551 4.07075 30.7375C4.1078 31.4207 4.30082 32.0862 4.635 32.6832C4.91595 33.1755 5.26472 33.6258 5.67107 34.0209C6.37638 34.7359 6.91145 35.0424 6.88713 35.0813Z" fill="white"/>
<path d="M12.8556 44.6102C12.8114 44.3085 12.8449 44.0005 12.9528 43.7152C13.1731 43.0101 13.5801 42.3777 14.1308 41.8852C14.6815 41.3928 15.3552 41.0587 16.0805 40.9183C16.3773 40.8423 16.6885 40.8423 16.9853 40.9183C16.9853 40.9621 16.6399 40.9572 16.1195 41.0886C15.4455 41.2666 14.8225 41.5997 14.3002 42.0614C13.7793 42.5264 13.3759 43.1081 13.1231 43.759C12.9334 44.2697 12.8848 44.6102 12.8556 44.6102Z" fill="white"/>
<path d="M25.0453 33.6168C24.8976 33.612 24.7515 33.5841 24.6124 33.5341C24.2279 33.4305 23.8496 33.3054 23.4791 33.1595C22.2506 32.6795 21.0923 32.0365 20.0352 31.2479C18.9796 30.4557 18.0341 29.5266 17.2237 28.485C16.9788 28.1748 16.753 27.8499 16.5476 27.5122C16.4616 27.3927 16.3929 27.2617 16.3433 27.123C16.3773 27.123 16.7227 27.6095 17.3647 28.378C18.1995 29.3736 19.1461 30.2696 20.186 31.0485C21.2289 31.8225 22.3566 32.4752 23.5472 32.9941C24.447 33.393 25.0453 33.5778 25.0453 33.6168Z" fill="white"/>
<path d="M40.7128 18.8589C40.585 18.8531 40.4579 18.8352 40.3334 18.8054L39.2536 18.6059C38.7672 18.5184 38.2126 18.4017 37.5511 18.246C36.8896 18.0903 36.1356 17.9396 35.3087 17.7207C33.65 17.3121 31.6946 16.7478 29.5446 16.0766C27.3946 15.4053 25.055 14.5443 22.6423 13.5666C20.2297 12.5889 17.9775 11.5285 15.9589 10.5216C13.9402 9.51475 12.1599 8.52731 10.691 7.65662C9.9516 7.23343 9.29979 6.81998 8.72095 6.46489C8.14211 6.1098 7.65569 5.79363 7.26169 5.5261L6.35208 4.91321C6.24292 4.84642 6.13887 4.77163 6.04077 4.68945C6.15947 4.73777 6.27211 4.79981 6.3764 4.87429L7.31519 5.44341C7.71892 5.69635 8.21507 6.00279 8.79878 6.34328C9.38248 6.68378 10.0391 7.09237 10.7882 7.50097C12.2475 8.3522 14.0521 9.30559 16.0659 10.3125C18.0797 11.3194 20.3415 12.3408 22.7445 13.3331C25.1474 14.3254 27.4822 15.1475 29.6225 15.8528C31.7627 16.5581 33.7084 17.1175 35.3573 17.5456C36.1794 17.7742 36.9334 17.9444 37.59 18.1098C38.2467 18.2752 38.8109 18.4065 39.2779 18.5087L40.348 18.7567C40.4718 18.7826 40.5936 18.8168 40.7128 18.8589Z" fill="white"/>
<path d="M29.9582 40.1692C29.9056 39.5217 30.0392 38.8726 30.3435 38.2986C30.6477 37.7246 31.1099 37.2496 31.6753 36.9297C31.2627 37.3924 30.8916 37.8905 30.5663 38.4181C30.3138 38.9833 30.1104 39.5692 29.9582 40.1692Z" fill="white"/>
<path d="M39.6379 48.6908C39.709 48.2733 39.8367 47.8675 40.0173 47.4845C40.4113 46.5407 40.9002 45.6394 41.4766 44.7946C42.0431 43.9484 42.6951 43.1628 43.4223 42.45C43.7085 42.138 44.0357 41.8664 44.3951 41.6426C44.1348 41.9715 43.852 42.2819 43.5488 42.5716C42.1785 44.0497 41.0462 45.7317 40.1925 47.5575C40.0321 47.9468 39.8469 48.3253 39.6379 48.6908Z" fill="white"/>
<path d="M18.7218 52.8056C18.6733 52.4486 18.7015 52.0855 18.8045 51.7403C19.0107 50.8891 19.4158 50.099 19.9865 49.4347C20.5541 48.7687 21.273 48.2483 22.0829 47.917C22.4087 47.763 22.7636 47.6801 23.1239 47.6738C23.1239 47.7176 22.7396 47.8052 22.151 48.0824C21.3947 48.4467 20.7221 48.9637 20.1754 49.6008C19.6287 50.2379 19.2199 50.9812 18.9747 51.7841C18.7996 52.3921 18.7704 52.8104 18.7218 52.8056Z" fill="white"/>
<path d="M32.9108 59.2895C32.832 58.9996 32.8154 58.6962 32.8621 58.3994C32.9322 57.6731 33.156 56.9701 33.5188 56.337C33.8816 55.6987 34.3797 55.1475 34.978 54.722C35.2071 54.5253 35.4784 54.3838 35.7709 54.3086C35.5544 54.508 35.3253 54.6932 35.0851 54.8631C34.5549 55.3155 34.1058 55.8551 33.7571 56.4586C33.414 57.0618 33.1786 57.7202 33.0615 58.4043C33.0313 58.7024 32.9809 58.9982 32.9108 59.2895Z" fill="white"/>
<path d="M171.356 55.7965C170.561 55.4423 169.709 55.2346 168.841 55.1836C167.904 55.1533 166.968 55.2816 166.073 55.563C164.977 55.9182 163.933 56.4188 162.97 57.0515C161.929 57.713 160.99 58.4232 160.129 59.0555C159.268 59.6879 158.47 60.2473 157.775 60.6704C157.228 61.0095 156.657 61.3086 156.068 61.5655C155.858 61.653 155.693 61.7162 155.581 61.7552C155.469 61.7941 155.406 61.8087 155.406 61.7989C155.604 61.675 155.813 61.5677 156.029 61.4779C156.597 61.1828 157.149 60.8581 157.682 60.5051C158.359 60.0673 159.142 59.503 159.993 58.8561C160.844 58.2091 161.788 57.4892 162.839 56.8228C163.821 56.1795 164.889 55.6753 166.01 55.3247C166.932 55.0423 167.898 54.9302 168.86 54.9939C169.507 55.0357 170.141 55.1853 170.738 55.4365C170.905 55.5052 171.068 55.5848 171.224 55.6749C171.307 55.7284 171.361 55.7625 171.356 55.7965Z" fill="white"/>
<path d="M165.543 82.0649C164.456 81.2455 163.421 80.3584 162.445 79.4091C161.416 78.5215 160.441 77.5729 159.526 76.5684C160.616 77.3866 161.653 78.2737 162.629 79.2242C163.659 80.1095 164.632 81.0582 165.543 82.0649Z" fill="white"/>
<path d="M179.012 80.8278C178.65 80.7128 178.304 80.5491 177.986 80.3414C177.193 79.8811 176.437 79.3608 175.724 78.7849C175.011 78.207 174.343 77.5761 173.725 76.8976C173.452 76.6305 173.216 76.3278 173.024 75.9977C173.083 75.9442 174.221 77.2526 175.879 78.5854C177.538 79.9182 179.051 80.7597 179.012 80.8278Z" fill="white"/>
<path d="M194.286 77.7978C193.902 77.8166 193.517 77.7822 193.143 77.6956C192.229 77.5376 191.332 77.2967 190.462 76.9758C189.592 76.6536 188.753 76.2514 187.957 75.7743C187.615 75.598 187.3 75.3718 187.023 75.103C187.067 75.0349 188.531 75.998 190.55 76.7374C192.569 77.4768 194.32 77.7151 194.286 77.7978Z" fill="white"/>
<path d="M209.73 62.5625C209.643 62.6027 209.551 62.6321 209.457 62.6501L208.669 62.8398C207.983 63.01 206.986 63.2192 205.751 63.4575C202.519 64.0619 199.257 64.489 195.978 64.7368C192.701 64.9786 189.413 65.0387 186.128 64.9168C184.869 64.8681 183.847 64.8049 183.147 64.7417L182.334 64.6638C182.241 64.6583 182.148 64.6452 182.057 64.6249C182.151 64.6112 182.246 64.6112 182.339 64.6249L183.152 64.6541C183.857 64.6833 184.874 64.7222 186.133 64.7465C188.648 64.8049 192.131 64.7757 195.964 64.4936C199.797 64.2115 203.26 63.7153 205.721 63.2873C206.962 63.0781 207.964 62.8933 208.64 62.7571L209.438 62.6063C209.533 62.5801 209.631 62.5654 209.73 62.5625Z" fill="white"/>
</svg>
