<svg width="132" height="121" viewBox="0 0 132 121" fill="none" xmlns="http://www.w3.org/2000/svg">
<g opacity="0.75">
<path d="M41.7341 49.7371C41.7556 49.7342 42.0849 51.0565 42.6463 53.3861C43.9005 51.5742 45.5143 50.0331 47.3877 48.8501L47.364 48.8546C47.364 48.8546 56.8601 39.4215 59.8934 29.5019C62.0954 22.3005 61.5473 14.3255 61.5473 14.3255C61.4583 13.9451 60.7181 10.5631 60.113 7.79529C59.6168 5.52732 61.0029 3.29421 63.245 2.69051C67.9596 1.42006 80.7249 -1.06447 83.653 7.50901C88.022 20.3018 80.96 34.1195 81.0357 38.0732C81.0498 38.82 81.0616 39.4252 81.0713 39.9169C84.8136 39.0514 87.7165 38.4277 87.7306 38.49L87.7261 38.493L112.307 32.7578C112.307 32.7578 120.428 30.2999 123.214 38.625C126 46.95 116.548 49.7186 116.548 49.7186C116.548 49.7186 120.991 49.5228 122.197 57.0943C123.404 64.6658 115.284 67.1237 115.284 67.1237C115.284 67.1237 120.258 66.8033 121.545 73.5152C122.797 80.0484 114.678 83.9858 114.244 84.1913C115.447 83.9339 116.194 83.7908 116.203 83.8234C116.209 83.8523 115.649 84.0111 114.713 84.2521C118.499 84.7364 119.048 89.2449 119.048 89.2449C121.488 98.4925 114.368 100.436 114.368 100.436L69.4911 110.916C64.9752 111.971 60.308 111.773 55.9619 110.425C56.3921 112.337 56.625 113.414 56.6064 113.42L25.2613 120.74C25.1938 120.755 21.8089 106.511 17.7024 88.9282C13.5944 71.3385 10.3207 57.0713 10.3882 57.0557L41.7341 49.7371Z" fill="#FF725E"/>
<g opacity="0.3">
<path d="M41.7341 49.7371C41.7556 49.7342 42.0849 51.0565 42.6463 53.3861C43.9005 51.5742 45.5143 50.0331 47.3877 48.8501L47.364 48.8546C47.364 48.8546 56.8601 39.4215 59.8934 29.5019C62.0954 22.3005 61.5473 14.3255 61.5473 14.3255C61.4583 13.9451 60.7181 10.5631 60.113 7.79529C59.6168 5.52732 61.0029 3.29421 63.245 2.69051C67.9596 1.42006 80.7249 -1.06447 83.653 7.50901C88.022 20.3018 80.96 34.1195 81.0357 38.0732C81.0498 38.82 81.0616 39.4252 81.0713 39.9169C84.8136 39.0514 87.7165 38.4277 87.7306 38.49L87.7261 38.493L112.307 32.7578C112.307 32.7578 120.428 30.2999 123.214 38.625C126 46.95 116.548 49.7186 116.548 49.7186C116.548 49.7186 120.991 49.5228 122.197 57.0943C123.404 64.6658 115.284 67.1237 115.284 67.1237C115.284 67.1237 120.258 66.8033 121.545 73.5152C122.797 80.0484 114.678 83.9858 114.244 84.1913C115.447 83.9339 116.194 83.7908 116.203 83.8234C116.209 83.8523 115.649 84.0111 114.713 84.2521C118.499 84.7364 119.048 89.2449 119.048 89.2449C121.488 98.4925 114.368 100.436 114.368 100.436L69.4911 110.916C64.9752 111.971 60.308 111.773 55.9619 110.425C56.3921 112.337 56.625 113.414 56.6064 113.42L25.2613 120.74C25.1938 120.755 21.8089 106.511 17.7024 88.9282C13.5944 71.3385 10.3207 57.0713 10.3882 57.0557L41.7341 49.7371Z" fill="black"/>
</g>
<path d="M47.7935 58.6663L47.1853 62.741L57.2058 105.648C63.1405 109.589 70.439 110.905 77.3764 109.285L122.254 98.8037C122.254 98.8037 129.373 96.8606 126.933 87.613C126.933 87.613 126.347 82.701 122.108 82.569C122.108 82.569 130.717 78.5952 129.43 71.8833C128.143 65.1714 123.169 65.4918 123.169 65.4918C123.169 65.4918 131.29 63.0339 130.083 55.4624C128.875 47.8901 124.433 48.0867 124.433 48.0867C124.433 48.0867 133.885 45.3188 131.099 36.9931C128.314 28.668 120.192 31.1259 120.192 31.1259L88.272 38.5735L60.2918 45.1082C53.74 46.6382 48.7865 52.0122 47.7935 58.6663Z" fill="#FF725E"/>
<path d="M55.249 47.2236C55.249 47.2236 64.7451 37.7905 67.7785 27.871C69.9804 20.6703 69.4324 12.6953 69.4324 12.6953C69.3434 12.3148 68.6032 8.93291 67.998 6.16507C67.5018 3.8971 68.888 1.66399 71.13 1.06028C75.8447 -0.210166 84.3529 2.13271 87.2809 10.7069C91.65 23.4997 88.8451 32.4892 88.9215 36.443C88.9979 40.3967 88.9979 40.3967 88.9979 40.3967L55.249 47.2236Z" fill="#FF725E"/>
<path d="M49.6173 48.112L18.2722 55.4316L33.1437 119.116L64.4888 111.797L49.6173 48.112Z" fill="#FF725E"/>
<path d="M64.4918 111.79C64.5593 111.775 61.2849 97.5046 57.1783 79.9208C53.0703 62.3311 49.6869 48.0899 49.6187 48.1055C49.5512 48.1211 52.8249 62.3882 56.9329 79.9779C61.0394 97.561 64.4243 111.806 64.4918 111.79Z" fill="#263238"/>
<path d="M33.1468 119.109C33.2143 119.093 29.9399 104.822 25.8334 87.2392C21.7254 69.6495 18.3412 55.4083 18.2737 55.4238C18.2062 55.4394 21.4799 69.7066 25.5879 87.2963C29.6944 104.88 33.0793 119.124 33.1468 119.109Z" fill="#263238"/>
<path d="M41.9577 65.2676C42.7142 68.5071 40.7014 71.7459 37.4626 72.5024C34.223 73.2589 30.9842 71.246 30.2278 68.0072C29.4713 64.7677 31.4841 61.5289 34.7236 60.7724C37.9617 60.016 41.2012 62.0288 41.9577 65.2676Z" fill="white"/>
<path d="M95.6168 36.8579C95.6012 36.7896 92.1703 37.5328 87.9555 38.5177C83.7392 39.5026 80.3351 40.3555 80.3514 40.423C80.367 40.4905 83.7971 39.7481 88.0134 38.7632C92.2274 37.7783 95.6323 36.9254 95.6168 36.8579Z" fill="#263238"/>
<path d="M123.875 65.6453C123.859 65.5778 121.662 66.0325 118.968 66.6621C116.273 67.2918 114.102 67.8562 114.118 67.9244C114.133 67.9919 116.33 67.5373 119.025 66.9076C121.72 66.2787 123.891 65.7135 123.875 65.6453Z" fill="#263238"/>
<path d="M125.016 47.7899C125 47.7217 121.887 48.3914 118.063 49.2844C114.237 50.1773 111.151 50.9568 111.167 51.0243C111.183 51.0918 114.295 50.4228 118.121 49.5299C121.944 48.6362 125.031 47.8574 125.016 47.7899Z" fill="#263238"/>
<path d="M124.088 82.1941C124.073 82.1267 120.959 82.7956 117.135 83.6886C113.31 84.5815 110.223 85.361 110.239 85.4285C110.255 85.496 113.368 84.827 117.193 83.9341C121.016 83.0411 124.104 82.2624 124.088 82.1941Z" fill="#263238"/>
<g opacity="0.3">
<path d="M71.3977 4.21559C70.4224 5.12634 70.3097 6.66601 70.6797 7.94758C71.0498 9.22915 71.813 10.355 72.3922 11.5565C73.6745 14.2123 74.0491 17.2968 73.4409 20.1826C73.2547 21.0637 73.01 22.0842 73.5751 22.7858C74.3754 23.7803 75.9914 23.2278 77.0023 22.4483C80.8315 19.4943 82.6722 14.1856 81.493 9.49541C80.9961 7.51816 79.9652 5.61879 78.3291 4.40249C76.6938 3.18692 74.1774 2.08409 71.3977 4.21559Z" fill="white"/>
</g>
<g opacity="0.3">
<path d="M123.128 32.2346C122.029 32.0232 120.9 32.3014 119.814 32.5765C113.5 34.18 107.186 35.7834 100.872 37.3876C98.8067 37.912 94.9316 38.3792 94.8923 40.487C94.4747 41.6387 95.3514 42.9381 96.4809 43.4098C97.6112 43.8815 98.8935 43.7384 100.103 43.5448C102.637 43.1391 105.137 42.5502 107.632 41.9539C112.646 40.7562 117.676 39.5206 122.436 37.5419C123.143 37.2482 123.856 36.93 124.428 36.4212C125 35.9125 125.417 35.176 125.366 34.4128C125.293 33.2944 124.229 32.446 123.128 32.2346Z" fill="white"/>
</g>
<path d="M42.6483 51.6361C42.6327 51.5686 38.2392 52.5365 32.8377 53.798C27.434 55.0603 23.068 56.138 23.0835 56.2054C23.0991 56.2729 27.4912 55.3058 32.8948 54.0435C38.297 52.782 42.6639 51.7036 42.6483 51.6361Z" fill="white"/>
<path d="M127.211 58.8496C127.228 58.854 127.271 58.722 127.335 58.4787C127.404 58.237 127.463 57.8758 127.497 57.4263C127.536 56.9769 127.518 56.4362 127.44 55.8436C127.349 55.2533 127.191 54.6118 126.939 53.968C126.677 53.328 126.348 52.7547 126.006 52.2652C125.652 51.7831 125.292 51.3804 124.953 51.0815C124.618 50.7804 124.326 50.5594 124.109 50.4326C123.895 50.3006 123.773 50.2353 123.764 50.2501C123.737 50.2894 124.206 50.5876 124.83 51.2106C125.145 51.5183 125.482 51.9225 125.815 52.3987C126.138 52.8822 126.451 53.4414 126.704 54.0622C126.95 54.6867 127.109 55.3067 127.21 55.8792C127.297 56.4533 127.333 56.9784 127.318 57.4189C127.298 58.3 127.164 58.8392 127.211 58.8496Z" fill="white"/>
<path d="M128.083 41.6324C128.101 41.6488 128.388 41.3662 128.674 40.7899C128.962 40.2181 129.198 39.3333 129.136 38.3477C129.069 37.3628 128.72 36.5151 128.36 35.9863C128.002 35.4515 127.68 35.209 127.665 35.2275C127.632 35.2587 127.902 35.542 128.208 36.079C128.516 36.6122 128.821 37.4251 128.884 38.364C128.943 39.3037 128.747 40.1484 128.511 40.7173C128.278 41.2891 128.046 41.6057 128.083 41.6324Z" fill="white"/>
<path d="M125.712 77.3925C125.725 77.4133 126.124 77.1663 126.556 76.5604C126.985 75.9678 127.408 74.9673 127.34 73.8185C127.268 72.6697 126.726 71.7278 126.228 71.1916C125.726 70.6428 125.3 70.4462 125.29 70.4685C125.263 70.5048 125.645 70.7518 126.092 71.3073C126.538 71.8524 127.021 72.755 127.088 73.8341C127.152 74.9132 126.783 75.8677 126.407 76.4625C126.031 77.0677 125.681 77.3592 125.712 77.3925Z" fill="white"/>
<path d="M122.866 94.0036C122.886 94.0192 123.159 93.7114 123.434 93.1114C123.711 92.5159 123.945 91.611 123.904 90.5994C123.858 89.5878 123.545 88.7067 123.218 88.1371C122.892 87.5638 122.593 87.2805 122.575 87.2976C122.54 87.325 122.785 87.6439 123.06 88.2187C123.336 88.7913 123.607 89.6405 123.652 90.6098C123.691 91.5791 123.495 92.4491 123.269 93.0432C123.046 93.6409 122.829 93.9799 122.866 94.0036Z" fill="white"/>
<path d="M87.6278 25.7428C87.6449 25.7465 87.7109 25.4884 87.8155 25.0175C87.8704 24.7824 87.9304 24.4931 87.9779 24.1535C88.0276 23.8145 88.0995 23.4296 88.1321 22.9987C88.23 22.1406 88.2716 21.1105 88.2434 19.9683C88.1997 18.8269 88.0773 17.5728 87.8318 16.2764C87.5752 14.9815 87.2207 13.7726 86.835 12.6964C86.4345 11.6262 86.0118 10.6858 85.6002 9.92638C85.4096 9.53924 85.1989 9.20921 85.0261 8.91255C84.8555 8.61514 84.6924 8.36892 84.5537 8.17164C84.2808 7.77337 84.1235 7.55903 84.1094 7.56867C84.0954 7.57831 84.2244 7.81193 84.4706 8.22355C84.596 8.42825 84.7465 8.6804 84.9045 8.98226C85.0647 9.28337 85.2627 9.61637 85.4414 10.0065C85.8293 10.7704 86.2313 11.71 86.6162 12.7736C86.9856 13.843 87.3297 15.0408 87.5841 16.3224C87.8266 17.6054 87.9549 18.8455 88.0113 19.975C88.0513 21.106 88.0291 22.1273 87.9542 22.9809C87.9334 23.4096 87.8741 23.793 87.8385 24.132C87.8051 24.4716 87.7599 24.7609 87.7191 24.9982C87.6442 25.4743 87.6108 25.7391 87.6278 25.7428Z" fill="white"/>
<path d="M43.2251 45.5229L34.736 40.9627C29.9053 43.7853 24.1345 44.7946 18.558 43.792C12.9815 42.7895 8.00265 39.8478 4.60014 35.545C1.19763 31.2423 -0.382408 25.8898 0.170616 20.5397C0.723644 15.1897 3.36974 10.229 7.58873 6.6329C11.8077 3.03679 17.2945 1.06534 22.9704 1.10609C28.6463 1.14684 34.1009 3.19684 38.2618 6.85311C42.4228 10.5094 44.9891 15.5075 45.4565 20.8648C45.9238 26.2222 44.2583 31.5514 40.7873 35.8048L43.2251 45.5229Z" fill="white"/>
<path d="M43.2248 45.5228C43.0865 44.9579 42.3604 41.9368 40.8907 35.7801C40.8887 35.7692 40.8843 35.7589 40.878 35.7497C40.8716 35.7404 40.8633 35.7325 40.8536 35.7264C40.8439 35.7203 40.833 35.7161 40.8216 35.7141C40.8101 35.712 40.7984 35.7122 40.787 35.7146L40.908 35.8292C43.3798 32.8314 44.9668 29.2659 45.507 25.497C45.676 24.3693 45.7397 23.2296 45.6972 22.0912C45.6972 21.5017 45.6453 20.9041 45.5935 20.3064C45.5416 19.7087 45.4033 19.1029 45.2996 18.4889C44.1623 13.069 40.8851 8.2641 36.1362 5.05377C33.5193 3.25517 30.5234 2.01247 27.3531 1.4105C24.0032 0.787789 20.5492 0.874457 17.2388 1.6643C13.7758 2.47275 10.5682 4.05624 7.88523 6.28184C5.12835 8.53228 2.98199 11.3764 1.62645 14.5754C0.342545 17.6428 -0.19236 20.9454 0.0617561 24.2362C0.296047 27.3471 1.24927 30.3713 2.854 33.0947C5.73117 37.9917 10.4896 41.6509 16.1409 43.3123C18.5399 43.9791 21.0325 44.2939 23.5322 44.2456C27.5122 44.1299 31.3892 43.0199 34.7703 41.028H34.6838L43.2162 45.5228L34.7703 40.897C34.7575 40.889 34.7424 40.8846 34.7271 40.8846C34.7117 40.8846 34.6966 40.889 34.6838 40.897C31.2923 42.8551 27.4166 43.9337 23.4457 44.0245C20.9744 44.0549 18.5122 43.7348 16.1409 43.0748C13.5164 42.2806 11.0651 41.0436 8.9053 39.4234C6.528 37.6551 4.54964 35.4529 3.08741 32.9473C1.51596 30.2597 0.589176 27.2771 0.372967 24.2117C0.133945 20.9709 0.662624 17.7206 1.92037 14.6982C3.25906 11.5421 5.37537 8.73496 8.09269 6.51108C10.7344 4.32017 13.8911 2.7594 17.2993 1.95904C20.564 1.17898 23.97 1.08954 27.2753 1.69705C30.3917 2.29702 33.3382 3.51647 35.92 5.27482C40.6009 8.45216 43.8305 13.1967 44.9538 18.5462C45.0575 19.152 45.1526 19.7497 45.2477 20.3391C45.3428 20.9286 45.3168 21.5263 45.3601 22.1076C45.4062 23.2343 45.3513 24.3627 45.1958 25.4807C44.6718 29.2154 43.1184 32.7536 40.6919 35.7392C40.6761 35.7545 40.6672 35.775 40.6672 35.7965C40.6672 35.8179 40.6761 35.8385 40.6919 35.8538C40.7079 35.8617 40.7257 35.8658 40.7438 35.8658C40.7618 35.8658 40.7796 35.8617 40.7957 35.8538L40.6573 35.8047C42.2998 41.9532 43.0779 44.9579 43.2248 45.5228Z" fill="#263238"/>
<path d="M11.2437 23.7128L14.3384 20.6262L20.2904 25.9233L31.9898 14.666L34.8553 17.7526L19.8565 31.8754L11.2437 23.7128Z" fill="#FF725E"/>
</g>
</svg>
