<svg width="20" height="20" viewBox="0 0 20 20" fill="none" xmlns="http://www.w3.org/2000/svg">
<path d="M10.7391 4.89844H4.25572C2.83072 4.89844 1.66406 6.06509 1.66406 7.49009V16.9568C1.66406 18.1651 2.53073 18.6818 3.58906 18.0901L6.86405 16.2651C7.21405 16.0734 7.78073 16.0734 8.1224 16.2651L11.3974 18.0901C12.4557 18.6818 13.3224 18.1651 13.3224 16.9568V7.49009C13.3307 6.06509 12.1641 4.89844 10.7391 4.89844Z" stroke="#171717" stroke-width="1.5" strokeLinecap="round" strokeLinejoin="round"/>
<path d="M13.3307 7.49009V16.9568C13.3307 18.1651 12.4641 18.6734 11.4057 18.0901L8.13074 16.2651C7.78074 16.0734 7.21405 16.0734 6.86405 16.2651L3.58906 18.0901C2.53073 18.6734 1.66406 18.1651 1.66406 16.9568V7.49009C1.66406 6.06509 2.83072 4.89844 4.25572 4.89844H10.7391C12.1641 4.89844 13.3307 6.06509 13.3307 7.49009Z" stroke="#171717" stroke-width="1.5" strokeLinecap="round" strokeLinejoin="round"/>
<path d="M18.3307 4.25962V13.7263C18.3307 14.9346 17.4641 15.443 16.4057 14.8596L13.3307 13.143V7.49296C13.3307 6.06796 12.1641 4.90131 10.7391 4.90131H6.66406V4.25962C6.66406 2.83462 7.83072 1.66797 9.25572 1.66797H15.7391C17.1641 1.66797 18.3307 2.83462 18.3307 4.25962Z" stroke="#171717" stroke-width="1.5" strokeLinecap="round" strokeLinejoin="round"/>
</svg>
