<svg width="20" height="20" viewBox="0 0 20 20" fill="none" xmlns="http://www.w3.org/2000/svg">
<path d="M17.5 4.98464C14.725 4.70964 11.9333 4.56797 9.15 4.56797C7.5 4.56797 5.85 4.6513 4.2 4.81797L2.5 4.98464M7.08333 4.14297L7.26667 3.0513C7.4 2.25964 7.5 1.66797 8.90833 1.66797H11.0917C12.5 1.66797 12.6083 2.29297 12.7333 3.05964L12.9167 4.14297M15.7083 7.61797L15.1667 16.0096C15.075 17.318 15 18.3346 12.675 18.3346H7.325C5 18.3346 4.925 17.318 4.83333 16.0096L4.29167 7.61797M8.60833 13.7513H11.3833M7.91667 10.418H12.0833" stroke="#171717" stroke-width="1.5" stroke-linecap="round" stroke-linejoin="round"/>
</svg>
