<svg width="20" height="20" viewBox="0 0 20 20" fill="none" xmlns="http://www.w3.org/2000/svg">
<path d="M11.6672 13.468L8.36719 10.168" stroke="#171717" stroke-width="1.5" stroke-miterlimit="10" stroke-linecap="round" stroke-linejoin="round"/>
<path d="M11.6359 10.1992L8.33594 13.4992" stroke="#171717" stroke-width="1.5" stroke-miterlimit="10" stroke-linecap="round" stroke-linejoin="round"/>
<path d="M8.33073 5.0013H11.6641C13.3307 5.0013 13.3307 4.16797 13.3307 3.33464C13.3307 1.66797 12.4974 1.66797 11.6641 1.66797H8.33073C7.4974 1.66797 6.66406 1.66797 6.66406 3.33464C6.66406 5.0013 7.4974 5.0013 8.33073 5.0013Z" stroke="#171717" stroke-width="1.5" stroke-miterlimit="10" stroke-linecap="round" stroke-linejoin="round"/>
<path d="M13.3333 3.35156C16.1083 3.50156 17.5 4.52656 17.5 8.3349V13.3349C17.5 16.6682 16.6667 18.3349 12.5 18.3349H7.5C3.33333 18.3349 2.5 16.6682 2.5 13.3349V8.3349C2.5 4.5349 3.89167 3.50156 6.66667 3.35156" stroke="#292D32" stroke-width="1.5" stroke-miterlimit="10" stroke-linecap="round" stroke-linejoin="round"/>
</svg>
