<svg width="100" height="30" viewBox="0 0 100 30" fill="none" xmlns="http://www.w3.org/2000/svg">
<path d="M70.4459 28.2384C69.7233 28.2384 69.0641 28.0708 68.4682 27.7356C67.8723 27.3929 67.3992 26.9199 67.0491 26.3165C66.7065 25.7057 66.5352 25.0204 66.5352 24.2606C66.5352 23.5008 66.7065 22.8192 67.0491 22.2158C67.3992 21.605 67.8723 21.132 68.4682 20.7968C69.0641 20.4541 69.7233 20.2828 70.4459 20.2828C71.1759 20.2828 71.8389 20.4541 72.4348 20.7968C73.0307 21.132 73.5 21.6013 73.8427 22.2046C74.1853 22.808 74.3566 23.4933 74.3566 24.2606C74.3566 25.0278 74.1853 25.7131 73.8427 26.3165C73.5 26.9199 73.0307 27.3929 72.4348 27.7356C71.8389 28.0708 71.1759 28.2384 70.4459 28.2384ZM70.4459 27.3557C70.9897 27.3557 71.4776 27.229 71.9096 26.9758C72.3491 26.7225 72.6918 26.3612 72.9376 25.8919C73.1909 25.4226 73.3175 24.8789 73.3175 24.2606C73.3175 23.6349 73.1909 23.0911 72.9376 22.6292C72.6918 22.16 72.3529 21.7987 71.9208 21.5454C71.4888 21.2921 70.9971 21.1655 70.4459 21.1655C69.8947 21.1655 69.403 21.2921 68.971 21.5454C68.5389 21.7987 68.1963 22.16 67.943 22.6292C67.6972 23.0911 67.5743 23.6349 67.5743 24.2606C67.5743 24.8789 67.6972 25.4226 67.943 25.8919C68.1963 26.3612 68.5389 26.7225 68.971 26.9758C69.4105 27.229 69.9021 27.3557 70.4459 27.3557ZM78.1907 22.8751H76.9057V28.1602H75.8889V22.8751H75.0956V22.037H75.8889V21.6013C75.8889 20.916 76.064 20.4169 76.4141 20.104C76.7716 19.7837 77.3415 19.6236 78.1236 19.6236V20.4727C77.6767 20.4727 77.3601 20.5621 77.1739 20.7409C76.9951 20.9122 76.9057 21.199 76.9057 21.6013V22.037H78.1907V22.8751ZM81.8679 22.8751H80.5829V28.1602H79.5661V22.8751H78.7728V22.037H79.5661V21.6013C79.5661 20.916 79.7412 20.4169 80.0913 20.104C80.4489 19.7837 81.0187 19.6236 81.8009 19.6236V20.4727C81.3539 20.4727 81.0373 20.5621 80.8511 20.7409C80.6723 20.9122 80.5829 21.199 80.5829 21.6013V22.037H81.8679V22.8751ZM83.5786 21.0426C83.3849 21.0426 83.221 20.9756 83.087 20.8415C82.9529 20.7074 82.8858 20.5435 82.8858 20.3498C82.8858 20.1562 82.9529 19.9923 83.087 19.8582C83.221 19.7241 83.3849 19.6571 83.5786 19.6571C83.7648 19.6571 83.9212 19.7241 84.0479 19.8582C84.182 19.9923 84.249 20.1562 84.249 20.3498C84.249 20.5435 84.182 20.7074 84.0479 20.8415C83.9212 20.9756 83.7648 21.0426 83.5786 21.0426ZM84.0702 22.037V28.1602H83.0534V22.037H84.0702ZM85.4233 25.0874C85.4233 24.4543 85.5499 23.903 85.8032 23.4337C86.0564 22.957 86.4066 22.5883 86.8535 22.3276C87.3079 22.0668 87.8256 21.9365 88.4066 21.9365C89.159 21.9365 89.7772 22.119 90.2614 22.484C90.7531 22.849 91.0771 23.3555 91.2335 24.0036H90.1385C90.0342 23.6311 89.8294 23.3369 89.524 23.1209C89.226 22.9049 88.8536 22.7968 88.4066 22.7968C87.8256 22.7968 87.3563 22.998 86.9987 23.4002C86.6412 23.795 86.4624 24.3574 86.4624 25.0874C86.4624 25.8249 86.6412 26.3947 86.9987 26.797C87.3563 27.1992 87.8256 27.4004 88.4066 27.4004C88.8536 27.4004 89.226 27.2961 89.524 27.0875C89.8219 26.8789 90.0268 26.581 90.1385 26.1936H91.2335C91.0697 26.8193 90.7419 27.3221 90.2503 27.702C89.7586 28.0745 89.1441 28.2607 88.4066 28.2607C87.8256 28.2607 87.3079 28.1304 86.8535 27.8696C86.4066 27.6089 86.0564 27.2402 85.8032 26.7635C85.5499 26.2867 85.4233 25.728 85.4233 25.0874ZM98.177 24.864C98.177 25.0576 98.1659 25.2625 98.1435 25.4785H93.2495C93.2867 26.0819 93.4916 26.5549 93.864 26.8975C94.2439 27.2328 94.702 27.4004 95.2384 27.4004C95.6779 27.4004 96.0429 27.2998 96.3334 27.0987C96.6314 26.8901 96.8399 26.6145 96.9591 26.2718H98.0541C97.8902 26.8603 97.5625 27.3408 97.0708 27.7132C96.5792 28.0782 95.9684 28.2607 95.2384 28.2607C94.6574 28.2607 94.1359 28.1304 93.6741 27.8696C93.2197 27.6089 92.8621 27.2402 92.6014 26.7635C92.3407 26.2793 92.2103 25.7206 92.2103 25.0874C92.2103 24.4543 92.337 23.8993 92.5902 23.4226C92.8435 22.9458 93.1973 22.5808 93.6517 22.3276C94.1136 22.0668 94.6425 21.9365 95.2384 21.9365C95.8194 21.9365 96.3334 22.0631 96.7803 22.3164C97.2273 22.5696 97.5699 22.9198 97.8083 23.3667C98.0541 23.8062 98.177 24.3053 98.177 24.864ZM97.1267 24.6517C97.1267 24.2643 97.041 23.9328 96.8697 23.6572C96.6984 23.3741 96.4637 23.1618 96.1658 23.0203C95.8753 22.8713 95.5512 22.7968 95.1937 22.7968C94.6797 22.7968 94.2402 22.9607 93.8752 23.2885C93.5177 23.6162 93.3128 24.0706 93.2607 24.6517H97.1267Z" fill="#42936C"/>
<path fill-rule="evenodd" clip-rule="evenodd" d="M31.3115 12.9179C29.2719 12.9179 27.6741 11.3093 27.6741 9.25602C27.6741 7.20253 29.2719 5.59411 31.3115 5.59411C33.3395 5.59411 34.9281 7.20253 34.9281 9.25602C34.9281 11.3093 33.3395 12.9179 31.3115 12.9179ZM34.9281 4.2545C33.904 3.44908 32.6175 3 31.2279 3C27.7467 3 25.0195 5.74769 25.0195 9.25602C25.0195 12.7642 27.7467 15.5124 31.2279 15.5124C32.6175 15.5124 33.904 15.0634 34.9281 14.2577V15.2822H37.5824V3.23026H34.9281V4.2545Z" fill="#111111"/>
<path fill-rule="evenodd" clip-rule="evenodd" d="M47.39 9.05865C47.39 11.1117 46.3546 12.2887 44.5494 12.2887C42.5826 12.2887 42.2892 10.8559 42.2892 10.0016V3H39.6562V10.0016C39.6562 12.8573 41.5892 14.7764 44.4665 14.7764C45.6057 14.7764 46.5904 14.4923 47.39 13.9424V14.5556H50.0021V3H47.39V9.05865Z" fill="#111111"/>
<path fill-rule="evenodd" clip-rule="evenodd" d="M60.8845 4.70073V3H51.6989V5.55521H57.0494L51.4883 13.0749V14.7764H61.0952V12.2212H55.3412L60.8845 4.70073Z" fill="#111111"/>
<path fill-rule="evenodd" clip-rule="evenodd" d="M74.3121 3C72.9703 3 71.7928 3.49988 70.9398 4.40418C70.1772 3.4995 69.0422 3 67.6815 3C66.7283 3 65.8723 3.24927 65.1566 3.72278V3.22078H62.5703V14.7764H65.1566V8.41672C65.1566 6.555 66.0321 5.48729 67.5584 5.48729C69.0855 5.48729 69.4062 6.66587 69.4062 7.65448V14.7764H71.9923V8.41672C71.9923 6.52748 72.8088 5.48729 74.2916 5.48729C75.5493 5.48729 76.2418 6.25684 76.2418 7.65448V14.7764H78.8281V7.65448C78.8281 4.82707 77.0554 3 74.3121 3Z" fill="#111111"/>
<path fill-rule="evenodd" clip-rule="evenodd" d="M86.5888 12.9179C84.5492 12.9179 82.9514 11.3093 82.9514 9.25602C82.9514 7.20253 84.5492 5.59411 86.5888 5.59411C88.6166 5.59411 90.2052 7.20253 90.2052 9.25602C90.2052 11.3093 88.6166 12.9179 86.5888 12.9179ZM86.5888 3C83.0607 3 80.2969 5.74769 80.2969 9.25602C80.2969 12.7642 83.0607 15.5124 86.5888 15.5124C90.1051 15.5124 92.8597 12.7642 92.8597 9.25602C92.8597 5.74769 90.1051 3 86.5888 3Z" fill="#111111"/>
<mask id="mask0_62_432" style="mask-type:alpha" maskUnits="userSpaceOnUse" x="93" y="3" width="7" height="12">
<path d="M93.6993 3.02344H99.8462V14.9666H93.6993V3.02344Z" fill="white"/>
</mask>
<g mask="url(#mask0_62_432)">
<path fill-rule="evenodd" clip-rule="evenodd" d="M99.4319 3.02344C98.3687 3.02344 97.4589 3.27581 96.7254 3.76602V3.16672H94.0821V14.9666H96.7254V8.49292C96.7254 5.84869 98.6181 5.5633 99.4319 5.5633H100.229V3.02344H99.4319Z" fill="#111111"/>
</g>
<mask id="mask1_62_432" style="mask-type:alpha" maskUnits="userSpaceOnUse" x="9" y="0" width="11" height="20">
<path d="M9.85938 0H19.7185V19.38H9.85938V0Z" fill="white"/>
</mask>
<g mask="url(#mask1_62_432)">
<path fill-rule="evenodd" clip-rule="evenodd" d="M19.7185 19.38L9.85938 9.69002L19.7185 0V19.38Z" fill="#FF6F3A"/>
</g>
<path fill-rule="evenodd" clip-rule="evenodd" d="M19.7263 19.3814L9.86719 9.69141H19.7263V19.3814Z" fill="#DC194E"/>
<path fill-rule="evenodd" clip-rule="evenodd" d="M0 0L9.8591 9.69002L19.7182 0H0Z" fill="#FFAA26"/>
<path fill-rule="evenodd" clip-rule="evenodd" d="M0 0L9.8591 9.69002V0H0Z" fill="#FF953D"/>
<path fill-rule="evenodd" clip-rule="evenodd" d="M6.42578 13.0665H13.2937L9.85974 9.69141L6.42578 13.0665Z" fill="#780045"/>
<path fill-rule="evenodd" clip-rule="evenodd" d="M6.42578 13.0665H11.4065L9.85974 9.69141L6.42578 13.0665Z" fill="#9E0053"/>
<path fill-rule="evenodd" clip-rule="evenodd" d="M6.42578 13.0665L9.85974 9.69147L6.42578 6.31641V13.0665Z" fill="#780045"/>
<path fill-rule="evenodd" clip-rule="evenodd" d="M6.42578 13.0671L9.85974 9.69204L6.42578 8.5V13.0671Z" fill="#BD0B46"/>
</svg>
